<svg width="12602" height="218" viewBox="0 0 12602 218" fill="none" xmlns="http://www.w3.org/2000/svg">
<g clip-path="url(#clip0_1381_923)">
<g clip-path="url(#clip1_1381_923)">
<rect width="381.876" height="218" transform="translate(10692.5)" fill="white"/>
<path d="M10679 -15.0342C10679 -15.0342 10750 110.479 10813.8 81.7374C10859 61.3459 10848.6 192.459 10799.3 198.906C10758 204.324 10734.2 165.059 10723.5 124.791C10704.9 55.1442 10817.4 28.1263 10889.4 30.9221C10966.7 33.9186 11046.8 109.893 11017.7 181.484C10996.9 233 10947.8 252.705 10892.3 248.964C10797.6 242.575 10939 -8.49277 11028.4 23.564C11051.4 31.8133 11095.8 81.705 11095.8 81.705" stroke="black" stroke-width="7.84403"/>
<circle cx="11018.8" cy="151.848" r="21.0483" fill="#F5DA24"/>
<circle cx="11004.5" cy="199.958" r="21.0483" fill="#F5DA24"/>
</g>
<g clip-path="url(#clip2_1381_923)">
<rect width="381.876" height="218" transform="translate(11074.4)" fill="white"/>
<path d="M11060.9 -15.0342C11060.9 -15.0342 11131.9 110.479 11195.6 81.7374C11240.9 61.3459 11230.4 192.459 11181.2 198.906C11139.9 204.324 11116 165.059 11105.3 124.791C11086.8 55.1442 11199.3 28.1263 11271.3 30.9221C11348.5 33.9186 11428.6 109.893 11399.6 181.484C11378.7 233 11329.7 252.705 11274.2 248.964C11179.4 242.575 11320.8 -8.49277 11410.2 23.564C11433.2 31.8133 11477.7 81.705 11477.7 81.705" stroke="black" stroke-width="7.84403"/>
<circle cx="11399.1" cy="171.393" r="21.0483" fill="#F5DA24"/>
<circle cx="11374.3" cy="221.759" r="21.0483" fill="#F5DA24"/>
</g>
<g clip-path="url(#clip3_1381_923)">
<rect width="381.876" height="218" transform="translate(11456.3)" fill="white"/>
<path d="M11442.7 -15.0342C11442.7 -15.0342 11513.7 110.479 11577.5 81.7374C11622.7 61.3459 11612.3 192.459 11563.1 198.906C11521.8 204.324 11497.9 165.059 11487.2 124.791C11468.7 55.1442 11581.1 28.1263 11653.2 30.9221C11730.4 33.9186 11810.5 109.893 11781.5 181.484C11760.6 233 11711.6 252.705 11656.1 248.964C11561.3 242.575 11702.7 -8.49277 11792.1 23.564C11815.1 31.8133 11859.5 81.705 11859.5 81.705" stroke="black" stroke-width="7.84403"/>
<circle cx="11770.5" cy="196.952" r="21.0483" fill="#F5DA24"/>
</g>
<g clip-path="url(#clip4_1381_923)">
<rect width="381.876" height="218" transform="translate(11838.2)" fill="white"/>
<path d="M11824.6 -15.0342C11824.6 -15.0342 11895.6 110.479 11959.4 81.7374C12004.6 61.3459 11994.2 192.459 11945 198.906C11903.6 204.324 11879.8 165.059 11869.1 124.791C11850.6 55.1442 11963 28.1263 12035.1 30.9221C12112.3 33.9186 12192.4 109.893 12163.4 181.484C12142.5 233 12093.5 252.705 12038 248.964C11943.2 242.575 12084.6 -8.49277 12174 23.564C12197 31.8133 12241.4 81.705 12241.4 81.705" stroke="black" stroke-width="7.84403"/>
<circle cx="12135.8" cy="224.766" r="21.0483" fill="#F5DA24"/>
</g>
<g clip-path="url(#clip5_1381_923)">
<rect width="381.876" height="218" transform="translate(9165.02)" fill="white"/>
<path d="M9151.49 -15.0342C9151.49 -15.0342 9222.49 110.479 9286.25 81.7374C9331.49 61.3459 9321.05 192.459 9271.84 198.906C9230.5 204.324 9206.65 165.059 9195.95 124.791C9177.44 55.1442 9289.87 28.1263 9361.93 30.9221C9439.17 33.9186 9519.27 109.893 9490.24 181.484C9469.35 233 9420.32 252.705 9364.83 248.964C9270.05 242.575 9411.45 -8.49277 9500.86 23.564C9523.86 31.8133 9568.29 81.705 9568.29 81.705" stroke="black" stroke-width="7.84403"/>
<circle cx="9455.19" cy="72.1655" r="21.0483" fill="#F5DA24"/>
<circle cx="9483" cy="114.262" r="21.0483" fill="#F5DA24"/>
<circle cx="9492.4" cy="159.741" r="15.4103" fill="#F5DA24"/>
<circle cx="9476.61" cy="207.851" r="21.4241" fill="#F5DA24"/>
</g>
<g clip-path="url(#clip6_1381_923)">
<rect width="381.876" height="218" transform="translate(9546.9)" fill="white"/>
<path d="M9533.37 -15.0342C9533.37 -15.0342 9604.36 110.479 9668.13 81.7374C9713.37 61.3459 9702.92 192.459 9653.72 198.906C9612.38 204.324 9588.53 165.059 9577.83 124.791C9559.32 55.1442 9671.75 28.1263 9743.81 30.9221C9821.04 33.9186 9901.14 109.893 9872.11 181.484C9851.23 233 9802.2 252.705 9746.71 248.964C9651.93 242.575 9793.33 -8.49277 9882.73 23.564C9905.74 31.8133 9950.17 81.705 9950.17 81.705" stroke="black" stroke-width="7.84403"/>
<circle cx="9852.85" cy="87.9516" r="21.0483" fill="#F5DA24"/>
<circle cx="9873.9" cy="136.062" r="21.0483" fill="#F5DA24"/>
<circle cx="9873.52" cy="184.548" r="15.4103" fill="#F5DA24"/>
<circle cx="9847.21" cy="228.148" r="21.4241" fill="#F5DA24"/>
</g>
<g clip-path="url(#clip7_1381_923)">
<rect width="381.876" height="218" transform="translate(9928.77)" fill="white"/>
<path d="M9915.24 -15.0342C9915.24 -15.0342 9986.24 110.479 10050 81.7374C10095.2 61.3459 10084.8 192.459 10035.6 198.906C9994.25 204.324 9970.4 165.059 9959.7 124.791C9941.19 55.1442 10053.6 28.1263 10125.7 30.9221C10202.9 33.9186 10283 109.893 10254 181.484C10233.1 233 10184.1 252.705 10128.6 248.964C10033.8 242.575 10175.2 -8.49277 10264.6 23.564C10287.6 31.8133 10332 81.705 10332 81.705" stroke="black" stroke-width="7.84403"/>
<circle cx="10249" cy="120.276" r="21.0483" fill="#F5DA24"/>
<circle cx="10255.8" cy="169.138" r="21.0483" fill="#F5DA24"/>
<circle cx="10240.4" cy="205.597" r="15.4103" fill="#F5DA24"/>
</g>
<g clip-path="url(#clip8_1381_923)">
<rect width="381.876" height="218" transform="translate(12220)" fill="white"/>
<path d="M12206.5 -15.0342C12206.5 -15.0342 12277.5 110.479 12341.3 81.7374C12386.5 61.3459 12376.1 192.459 12326.8 198.906C12285.5 204.324 12261.7 165.059 12251 124.791C12232.4 55.1442 12344.9 28.1263 12416.9 30.9221C12494.2 33.9186 12574.3 109.893 12545.2 181.484C12524.4 233 12475.3 252.705 12419.8 248.964C12325.1 242.575 12466.5 -8.49277 12555.9 23.564C12578.9 31.8133 12623.3 81.705 12623.3 81.705" stroke="black" stroke-width="7.84403"/>
</g>
<g clip-path="url(#clip9_1381_923)">
<rect width="381.876" height="218" transform="translate(10310.6)" fill="white"/>
<path d="M10297.1 -15.0342C10297.1 -15.0342 10368.1 110.479 10431.9 81.7374C10477.1 61.3459 10466.7 192.459 10417.5 198.906C10376.1 204.324 10352.3 165.059 10341.6 124.791C10323.1 55.1442 10435.5 28.1263 10507.6 30.9221C10584.8 33.9186 10664.9 109.893 10635.9 181.484C10615 233 10565.9 252.705 10510.5 248.964C10415.7 242.575 10557.1 -8.49277 10646.5 23.564C10669.5 31.8133 10713.9 81.705 10713.9 81.705" stroke="black" stroke-width="7.84403"/>
<circle cx="10630.9" cy="133.807" r="21.0483" fill="#F5DA24"/>
<circle cx="10630.9" cy="181.165" r="21.0483" fill="#F5DA24"/>
<circle cx="10609.5" cy="217.624" r="15.4103" fill="#F5DA24"/>
</g>
<g clip-path="url(#clip10_1381_923)">
<rect width="381.876" height="218" transform="translate(6110.01)" fill="white"/>
<path d="M6096.48 -15.0342C6096.48 -15.0342 6167.48 110.479 6231.25 81.7374C6276.49 61.3459 6266.04 192.459 6216.84 198.906C6175.49 204.324 6151.64 165.059 6140.94 124.791C6122.43 55.1442 6234.87 28.1263 6306.93 30.9221C6384.16 33.9186 6464.26 109.893 6435.23 181.484C6414.34 233 6365.31 252.705 6309.82 248.964C6215.05 242.575 6356.45 -8.49277 6445.85 23.564C6468.86 31.8133 6513.29 81.705 6513.29 81.705" stroke="black" stroke-width="7.84403"/>
<circle cx="6146.85" cy="88.7036" r="21.0483" fill="#F5DA24"/>
<circle cx="6218.26" cy="42.0961" r="21.0483" fill="#F5DA24"/>
<circle cx="6290.05" cy="36.4582" r="15.4103" fill="#F5DA24"/>
<circle cx="6353.95" cy="36.4583" r="21.4241" fill="#F5DA24"/>
<circle cx="6406.94" cy="71.4141" r="15.7862" fill="#F5DA24"/>
<circle cx="6486.63" cy="51.8692" r="15.7862" fill="#F5DA24"/>
</g>
<g clip-path="url(#clip11_1381_923)">
<rect width="381.876" height="218" transform="translate(6491.89)" fill="white"/>
<path d="M6478.36 -15.0342C6478.36 -15.0342 6549.36 110.479 6613.12 81.7374C6658.36 61.3459 6647.92 192.459 6598.71 198.906C6557.37 204.324 6533.52 165.059 6522.82 124.791C6504.31 55.1442 6616.74 28.1263 6688.8 30.9221C6766.04 33.9186 6846.13 109.893 6817.11 181.484C6796.22 233 6747.19 252.705 6691.7 248.964C6596.92 242.575 6738.32 -8.49277 6827.73 23.564C6850.73 31.8133 6895.16 81.705 6895.16 81.705" stroke="black" stroke-width="7.84403"/>
<circle cx="6549.02" cy="63.145" r="21.0483" fill="#F5DA24"/>
<circle cx="6639.23" cy="31.5727" r="21.0483" fill="#F5DA24"/>
<circle cx="6702" cy="36.4582" r="15.4103" fill="#F5DA24"/>
<circle cx="6765.14" cy="52.2444" r="21.4241" fill="#F5DA24"/>
<circle cx="6802.35" cy="88.7032" r="15.7862" fill="#F5DA24"/>
<circle cx="6882.03" cy="57.8829" r="15.7862" fill="#F5DA24"/>
</g>
<g clip-path="url(#clip12_1381_923)">
<rect width="381.876" height="218" transform="translate(6873.77)" fill="white"/>
<path d="M6860.23 -15.0342C6860.23 -15.0342 6931.23 110.479 6995 81.7374C7040.24 61.3459 7029.79 192.459 6980.59 198.906C6939.24 204.324 6915.4 165.059 6904.69 124.791C6886.19 55.1442 6998.62 28.1263 7070.68 30.9221C7147.91 33.9186 7228.01 109.893 7198.98 181.484C7178.1 233 7129.07 252.705 7073.57 248.964C6978.8 242.575 7120.2 -8.49277 7209.6 23.564C7232.61 31.8133 7277.04 81.705 7277.04 81.705" stroke="black" stroke-width="7.84403"/>
<circle cx="6969.23" cy="42.0961" r="21.0483" fill="#F5DA24"/>
<circle cx="7058.69" cy="30.8207" r="21.0483" fill="#F5DA24"/>
<circle cx="7120.71" cy="41.7199" r="15.4103" fill="#F5DA24"/>
<circle cx="7168.82" cy="73.2923" r="21.4241" fill="#F5DA24"/>
<circle cx="7199.26" cy="117.27" r="15.7862" fill="#F5DA24"/>
</g>
<g clip-path="url(#clip13_1381_923)">
<rect width="381.876" height="218" transform="translate(7255.64)" fill="white"/>
<path d="M7242.11 -15.0342C7242.11 -15.0342 7313.11 110.479 7376.87 81.7374C7422.11 61.3459 7411.67 192.459 7362.46 198.906C7321.12 204.324 7297.27 165.059 7286.57 124.791C7268.06 55.1442 7380.49 28.1263 7452.55 30.9221C7529.79 33.9186 7609.89 109.893 7580.86 181.484C7559.97 233 7510.94 252.705 7455.45 248.964C7360.67 242.575 7502.07 -8.49277 7591.48 23.564C7614.49 31.8133 7658.91 81.705 7658.91 81.705" stroke="black" stroke-width="7.84403"/>
<circle cx="7421.77" cy="35.3305" r="21.0483" fill="#F5DA24"/>
<circle cx="7482.66" cy="32.3246" r="21.0483" fill="#F5DA24"/>
<circle cx="7524.38" cy="47.7346" r="15.4103" fill="#F5DA24"/>
<circle cx="7565.73" cy="94.3411" r="21.4241" fill="#F5DA24"/>
<circle cx="7581.89" cy="151.096" r="15.7862" fill="#F5DA24"/>
</g>
<g clip-path="url(#clip14_1381_923)">
<rect width="381.876" height="218" transform="translate(4582.51)" fill="white"/>
<path d="M4568.98 -15.0342C4568.98 -15.0342 4639.98 110.479 4703.74 81.7374C4748.98 61.3459 4738.54 192.459 4689.33 198.906C4647.99 204.324 4624.14 165.059 4613.44 124.791C4594.93 55.1442 4707.36 28.1263 4779.42 30.9221C4856.66 33.9186 4936.76 109.893 4907.73 181.484C4886.84 233 4837.81 252.705 4782.32 248.964C4687.54 242.575 4828.94 -8.49277 4918.35 23.564C4941.35 31.8133 4985.78 81.705 4985.78 81.705" stroke="black" stroke-width="7.84403"/>
<circle cx="4665.95" cy="184.172" r="21.0483" fill="#F5DA24"/>
<circle cx="4618.59" cy="130.799" r="21.0483" fill="#F5DA24"/>
<circle cx="4639.27" cy="65.7766" r="15.4103" fill="#F5DA24"/>
<circle cx="4712.93" cy="34.9554" r="21.4241" fill="#F5DA24"/>
<circle cx="4773.45" cy="34.5792" r="15.7862" fill="#F5DA24"/>
<circle cx="4898.99" cy="23.3028" r="15.7862" fill="#F5DA24"/>
<circle cx="4912.89" cy="151.472" r="23.6793" fill="#F5DA24"/>
<circle cx="4942.96" cy="38.7134" r="17.6655" fill="#F5DA24"/>
<circle cx="4891.09" cy="217.624" r="17.6655" fill="#F5DA24"/>
</g>
<g clip-path="url(#clip15_1381_923)">
<rect width="381.876" height="218" transform="translate(4964.39)" fill="white"/>
<path d="M4950.85 -15.0342C4950.85 -15.0342 5021.85 110.479 5085.62 81.7374C5130.86 61.3459 5120.41 192.459 5071.21 198.906C5029.87 204.324 5006.02 165.059 4995.32 124.791C4976.81 55.1442 5089.24 28.1263 5161.3 30.9221C5238.53 33.9186 5318.63 109.893 5289.6 181.484C5268.72 233 5219.69 252.705 5164.19 248.964C5069.42 242.575 5210.82 -8.49277 5300.22 23.564C5323.23 31.8133 5367.66 81.705 5367.66 81.705" stroke="black" stroke-width="7.84403"/>
<circle cx="5016.25" cy="170.641" r="21.0483" fill="#F5DA24"/>
<circle cx="5000.47" cy="101.483" r="21.0483" fill="#F5DA24"/>
<circle cx="5036.93" cy="57.507" r="15.4103" fill="#F5DA24"/>
<circle cx="5118.11" cy="34.2034" r="21.4241" fill="#F5DA24"/>
<circle cx="5178.63" cy="34.5792" r="15.7862" fill="#F5DA24"/>
<circle cx="5301.91" cy="23.3028" r="15.7862" fill="#F5DA24"/>
<circle cx="5289.51" cy="178.535" r="23.6793" fill="#F5DA24"/>
<circle cx="5339.87" cy="46.9829" r="17.6655" fill="#F5DA24"/>
</g>
<g clip-path="url(#clip16_1381_923)">
<rect width="381.876" height="218" transform="translate(5346.26)" fill="white"/>
<path d="M5332.73 -15.0342C5332.73 -15.0342 5403.73 110.479 5467.49 81.7374C5512.73 61.3459 5502.29 192.459 5453.08 198.906C5411.74 204.324 5387.89 165.059 5377.19 124.791C5358.68 55.1442 5471.11 28.1263 5543.18 30.9221C5620.41 33.9186 5700.51 109.893 5671.48 181.484C5650.59 233 5601.56 252.705 5546.07 248.964C5451.29 242.575 5592.69 -8.49277 5682.1 23.564C5705.11 31.8133 5749.54 81.705 5749.54 81.705" stroke="black" stroke-width="7.84403"/>
<circle cx="5392.12" cy="148.841" r="21.0483" fill="#F5DA24"/>
<circle cx="5398.13" cy="68.4067" r="21.0483" fill="#F5DA24"/>
<circle cx="5467.67" cy="40.218" r="15.4103" fill="#F5DA24"/>
<circle cx="5527.05" cy="34.2034" r="21.4241" fill="#F5DA24"/>
<circle cx="5586.81" cy="39.8409" r="15.7862" fill="#F5DA24"/>
<circle cx="5695.06" cy="28.5655" r="15.7862" fill="#F5DA24"/>
<circle cx="5662.36" cy="212.362" r="23.6793" fill="#F5DA24"/>
<circle cx="5733.02" cy="56.7554" r="17.6655" fill="#F5DA24"/>
</g>
<g clip-path="url(#clip17_1381_923)">
<rect width="381.876" height="218" transform="translate(5728.14)" fill="white"/>
<path d="M5714.61 -15.0342C5714.61 -15.0342 5785.6 110.479 5849.37 81.7374C5894.61 61.3459 5884.16 192.459 5834.96 198.906C5793.62 204.324 5769.77 165.059 5759.07 124.791C5740.56 55.1442 5852.99 28.1263 5925.05 30.9221C6002.28 33.9186 6082.38 109.893 6053.36 181.484C6032.47 233 5983.44 252.705 5927.95 248.964C5833.17 242.575 5974.57 -8.49277 6063.97 23.564C6086.98 31.8133 6131.41 81.705 6131.41 81.705" stroke="black" stroke-width="7.84403"/>
<circle cx="5764.22" cy="126.289" r="21.0483" fill="#F5DA24"/>
<circle cx="5800.3" cy="53.3725" r="21.0483" fill="#F5DA24"/>
<circle cx="5872.09" cy="36.4582" r="15.4103" fill="#F5DA24"/>
<circle cx="5944.26" cy="34.2034" r="21.4241" fill="#F5DA24"/>
<circle cx="6004.77" cy="58.6348" r="15.7862" fill="#F5DA24"/>
<circle cx="6094.23" cy="39.8409" r="15.7862" fill="#F5DA24"/>
<circle cx="6031.46" cy="225.141" r="23.6793" fill="#F5DA24"/>
</g>
<g clip-path="url(#clip18_1381_923)">
<rect width="381.876" height="218" transform="translate(3055.01)" fill="white"/>
<path d="M3041.48 -15.0342C3041.48 -15.0342 3112.47 110.479 3176.24 81.7374C3221.48 61.3459 3211.03 192.459 3161.83 198.906C3120.49 204.324 3096.64 165.059 3085.94 124.791C3067.43 55.1442 3179.86 28.1263 3251.92 30.9221C3329.15 33.9186 3409.25 109.893 3380.22 181.484C3359.34 233 3310.31 252.705 3254.82 248.964C3160.04 242.575 3301.44 -8.49277 3390.84 23.564C3413.85 31.8133 3458.28 81.705 3458.28 81.705" stroke="black" stroke-width="7.84403"/>
<circle cx="3200.84" cy="134.559" r="21.0483" fill="#F5DA24"/>
<circle cx="3137.7" cy="189.435" r="21.0483" fill="#F5DA24"/>
<circle cx="3095.98" cy="146.962" r="15.4103" fill="#F5DA24"/>
<circle cx="3095.98" cy="80.0579" r="21.4241" fill="#F5DA24"/>
<circle cx="3158.74" cy="42.8487" r="15.7862" fill="#F5DA24"/>
<circle cx="3300.82" cy="36.8341" r="15.7862" fill="#F5DA24"/>
<circle cx="3362.84" cy="92.8385" r="23.6793" fill="#F5DA24"/>
<circle cx="3347.05" cy="31.1968" r="17.6655" fill="#F5DA24"/>
<circle cx="3382.38" cy="155.231" r="17.6655" fill="#F5DA24"/>
<circle cx="3362.46" cy="207.475" r="23.3034" fill="#F5DA24"/>
</g>
<g clip-path="url(#clip19_1381_923)">
<rect width="381.876" height="218" transform="translate(3436.88)" fill="white"/>
<path d="M3423.35 -15.0342C3423.35 -15.0342 3494.35 110.479 3558.11 81.7374C3603.35 61.3459 3592.91 192.459 3543.7 198.906C3502.36 204.324 3478.51 165.059 3467.81 124.791C3449.3 55.1442 3561.74 28.1263 3633.8 30.9221C3711.03 33.9186 3791.13 109.893 3762.1 181.484C3741.21 233 3692.18 252.705 3636.69 248.964C3541.92 242.575 3683.31 -8.49277 3772.72 23.564C3795.73 31.8133 3840.16 81.705 3840.16 81.705" stroke="black" stroke-width="7.84403"/>
<circle cx="3577.46" cy="149.593" r="21.0483" fill="#F5DA24"/>
<circle cx="3503.03" cy="183.42" r="21.0483" fill="#F5DA24"/>
<circle cx="3468.83" cy="128.169" r="15.4103" fill="#F5DA24"/>
<circle cx="3494.39" cy="58.2591" r="21.4241" fill="#F5DA24"/>
<circle cx="3561.67" cy="36.8341" r="15.7862" fill="#F5DA24"/>
<circle cx="3699.23" cy="48.8614" r="15.7862" fill="#F5DA24"/>
<circle cx="3755.99" cy="104.866" r="23.6793" fill="#F5DA24"/>
<circle cx="3746.97" cy="20.6724" r="17.6655" fill="#F5DA24"/>
<circle cx="3764.26" cy="173.272" r="17.6655" fill="#F5DA24"/>
<circle cx="3734.57" cy="227.021" r="23.3034" fill="#F5DA24"/>
</g>
<g clip-path="url(#clip20_1381_923)">
<rect width="381.876" height="218" transform="translate(3818.76)" fill="white"/>
<path d="M3805.23 -15.0342C3805.23 -15.0342 3876.22 110.479 3939.99 81.7374C3985.23 61.3459 3974.79 192.459 3925.58 198.906C3884.24 204.324 3860.39 165.059 3849.69 124.791C3831.18 55.1442 3943.61 28.1263 4015.67 30.9221C4092.9 33.9186 4173 109.893 4143.98 181.484C4123.09 233 4074.06 252.705 4018.57 248.964C3923.79 242.575 4065.19 -8.49277 4154.6 23.564C4177.6 31.8133 4222.03 81.705 4222.03 81.705" stroke="black" stroke-width="7.84403"/>
<circle cx="3947.3" cy="175.152" r="21.0483" fill="#F5DA24"/>
<circle cx="3874.39" cy="170.641" r="21.0483" fill="#F5DA24"/>
<circle cx="3848.45" cy="101.859" r="15.4103" fill="#F5DA24"/>
<circle cx="3905.58" cy="42.472" r="21.4241" fill="#F5DA24"/>
<circle cx="3968.35" cy="36.8341" r="15.7862" fill="#F5DA24"/>
<circle cx="4096.9" cy="36.8341" r="15.7862" fill="#F5DA24"/>
<circle cx="4141.62" cy="116.893" r="23.6793" fill="#F5DA24"/>
<circle cx="4150.64" cy="20.6724" r="17.6655" fill="#F5DA24"/>
<circle cx="4141.62" cy="186.052" r="17.6655" fill="#F5DA24"/>
<circle cx="4109.68" cy="233.787" r="23.3034" fill="#F5DA24"/>
</g>
<g clip-path="url(#clip21_1381_923)">
<rect width="381.876" height="218" transform="translate(4200.63)" fill="white"/>
<path d="M4187.1 -15.0342C4187.1 -15.0342 4258.1 110.479 4321.87 81.7374C4367.11 61.3459 4356.66 192.459 4307.46 198.906C4266.11 204.324 4242.26 165.059 4231.56 124.791C4213.05 55.1442 4325.49 28.1263 4397.55 30.9221C4474.78 33.9186 4554.88 109.893 4525.85 181.484C4504.96 233 4455.93 252.705 4400.44 248.964C4305.67 242.575 4447.07 -8.49277 4536.47 23.564C4559.48 31.8133 4603.91 81.705 4603.91 81.705" stroke="black" stroke-width="7.84403"/>
<circle cx="4313.39" cy="187.931" r="21.0483" fill="#F5DA24"/>
<circle cx="4241.98" cy="154.103" r="21.0483" fill="#F5DA24"/>
<circle cx="4236.34" cy="79.3068" r="15.4103" fill="#F5DA24"/>
<circle cx="4300.99" cy="40.2171" r="21.4241" fill="#F5DA24"/>
<circle cx="4370.52" cy="34.5792" r="15.7862" fill="#F5DA24"/>
<circle cx="4493.81" cy="29.3175" r="15.7862" fill="#F5DA24"/>
<circle cx="4526.51" cy="135.686" r="23.6793" fill="#F5DA24"/>
<circle cx="4549.81" cy="22.1763" r="17.6655" fill="#F5DA24"/>
<circle cx="4517.49" cy="200.334" r="17.6655" fill="#F5DA24"/>
</g>
<g clip-path="url(#clip22_1381_923)">
<rect width="381.876" height="218" transform="translate(1527.5)" fill="white"/>
<path d="M1513.97 -15.0342C1513.97 -15.0342 1584.97 110.479 1648.73 81.7374C1693.98 61.3459 1683.53 192.459 1634.32 198.906C1592.98 204.324 1569.13 165.059 1558.43 124.791C1539.92 55.1442 1652.36 28.1263 1724.42 30.9221C1801.65 33.9186 1881.75 109.893 1852.72 181.484C1831.83 233 1782.8 252.705 1727.31 248.964C1632.54 242.575 1773.93 -8.49277 1863.34 23.564C1886.35 31.8133 1930.78 81.705 1930.78 81.705" stroke="black" stroke-width="7.84403"/>
<circle cx="1649.28" cy="83.4418" r="21.0483" fill="#F5DA24"/>
<circle cx="1670.33" cy="165.379" r="21.0483" fill="#F5DA24"/>
<circle cx="1616.58" cy="192.066" r="15.4103" fill="#F5DA24"/>
<circle cx="1564.71" cy="141.701" r="21.4241" fill="#F5DA24"/>
<circle cx="1572.61" cy="74.42" r="15.7862" fill="#F5DA24"/>
<circle cx="1702.65" cy="31.5723" r="15.7862" fill="#F5DA24"/>
<circle cx="1806.02" cy="55.2526" r="23.6793" fill="#F5DA24"/>
<circle cx="1766.17" cy="72.5415" r="17.6655" fill="#F5DA24"/>
<circle cx="1834.58" cy="225.893" r="24.431" fill="#F5DA24"/>
<circle cx="1841.35" cy="101.107" r="17.6655" fill="#F5DA24"/>
<circle cx="1853" cy="160.117" r="23.3034" fill="#F5DA24"/>
</g>
<g clip-path="url(#clip23_1381_923)">
<rect width="381.876" height="218" transform="translate(1909.38)" fill="white"/>
<path d="M1895.85 -15.0342C1895.85 -15.0342 1966.85 110.479 2030.61 81.7374C2075.85 61.3459 2065.41 192.459 2016.2 198.906C1974.86 204.324 1951.01 165.059 1940.31 124.791C1921.8 55.1442 2034.23 28.1263 2106.29 30.9221C2183.53 33.9186 2263.62 109.893 2234.6 181.484C2213.71 233 2164.68 252.705 2109.19 248.964C2014.41 242.575 2155.81 -8.49277 2245.22 23.564C2268.22 31.8133 2312.65 81.705 2312.65 81.705" stroke="black" stroke-width="7.84403"/>
<circle cx="2046.94" cy="87.9516" r="21.0483" fill="#F5DA24"/>
<circle cx="2046.94" cy="176.655" r="21.0483" fill="#F5DA24"/>
<circle cx="1978.16" cy="187.555" r="15.4103" fill="#F5DA24"/>
<circle cx="1944.33" cy="130.424" r="21.4241" fill="#F5DA24"/>
<circle cx="1962.75" cy="67.6544" r="15.7862" fill="#F5DA24"/>
<circle cx="2100.32" cy="31.5723" r="15.7862" fill="#F5DA24"/>
<circle cx="2194.66" cy="59.7623" r="23.6793" fill="#F5DA24"/>
<circle cx="2155.57" cy="59.7622" r="17.6655" fill="#F5DA24"/>
<circle cx="2208.19" cy="233.411" r="24.431" fill="#F5DA24"/>
<circle cx="2226.23" cy="108.624" r="17.6655" fill="#F5DA24"/>
<circle cx="2234.88" cy="167.635" r="23.3034" fill="#F5DA24"/>
</g>
<g clip-path="url(#clip24_1381_923)">
<rect width="381.876" height="218" transform="translate(2291.25)" fill="white"/>
<path d="M2277.72 -15.0342C2277.72 -15.0342 2348.72 110.479 2412.49 81.7374C2457.73 61.3459 2447.28 192.459 2398.08 198.906C2356.73 204.324 2332.89 165.059 2322.18 124.791C2303.68 55.1442 2416.11 28.1263 2488.17 30.9221C2565.4 33.9186 2645.5 109.893 2616.47 181.484C2595.58 233 2546.55 252.705 2491.06 248.964C2396.29 242.575 2537.69 -8.49277 2627.09 23.564C2650.1 31.8133 2694.53 81.705 2694.53 81.705" stroke="black" stroke-width="7.84403"/>
<circle cx="2435.59" cy="98.475" r="21.0483" fill="#F5DA24"/>
<circle cx="2418.3" cy="191.69" r="21.0483" fill="#F5DA24"/>
<circle cx="2347.26" cy="183.044" r="15.4103" fill="#F5DA24"/>
<circle cx="2320.95" cy="116.142" r="21.4241" fill="#F5DA24"/>
<circle cx="2358.16" cy="57.8829" r="15.7862" fill="#F5DA24"/>
<circle cx="2497.98" cy="31.5723" r="15.7862" fill="#F5DA24"/>
<circle cx="2583.3" cy="65.776" r="23.6793" fill="#F5DA24"/>
<circle cx="2552.48" cy="37.2104" r="17.6655" fill="#F5DA24"/>
<circle cx="2583.3" cy="237.169" r="24.431" fill="#F5DA24"/>
<circle cx="2611.11" cy="119.149" r="17.6655" fill="#F5DA24"/>
<circle cx="2616.75" cy="178.91" r="23.3034" fill="#F5DA24"/>
</g>
<g clip-path="url(#clip25_1381_923)">
<rect width="381.876" height="218" transform="translate(2673.13)" fill="white"/>
<path d="M2659.6 -15.0342C2659.6 -15.0342 2730.6 110.479 2794.36 81.7374C2839.6 61.3459 2829.16 192.459 2779.95 198.906C2738.61 204.324 2714.76 165.059 2704.06 124.791C2685.55 55.1442 2797.98 28.1263 2870.04 30.9221C2947.28 33.9186 3027.38 109.893 2998.35 181.484C2977.46 233 2928.43 252.705 2872.94 248.964C2778.16 242.575 2919.56 -8.49277 3008.97 23.564C3031.97 31.8133 3076.4 81.705 3076.4 81.705" stroke="black" stroke-width="7.84403"/>
<circle cx="2817.46" cy="113.51" r="21.0483" fill="#F5DA24"/>
<circle cx="2776.87" cy="193.193" r="21.0483" fill="#F5DA24"/>
<circle cx="2723.87" cy="165.003" r="15.4103" fill="#F5DA24"/>
<circle cx="2702.82" cy="101.107" r="21.4241" fill="#F5DA24"/>
<circle cx="2758.08" cy="47.3595" r="15.7862" fill="#F5DA24"/>
<circle cx="2903.16" cy="31.5723" r="15.7862" fill="#F5DA24"/>
<circle cx="2969.69" cy="74.7965" r="23.6793" fill="#F5DA24"/>
<circle cx="2952.4" cy="31.1968" r="17.6655" fill="#F5DA24"/>
<circle cx="2998.25" cy="137.19" r="17.6655" fill="#F5DA24"/>
<circle cx="2989.61" cy="193.945" r="23.3034" fill="#F5DA24"/>
</g>
<g clip-path="url(#clip26_1381_923)">
<rect width="381.876" height="218" fill="white"/>
<path d="M-13.5312 -15.0342C-13.5312 -15.0342 57.4661 110.479 121.232 81.7374C166.472 61.3459 156.027 192.459 106.822 198.906C65.479 204.324 41.6306 165.059 30.9292 124.791C12.4203 55.1442 124.853 28.1263 196.913 30.9221C274.146 33.9186 354.245 109.893 325.218 181.484C304.33 233 255.3 252.705 199.809 248.964C105.032 242.575 246.432 -8.49277 335.837 23.564C358.844 31.8133 403.273 81.705 403.273 81.705" stroke="black" stroke-width="7.84403"/>
<circle cx="84.9448" cy="78.1801" r="21.0483" fill="#F5DA24"/>
<circle cx="150.345" cy="130.799" r="21.0483" fill="#F5DA24"/>
<circle cx="129.672" cy="186.804" r="15.4103" fill="#F5DA24"/>
<circle cx="58.2586" cy="180.79" r="21.4241" fill="#F5DA24"/>
<circle cx="31.5723" cy="115.014" r="15.7862" fill="#F5DA24"/>
<circle cx="133.807" cy="31.5723" r="15.7862" fill="#F5DA24"/>
<circle cx="205.596" cy="33.4518" r="23.6793" fill="#F5DA24"/>
<circle cx="217.624" cy="95.0923" r="17.6655" fill="#F5DA24"/>
<circle cx="319.858" cy="193.569" r="24.431" fill="#F5DA24"/>
<circle cx="301.817" cy="80.8101" r="17.6655" fill="#F5DA24"/>
<circle cx="324.745" cy="127.042" r="23.3034" fill="#F5DA24"/>
</g>
<g clip-path="url(#clip27_1381_923)">
<rect width="381.876" height="218" transform="translate(381.876)" fill="white"/>
<path d="M368.345 -15.0342C368.345 -15.0342 439.342 110.479 503.108 81.7374C548.348 61.3459 537.903 192.459 488.698 198.906C447.355 204.324 423.507 165.059 412.805 124.791C394.296 55.1442 506.729 28.1263 578.789 30.9221C656.022 33.9186 736.121 109.893 707.094 181.484C686.206 233 637.176 252.705 581.684 248.964C486.908 242.575 628.308 -8.49277 717.713 23.564C740.72 31.8133 785.149 81.705 785.149 81.705" stroke="black" stroke-width="7.84403"/>
<circle cx="475.09" cy="78.9311" r="21.0483" fill="#F5DA24"/>
<circle cx="532.973" cy="138.318" r="21.0483" fill="#F5DA24"/>
<circle cx="507.038" cy="188.307" r="15.4103" fill="#F5DA24"/>
<circle cx="436.376" cy="177.031" r="21.4241" fill="#F5DA24"/>
<circle cx="413.448" cy="109" r="15.7862" fill="#F5DA24"/>
<circle cx="522.448" cy="31.5723" r="15.7862" fill="#F5DA24"/>
<circle cx="590.479" cy="34.2037" r="23.6793" fill="#F5DA24"/>
<circle cx="604.01" cy="88.3276" r="17.6655" fill="#F5DA24"/>
<circle cx="700.23" cy="198.83" r="24.431" fill="#F5DA24"/>
<circle cx="685.948" cy="86.0727" r="17.6655" fill="#F5DA24"/>
<circle cx="706.62" cy="132.303" r="23.3034" fill="#F5DA24"/>
</g>
<g clip-path="url(#clip28_1381_923)">
<rect width="381.876" height="218" transform="translate(763.752)" fill="white"/>
<path d="M750.221 -15.0342C750.221 -15.0342 821.219 110.479 884.984 81.7374C930.225 61.3459 919.779 192.459 870.574 198.906C829.231 204.324 805.383 165.059 794.682 124.791C776.173 55.1442 888.605 28.1263 960.666 30.9221C1037.9 33.9186 1118 109.893 1088.97 181.484C1068.08 233 1019.05 252.705 963.561 248.964C868.785 242.575 1010.18 -8.49277 1099.59 23.564C1122.6 31.8133 1167.03 81.705 1167.03 81.705" stroke="black" stroke-width="7.84403"/>
<circle cx="862.227" cy="78.9311" r="21.0483" fill="#F5DA24"/>
<circle cx="914.848" cy="145.834" r="21.0483" fill="#F5DA24"/>
<circle cx="882.9" cy="190.563" r="15.4103" fill="#F5DA24"/>
<circle cx="816.748" cy="169.514" r="21.4241" fill="#F5DA24"/>
<circle cx="795.324" cy="101.482" r="15.7862" fill="#F5DA24"/>
<circle cx="912.593" cy="31.5723" r="15.7862" fill="#F5DA24"/>
<circle cx="978.369" cy="34.2037" r="23.6793" fill="#F5DA24"/>
<circle cx="987.39" cy="85.3208" r="17.6655" fill="#F5DA24"/>
<circle cx="1079.85" cy="203.341" r="24.431" fill="#F5DA24"/>
<circle cx="1070.83" cy="89.8306" r="17.6655" fill="#F5DA24"/>
<circle cx="1088.5" cy="136.814" r="23.3034" fill="#F5DA24"/>
</g>
<g clip-path="url(#clip29_1381_923)">
<rect width="381.876" height="218" transform="translate(1145.63)" fill="white"/>
<path d="M1132.1 -15.0342C1132.1 -15.0342 1203.09 110.479 1266.86 81.7374C1312.1 61.3459 1301.65 192.459 1252.45 198.906C1211.11 204.324 1187.26 165.059 1176.56 124.791C1158.05 55.1442 1270.48 28.1263 1342.54 30.9221C1419.77 33.9186 1499.87 109.893 1470.85 181.484C1449.96 233 1400.93 252.705 1345.44 248.964C1250.66 242.575 1392.06 -8.49277 1481.46 23.564C1504.47 31.8133 1548.9 81.705 1548.9 81.705" stroke="black" stroke-width="7.84403"/>
<circle cx="1249.37" cy="85.6967" r="21.0483" fill="#F5DA24"/>
<circle cx="1293.72" cy="157.111" r="21.0483" fill="#F5DA24"/>
<circle cx="1255" cy="193.57" r="15.4103" fill="#F5DA24"/>
<circle cx="1192.61" cy="161.244" r="21.4241" fill="#F5DA24"/>
<circle cx="1180.96" cy="88.7032" r="15.7862" fill="#F5DA24"/>
<circle cx="1301.99" cy="31.5723" r="15.7862" fill="#F5DA24"/>
<circle cx="1381.29" cy="34.2037" r="23.6793" fill="#F5DA24"/>
<circle cx="1375.28" cy="78.5552" r="17.6655" fill="#F5DA24"/>
<circle cx="1459.47" cy="215.369" r="24.431" fill="#F5DA24"/>
<circle cx="1454.96" cy="94.3413" r="17.6655" fill="#F5DA24"/>
<circle cx="1470.37" cy="145.835" r="23.3034" fill="#F5DA24"/>
</g>
<g clip-path="url(#clip30_1381_923)">
<rect width="381.876" height="218" transform="translate(7637.52)" fill="white"/>
<path d="M7623.99 -15.0342C7623.99 -15.0342 7694.98 110.479 7758.75 81.7374C7803.99 61.3459 7793.54 192.459 7744.34 198.906C7703 204.324 7679.15 165.059 7668.45 124.791C7649.94 55.1442 7762.37 28.1263 7834.43 30.9221C7911.66 33.9186 7991.76 109.893 7962.73 181.484C7941.85 233 7892.82 252.705 7837.33 248.964C7742.55 242.575 7883.95 -8.49277 7973.35 23.564C7996.36 31.8133 8040.79 81.705 8040.79 81.705" stroke="black" stroke-width="7.84403"/>
<circle cx="7836.72" cy="35.3305" r="21.0483" fill="#F5DA24"/>
<circle cx="7889.34" cy="45.8559" r="21.0483" fill="#F5DA24"/>
<circle cx="7932.57" cy="71.7893" r="15.4103" fill="#F5DA24"/>
<circle cx="7958.13" cy="122.908" r="21.4241" fill="#F5DA24"/>
<circle cx="7963.77" cy="184.173" r="15.7862" fill="#F5DA24"/>
</g>
<g clip-path="url(#clip31_1381_923)">
<rect width="381.876" height="218" transform="translate(8019.39)" fill="white"/>
<path d="M8005.86 -15.0342C8005.86 -15.0342 8076.86 110.479 8140.62 81.7374C8185.87 61.3459 8175.42 192.459 8126.21 198.906C8084.87 204.324 8061.02 165.059 8050.32 124.791C8031.81 55.1442 8144.25 28.1263 8216.31 30.9221C8293.54 33.9186 8373.64 109.893 8344.61 181.484C8323.72 233 8274.69 252.705 8219.2 248.964C8124.43 242.575 8265.82 -8.49277 8355.23 23.564C8378.24 31.8133 8422.67 81.705 8422.67 81.705" stroke="black" stroke-width="7.84403"/>
<circle cx="8246.41" cy="35.3305" r="21.0483" fill="#F5DA24"/>
<circle cx="8293.02" cy="56.3793" r="21.0483" fill="#F5DA24"/>
<circle cx="8333.99" cy="88.3273" r="15.4103" fill="#F5DA24"/>
<circle cx="8345.27" cy="148.466" r="21.4241" fill="#F5DA24"/>
<circle cx="8334.37" cy="204.469" r="15.7862" fill="#F5DA24"/>
</g>
<g clip-path="url(#clip32_1381_923)">
<rect width="381.876" height="218" transform="translate(8401.27)" fill="white"/>
<path d="M8387.74 -15.0342C8387.74 -15.0342 8458.74 110.479 8522.5 81.7374C8567.74 61.3459 8557.3 192.459 8508.09 198.906C8466.75 204.324 8442.9 165.059 8432.2 124.791C8413.69 55.1442 8526.12 28.1263 8598.18 30.9221C8675.42 33.9186 8755.51 109.893 8726.49 181.484C8705.6 233 8656.57 252.705 8601.08 248.964C8506.3 242.575 8647.7 -8.49277 8737.11 23.564C8760.11 31.8133 8804.54 81.705 8804.54 81.705" stroke="black" stroke-width="7.84403"/>
<circle cx="8652.34" cy="42.8481" r="21.0483" fill="#F5DA24"/>
<circle cx="8694.44" cy="72.1655" r="21.0483" fill="#F5DA24"/>
<circle cx="8722.63" cy="111.631" r="15.4103" fill="#F5DA24"/>
<circle cx="8727.14" cy="174.025" r="21.4241" fill="#F5DA24"/>
<circle cx="8704.21" cy="218" r="15.7862" fill="#F5DA24"/>
</g>
<g clip-path="url(#clip33_1381_923)">
<rect width="381.876" height="218" transform="translate(8783.14)" fill="white"/>
<path d="M8769.61 -15.0342C8769.61 -15.0342 8840.61 110.479 8904.38 81.7374C8949.62 61.3459 8939.17 192.459 8889.97 198.906C8848.62 204.324 8824.78 165.059 8814.07 124.791C8795.57 55.1442 8908 28.1263 8980.06 30.9221C9057.29 33.9186 9137.39 109.893 9108.36 181.484C9087.47 233 9038.45 252.705 8982.95 248.964C8888.18 242.575 9029.58 -8.49277 9118.98 23.564C9141.99 31.8133 9186.42 81.705 9186.42 81.705" stroke="black" stroke-width="7.84403"/>
<circle cx="9056.02" cy="54.8764" r="21.0483" fill="#F5DA24"/>
<circle cx="9089.85" cy="89.4555" r="21.0483" fill="#F5DA24"/>
<circle cx="9110.52" cy="133.431" r="15.4103" fill="#F5DA24"/>
<circle cx="9104.51" cy="182.292" r="21.4241" fill="#F5DA24"/>
<circle cx="9079.32" cy="227.021" r="15.7862" fill="#F5DA24"/>
</g>
</g>
<defs>
<clipPath id="clip0_1381_923">
<rect width="12601.9" height="218" fill="white"/>
</clipPath>
<clipPath id="clip1_1381_923">
<rect width="381.876" height="218" fill="white" transform="translate(10692.5)"/>
</clipPath>
<clipPath id="clip2_1381_923">
<rect width="381.876" height="218" fill="white" transform="translate(11074.4)"/>
</clipPath>
<clipPath id="clip3_1381_923">
<rect width="381.876" height="218" fill="white" transform="translate(11456.3)"/>
</clipPath>
<clipPath id="clip4_1381_923">
<rect width="381.876" height="218" fill="white" transform="translate(11838.2)"/>
</clipPath>
<clipPath id="clip5_1381_923">
<rect width="381.876" height="218" fill="white" transform="translate(9165.02)"/>
</clipPath>
<clipPath id="clip6_1381_923">
<rect width="381.876" height="218" fill="white" transform="translate(9546.9)"/>
</clipPath>
<clipPath id="clip7_1381_923">
<rect width="381.876" height="218" fill="white" transform="translate(9928.77)"/>
</clipPath>
<clipPath id="clip8_1381_923">
<rect width="381.876" height="218" fill="white" transform="translate(12220)"/>
</clipPath>
<clipPath id="clip9_1381_923">
<rect width="381.876" height="218" fill="white" transform="translate(10310.6)"/>
</clipPath>
<clipPath id="clip10_1381_923">
<rect width="381.876" height="218" fill="white" transform="translate(6110.01)"/>
</clipPath>
<clipPath id="clip11_1381_923">
<rect width="381.876" height="218" fill="white" transform="translate(6491.89)"/>
</clipPath>
<clipPath id="clip12_1381_923">
<rect width="381.876" height="218" fill="white" transform="translate(6873.77)"/>
</clipPath>
<clipPath id="clip13_1381_923">
<rect width="381.876" height="218" fill="white" transform="translate(7255.64)"/>
</clipPath>
<clipPath id="clip14_1381_923">
<rect width="381.876" height="218" fill="white" transform="translate(4582.51)"/>
</clipPath>
<clipPath id="clip15_1381_923">
<rect width="381.876" height="218" fill="white" transform="translate(4964.39)"/>
</clipPath>
<clipPath id="clip16_1381_923">
<rect width="381.876" height="218" fill="white" transform="translate(5346.26)"/>
</clipPath>
<clipPath id="clip17_1381_923">
<rect width="381.876" height="218" fill="white" transform="translate(5728.14)"/>
</clipPath>
<clipPath id="clip18_1381_923">
<rect width="381.876" height="218" fill="white" transform="translate(3055.01)"/>
</clipPath>
<clipPath id="clip19_1381_923">
<rect width="381.876" height="218" fill="white" transform="translate(3436.88)"/>
</clipPath>
<clipPath id="clip20_1381_923">
<rect width="381.876" height="218" fill="white" transform="translate(3818.76)"/>
</clipPath>
<clipPath id="clip21_1381_923">
<rect width="381.876" height="218" fill="white" transform="translate(4200.63)"/>
</clipPath>
<clipPath id="clip22_1381_923">
<rect width="381.876" height="218" fill="white" transform="translate(1527.5)"/>
</clipPath>
<clipPath id="clip23_1381_923">
<rect width="381.876" height="218" fill="white" transform="translate(1909.38)"/>
</clipPath>
<clipPath id="clip24_1381_923">
<rect width="381.876" height="218" fill="white" transform="translate(2291.25)"/>
</clipPath>
<clipPath id="clip25_1381_923">
<rect width="381.876" height="218" fill="white" transform="translate(2673.13)"/>
</clipPath>
<clipPath id="clip26_1381_923">
<rect width="381.876" height="218" fill="white"/>
</clipPath>
<clipPath id="clip27_1381_923">
<rect width="381.876" height="218" fill="white" transform="translate(381.876)"/>
</clipPath>
<clipPath id="clip28_1381_923">
<rect width="381.876" height="218" fill="white" transform="translate(763.752)"/>
</clipPath>
<clipPath id="clip29_1381_923">
<rect width="381.876" height="218" fill="white" transform="translate(1145.63)"/>
</clipPath>
<clipPath id="clip30_1381_923">
<rect width="381.876" height="218" fill="white" transform="translate(7637.52)"/>
</clipPath>
<clipPath id="clip31_1381_923">
<rect width="381.876" height="218" fill="white" transform="translate(8019.39)"/>
</clipPath>
<clipPath id="clip32_1381_923">
<rect width="381.876" height="218" fill="white" transform="translate(8401.27)"/>
</clipPath>
<clipPath id="clip33_1381_923">
<rect width="381.876" height="218" fill="white" transform="translate(8783.14)"/>
</clipPath>
</defs>
</svg>
