<svg width="19713" height="341" viewBox="0 0 19713 341" fill="none" xmlns="http://www.w3.org/2000/svg">
<g clip-path="url(#clip0_1381_1497)">
<g clip-path="url(#clip1_1381_1497)">
<rect width="597.338" height="341" transform="translate(16725.5)" fill="white"/>
<path d="M16704.3 -23.5166C16704.3 -23.5166 16815.4 172.813 16915.1 127.855C16985.9 95.9587 16969.5 301.048 16892.6 311.134C16827.9 319.608 16790.6 258.189 16773.8 195.201C16744.9 86.2579 16920.8 43.9958 17033.5 48.3691C17154.3 53.0563 17279.6 171.897 17234.2 283.881C17201.5 364.464 17124.8 395.286 17038 389.434C16889.8 379.44 17110.9 -13.2844 17250.8 36.8595C17286.8 49.7632 17356.3 127.805 17356.3 127.805" stroke="black" stroke-width="12.2698"/>
<circle cx="17235.8" cy="237.524" r="32.9241" fill="#F5DA24"/>
<circle cx="17213.4" cy="312.78" r="32.9241" fill="#F5DA24"/>
</g>
<g clip-path="url(#clip2_1381_1497)">
<rect width="597.338" height="341" transform="translate(17322.8)" fill="white"/>
<path d="M17301.6 -23.5166C17301.6 -23.5166 17412.7 172.813 17512.4 127.855C17583.2 95.9587 17566.9 301.048 17489.9 311.134C17425.2 319.608 17387.9 258.189 17371.2 195.201C17342.2 86.2579 17518.1 43.9958 17630.8 48.3691C17751.6 53.0563 17876.9 171.897 17831.5 283.881C17798.8 364.464 17722.1 395.286 17635.3 389.434C17487.1 379.44 17708.3 -13.2844 17848.1 36.8595C17884.1 49.7632 17953.6 127.805 17953.6 127.805" stroke="black" stroke-width="12.2698"/>
<circle cx="17830.8" cy="268.097" r="32.9241" fill="#F5DA24"/>
<circle cx="17792" cy="346.881" r="32.9241" fill="#F5DA24"/>
</g>
<g clip-path="url(#clip3_1381_1497)">
<rect width="597.338" height="341" transform="translate(17920.1)" fill="white"/>
<path d="M17899 -23.5166C17899 -23.5166 18010 172.813 18109.8 127.855C18180.5 95.9587 18164.2 301.048 18087.2 311.134C18022.6 319.608 17985.3 258.189 17968.5 195.201C17939.6 86.2579 18115.4 43.9958 18228.2 48.3691C18349 53.0563 18474.3 171.897 18428.8 283.881C18396.2 364.464 18319.5 395.286 18232.7 389.434C18084.4 379.44 18305.6 -13.2844 18445.5 36.8595C18481.4 49.7632 18550.9 127.805 18550.9 127.805" stroke="black" stroke-width="12.2698"/>
<circle cx="18411.6" cy="308.076" r="32.9241" fill="#F5DA24"/>
</g>
<g clip-path="url(#clip4_1381_1497)">
<rect width="597.338" height="341" transform="translate(18517.5)" fill="white"/>
<path d="M18496.3 -23.5166C18496.3 -23.5166 18607.4 172.813 18707.1 127.855C18777.9 95.9587 18761.5 301.048 18684.6 311.134C18619.9 319.608 18582.6 258.189 18565.9 195.201C18536.9 86.2579 18712.8 43.9958 18825.5 48.3691C18946.3 53.0563 19071.6 171.897 19026.2 283.881C18993.5 364.464 18916.8 395.286 18830 389.434C18681.8 379.44 18902.9 -13.2844 19042.8 36.8595C19078.8 49.7632 19148.3 127.805 19148.3 127.805" stroke="black" stroke-width="12.2698"/>
<circle cx="18983.1" cy="351.584" r="32.9241" fill="#F5DA24"/>
</g>
<g clip-path="url(#clip5_1381_1497)">
<rect width="597.338" height="341" transform="translate(14336.1)" fill="white"/>
<path d="M14314.9 -23.5166C14314.9 -23.5166 14426 172.813 14525.7 127.855C14596.5 95.9587 14580.2 301.048 14503.2 311.134C14438.5 319.608 14401.2 258.189 14384.5 195.201C14355.5 86.2579 14531.4 43.9958 14644.1 48.3691C14764.9 53.0563 14890.2 171.897 14844.8 283.881C14812.2 364.464 14735.5 395.286 14648.7 389.434C14500.4 379.44 14721.6 -13.2844 14861.4 36.8595C14897.4 49.7632 14966.9 127.805 14966.9 127.805" stroke="black" stroke-width="12.2698"/>
<circle cx="14790" cy="112.883" r="32.9241" fill="#F5DA24"/>
<circle cx="14833.5" cy="178.731" r="32.9241" fill="#F5DA24"/>
<circle cx="14848.2" cy="249.87" r="24.1052" fill="#F5DA24"/>
<circle cx="14823.5" cy="325.124" r="33.5121" fill="#F5DA24"/>
</g>
<g clip-path="url(#clip6_1381_1497)">
<rect width="597.338" height="341" transform="translate(14933.4)" fill="white"/>
<path d="M14912.3 -23.5166C14912.3 -23.5166 15023.3 172.813 15123.1 127.855C15193.8 95.9587 15177.5 301.048 15100.5 311.134C15035.9 319.608 14998.6 258.189 14981.8 195.201C14952.9 86.2579 15128.7 43.9958 15241.5 48.3691C15362.3 53.0563 15487.6 171.897 15442.2 283.881C15409.5 364.464 15332.8 395.286 15246 389.434C15097.7 379.44 15318.9 -13.2844 15458.8 36.8595C15494.8 49.7632 15564.3 127.805 15564.3 127.805" stroke="black" stroke-width="12.2698"/>
<circle cx="15412" cy="137.576" r="32.9241" fill="#F5DA24"/>
<circle cx="15444.9" cy="212.83" r="32.9241" fill="#F5DA24"/>
<circle cx="15444.4" cy="288.674" r="24.1052" fill="#F5DA24"/>
<circle cx="15403.2" cy="356.872" r="33.5121" fill="#F5DA24"/>
</g>
<g clip-path="url(#clip7_1381_1497)">
<rect width="597.338" height="341" transform="translate(15530.8)" fill="white"/>
<path d="M15509.6 -23.5166C15509.6 -23.5166 15620.7 172.813 15720.4 127.855C15791.2 95.9587 15774.8 301.048 15697.9 311.134C15633.2 319.608 15595.9 258.189 15579.2 195.201C15550.2 86.2579 15726.1 43.9958 15838.8 48.3691C15959.6 53.0563 16084.9 171.897 16039.5 283.881C16006.8 364.464 15930.1 395.286 15843.3 389.434C15695.1 379.44 15916.3 -13.2844 16056.1 36.8595C16092.1 49.7632 16161.6 127.805 16161.6 127.805" stroke="black" stroke-width="12.2698"/>
<circle cx="16031.7" cy="188.138" r="32.9241" fill="#F5DA24"/>
<circle cx="16042.3" cy="264.569" r="32.9241" fill="#F5DA24"/>
<circle cx="16018.2" cy="321.599" r="24.1052" fill="#F5DA24"/>
</g>
<g clip-path="url(#clip8_1381_1497)">
<rect width="597.338" height="341" transform="translate(19114.8)" fill="white"/>
<path d="M19093.6 -23.5166C19093.6 -23.5166 19204.7 172.813 19304.4 127.855C19375.2 95.9587 19358.9 301.048 19281.9 311.134C19217.2 319.608 19179.9 258.189 19163.2 195.201C19134.2 86.2579 19310.1 43.9958 19422.8 48.3691C19543.6 53.0563 19668.9 171.897 19623.5 283.881C19590.9 364.464 19514.2 395.286 19427.4 389.434C19279.1 379.44 19500.3 -13.2844 19640.1 36.8595C19676.1 49.7632 19745.6 127.805 19745.6 127.805" stroke="black" stroke-width="12.2698"/>
</g>
<g clip-path="url(#clip9_1381_1497)">
<rect width="597.338" height="341" transform="translate(16128.1)" fill="white"/>
<path d="M16107 -23.5166C16107 -23.5166 16218 172.813 16317.8 127.855C16388.5 95.9587 16372.2 301.048 16295.2 311.134C16230.5 319.608 16193.2 258.189 16176.5 195.201C16147.6 86.2579 16323.4 43.9958 16436.1 48.3691C16557 53.0563 16682.2 171.897 16636.8 283.881C16604.2 364.464 16527.5 395.286 16440.7 389.434C16292.4 379.44 16513.6 -13.2844 16653.4 36.8595C16689.4 49.7632 16758.9 127.805 16758.9 127.805" stroke="black" stroke-width="12.2698"/>
<circle cx="16629" cy="209.304" r="32.9241" fill="#F5DA24"/>
<circle cx="16629" cy="283.383" r="32.9241" fill="#F5DA24"/>
<circle cx="16595.5" cy="340.412" r="24.1052" fill="#F5DA24"/>
</g>
<g clip-path="url(#clip10_1381_1497)">
<rect width="597.338" height="341" transform="translate(9557.41)" fill="white"/>
<path d="M9536.24 -23.5166C9536.24 -23.5166 9647.3 172.813 9747.04 127.855C9817.81 95.9587 9801.47 301.048 9724.5 311.134C9659.83 319.608 9622.53 258.189 9605.79 195.201C9576.83 86.2579 9752.7 43.9958 9865.42 48.3691C9986.23 53.0563 10111.5 171.897 10066.1 283.881C10033.4 364.464 9956.75 395.286 9869.95 389.434C9721.7 379.44 9942.88 -13.2844 10082.7 36.8595C10118.7 49.7632 10188.2 127.805 10188.2 127.805" stroke="black" stroke-width="12.2698"/>
<circle cx="9615.02" cy="138.751" r="32.9241" fill="#F5DA24"/>
<circle cx="9726.73" cy="65.847" r="32.9241" fill="#F5DA24"/>
<circle cx="9839.03" cy="57.028" r="24.1052" fill="#F5DA24"/>
<circle cx="9938.97" cy="57.0287" r="33.5121" fill="#F5DA24"/>
<circle cx="10021.9" cy="111.709" r="24.6931" fill="#F5DA24"/>
<circle cx="10146.5" cy="81.1345" r="24.6931" fill="#F5DA24"/>
</g>
<g clip-path="url(#clip11_1381_1497)">
<rect width="597.338" height="341" transform="translate(10154.7)" fill="white"/>
<path d="M10133.6 -23.5166C10133.6 -23.5166 10244.6 172.813 10344.4 127.855C10415.1 95.9587 10398.8 301.048 10321.8 311.134C10257.2 319.608 10219.9 258.189 10203.1 195.201C10174.2 86.2579 10350 43.9958 10462.8 48.3691C10583.6 53.0563 10708.9 171.897 10663.5 283.881C10630.8 364.464 10554.1 395.286 10467.3 389.434C10319 379.44 10540.2 -13.2844 10680.1 36.8595C10716.1 49.7632 10785.6 127.805 10785.6 127.805" stroke="black" stroke-width="12.2698"/>
<circle cx="10244.1" cy="98.7718" r="32.9241" fill="#F5DA24"/>
<circle cx="10385.2" cy="49.387" r="32.9241" fill="#F5DA24"/>
<circle cx="10483.4" cy="57.028" r="24.1052" fill="#F5DA24"/>
<circle cx="10582.2" cy="81.723" r="33.5121" fill="#F5DA24"/>
<circle cx="10640.4" cy="138.752" r="24.6931" fill="#F5DA24"/>
<circle cx="10765" cy="90.5408" r="24.6931" fill="#F5DA24"/>
</g>
<g clip-path="url(#clip12_1381_1497)">
<rect width="597.338" height="341" transform="translate(10752.1)" fill="white"/>
<path d="M10730.9 -23.5166C10730.9 -23.5166 10842 172.813 10941.7 127.855C11012.5 95.9587 10996.1 301.048 10919.2 311.134C10854.5 319.608 10817.2 258.189 10800.5 195.201C10771.5 86.2579 10947.4 43.9958 11060.1 48.3691C11180.9 53.0563 11306.2 171.897 11260.8 283.881C11228.1 364.464 11151.4 395.286 11064.6 389.434C10916.4 379.44 11137.6 -13.2844 11277.4 36.8595C11313.4 49.7632 11382.9 127.805 11382.9 127.805" stroke="black" stroke-width="12.2698"/>
<circle cx="10901.4" cy="65.847" r="32.9241" fill="#F5DA24"/>
<circle cx="11041.3" cy="48.2103" r="32.9241" fill="#F5DA24"/>
<circle cx="11138.4" cy="65.2595" r="24.1052" fill="#F5DA24"/>
<circle cx="11213.6" cy="114.646" r="33.5121" fill="#F5DA24"/>
<circle cx="11261.2" cy="183.435" r="24.6931" fill="#F5DA24"/>
</g>
<g clip-path="url(#clip13_1381_1497)">
<rect width="597.338" height="341" transform="translate(11349.4)" fill="white"/>
<path d="M11328.3 -23.5166C11328.3 -23.5166 11439.3 172.813 11539.1 127.855C11609.8 95.9587 11593.5 301.048 11516.5 311.134C11451.8 319.608 11414.5 258.189 11397.8 195.201C11368.8 86.2579 11544.7 43.9958 11657.4 48.3691C11778.2 53.0563 11903.5 171.897 11858.1 283.881C11825.5 364.464 11748.8 395.286 11662 389.434C11513.7 379.44 11734.9 -13.2844 11874.7 36.8595C11910.7 49.7632 11980.2 127.805 11980.2 127.805" stroke="black" stroke-width="12.2698"/>
<circle cx="11609.3" cy="55.264" r="32.9241" fill="#F5DA24"/>
<circle cx="11704.5" cy="50.5638" r="32.9241" fill="#F5DA24"/>
<circle cx="11769.8" cy="74.6677" r="24.1052" fill="#F5DA24"/>
<circle cx="11834.5" cy="147.571" r="33.5121" fill="#F5DA24"/>
<circle cx="11859.7" cy="236.347" r="24.6931" fill="#F5DA24"/>
</g>
<g clip-path="url(#clip14_1381_1497)">
<rect width="597.338" height="341" transform="translate(7168.06)" fill="white"/>
<path d="M7146.89 -23.5166C7146.89 -23.5166 7257.95 172.813 7357.69 127.855C7428.45 95.9587 7412.12 301.048 7335.15 311.134C7270.48 319.608 7233.17 258.189 7216.44 195.201C7187.48 86.2579 7363.35 43.9958 7476.07 48.3691C7596.88 53.0563 7722.17 171.897 7676.77 283.881C7644.09 364.464 7567.4 395.286 7480.6 389.434C7332.35 379.44 7553.53 -13.2844 7693.38 36.8595C7729.37 49.7632 7798.86 127.805 7798.86 127.805" stroke="black" stroke-width="12.2698"/>
<circle cx="7298.58" cy="288.086" r="32.9241" fill="#F5DA24"/>
<circle cx="7224.5" cy="204.599" r="32.9241" fill="#F5DA24"/>
<circle cx="7256.83" cy="102.889" r="24.1052" fill="#F5DA24"/>
<circle cx="7372.07" cy="54.6771" r="33.5121" fill="#F5DA24"/>
<circle cx="7466.72" cy="54.0896" r="24.6931" fill="#F5DA24"/>
<circle cx="7663.09" cy="36.4509" r="24.6931" fill="#F5DA24"/>
<circle cx="7684.85" cy="236.936" r="37.0397" fill="#F5DA24"/>
<circle cx="7731.88" cy="60.5556" r="27.6328" fill="#F5DA24"/>
<circle cx="7650.75" cy="340.411" r="27.6328" fill="#F5DA24"/>
</g>
<g clip-path="url(#clip15_1381_1497)">
<rect width="597.338" height="341" transform="translate(7765.39)" fill="white"/>
<path d="M7744.23 -23.5166C7744.23 -23.5166 7855.28 172.813 7955.03 127.855C8025.79 95.9587 8009.45 301.048 7932.49 311.134C7867.82 319.608 7830.51 258.189 7813.77 195.201C7784.82 86.2579 7960.69 43.9958 8073.41 48.3691C8194.22 53.0563 8319.51 171.897 8274.1 283.881C8241.43 364.464 8164.74 395.286 8077.94 389.434C7929.69 379.44 8150.87 -13.2844 8290.72 36.8595C8326.7 49.7632 8396.2 127.805 8396.2 127.805" stroke="black" stroke-width="12.2698"/>
<circle cx="7846.53" cy="266.92" r="32.9241" fill="#F5DA24"/>
<circle cx="7821.83" cy="158.742" r="32.9241" fill="#F5DA24"/>
<circle cx="7878.86" cy="89.9528" r="24.1052" fill="#F5DA24"/>
<circle cx="8005.86" cy="53.5003" r="33.5121" fill="#F5DA24"/>
<circle cx="8100.51" cy="54.0896" r="24.6931" fill="#F5DA24"/>
<circle cx="8293.35" cy="36.4509" r="24.6931" fill="#F5DA24"/>
<circle cx="8273.95" cy="279.267" r="37.0397" fill="#F5DA24"/>
<circle cx="8352.74" cy="73.4921" r="27.6328" fill="#F5DA24"/>
</g>
<g clip-path="url(#clip16_1381_1497)">
<rect width="597.338" height="341" transform="translate(8362.73)" fill="white"/>
<path d="M8341.57 -23.5166C8341.57 -23.5166 8452.62 172.813 8552.36 127.855C8623.13 95.9587 8606.79 301.048 8529.82 311.134C8465.15 319.608 8427.85 258.189 8411.11 195.201C8382.16 86.2579 8558.03 43.9958 8670.75 48.3691C8791.56 53.0563 8916.85 171.897 8871.44 283.881C8838.77 364.464 8762.08 395.286 8675.28 389.434C8527.03 379.44 8748.2 -13.2844 8888.05 36.8595C8924.04 49.7632 8993.54 127.805 8993.54 127.805" stroke="black" stroke-width="12.2698"/>
<circle cx="8434.46" cy="232.821" r="32.9241" fill="#F5DA24"/>
<circle cx="8443.87" cy="107.003" r="32.9241" fill="#F5DA24"/>
<circle cx="8552.63" cy="62.9099" r="24.1052" fill="#F5DA24"/>
<circle cx="8645.53" cy="53.5003" r="33.5121" fill="#F5DA24"/>
<circle cx="8739.01" cy="62.321" r="24.6931" fill="#F5DA24"/>
<circle cx="8908.33" cy="44.6814" r="24.6931" fill="#F5DA24"/>
<circle cx="8857.18" cy="332.18" r="37.0397" fill="#F5DA24"/>
<circle cx="8967.71" cy="88.7773" r="27.6328" fill="#F5DA24"/>
</g>
<g clip-path="url(#clip17_1381_1497)">
<rect width="597.338" height="341" transform="translate(8960.07)" fill="white"/>
<path d="M8938.9 -23.5166C8938.9 -23.5166 9049.96 172.813 9149.7 127.855C9220.47 95.9587 9204.13 301.048 9127.16 311.134C9062.49 319.608 9025.19 258.189 9008.45 195.201C8979.5 86.2579 9155.37 43.9958 9268.08 48.3691C9388.89 53.0563 9514.19 171.897 9468.78 283.881C9436.11 364.464 9359.41 395.286 9272.61 389.434C9124.36 379.44 9345.54 -13.2844 9485.39 36.8595C9521.38 49.7632 9590.88 127.805 9590.88 127.805" stroke="black" stroke-width="12.2698"/>
<circle cx="9016.51" cy="197.544" r="32.9241" fill="#F5DA24"/>
<circle cx="9072.95" cy="83.4866" r="32.9241" fill="#F5DA24"/>
<circle cx="9185.25" cy="57.028" r="24.1052" fill="#F5DA24"/>
<circle cx="9298.13" cy="53.5003" r="33.5121" fill="#F5DA24"/>
<circle cx="9392.79" cy="91.7175" r="24.6931" fill="#F5DA24"/>
<circle cx="9532.71" cy="62.321" r="24.6931" fill="#F5DA24"/>
<circle cx="9434.53" cy="352.172" r="37.0397" fill="#F5DA24"/>
</g>
<g clip-path="url(#clip18_1381_1497)">
<rect width="597.338" height="341" transform="translate(4778.7)" fill="white"/>
<path d="M4757.54 -23.5166C4757.54 -23.5166 4868.59 172.813 4968.34 127.855C5039.1 95.9587 5022.76 301.048 4945.8 311.134C4881.13 319.608 4843.82 258.189 4827.08 195.201C4798.13 86.2579 4974 43.9958 5086.72 48.3691C5207.53 53.0563 5332.82 171.897 5287.41 283.881C5254.74 364.464 5178.05 395.286 5091.25 389.434C4943 379.44 5164.18 -13.2844 5304.03 36.8595C5340.01 49.7632 5409.51 127.805 5409.51 127.805" stroke="black" stroke-width="12.2698"/>
<circle cx="5006.82" cy="210.481" r="32.9241" fill="#F5DA24"/>
<circle cx="4908.05" cy="296.319" r="32.9241" fill="#F5DA24"/>
<circle cx="4842.79" cy="229.882" r="24.1052" fill="#F5DA24"/>
<circle cx="4842.79" cy="125.228" r="33.5121" fill="#F5DA24"/>
<circle cx="4940.97" cy="67.0242" r="24.6931" fill="#F5DA24"/>
<circle cx="5163.21" cy="57.616" r="24.6931" fill="#F5DA24"/>
<circle cx="5260.22" cy="145.22" r="37.0397" fill="#F5DA24"/>
<circle cx="5235.52" cy="48.7978" r="27.6328" fill="#F5DA24"/>
<circle cx="5290.79" cy="242.815" r="27.6328" fill="#F5DA24"/>
<circle cx="5259.63" cy="324.536" r="36.4517" fill="#F5DA24"/>
</g>
<g clip-path="url(#clip19_1381_1497)">
<rect width="597.338" height="341" transform="translate(5376.04)" fill="white"/>
<path d="M5354.88 -23.5166C5354.88 -23.5166 5465.93 172.813 5565.67 127.855C5636.44 95.9587 5620.1 301.048 5543.13 311.134C5478.46 319.608 5441.16 258.189 5424.42 195.201C5395.47 86.2579 5571.34 43.9958 5684.06 48.3691C5804.87 53.0563 5930.16 171.897 5884.75 283.881C5852.08 364.464 5775.39 395.286 5688.59 389.434C5540.34 379.44 5761.51 -13.2844 5901.36 36.8595C5937.35 49.7632 6006.85 127.805 6006.85 127.805" stroke="black" stroke-width="12.2698"/>
<circle cx="5595.93" cy="233.997" r="32.9241" fill="#F5DA24"/>
<circle cx="5479.52" cy="286.909" r="32.9241" fill="#F5DA24"/>
<circle cx="5426.01" cy="200.485" r="24.1052" fill="#F5DA24"/>
<circle cx="5465.99" cy="91.1302" r="33.5121" fill="#F5DA24"/>
<circle cx="5571.23" cy="57.616" r="24.6931" fill="#F5DA24"/>
<circle cx="5786.42" cy="76.4294" r="24.6931" fill="#F5DA24"/>
<circle cx="5875.19" cy="164.034" r="37.0397" fill="#F5DA24"/>
<circle cx="5861.08" cy="32.3359" r="27.6328" fill="#F5DA24"/>
<circle cx="5888.13" cy="271.035" r="27.6328" fill="#F5DA24"/>
<circle cx="5841.68" cy="355.112" r="36.4517" fill="#F5DA24"/>
</g>
<g clip-path="url(#clip20_1381_1497)">
<rect width="597.338" height="341" transform="translate(5973.38)" fill="white"/>
<path d="M5952.21 -23.5166C5952.21 -23.5166 6063.27 172.813 6163.01 127.855C6233.78 95.9587 6217.44 301.048 6140.47 311.134C6075.8 319.608 6038.5 258.189 6021.76 195.201C5992.81 86.2579 6168.68 43.9958 6281.4 48.3691C6402.2 53.0563 6527.5 171.897 6482.09 283.881C6449.42 364.464 6372.73 395.286 6285.92 389.434C6137.67 379.44 6358.85 -13.2844 6498.7 36.8595C6534.69 49.7632 6604.19 127.805 6604.19 127.805" stroke="black" stroke-width="12.2698"/>
<circle cx="6174.45" cy="273.977" r="32.9241" fill="#F5DA24"/>
<circle cx="6060.39" cy="266.92" r="32.9241" fill="#F5DA24"/>
<circle cx="6019.83" cy="159.329" r="24.1052" fill="#F5DA24"/>
<circle cx="6109.19" cy="66.4349" r="33.5121" fill="#F5DA24"/>
<circle cx="6207.38" cy="57.616" r="24.6931" fill="#F5DA24"/>
<circle cx="6408.45" cy="57.616" r="24.6931" fill="#F5DA24"/>
<circle cx="6478.41" cy="182.846" r="37.0397" fill="#F5DA24"/>
<circle cx="6492.52" cy="32.3359" r="27.6328" fill="#F5DA24"/>
<circle cx="6478.41" cy="291.027" r="27.6328" fill="#F5DA24"/>
<circle cx="6428.44" cy="365.694" r="36.4517" fill="#F5DA24"/>
</g>
<g clip-path="url(#clip21_1381_1497)">
<rect width="597.338" height="341" transform="translate(6570.72)" fill="white"/>
<path d="M6549.55 -23.5166C6549.55 -23.5166 6660.61 172.813 6760.35 127.855C6831.12 95.9587 6814.78 301.048 6737.81 311.134C6673.14 319.608 6635.84 258.189 6619.1 195.201C6590.15 86.2579 6766.01 43.9958 6878.73 48.3691C6999.54 53.0563 7124.83 171.897 7079.43 283.881C7046.76 364.464 6970.06 395.286 6883.26 389.434C6735.01 379.44 6956.19 -13.2844 7096.04 36.8595C7132.03 49.7632 7201.53 127.805 7201.53 127.805" stroke="black" stroke-width="12.2698"/>
<circle cx="6747.1" cy="293.965" r="32.9241" fill="#F5DA24"/>
<circle cx="6635.39" cy="241.052" r="32.9241" fill="#F5DA24"/>
<circle cx="6626.57" cy="124.052" r="24.1052" fill="#F5DA24"/>
<circle cx="6727.69" cy="62.9086" r="33.5121" fill="#F5DA24"/>
<circle cx="6836.46" cy="54.0896" r="24.6931" fill="#F5DA24"/>
<circle cx="7029.3" cy="45.8581" r="24.6931" fill="#F5DA24"/>
<circle cx="7080.45" cy="212.243" r="37.0397" fill="#F5DA24"/>
<circle cx="7116.9" cy="34.6894" r="27.6328" fill="#F5DA24"/>
<circle cx="7066.34" cy="313.368" r="27.6328" fill="#F5DA24"/>
</g>
<g clip-path="url(#clip22_1381_1497)">
<rect width="597.338" height="341" transform="translate(2389.35)" fill="white"/>
<path d="M2368.19 -23.5166C2368.19 -23.5166 2479.24 172.813 2578.98 127.855C2649.75 95.9587 2633.41 301.048 2556.44 311.134C2491.77 319.608 2454.47 258.189 2437.73 195.201C2408.78 86.2579 2584.65 43.9958 2697.37 48.3691C2818.18 53.0563 2943.47 171.897 2898.06 283.881C2865.39 364.464 2788.7 395.286 2701.9 389.434C2553.64 379.44 2774.82 -13.2844 2914.67 36.8595C2950.66 49.7632 3020.16 127.805 3020.16 127.805" stroke="black" stroke-width="12.2698"/>
<circle cx="2579.84" cy="130.522" r="32.9241" fill="#F5DA24"/>
<circle cx="2612.77" cy="258.689" r="32.9241" fill="#F5DA24"/>
<circle cx="2528.69" cy="300.432" r="24.1052" fill="#F5DA24"/>
<circle cx="2447.55" cy="221.652" r="33.5121" fill="#F5DA24"/>
<circle cx="2459.9" cy="116.409" r="24.6931" fill="#F5DA24"/>
<circle cx="2663.33" cy="49.3865" r="24.6931" fill="#F5DA24"/>
<circle cx="2825.01" cy="86.4274" r="37.0397" fill="#F5DA24"/>
<circle cx="2762.69" cy="113.471" r="27.6328" fill="#F5DA24"/>
<circle cx="2869.69" cy="353.347" r="38.2155" fill="#F5DA24"/>
<circle cx="2880.27" cy="158.153" r="27.6328" fill="#F5DA24"/>
<circle cx="2898.5" cy="250.458" r="36.4517" fill="#F5DA24"/>
</g>
<g clip-path="url(#clip23_1381_1497)">
<rect width="597.338" height="341" transform="translate(2986.69)" fill="white"/>
<path d="M2965.52 -23.5166C2965.52 -23.5166 3076.58 172.813 3176.32 127.855C3247.09 95.9587 3230.75 301.048 3153.78 311.134C3089.11 319.608 3051.81 258.189 3035.07 195.201C3006.12 86.2579 3181.99 43.9958 3294.71 48.3691C3415.52 53.0563 3540.81 171.897 3495.4 283.881C3462.73 364.464 3386.04 395.286 3299.24 389.434C3150.98 379.44 3372.16 -13.2844 3512.01 36.8595C3548 49.7632 3617.5 127.805 3617.5 127.805" stroke="black" stroke-width="12.2698"/>
<circle cx="3201.87" cy="137.576" r="32.9241" fill="#F5DA24"/>
<circle cx="3201.87" cy="276.326" r="32.9241" fill="#F5DA24"/>
<circle cx="3094.28" cy="293.378" r="24.1052" fill="#F5DA24"/>
<circle cx="3041.37" cy="204.012" r="33.5121" fill="#F5DA24"/>
<circle cx="3070.18" cy="105.827" r="24.6931" fill="#F5DA24"/>
<circle cx="3285.36" cy="49.3865" r="24.6931" fill="#F5DA24"/>
<circle cx="3432.93" cy="93.4811" r="37.0397" fill="#F5DA24"/>
<circle cx="3371.78" cy="93.4804" r="27.6328" fill="#F5DA24"/>
<circle cx="3454.09" cy="365.104" r="38.2155" fill="#F5DA24"/>
<circle cx="3482.32" cy="169.911" r="27.6328" fill="#F5DA24"/>
<circle cx="3495.84" cy="262.216" r="36.4517" fill="#F5DA24"/>
</g>
<g clip-path="url(#clip24_1381_1497)">
<rect width="597.338" height="341" transform="translate(3584.03)" fill="white"/>
<path d="M3562.86 -23.5166C3562.86 -23.5166 3673.92 172.813 3773.66 127.855C3844.43 95.9587 3828.09 301.048 3751.12 311.134C3686.45 319.608 3649.15 258.189 3632.41 195.201C3603.46 86.2579 3779.32 43.9958 3892.04 48.3691C4012.85 53.0563 4138.14 171.897 4092.74 283.881C4060.07 364.464 3983.37 395.286 3896.57 389.434C3748.32 379.44 3969.5 -13.2844 4109.35 36.8595C4145.34 49.7632 4214.84 127.805 4214.84 127.805" stroke="black" stroke-width="12.2698"/>
<circle cx="3809.79" cy="154.036" r="32.9241" fill="#F5DA24"/>
<circle cx="3782.75" cy="299.845" r="32.9241" fill="#F5DA24"/>
<circle cx="3671.63" cy="286.321" r="24.1052" fill="#F5DA24"/>
<circle cx="3630.47" cy="181.672" r="33.5121" fill="#F5DA24"/>
<circle cx="3688.68" cy="90.5408" r="24.6931" fill="#F5DA24"/>
<circle cx="3907.39" cy="49.3865" r="24.6931" fill="#F5DA24"/>
<circle cx="4040.85" cy="102.887" r="37.0397" fill="#F5DA24"/>
<circle cx="3992.64" cy="58.206" r="27.6328" fill="#F5DA24"/>
<circle cx="4040.85" cy="370.984" r="38.2155" fill="#F5DA24"/>
<circle cx="4084.36" cy="186.375" r="27.6328" fill="#F5DA24"/>
<circle cx="4093.18" cy="279.854" r="36.4517" fill="#F5DA24"/>
</g>
<g clip-path="url(#clip25_1381_1497)">
<rect width="597.338" height="341" transform="translate(4181.37)" fill="white"/>
<path d="M4160.2 -23.5166C4160.2 -23.5166 4271.26 172.813 4371 127.855C4441.76 95.9587 4425.43 301.048 4348.46 311.134C4283.79 319.608 4246.49 258.189 4229.75 195.201C4200.79 86.2579 4376.66 43.9958 4489.38 48.3691C4610.19 53.0563 4735.48 171.897 4690.08 283.881C4657.4 364.464 4580.71 395.286 4493.91 389.434C4345.66 379.44 4566.84 -13.2844 4706.69 36.8595C4742.68 49.7632 4812.17 127.805 4812.17 127.805" stroke="black" stroke-width="12.2698"/>
<circle cx="4407.13" cy="177.556" r="32.9241" fill="#F5DA24"/>
<circle cx="4343.63" cy="302.197" r="32.9241" fill="#F5DA24"/>
<circle cx="4260.74" cy="258.101" r="24.1052" fill="#F5DA24"/>
<circle cx="4227.81" cy="158.153" r="33.5121" fill="#F5DA24"/>
<circle cx="4314.24" cy="74.0808" r="24.6931" fill="#F5DA24"/>
<circle cx="4541.18" cy="49.3865" r="24.6931" fill="#F5DA24"/>
<circle cx="4645.24" cy="116.999" r="37.0397" fill="#F5DA24"/>
<circle cx="4618.2" cy="48.7978" r="27.6328" fill="#F5DA24"/>
<circle cx="4689.92" cy="214.596" r="27.6328" fill="#F5DA24"/>
<circle cx="4676.4" cy="303.373" r="36.4517" fill="#F5DA24"/>
</g>
<g clip-path="url(#clip26_1381_1497)">
<rect width="597.338" height="341" transform="translate(-0.000488281)" fill="white"/>
<path d="M-21.1665 -23.5166C-21.1665 -23.5166 89.889 172.813 189.633 127.855C260.398 95.9587 244.06 301.048 167.092 311.134C102.423 319.608 65.1188 258.189 48.3795 195.201C19.4274 86.2579 195.296 43.9958 308.015 48.3691C428.824 53.0563 554.116 171.897 508.712 283.881C476.038 364.464 399.345 395.286 312.544 389.434C164.293 379.44 385.473 -13.2844 525.322 36.8595C561.31 49.7632 630.808 127.805 630.808 127.805" stroke="black" stroke-width="12.2698"/>
<circle cx="132.871" cy="122.29" r="32.9241" fill="#F5DA24"/>
<circle cx="235.172" cy="204.599" r="32.9241" fill="#F5DA24"/>
<circle cx="202.836" cy="292.203" r="24.1052" fill="#F5DA24"/>
<circle cx="91.1288" cy="282.796" r="33.5121" fill="#F5DA24"/>
<circle cx="49.386" cy="179.907" r="24.6931" fill="#F5DA24"/>
<circle cx="209.303" cy="49.3865" r="24.6931" fill="#F5DA24"/>
<circle cx="321.597" cy="52.3258" r="37.0397" fill="#F5DA24"/>
<circle cx="340.412" cy="148.745" r="27.6328" fill="#F5DA24"/>
<circle cx="500.328" cy="302.785" r="38.2155" fill="#F5DA24"/>
<circle cx="472.107" cy="126.405" r="27.6328" fill="#F5DA24"/>
<circle cx="507.971" cy="198.72" r="36.4517" fill="#F5DA24"/>
</g>
<g clip-path="url(#clip27_1381_1497)">
<rect width="597.338" height="341" transform="translate(597.338)" fill="white"/>
<path d="M576.172 -23.5166C576.172 -23.5166 687.228 172.813 786.971 127.855C857.737 95.9587 841.399 301.048 764.431 311.134C699.762 319.608 662.458 258.189 645.718 195.201C616.766 86.2579 792.635 43.9958 905.354 48.3691C1026.16 53.0563 1151.46 171.897 1106.05 283.881C1073.38 364.464 996.684 395.286 909.883 389.434C761.632 379.44 982.812 -13.2844 1122.66 36.8595C1158.65 49.7632 1228.15 127.805 1228.15 127.805" stroke="black" stroke-width="12.2698"/>
<circle cx="743.144" cy="123.465" r="32.9241" fill="#F5DA24"/>
<circle cx="833.687" cy="216.361" r="32.9241" fill="#F5DA24"/>
<circle cx="793.119" cy="294.552" r="24.1052" fill="#F5DA24"/>
<circle cx="682.588" cy="276.914" r="33.5121" fill="#F5DA24"/>
<circle cx="646.724" cy="170.5" r="24.6931" fill="#F5DA24"/>
<circle cx="817.224" cy="49.3865" r="24.6931" fill="#F5DA24"/>
<circle cx="923.639" cy="53.5025" r="37.0397" fill="#F5DA24"/>
<circle cx="944.805" cy="138.165" r="27.6328" fill="#F5DA24"/>
<circle cx="1095.31" cy="311.014" r="38.2155" fill="#F5DA24"/>
<circle cx="1072.97" cy="134.637" r="27.6328" fill="#F5DA24"/>
<circle cx="1105.31" cy="206.952" r="36.4517" fill="#F5DA24"/>
</g>
<g clip-path="url(#clip28_1381_1497)">
<rect width="597.338" height="341" transform="translate(1194.68)" fill="white"/>
<path d="M1173.51 -23.5166C1173.51 -23.5166 1284.57 172.813 1384.31 127.855C1455.08 95.9587 1438.74 301.048 1361.77 311.134C1297.1 319.608 1259.8 258.189 1243.06 195.201C1214.1 86.2579 1389.97 43.9958 1502.69 48.3691C1623.5 53.0563 1748.79 171.897 1703.39 283.881C1670.72 364.464 1594.02 395.286 1507.22 389.434C1358.97 379.44 1580.15 -13.2844 1720 36.8595C1755.99 49.7632 1825.48 127.805 1825.48 127.805" stroke="black" stroke-width="12.2698"/>
<circle cx="1348.71" cy="123.465" r="32.9241" fill="#F5DA24"/>
<circle cx="1431.02" cy="228.117" r="32.9241" fill="#F5DA24"/>
<circle cx="1381.05" cy="298.083" r="24.1052" fill="#F5DA24"/>
<circle cx="1277.57" cy="265.157" r="33.5121" fill="#F5DA24"/>
<circle cx="1244.06" cy="158.74" r="24.6931" fill="#F5DA24"/>
<circle cx="1427.5" cy="49.3865" r="24.6931" fill="#F5DA24"/>
<circle cx="1530.38" cy="53.5025" r="37.0397" fill="#F5DA24"/>
<circle cx="1544.49" cy="133.46" r="27.6328" fill="#F5DA24"/>
<circle cx="1689.13" cy="318.071" r="38.2155" fill="#F5DA24"/>
<circle cx="1675.01" cy="140.515" r="27.6328" fill="#F5DA24"/>
<circle cx="1702.65" cy="214.008" r="36.4517" fill="#F5DA24"/>
</g>
<g clip-path="url(#clip29_1381_1497)">
<rect width="597.338" height="341" transform="translate(1792.01)" fill="white"/>
<path d="M1770.85 -23.5166C1770.85 -23.5166 1881.9 172.813 1981.65 127.855C2052.41 95.9587 2036.07 301.048 1959.11 311.134C1894.44 319.608 1857.13 258.189 1840.39 195.201C1811.44 86.2579 1987.31 43.9958 2100.03 48.3691C2220.84 53.0563 2346.13 171.897 2300.73 283.881C2268.05 364.464 2191.36 395.286 2104.56 389.434C1956.31 379.44 2177.49 -13.2844 2317.34 36.8595C2353.32 49.7632 2422.82 127.805 2422.82 127.805" stroke="black" stroke-width="12.2698"/>
<circle cx="1954.28" cy="134.048" r="32.9241" fill="#F5DA24"/>
<circle cx="2023.66" cy="245.755" r="32.9241" fill="#F5DA24"/>
<circle cx="1963.1" cy="302.786" r="24.1052" fill="#F5DA24"/>
<circle cx="1865.51" cy="252.223" r="33.5121" fill="#F5DA24"/>
<circle cx="1847.28" cy="138.752" r="24.6931" fill="#F5DA24"/>
<circle cx="2036.59" cy="49.3865" r="24.6931" fill="#F5DA24"/>
<circle cx="2160.65" cy="53.5025" r="37.0397" fill="#F5DA24"/>
<circle cx="2151.24" cy="122.877" r="27.6328" fill="#F5DA24"/>
<circle cx="2282.94" cy="336.884" r="38.2155" fill="#F5DA24"/>
<circle cx="2275.88" cy="147.57" r="27.6328" fill="#F5DA24"/>
<circle cx="2299.99" cy="228.117" r="36.4517" fill="#F5DA24"/>
</g>
<g clip-path="url(#clip30_1381_1497)">
<rect width="597.338" height="341" transform="translate(11946.8)" fill="white"/>
<path d="M11925.6 -23.5166C11925.6 -23.5166 12036.6 172.813 12136.4 127.855C12207.2 95.9587 12190.8 301.048 12113.9 311.134C12049.2 319.608 12011.9 258.189 11995.1 195.201C11966.2 86.2579 12142.1 43.9958 12254.8 48.3691C12375.6 53.0563 12500.9 171.897 12455.5 283.881C12422.8 364.464 12346.1 395.286 12259.3 389.434C12111.1 379.44 12332.2 -13.2844 12472.1 36.8595C12508.1 49.7632 12577.6 127.805 12577.6 127.805" stroke="black" stroke-width="12.2698"/>
<circle cx="12258.4" cy="55.264" r="32.9241" fill="#F5DA24"/>
<circle cx="12340.7" cy="71.7288" r="32.9241" fill="#F5DA24"/>
<circle cx="12408.3" cy="112.295" r="24.1052" fill="#F5DA24"/>
<circle cx="12448.3" cy="192.254" r="33.5121" fill="#F5DA24"/>
<circle cx="12457.1" cy="288.088" r="24.6931" fill="#F5DA24"/>
</g>
<g clip-path="url(#clip31_1381_1497)">
<rect width="597.338" height="341" transform="translate(12544.1)" fill="white"/>
<path d="M12522.9 -23.5166C12522.9 -23.5166 12634 172.813 12733.7 127.855C12804.5 95.9587 12788.2 301.048 12711.2 311.134C12646.5 319.608 12609.2 258.189 12592.5 195.201C12563.5 86.2579 12739.4 43.9958 12852.1 48.3691C12972.9 53.0563 13098.2 171.897 13052.8 283.881C13020.1 364.464 12943.4 395.286 12856.6 389.434C12708.4 379.44 12929.6 -13.2844 13069.4 36.8595C13105.4 49.7632 13174.9 127.805 13174.9 127.805" stroke="black" stroke-width="12.2698"/>
<circle cx="12899.2" cy="55.264" r="32.9241" fill="#F5DA24"/>
<circle cx="12972.1" cy="88.1888" r="32.9241" fill="#F5DA24"/>
<circle cx="13036.2" cy="138.164" r="24.1052" fill="#F5DA24"/>
<circle cx="13053.8" cy="232.234" r="33.5121" fill="#F5DA24"/>
<circle cx="13036.8" cy="319.834" r="24.6931" fill="#F5DA24"/>
</g>
<g clip-path="url(#clip32_1381_1497)">
<rect width="597.338" height="341" transform="translate(13141.4)" fill="white"/>
<path d="M13120.3 -23.5166C13120.3 -23.5166 13231.3 172.813 13331.1 127.855C13401.8 95.9587 13385.5 301.048 13308.5 311.134C13243.9 319.608 13206.6 258.189 13189.8 195.201C13160.9 86.2579 13336.7 43.9958 13449.5 48.3691C13570.3 53.0563 13695.6 171.897 13650.1 283.881C13617.5 364.464 13540.8 395.286 13454 389.434C13305.7 379.44 13526.9 -13.2844 13666.8 36.8595C13702.7 49.7632 13772.2 127.805 13772.2 127.805" stroke="black" stroke-width="12.2698"/>
<circle cx="13534.2" cy="67.0238" r="32.9241" fill="#F5DA24"/>
<circle cx="13600" cy="112.883" r="32.9241" fill="#F5DA24"/>
<circle cx="13644.1" cy="174.617" r="24.1052" fill="#F5DA24"/>
<circle cx="13651.2" cy="272.213" r="33.5121" fill="#F5DA24"/>
<circle cx="13615.3" cy="341" r="24.6931" fill="#F5DA24"/>
</g>
<g clip-path="url(#clip33_1381_1497)">
<rect width="597.338" height="341" transform="translate(13738.8)" fill="white"/>
<path d="M13717.6 -23.5166C13717.6 -23.5166 13828.7 172.813 13928.4 127.855C13999.2 95.9587 13982.8 301.048 13905.9 311.134C13841.2 319.608 13803.9 258.189 13787.2 195.201C13758.2 86.2579 13934.1 43.9958 14046.8 48.3691C14167.6 53.0563 14292.9 171.897 14247.5 283.881C14214.8 364.464 14138.1 395.286 14051.3 389.434C13903.1 379.44 14124.2 -13.2844 14264.1 36.8595C14300.1 49.7632 14369.6 127.805 14369.6 127.805" stroke="black" stroke-width="12.2698"/>
<circle cx="14165.6" cy="85.8402" r="32.9241" fill="#F5DA24"/>
<circle cx="14218.5" cy="139.928" r="32.9241" fill="#F5DA24"/>
<circle cx="14250.9" cy="208.717" r="24.1052" fill="#F5DA24"/>
<circle cx="14241.5" cy="285.146" r="33.5121" fill="#F5DA24"/>
<circle cx="14202.1" cy="355.11" r="24.6931" fill="#F5DA24"/>
</g>
</g>
<defs>
<clipPath id="clip0_1381_1497">
<rect width="19712.2" height="341" fill="white"/>
</clipPath>
<clipPath id="clip1_1381_1497">
<rect width="597.338" height="341" fill="white" transform="translate(16725.5)"/>
</clipPath>
<clipPath id="clip2_1381_1497">
<rect width="597.338" height="341" fill="white" transform="translate(17322.8)"/>
</clipPath>
<clipPath id="clip3_1381_1497">
<rect width="597.338" height="341" fill="white" transform="translate(17920.1)"/>
</clipPath>
<clipPath id="clip4_1381_1497">
<rect width="597.338" height="341" fill="white" transform="translate(18517.5)"/>
</clipPath>
<clipPath id="clip5_1381_1497">
<rect width="597.338" height="341" fill="white" transform="translate(14336.1)"/>
</clipPath>
<clipPath id="clip6_1381_1497">
<rect width="597.338" height="341" fill="white" transform="translate(14933.4)"/>
</clipPath>
<clipPath id="clip7_1381_1497">
<rect width="597.338" height="341" fill="white" transform="translate(15530.8)"/>
</clipPath>
<clipPath id="clip8_1381_1497">
<rect width="597.338" height="341" fill="white" transform="translate(19114.8)"/>
</clipPath>
<clipPath id="clip9_1381_1497">
<rect width="597.338" height="341" fill="white" transform="translate(16128.1)"/>
</clipPath>
<clipPath id="clip10_1381_1497">
<rect width="597.338" height="341" fill="white" transform="translate(9557.41)"/>
</clipPath>
<clipPath id="clip11_1381_1497">
<rect width="597.338" height="341" fill="white" transform="translate(10154.7)"/>
</clipPath>
<clipPath id="clip12_1381_1497">
<rect width="597.338" height="341" fill="white" transform="translate(10752.1)"/>
</clipPath>
<clipPath id="clip13_1381_1497">
<rect width="597.338" height="341" fill="white" transform="translate(11349.4)"/>
</clipPath>
<clipPath id="clip14_1381_1497">
<rect width="597.338" height="341" fill="white" transform="translate(7168.06)"/>
</clipPath>
<clipPath id="clip15_1381_1497">
<rect width="597.338" height="341" fill="white" transform="translate(7765.39)"/>
</clipPath>
<clipPath id="clip16_1381_1497">
<rect width="597.338" height="341" fill="white" transform="translate(8362.73)"/>
</clipPath>
<clipPath id="clip17_1381_1497">
<rect width="597.338" height="341" fill="white" transform="translate(8960.07)"/>
</clipPath>
<clipPath id="clip18_1381_1497">
<rect width="597.338" height="341" fill="white" transform="translate(4778.7)"/>
</clipPath>
<clipPath id="clip19_1381_1497">
<rect width="597.338" height="341" fill="white" transform="translate(5376.04)"/>
</clipPath>
<clipPath id="clip20_1381_1497">
<rect width="597.338" height="341" fill="white" transform="translate(5973.38)"/>
</clipPath>
<clipPath id="clip21_1381_1497">
<rect width="597.338" height="341" fill="white" transform="translate(6570.72)"/>
</clipPath>
<clipPath id="clip22_1381_1497">
<rect width="597.338" height="341" fill="white" transform="translate(2389.35)"/>
</clipPath>
<clipPath id="clip23_1381_1497">
<rect width="597.338" height="341" fill="white" transform="translate(2986.69)"/>
</clipPath>
<clipPath id="clip24_1381_1497">
<rect width="597.338" height="341" fill="white" transform="translate(3584.03)"/>
</clipPath>
<clipPath id="clip25_1381_1497">
<rect width="597.338" height="341" fill="white" transform="translate(4181.37)"/>
</clipPath>
<clipPath id="clip26_1381_1497">
<rect width="597.338" height="341" fill="white" transform="translate(-0.000488281)"/>
</clipPath>
<clipPath id="clip27_1381_1497">
<rect width="597.338" height="341" fill="white" transform="translate(597.338)"/>
</clipPath>
<clipPath id="clip28_1381_1497">
<rect width="597.338" height="341" fill="white" transform="translate(1194.68)"/>
</clipPath>
<clipPath id="clip29_1381_1497">
<rect width="597.338" height="341" fill="white" transform="translate(1792.01)"/>
</clipPath>
<clipPath id="clip30_1381_1497">
<rect width="597.338" height="341" fill="white" transform="translate(11946.8)"/>
</clipPath>
<clipPath id="clip31_1381_1497">
<rect width="597.338" height="341" fill="white" transform="translate(12544.1)"/>
</clipPath>
<clipPath id="clip32_1381_1497">
<rect width="597.338" height="341" fill="white" transform="translate(13141.4)"/>
</clipPath>
<clipPath id="clip33_1381_1497">
<rect width="597.338" height="341" fill="white" transform="translate(13738.8)"/>
</clipPath>
</defs>
</svg>
