<svg width="25345" height="440" viewBox="0 0 25345 440" fill="none" xmlns="http://www.w3.org/2000/svg">
<g clip-path="url(#clip0_1381_2657)">
<g clip-path="url(#clip1_1381_2657)">
<rect width="768" height="438.425" transform="translate(0.796875 0.831055)" fill="white"/>
<path d="M-26.4155 -29.4053C-26.4155 -29.4053 116.369 223.017 244.61 165.214C335.594 124.205 314.587 387.889 215.629 400.856C132.484 411.751 84.5219 332.785 63 251.801C25.7762 111.732 251.892 57.3957 396.815 63.0185C552.139 69.0449 713.228 221.839 654.851 365.817C612.843 469.422 514.238 509.051 402.637 501.528C212.031 488.678 496.402 -16.2497 676.207 48.2205C722.477 64.8109 811.831 165.149 811.831 165.149" stroke="black" stroke-width="15.7753"/>
<circle cx="171.633" cy="158.061" r="42.3307" fill="#F5DA24"/>
<circle cx="303.161" cy="263.884" r="42.3307" fill="#F5DA24"/>
<circle cx="261.584" cy="376.518" r="30.9921" fill="#F5DA24"/>
<circle cx="117.964" cy="364.424" r="43.0866" fill="#F5DA24"/>
<circle cx="64.2934" cy="232.138" r="31.748" fill="#F5DA24"/>
<circle cx="269.9" cy="64.3281" r="31.748" fill="#F5DA24"/>
<circle cx="414.276" cy="68.1064" r="47.6221" fill="#F5DA24"/>
<circle cx="438.467" cy="192.073" r="35.5276" fill="#F5DA24"/>
<circle cx="644.071" cy="390.122" r="49.1339" fill="#F5DA24"/>
<circle cx="607.788" cy="163.351" r="35.5276" fill="#F5DA24"/>
<circle cx="653.899" cy="256.326" r="46.8661" fill="#F5DA24"/>
</g>
<g clip-path="url(#clip2_1381_2657)">
<rect width="768" height="438.425" transform="translate(768.797 0.831055)" fill="white"/>
<path d="M741.585 -29.4062C741.585 -29.4062 884.369 223.016 1012.61 165.213C1103.59 124.204 1082.59 387.888 983.63 400.855C900.484 411.751 852.522 332.784 831.001 251.8C793.777 111.731 1019.89 57.3948 1164.82 63.0175C1320.14 69.0439 1481.23 221.838 1422.85 365.816C1380.84 469.422 1282.24 509.05 1170.64 501.527C980.031 488.677 1264.4 -16.2507 1444.21 48.2196C1490.48 64.81 1579.83 165.148 1579.83 165.148" stroke="black" stroke-width="15.7753"/>
<circle cx="956.262" cy="159.571" r="42.3307" fill="#F5DA24"/>
<circle cx="1072.67" cy="279.004" r="42.3307" fill="#F5DA24"/>
<circle cx="1020.51" cy="379.539" r="30.9921" fill="#F5DA24"/>
<circle cx="878.403" cy="356.863" r="43.0866" fill="#F5DA24"/>
<circle cx="832.293" cy="220.043" r="31.748" fill="#F5DA24"/>
<circle cx="1051.51" cy="64.3271" r="31.748" fill="#F5DA24"/>
<circle cx="1188.32" cy="69.6181" r="47.622" fill="#F5DA24"/>
<circle cx="1215.54" cy="178.469" r="35.5276" fill="#F5DA24"/>
<circle cx="1409.05" cy="400.704" r="49.1339" fill="#F5DA24"/>
<circle cx="1380.32" cy="173.933" r="35.5276" fill="#F5DA24"/>
<circle cx="1421.9" cy="266.909" r="46.8661" fill="#F5DA24"/>
</g>
<g clip-path="url(#clip3_1381_2657)">
<rect width="768" height="438.425" transform="translate(1536.8 0.831055)" fill="white"/>
<path d="M1509.58 -29.4062C1509.58 -29.4062 1652.37 223.016 1780.61 165.213C1871.59 124.204 1850.59 387.888 1751.63 400.855C1668.48 411.751 1620.52 332.784 1599 251.8C1561.78 111.731 1787.89 57.3948 1932.81 63.0175C2088.14 69.0439 2249.23 221.838 2190.85 365.816C2148.84 469.422 2050.24 509.05 1938.64 501.527C1748.03 488.677 2032.4 -16.2507 2212.21 48.2196C2258.48 64.81 2347.83 165.148 2347.83 165.148" stroke="black" stroke-width="15.7753"/>
<circle cx="1734.84" cy="159.571" r="42.3307" fill="#F5DA24"/>
<circle cx="1840.67" cy="294.122" r="42.3307" fill="#F5DA24"/>
<circle cx="1776.42" cy="384.075" r="30.9921" fill="#F5DA24"/>
<circle cx="1643.38" cy="341.745" r="43.0866" fill="#F5DA24"/>
<circle cx="1600.29" cy="204.925" r="31.748" fill="#F5DA24"/>
<circle cx="1836.14" cy="64.3271" r="31.748" fill="#F5DA24"/>
<circle cx="1968.42" cy="69.6181" r="47.622" fill="#F5DA24"/>
<circle cx="1986.56" cy="172.421" r="35.5276" fill="#F5DA24"/>
<circle cx="2172.51" cy="409.775" r="49.1339" fill="#F5DA24"/>
<circle cx="2154.37" cy="181.491" r="35.5276" fill="#F5DA24"/>
<circle cx="2189.9" cy="275.98" r="46.8661" fill="#F5DA24"/>
</g>
<g clip-path="url(#clip4_1381_2657)">
<rect width="768" height="438.425" transform="translate(2304.8 0.831055)" fill="white"/>
<path d="M2277.58 -29.4062C2277.58 -29.4062 2420.37 223.016 2548.61 165.213C2639.59 124.204 2618.59 387.888 2519.63 400.855C2436.48 411.751 2388.52 332.784 2367 251.8C2329.78 111.731 2555.89 57.3948 2700.81 63.0175C2856.14 69.0439 3017.23 221.838 2958.85 365.816C2916.84 469.422 2818.24 509.05 2706.64 501.527C2516.03 488.677 2800.4 -16.2507 2980.21 48.2196C3026.48 64.81 3115.83 165.148 3115.83 165.148" stroke="black" stroke-width="15.7753"/>
<circle cx="2513.43" cy="173.176" r="42.3307" fill="#F5DA24"/>
<circle cx="2602.62" cy="316.799" r="42.3307" fill="#F5DA24"/>
<circle cx="2524.77" cy="390.122" r="30.9921" fill="#F5DA24"/>
<circle cx="2399.28" cy="325.115" r="43.0866" fill="#F5DA24"/>
<circle cx="2375.85" cy="179.225" r="31.748" fill="#F5DA24"/>
<circle cx="2619.25" cy="64.3271" r="31.748" fill="#F5DA24"/>
<circle cx="2778.75" cy="69.6181" r="47.622" fill="#F5DA24"/>
<circle cx="2766.66" cy="158.816" r="35.5276" fill="#F5DA24"/>
<circle cx="2935.98" cy="433.965" r="49.1339" fill="#F5DA24"/>
<circle cx="2926.91" cy="190.564" r="35.5276" fill="#F5DA24"/>
<circle cx="2957.9" cy="294.123" r="46.8661" fill="#F5DA24"/>
</g>
<g clip-path="url(#clip5_1381_2657)">
<rect width="768" height="438.425" transform="translate(3072.8 0.831055)" fill="white"/>
<path d="M3045.58 -29.4053C3045.58 -29.4053 3188.37 223.017 3316.61 165.214C3407.59 124.205 3386.59 387.889 3287.63 400.856C3204.48 411.751 3156.52 332.785 3135 251.801C3097.78 111.732 3323.89 57.3958 3468.81 63.0185C3624.14 69.0449 3785.23 221.839 3726.85 365.817C3684.84 469.423 3586.24 509.051 3474.64 501.528C3284.03 488.678 3568.4 -16.2497 3748.21 48.2205C3794.48 64.8109 3883.83 165.149 3883.83 165.149" stroke="black" stroke-width="15.7753"/>
<circle cx="3317.71" cy="168.641" r="42.3307" fill="#F5DA24"/>
<circle cx="3360.04" cy="333.429" r="42.3307" fill="#F5DA24"/>
<circle cx="3251.95" cy="387.098" r="30.9921" fill="#F5DA24"/>
<circle cx="3147.63" cy="285.807" r="43.0866" fill="#F5DA24"/>
<circle cx="3163.51" cy="150.5" r="31.748" fill="#F5DA24"/>
<circle cx="3425.05" cy="64.3271" r="31.748" fill="#F5DA24"/>
<circle cx="3632.92" cy="111.949" r="47.622" fill="#F5DA24"/>
<circle cx="3552.8" cy="146.721" r="35.5276" fill="#F5DA24"/>
<circle cx="3690.37" cy="455.131" r="49.1339" fill="#F5DA24"/>
<circle cx="3703.98" cy="204.17" r="35.5276" fill="#F5DA24"/>
<circle cx="3727.41" cy="322.847" r="46.8661" fill="#F5DA24"/>
</g>
<g clip-path="url(#clip6_1381_2657)">
<rect width="768" height="438.425" transform="translate(3840.8 0.831055)" fill="white"/>
<path d="M3813.58 -29.4053C3813.58 -29.4053 3956.37 223.017 4084.61 165.214C4175.59 124.205 4154.59 387.889 4055.63 400.856C3972.48 411.751 3924.52 332.785 3903 251.801C3865.78 111.732 4091.89 57.3958 4236.81 63.0185C4392.14 69.0449 4553.23 221.839 4494.85 365.817C4452.84 469.423 4354.24 509.051 4242.64 501.528C4052.03 488.678 4336.4 -16.2497 4516.21 48.2205C4562.48 64.8109 4651.83 165.149 4651.83 165.149" stroke="black" stroke-width="15.7753"/>
<circle cx="4117.46" cy="177.714" r="42.3307" fill="#F5DA24"/>
<circle cx="4117.46" cy="356.107" r="42.3307" fill="#F5DA24"/>
<circle cx="3979.13" cy="378.028" r="30.9921" fill="#F5DA24"/>
<circle cx="3911.1" cy="263.131" r="43.0866" fill="#F5DA24"/>
<circle cx="3948.14" cy="136.895" r="31.748" fill="#F5DA24"/>
<circle cx="4224.8" cy="64.3271" r="31.748" fill="#F5DA24"/>
<circle cx="4414.53" cy="121.02" r="47.622" fill="#F5DA24"/>
<circle cx="4335.92" cy="121.021" r="35.5276" fill="#F5DA24"/>
<circle cx="4441.74" cy="470.249" r="49.1339" fill="#F5DA24"/>
<circle cx="4478.03" cy="219.288" r="35.5276" fill="#F5DA24"/>
<circle cx="4495.41" cy="337.965" r="46.8661" fill="#F5DA24"/>
</g>
<g clip-path="url(#clip7_1381_2657)">
<rect width="768" height="438.425" transform="translate(4608.8 0.831055)" fill="white"/>
<path d="M4581.58 -29.4053C4581.58 -29.4053 4724.37 223.017 4852.61 165.214C4943.59 124.205 4922.59 387.889 4823.63 400.856C4740.48 411.751 4692.52 332.785 4671 251.801C4633.78 111.732 4859.89 57.3958 5004.81 63.0185C5160.14 69.0449 5321.23 221.839 5262.85 365.817C5220.84 469.423 5122.24 509.051 5010.64 501.528C4820.03 488.678 5104.4 -16.2497 5284.21 48.2205C5330.48 64.8109 5419.83 165.149 5419.83 165.149" stroke="black" stroke-width="15.7753"/>
<circle cx="4899.06" cy="198.879" r="42.3307" fill="#F5DA24"/>
<circle cx="4864.29" cy="386.342" r="42.3307" fill="#F5DA24"/>
<circle cx="4721.43" cy="368.957" r="30.9921" fill="#F5DA24"/>
<circle cx="4668.51" cy="234.406" r="43.0866" fill="#F5DA24"/>
<circle cx="4743.35" cy="117.241" r="31.748" fill="#F5DA24"/>
<circle cx="5024.54" cy="64.3271" r="31.748" fill="#F5DA24"/>
<circle cx="5196.14" cy="133.115" r="47.622" fill="#F5DA24"/>
<circle cx="5134.15" cy="75.6662" r="35.5276" fill="#F5DA24"/>
<circle cx="5196.14" cy="477.808" r="49.1339" fill="#F5DA24"/>
<circle cx="5252.07" cy="240.452" r="35.5276" fill="#F5DA24"/>
<circle cx="5263.41" cy="360.643" r="46.8661" fill="#F5DA24"/>
</g>
<g clip-path="url(#clip8_1381_2657)">
<rect width="768" height="438.425" transform="translate(5376.8 0.831055)" fill="white"/>
<path d="M5349.58 -29.4053C5349.58 -29.4053 5492.37 223.017 5620.61 165.214C5711.59 124.205 5690.59 387.889 5591.63 400.856C5508.48 411.751 5460.52 332.785 5439 251.801C5401.78 111.732 5627.89 57.3958 5772.81 63.0185C5928.14 69.0449 6089.23 221.839 6030.85 365.817C5988.84 469.423 5890.24 509.051 5778.64 501.528C5588.03 488.678 5872.4 -16.2497 6052.21 48.2205C6098.48 64.8109 6187.83 165.149 6187.83 165.149" stroke="black" stroke-width="15.7753"/>
<circle cx="5667.06" cy="229.115" r="42.3307" fill="#F5DA24"/>
<circle cx="5585.43" cy="389.367" r="42.3307" fill="#F5DA24"/>
<circle cx="5478.84" cy="332.674" r="30.9921" fill="#F5DA24"/>
<circle cx="5436.51" cy="204.169" r="43.0866" fill="#F5DA24"/>
<circle cx="5547.63" cy="96.0752" r="31.748" fill="#F5DA24"/>
<circle cx="5839.41" cy="64.3271" r="31.748" fill="#F5DA24"/>
<circle cx="5973.21" cy="151.257" r="47.622" fill="#F5DA24"/>
<circle cx="5938.43" cy="63.5715" r="35.5276" fill="#F5DA24"/>
<circle cx="6030.65" cy="276.736" r="35.5276" fill="#F5DA24"/>
<circle cx="6013.27" cy="390.878" r="46.8661" fill="#F5DA24"/>
</g>
<g clip-path="url(#clip9_1381_2657)">
<rect width="768" height="438.425" transform="translate(6912.8 0.831055)" fill="white"/>
<path d="M6885.58 -29.4053C6885.58 -29.4053 7028.37 223.017 7156.61 165.214C7247.59 124.205 7226.59 387.889 7127.63 400.856C7044.48 411.751 6996.52 332.785 6975 251.801C6937.78 111.732 7163.89 57.3958 7308.81 63.0185C7464.14 69.0449 7625.23 221.839 7566.85 365.817C7524.84 469.423 7426.24 509.051 7314.64 501.528C7124.03 488.678 7408.4 -16.2497 7588.21 48.2205C7634.48 64.8109 7723.83 165.149 7723.83 165.149" stroke="black" stroke-width="15.7753"/>
<circle cx="7195.51" cy="301.681" r="42.3307" fill="#F5DA24"/>
<circle cx="7045.84" cy="369.713" r="42.3307" fill="#F5DA24"/>
<circle cx="6977.05" cy="258.595" r="30.9921" fill="#F5DA24"/>
<circle cx="7028.45" cy="117.996" r="43.0866" fill="#F5DA24"/>
<circle cx="7163.76" cy="74.9092" r="31.748" fill="#F5DA24"/>
<circle cx="7440.42" cy="99.0976" r="31.748" fill="#F5DA24"/>
<circle cx="7554.56" cy="211.728" r="47.622" fill="#F5DA24"/>
<circle cx="7536.42" cy="42.4055" r="35.5276" fill="#F5DA24"/>
<circle cx="7571.19" cy="349.304" r="35.5276" fill="#F5DA24"/>
<circle cx="7511.47" cy="457.398" r="46.8661" fill="#F5DA24"/>
</g>
<g clip-path="url(#clip10_1381_2657)">
<rect width="768" height="438.425" transform="translate(6144.8 0.831055)" fill="white"/>
<path d="M6117.58 -29.4053C6117.58 -29.4053 6260.37 223.017 6388.61 165.214C6479.59 124.205 6458.59 387.889 6359.63 400.856C6276.48 411.751 6228.52 332.785 6207 251.801C6169.78 111.732 6395.89 57.3958 6540.81 63.0185C6696.14 69.0449 6857.23 221.839 6798.85 365.817C6756.84 469.423 6658.24 509.051 6546.64 501.528C6356.03 488.678 6640.4 -16.2497 6820.21 48.2205C6866.48 64.8109 6955.83 165.149 6955.83 165.149" stroke="black" stroke-width="15.7753"/>
<circle cx="6438.09" cy="271.445" r="42.3307" fill="#F5DA24"/>
<circle cx="6311.1" cy="381.806" r="42.3307" fill="#F5DA24"/>
<circle cx="6227.19" cy="296.39" r="30.9921" fill="#F5DA24"/>
<circle cx="6227.19" cy="161.839" r="43.0866" fill="#F5DA24"/>
<circle cx="6353.43" cy="87.0039" r="31.748" fill="#F5DA24"/>
<circle cx="6639.16" cy="74.9092" r="31.748" fill="#F5DA24"/>
<circle cx="6763.88" cy="187.54" r="47.622" fill="#F5DA24"/>
<circle cx="6732.14" cy="63.5715" r="35.5276" fill="#F5DA24"/>
<circle cx="6803.19" cy="313.02" r="35.5276" fill="#F5DA24"/>
<circle cx="6763.13" cy="418.09" r="46.8661" fill="#F5DA24"/>
</g>
<g clip-path="url(#clip11_1381_2657)">
<rect width="768" height="438.425" transform="translate(7680.8 0.831055)" fill="white"/>
<path d="M7653.58 -29.4062C7653.58 -29.4062 7796.37 223.016 7924.61 165.213C8015.59 124.204 7994.59 387.888 7895.63 400.855C7812.48 411.751 7764.52 332.784 7743 251.8C7705.78 111.731 7931.89 57.3948 8076.81 63.0175C8232.14 69.0439 8393.23 221.838 8334.85 365.816C8292.84 469.422 8194.24 509.05 8082.64 501.527C7892.03 488.677 8176.4 -16.2507 8356.21 48.2196C8402.48 64.81 8491.83 165.148 8491.83 165.148" stroke="black" stroke-width="15.7753"/>
<circle cx="7939.32" cy="353.084" r="42.3307" fill="#F5DA24"/>
<circle cx="7792.67" cy="344.012" r="42.3307" fill="#F5DA24"/>
<circle cx="7740.51" cy="205.682" r="30.9921" fill="#F5DA24"/>
<circle cx="7855.41" cy="86.2477" r="43.0866" fill="#F5DA24"/>
<circle cx="7981.65" cy="74.9092" r="31.748" fill="#F5DA24"/>
<circle cx="8240.17" cy="74.9092" r="31.748" fill="#F5DA24"/>
<circle cx="8330.12" cy="235.917" r="47.622" fill="#F5DA24"/>
<circle cx="8348.26" cy="42.4055" r="35.5276" fill="#F5DA24"/>
<circle cx="8330.12" cy="375.003" r="35.5276" fill="#F5DA24"/>
<circle cx="8265.87" cy="471.004" r="46.8661" fill="#F5DA24"/>
</g>
<g clip-path="url(#clip12_1381_2657)">
<rect width="768" height="438.425" transform="translate(8448.8 0.831055)" fill="white"/>
<path d="M8421.58 -29.4062C8421.58 -29.4062 8564.37 223.016 8692.61 165.213C8783.59 124.204 8762.59 387.888 8663.63 400.855C8580.48 411.751 8532.52 332.784 8511 251.8C8473.78 111.731 8699.89 57.3948 8844.81 63.0175C9000.14 69.0439 9161.23 221.838 9102.85 365.816C9060.84 469.422 8962.24 509.05 8850.64 501.527C8660.03 488.677 8944.4 -16.2507 9124.21 48.2196C9170.48 64.81 9259.83 165.148 9259.83 165.148" stroke="black" stroke-width="15.7753"/>
<circle cx="8675.57" cy="378.783" r="42.3307" fill="#F5DA24"/>
<circle cx="8531.95" cy="310.752" r="42.3307" fill="#F5DA24"/>
<circle cx="8520.61" cy="160.326" r="30.9921" fill="#F5DA24"/>
<circle cx="8650.62" cy="81.7126" r="43.0866" fill="#F5DA24"/>
<circle cx="8790.47" cy="70.374" r="31.748" fill="#F5DA24"/>
<circle cx="9038.4" cy="59.792" r="31.748" fill="#F5DA24"/>
<circle cx="9104.17" cy="273.713" r="47.622" fill="#F5DA24"/>
<circle cx="9151.03" cy="45.4289" r="35.5276" fill="#F5DA24"/>
<circle cx="9086.02" cy="403.728" r="35.5276" fill="#F5DA24"/>
</g>
<g clip-path="url(#clip13_1381_2657)">
<rect width="768" height="438.425" transform="translate(9216.8 0.831055)" fill="white"/>
<path d="M9189.58 -29.4062C9189.58 -29.4062 9332.37 223.016 9460.61 165.213C9551.59 124.204 9530.59 387.888 9431.63 400.855C9348.48 411.751 9300.52 332.784 9279 251.8C9241.78 111.731 9467.89 57.3948 9612.81 63.0175C9768.14 69.0439 9929.23 221.838 9870.85 365.816C9828.84 469.422 9730.24 509.05 9618.64 501.527C9428.03 488.677 9712.4 -16.2507 9892.21 48.2196C9938.48 64.81 10027.8 165.148 10027.8 165.148" stroke="black" stroke-width="15.7753"/>
<circle cx="9384.61" cy="371.224" r="42.3307" fill="#F5DA24"/>
<circle cx="9289.36" cy="263.885" r="42.3307" fill="#F5DA24"/>
<circle cx="9330.94" cy="133.114" r="30.9921" fill="#F5DA24"/>
<circle cx="9479.1" cy="71.1306" r="43.0866" fill="#F5DA24"/>
<circle cx="9600.8" cy="70.374" r="31.748" fill="#F5DA24"/>
<circle cx="9853.27" cy="47.6973" r="31.748" fill="#F5DA24"/>
<circle cx="9881.24" cy="305.461" r="47.622" fill="#F5DA24"/>
<circle cx="9941.71" cy="78.6887" r="35.5276" fill="#F5DA24"/>
<circle cx="9837.4" cy="438.499" r="35.5276" fill="#F5DA24"/>
</g>
<g clip-path="url(#clip14_1381_2657)">
<rect width="768" height="438.425" transform="translate(9984.8 0.831055)" fill="white"/>
<path d="M9957.58 -29.4062C9957.58 -29.4062 10100.4 223.016 10228.6 165.213C10319.6 124.204 10298.6 387.888 10199.6 400.855C10116.5 411.751 10068.5 332.784 10047 251.8C10009.8 111.731 10235.9 57.3948 10380.8 63.0175C10536.1 69.0439 10697.2 221.838 10638.9 365.816C10596.8 469.422 10498.2 509.05 10386.6 501.527C10196 488.677 10480.4 -16.2507 10660.2 48.2196C10706.5 64.81 10795.8 165.148 10795.8 165.148" stroke="black" stroke-width="15.7753"/>
<circle cx="10089.1" cy="344.012" r="42.3307" fill="#F5DA24"/>
<circle cx="10057.4" cy="204.924" r="42.3307" fill="#F5DA24"/>
<circle cx="10130.7" cy="116.484" r="30.9921" fill="#F5DA24"/>
<circle cx="10294" cy="69.6179" r="43.0866" fill="#F5DA24"/>
<circle cx="10415.7" cy="70.374" r="31.748" fill="#F5DA24"/>
<circle cx="10663.6" cy="47.6973" r="31.748" fill="#F5DA24"/>
<circle cx="10638.7" cy="359.886" r="47.622" fill="#F5DA24"/>
<circle cx="10739.9" cy="95.3195" r="35.5276" fill="#F5DA24"/>
</g>
<g clip-path="url(#clip15_1381_2657)">
<rect width="768" height="438.425" transform="translate(10752.8 0.831055)" fill="white"/>
<path d="M10725.6 -29.4062C10725.6 -29.4062 10868.4 223.016 10996.6 165.213C11087.6 124.204 11066.6 387.888 10967.6 400.855C10884.5 411.751 10836.5 332.784 10815 251.8C10777.8 111.731 11003.9 57.3948 11148.8 63.0175C11304.1 69.0439 11465.2 221.838 11406.9 365.816C11364.8 469.422 11266.2 509.05 11154.6 501.527C10964 488.677 11248.4 -16.2507 11428.2 48.2196C11474.5 64.81 11563.8 165.148 11563.8 165.148" stroke="black" stroke-width="15.7753"/>
<circle cx="10845" cy="300.17" r="42.3307" fill="#F5DA24"/>
<circle cx="10857.1" cy="138.406" r="42.3307" fill="#F5DA24"/>
<circle cx="10997" cy="81.7119" r="30.9921" fill="#F5DA24"/>
<circle cx="11116.4" cy="69.6179" r="43.0866" fill="#F5DA24"/>
<circle cx="11236.6" cy="80.956" r="31.748" fill="#F5DA24"/>
<circle cx="11454.3" cy="58.2793" r="31.748" fill="#F5DA24"/>
<circle cx="11388.5" cy="427.917" r="47.622" fill="#F5DA24"/>
<circle cx="11530.6" cy="114.973" r="35.5276" fill="#F5DA24"/>
</g>
<g clip-path="url(#clip16_1381_2657)">
<rect width="768" height="438.425" transform="translate(11520.8 0.831055)" fill="white"/>
<path d="M11493.6 -29.4062C11493.6 -29.4062 11636.4 223.016 11764.6 165.213C11855.6 124.204 11834.6 387.888 11735.6 400.855C11652.5 411.751 11604.5 332.784 11583 251.8C11545.8 111.731 11771.9 57.3948 11916.8 63.0175C12072.1 69.0439 12233.2 221.838 12174.9 365.816C12132.8 469.422 12034.2 509.05 11922.6 501.527C11732 488.677 12016.4 -16.2507 12196.2 48.2196C12242.5 64.81 12331.8 165.148 12331.8 165.148" stroke="black" stroke-width="15.7753"/>
<circle cx="11593.4" cy="254.815" r="42.3307" fill="#F5DA24"/>
<circle cx="11665.9" cy="108.169" r="42.3307" fill="#F5DA24"/>
<circle cx="11810.3" cy="74.1533" r="30.9921" fill="#F5DA24"/>
<circle cx="11955.4" cy="69.6179" r="43.0866" fill="#F5DA24"/>
<circle cx="12077.1" cy="118.752" r="31.748" fill="#F5DA24"/>
<circle cx="12257" cy="80.956" r="31.748" fill="#F5DA24"/>
<circle cx="12130.8" cy="453.619" r="47.622" fill="#F5DA24"/>
</g>
<g clip-path="url(#clip17_1381_2657)">
<rect width="768" height="438.425" transform="translate(12288.8 0.831055)" fill="white"/>
<path d="M12261.6 -29.4053C12261.6 -29.4053 12404.4 223.017 12532.6 165.214C12623.6 124.205 12602.6 387.889 12503.6 400.856C12420.5 411.751 12372.5 332.785 12351 251.801C12313.8 111.732 12539.9 57.3958 12684.8 63.0185C12840.1 69.0449 13001.2 221.839 12942.9 365.817C12900.8 469.423 12802.2 509.051 12690.6 501.528C12500 488.678 12784.4 -16.2497 12964.2 48.2205C13010.5 64.8109 13099.8 165.149 13099.8 165.149" stroke="black" stroke-width="15.7753"/>
<circle cx="12362.9" cy="179.225" r="42.3307" fill="#F5DA24"/>
<circle cx="12506.5" cy="85.4918" r="42.3307" fill="#F5DA24"/>
<circle cx="12650.9" cy="74.1533" r="30.9921" fill="#F5DA24"/>
<circle cx="12779.4" cy="74.153" r="43.0866" fill="#F5DA24"/>
<circle cx="12886" cy="144.453" r="31.748" fill="#F5DA24"/>
<circle cx="13046.2" cy="105.146" r="31.748" fill="#F5DA24"/>
</g>
<g clip-path="url(#clip18_1381_2657)">
<rect width="768" height="438.425" transform="translate(13056.8 0.831055)" fill="white"/>
<path d="M13029.6 -29.4062C13029.6 -29.4062 13172.4 223.016 13300.6 165.213C13391.6 124.204 13370.6 387.888 13271.6 400.855C13188.5 411.751 13140.5 332.784 13119 251.8C13081.8 111.731 13307.9 57.3948 13452.8 63.0175C13608.1 69.0439 13769.2 221.838 13710.9 365.816C13668.8 469.422 13570.2 509.05 13458.6 501.527C13268 488.677 13552.4 -16.2507 13732.2 48.2196C13778.5 64.81 13867.8 165.148 13867.8 165.148" stroke="black" stroke-width="15.7753"/>
<circle cx="13171.7" cy="127.823" r="42.3307" fill="#F5DA24"/>
<circle cx="13353.1" cy="64.3268" r="42.3307" fill="#F5DA24"/>
<circle cx="13479.3" cy="74.1533" r="30.9921" fill="#F5DA24"/>
<circle cx="13606.3" cy="105.901" r="43.0866" fill="#F5DA24"/>
<circle cx="13681.2" cy="179.225" r="31.748" fill="#F5DA24"/>
<circle cx="13841.4" cy="117.24" r="31.748" fill="#F5DA24"/>
</g>
<g clip-path="url(#clip19_1381_2657)">
<rect width="768" height="438.425" transform="translate(13824.8 0.831055)" fill="white"/>
<path d="M13797.6 -29.4053C13797.6 -29.4053 13940.4 223.017 14068.6 165.214C14159.6 124.205 14138.6 387.889 14039.6 400.856C13956.5 411.751 13908.5 332.785 13887 251.801C13849.8 111.732 14075.9 57.3958 14220.8 63.0185C14376.1 69.0449 14537.2 221.839 14478.9 365.817C14436.8 469.423 14338.2 509.051 14226.6 501.528C14036 488.678 14320.4 -16.2497 14500.2 48.2205C14546.5 64.8109 14635.8 165.149 14635.8 165.149" stroke="black" stroke-width="15.7753"/>
<circle cx="14016.8" cy="85.4918" r="42.3307" fill="#F5DA24"/>
<circle cx="14196.7" cy="62.8161" r="42.3307" fill="#F5DA24"/>
<circle cx="14321.4" cy="84.7372" r="30.9921" fill="#F5DA24"/>
<circle cx="14418.2" cy="148.233" r="43.0866" fill="#F5DA24"/>
<circle cx="14479.4" cy="236.673" r="31.748" fill="#F5DA24"/>
</g>
<g clip-path="url(#clip20_1381_2657)">
<rect width="768" height="438.425" transform="translate(14592.8 0.831055)" fill="white"/>
<path d="M14565.6 -29.4053C14565.6 -29.4053 14708.4 223.017 14836.6 165.214C14927.6 124.205 14906.6 387.889 14807.6 400.856C14724.5 411.751 14676.5 332.785 14655 251.801C14617.8 111.732 14843.9 57.3958 14988.8 63.0185C15144.1 69.0449 15305.2 221.839 15246.9 365.817C15204.8 469.423 15106.2 509.051 14994.6 501.528C14804 488.678 15088.4 -16.2497 15268.2 48.2205C15314.5 64.8109 15403.8 165.149 15403.8 165.149" stroke="black" stroke-width="15.7753"/>
<circle cx="14926.9" cy="71.8864" r="42.3307" fill="#F5DA24"/>
<circle cx="15049.4" cy="65.8385" r="42.3307" fill="#F5DA24"/>
<circle cx="15133.3" cy="96.83" r="30.9921" fill="#F5DA24"/>
<circle cx="15216.4" cy="190.563" r="43.0866" fill="#F5DA24"/>
<circle cx="15248.9" cy="304.704" r="31.748" fill="#F5DA24"/>
</g>
<g clip-path="url(#clip21_1381_2657)">
<rect width="768" height="438.425" transform="translate(15360.8 0.831055)" fill="white"/>
<path d="M15333.6 -29.4053C15333.6 -29.4053 15476.4 223.017 15604.6 165.214C15695.6 124.205 15674.6 387.889 15575.6 400.856C15492.5 411.751 15444.5 332.785 15423 251.801C15385.8 111.732 15611.9 57.3958 15756.8 63.0185C15912.1 69.0449 16073.2 221.839 16014.9 365.817C15972.8 469.423 15874.2 509.051 15762.6 501.528C15572 488.678 15856.4 -16.2497 16036.2 48.2205C16082.5 64.8109 16171.8 165.149 16171.8 165.149" stroke="black" stroke-width="15.7753"/>
<circle cx="15761.4" cy="71.8864" r="42.3307" fill="#F5DA24"/>
<circle cx="15867.3" cy="93.0504" r="42.3307" fill="#F5DA24"/>
<circle cx="15954.2" cy="145.208" r="30.9921" fill="#F5DA24"/>
<circle cx="16005.6" cy="248.011" r="43.0866" fill="#F5DA24"/>
<circle cx="16016.9" cy="371.224" r="31.748" fill="#F5DA24"/>
</g>
<g clip-path="url(#clip22_1381_2657)">
<rect width="768" height="438.425" transform="translate(16128.8 0.831055)" fill="white"/>
<path d="M16101.6 -29.4053C16101.6 -29.4053 16244.4 223.017 16372.6 165.214C16463.6 124.205 16442.6 387.889 16343.6 400.856C16260.5 411.751 16212.5 332.785 16191 251.801C16153.8 111.732 16379.9 57.3958 16524.8 63.0185C16680.1 69.0449 16841.2 221.839 16782.9 365.817C16740.8 469.423 16642.2 509.051 16530.6 501.528C16340 488.678 16624.4 -16.2497 16804.2 48.2205C16850.5 64.8109 16939.8 165.149 16939.8 165.149" stroke="black" stroke-width="15.7753"/>
<circle cx="16585.4" cy="71.8864" r="42.3307" fill="#F5DA24"/>
<circle cx="16679.1" cy="114.217" r="42.3307" fill="#F5DA24"/>
<circle cx="16761.5" cy="178.469" r="30.9921" fill="#F5DA24"/>
<circle cx="16784.2" cy="299.413" r="43.0866" fill="#F5DA24"/>
<circle cx="16762.2" cy="412.043" r="31.748" fill="#F5DA24"/>
</g>
<g clip-path="url(#clip23_1381_2657)">
<rect width="768" height="438.425" transform="translate(16896.8 0.831055)" fill="white"/>
<path d="M16869.6 -29.4053C16869.6 -29.4053 17012.4 223.017 17140.6 165.214C17231.6 124.205 17210.6 387.889 17111.6 400.856C17028.5 411.751 16980.5 332.785 16959 251.801C16921.8 111.732 17147.9 57.3958 17292.8 63.0185C17448.1 69.0449 17609.2 221.839 17550.9 365.817C17508.8 469.423 17410.2 509.051 17298.6 501.528C17108 488.678 17392.4 -16.2497 17572.2 48.2205C17618.5 64.8109 17707.8 165.149 17707.8 165.149" stroke="black" stroke-width="15.7753"/>
<circle cx="17401.7" cy="87.0045" r="42.3307" fill="#F5DA24"/>
<circle cx="17486.4" cy="145.965" r="42.3307" fill="#F5DA24"/>
<circle cx="17543.1" cy="225.335" r="30.9921" fill="#F5DA24"/>
<circle cx="17552.2" cy="350.814" r="43.0866" fill="#F5DA24"/>
<circle cx="17506.1" cy="439.256" r="31.748" fill="#F5DA24"/>
</g>
<g clip-path="url(#clip24_1381_2657)">
<rect width="768" height="438.425" transform="translate(17664.8 0.831055)" fill="white"/>
<path d="M17637.6 -29.4053C17637.6 -29.4053 17780.4 223.017 17908.6 165.214C17999.6 124.205 17978.6 387.889 17879.6 400.856C17796.5 411.751 17748.5 332.785 17727 251.801C17689.8 111.732 17915.9 57.3958 18060.8 63.0185C18216.1 69.0449 18377.2 221.839 18318.8 365.817C18276.8 469.423 18178.2 509.051 18066.6 501.528C17876 488.678 18160.4 -16.2497 18340.2 48.2205C18386.5 64.8109 18475.8 165.149 18475.8 165.149" stroke="black" stroke-width="15.7753"/>
<circle cx="18213.6" cy="111.194" r="42.3307" fill="#F5DA24"/>
<circle cx="18281.6" cy="180.736" r="42.3307" fill="#F5DA24"/>
<circle cx="18323.2" cy="269.178" r="30.9921" fill="#F5DA24"/>
<circle cx="18311.1" cy="367.445" r="43.0866" fill="#F5DA24"/>
<circle cx="18260.4" cy="457.398" r="31.748" fill="#F5DA24"/>
</g>
<g clip-path="url(#clip25_1381_2657)">
<rect width="768" height="438.425" transform="translate(18432.8 0.831055)" fill="white"/>
<path d="M18405.6 -29.4053C18405.6 -29.4053 18548.4 223.017 18676.6 165.214C18767.6 124.205 18746.6 387.889 18647.6 400.856C18564.5 411.751 18516.5 332.785 18495 251.801C18457.8 111.732 18683.9 57.3958 18828.8 63.0185C18984.1 69.0449 19145.2 221.839 19086.9 365.817C19044.8 469.423 18946.2 509.051 18834.6 501.528C18644 488.678 18928.4 -16.2497 19108.2 48.2205C19154.5 64.8109 19243.8 165.149 19243.8 165.149" stroke="black" stroke-width="15.7753"/>
<circle cx="19016.4" cy="145.965" r="42.3307" fill="#F5DA24"/>
<circle cx="19072.3" cy="230.627" r="42.3307" fill="#F5DA24"/>
<circle cx="19091.2" cy="322.091" r="30.9921" fill="#F5DA24"/>
<circle cx="19059.4" cy="418.846" r="43.0866" fill="#F5DA24"/>
</g>
<g clip-path="url(#clip26_1381_2657)">
<rect width="768" height="438.425" transform="translate(19200.8 0.831055)" fill="white"/>
<path d="M19173.6 -29.4053C19173.6 -29.4053 19316.4 223.017 19444.6 165.214C19535.6 124.205 19514.6 387.889 19415.6 400.856C19332.5 411.751 19284.5 332.785 19263 251.801C19225.8 111.732 19451.9 57.3958 19596.8 63.0185C19752.1 69.0449 19913.2 221.839 19854.8 365.817C19812.8 469.423 19714.2 509.051 19602.6 501.528C19412 488.678 19696.4 -16.2497 19876.2 48.2205C19922.5 64.8109 20011.8 165.149 20011.8 165.149" stroke="black" stroke-width="15.7753"/>
<circle cx="19816.1" cy="177.714" r="42.3307" fill="#F5DA24"/>
<circle cx="19858.4" cy="274.469" r="42.3307" fill="#F5DA24"/>
<circle cx="19857.7" cy="371.98" r="30.9921" fill="#F5DA24"/>
<circle cx="19804.8" cy="459.666" r="43.0866" fill="#F5DA24"/>
</g>
<g clip-path="url(#clip27_1381_2657)">
<rect width="768" height="438.425" transform="translate(19968.8 0.831055)" fill="white"/>
<path d="M19941.6 -29.4053C19941.6 -29.4053 20084.4 223.017 20212.6 165.214C20303.6 124.205 20282.6 387.889 20183.6 400.856C20100.5 411.751 20052.5 332.785 20031 251.801C19993.8 111.732 20219.9 57.3958 20364.8 63.0185C20520.1 69.0449 20681.2 221.839 20622.9 365.817C20580.8 469.423 20482.2 509.051 20370.6 501.528C20180 488.678 20464.4 -16.2497 20644.2 48.2205C20690.5 64.8109 20779.8 165.149 20779.8 165.149" stroke="black" stroke-width="15.7753"/>
<circle cx="20612.8" cy="242.721" r="42.3307" fill="#F5DA24"/>
<circle cx="20626.4" cy="340.989" r="42.3307" fill="#F5DA24"/>
<circle cx="20595.4" cy="414.31" r="30.9921" fill="#F5DA24"/>
</g>
<g clip-path="url(#clip28_1381_2657)">
<rect width="768" height="438.425" transform="translate(20736.8 0.831055)" fill="white"/>
<path d="M20709.6 -29.4053C20709.6 -29.4053 20852.4 223.017 20980.6 165.214C21071.6 124.205 21050.6 387.889 20951.6 400.856C20868.5 411.751 20820.5 332.785 20799 251.801C20761.8 111.732 20987.9 57.3958 21132.8 63.0185C21288.1 69.0449 21449.2 221.839 21390.9 365.817C21348.8 469.423 21250.2 509.051 21138.6 501.528C20948 488.678 21232.4 -16.2497 21412.2 48.2205C21458.5 64.8109 21547.8 165.149 21547.8 165.149" stroke="black" stroke-width="15.7753"/>
<circle cx="21380.8" cy="269.933" r="42.3307" fill="#F5DA24"/>
<circle cx="21380.8" cy="365.177" r="42.3307" fill="#F5DA24"/>
<circle cx="21337.7" cy="438.5" r="30.9921" fill="#F5DA24"/>
</g>
<g clip-path="url(#clip29_1381_2657)">
<rect width="768" height="438.425" transform="translate(21504.8 0.831055)" fill="white"/>
<path d="M21477.6 -29.4053C21477.6 -29.4053 21620.4 223.017 21748.6 165.214C21839.6 124.205 21818.6 387.889 21719.6 400.856C21636.5 411.751 21588.5 332.785 21567 251.801C21529.8 111.732 21755.9 57.3958 21900.8 63.0185C22056.1 69.0449 22217.2 221.839 22158.9 365.817C22116.8 469.423 22018.2 509.051 21906.6 501.528C21716 488.678 22000.4 -16.2497 22180.2 48.2205C22226.5 64.8109 22315.8 165.149 22315.8 165.149" stroke="black" stroke-width="15.7753"/>
<circle cx="22160.9" cy="306.217" r="42.3307" fill="#F5DA24"/>
<circle cx="22132.2" cy="402.972" r="42.3307" fill="#F5DA24"/>
</g>
<g clip-path="url(#clip30_1381_2657)">
<rect width="768" height="438.425" transform="translate(22272.8 0.831055)" fill="white"/>
<path d="M22245.6 -29.4053C22245.6 -29.4053 22388.4 223.017 22516.6 165.214C22607.6 124.205 22586.6 387.889 22487.6 400.856C22404.5 411.751 22356.5 332.785 22335 251.801C22297.8 111.732 22523.9 57.3958 22668.8 63.0185C22824.1 69.0449 22985.2 221.839 22926.9 365.817C22884.8 469.423 22786.2 509.051 22674.6 501.528C22484 488.678 22768.4 -16.2497 22948.2 48.2205C22994.5 64.8109 23083.8 165.149 23083.8 165.149" stroke="black" stroke-width="15.7753"/>
<circle cx="22925.9" cy="345.524" r="42.3307" fill="#F5DA24"/>
<circle cx="22876" cy="446.816" r="42.3307" fill="#F5DA24"/>
</g>
<g clip-path="url(#clip31_1381_2657)">
<rect width="768" height="438.425" transform="translate(23040.8 0.831055)" fill="white"/>
<path d="M23013.6 -29.4053C23013.6 -29.4053 23156.4 223.017 23284.6 165.214C23375.6 124.205 23354.6 387.889 23255.6 400.856C23172.5 411.751 23124.5 332.785 23103 251.801C23065.8 111.732 23291.9 57.3958 23436.8 63.0185C23592.1 69.0449 23753.2 221.839 23694.8 365.817C23652.8 469.423 23554.2 509.051 23442.6 501.528C23252 488.678 23536.4 -16.2497 23716.2 48.2205C23762.5 64.8109 23851.8 165.149 23851.8 165.149" stroke="black" stroke-width="15.7753"/>
<circle cx="23672.7" cy="396.925" r="42.3307" fill="#F5DA24"/>
</g>
<g clip-path="url(#clip32_1381_2657)">
<rect width="768" height="438.425" transform="translate(23808.8 0.831055)" fill="white"/>
<path d="M23781.6 -29.4053C23781.6 -29.4053 23924.4 223.017 24052.6 165.214C24143.6 124.205 24122.6 387.889 24023.6 400.856C23940.5 411.751 23892.5 332.785 23871 251.801C23833.8 111.732 24059.9 57.3958 24204.8 63.0185C24360.1 69.0449 24521.2 221.839 24462.9 365.817C24420.8 469.423 24322.2 509.051 24210.6 501.528C24020 488.678 24304.4 -16.2497 24484.2 48.2205C24530.5 64.8109 24619.8 165.149 24619.8 165.149" stroke="black" stroke-width="15.7753"/>
<circle cx="24407.5" cy="452.863" r="42.3307" fill="#F5DA24"/>
</g>
<g clip-path="url(#clip33_1381_2657)">
<rect width="768" height="438.425" transform="translate(24576.8 0.831055)" fill="white"/>
<path d="M24549.6 -29.4053C24549.6 -29.4053 24692.4 223.017 24820.6 165.214C24911.6 124.205 24890.6 387.889 24791.6 400.856C24708.5 411.751 24660.5 332.785 24639 251.801C24601.8 111.732 24827.9 57.3958 24972.8 63.0185C25128.1 69.0449 25289.2 221.839 25230.9 365.817C25188.8 469.423 25090.2 509.051 24978.6 501.528C24788 488.678 25072.4 -16.2497 25252.2 48.2205C25298.5 64.8109 25387.8 165.149 25387.8 165.149" stroke="black" stroke-width="15.7753"/>
</g>
</g>
<defs>
<clipPath id="clip0_1381_2657">
<rect width="25344" height="438.425" fill="white" transform="translate(0.796875 0.831055)"/>
</clipPath>
<clipPath id="clip1_1381_2657">
<rect width="768" height="438.425" fill="white" transform="translate(0.796875 0.831055)"/>
</clipPath>
<clipPath id="clip2_1381_2657">
<rect width="768" height="438.425" fill="white" transform="translate(768.797 0.831055)"/>
</clipPath>
<clipPath id="clip3_1381_2657">
<rect width="768" height="438.425" fill="white" transform="translate(1536.8 0.831055)"/>
</clipPath>
<clipPath id="clip4_1381_2657">
<rect width="768" height="438.425" fill="white" transform="translate(2304.8 0.831055)"/>
</clipPath>
<clipPath id="clip5_1381_2657">
<rect width="768" height="438.425" fill="white" transform="translate(3072.8 0.831055)"/>
</clipPath>
<clipPath id="clip6_1381_2657">
<rect width="768" height="438.425" fill="white" transform="translate(3840.8 0.831055)"/>
</clipPath>
<clipPath id="clip7_1381_2657">
<rect width="768" height="438.425" fill="white" transform="translate(4608.8 0.831055)"/>
</clipPath>
<clipPath id="clip8_1381_2657">
<rect width="768" height="438.425" fill="white" transform="translate(5376.8 0.831055)"/>
</clipPath>
<clipPath id="clip9_1381_2657">
<rect width="768" height="438.425" fill="white" transform="translate(6912.8 0.831055)"/>
</clipPath>
<clipPath id="clip10_1381_2657">
<rect width="768" height="438.425" fill="white" transform="translate(6144.8 0.831055)"/>
</clipPath>
<clipPath id="clip11_1381_2657">
<rect width="768" height="438.425" fill="white" transform="translate(7680.8 0.831055)"/>
</clipPath>
<clipPath id="clip12_1381_2657">
<rect width="768" height="438.425" fill="white" transform="translate(8448.8 0.831055)"/>
</clipPath>
<clipPath id="clip13_1381_2657">
<rect width="768" height="438.425" fill="white" transform="translate(9216.8 0.831055)"/>
</clipPath>
<clipPath id="clip14_1381_2657">
<rect width="768" height="438.425" fill="white" transform="translate(9984.8 0.831055)"/>
</clipPath>
<clipPath id="clip15_1381_2657">
<rect width="768" height="438.425" fill="white" transform="translate(10752.8 0.831055)"/>
</clipPath>
<clipPath id="clip16_1381_2657">
<rect width="768" height="438.425" fill="white" transform="translate(11520.8 0.831055)"/>
</clipPath>
<clipPath id="clip17_1381_2657">
<rect width="768" height="438.425" fill="white" transform="translate(12288.8 0.831055)"/>
</clipPath>
<clipPath id="clip18_1381_2657">
<rect width="768" height="438.425" fill="white" transform="translate(13056.8 0.831055)"/>
</clipPath>
<clipPath id="clip19_1381_2657">
<rect width="768" height="438.425" fill="white" transform="translate(13824.8 0.831055)"/>
</clipPath>
<clipPath id="clip20_1381_2657">
<rect width="768" height="438.425" fill="white" transform="translate(14592.8 0.831055)"/>
</clipPath>
<clipPath id="clip21_1381_2657">
<rect width="768" height="438.425" fill="white" transform="translate(15360.8 0.831055)"/>
</clipPath>
<clipPath id="clip22_1381_2657">
<rect width="768" height="438.425" fill="white" transform="translate(16128.8 0.831055)"/>
</clipPath>
<clipPath id="clip23_1381_2657">
<rect width="768" height="438.425" fill="white" transform="translate(16896.8 0.831055)"/>
</clipPath>
<clipPath id="clip24_1381_2657">
<rect width="768" height="438.425" fill="white" transform="translate(17664.8 0.831055)"/>
</clipPath>
<clipPath id="clip25_1381_2657">
<rect width="768" height="438.425" fill="white" transform="translate(18432.8 0.831055)"/>
</clipPath>
<clipPath id="clip26_1381_2657">
<rect width="768" height="438.425" fill="white" transform="translate(19200.8 0.831055)"/>
</clipPath>
<clipPath id="clip27_1381_2657">
<rect width="768" height="438.425" fill="white" transform="translate(19968.8 0.831055)"/>
</clipPath>
<clipPath id="clip28_1381_2657">
<rect width="768" height="438.425" fill="white" transform="translate(20736.8 0.831055)"/>
</clipPath>
<clipPath id="clip29_1381_2657">
<rect width="768" height="438.425" fill="white" transform="translate(21504.8 0.831055)"/>
</clipPath>
<clipPath id="clip30_1381_2657">
<rect width="768" height="438.425" fill="white" transform="translate(22272.8 0.831055)"/>
</clipPath>
<clipPath id="clip31_1381_2657">
<rect width="768" height="438.425" fill="white" transform="translate(23040.8 0.831055)"/>
</clipPath>
<clipPath id="clip32_1381_2657">
<rect width="768" height="438.425" fill="white" transform="translate(23808.8 0.831055)"/>
</clipPath>
<clipPath id="clip33_1381_2657">
<rect width="768" height="438.425" fill="white" transform="translate(24576.8 0.831055)"/>
</clipPath>
</defs>
</svg>
