<svg width="16764" height="290" viewBox="0 0 16764 290" fill="none" xmlns="http://www.w3.org/2000/svg">
<g clip-path="url(#clip0_1381_349)">
<g clip-path="url(#clip1_1381_349)">
<rect width="508" height="290" transform="translate(14224)" fill="white"/>
<path d="M14206 -20C14206 -20 14300.4 146.967 14385.3 108.733C14445.5 81.6066 14431.6 256.023 14366.1 264.6C14311.1 271.807 14279.4 219.574 14265.1 166.006C14240.5 73.3566 14390.1 37.4153 14485.9 41.1345C14588.7 45.1207 14695.2 146.188 14656.6 241.423C14628.8 309.954 14563.6 336.166 14489.8 331.19C14363.7 322.691 14551.8 -11.2981 14670.8 31.3462C14701.4 42.3201 14760.5 108.69 14760.5 108.69" stroke="black" stroke-width="10.4347"/>
<circle cx="14658" cy="202" r="28" fill="#F5DA24"/>
<circle cx="14639" cy="266" r="28" fill="#F5DA24"/>
</g>
<g clip-path="url(#clip2_1381_349)">
<rect width="508" height="290" transform="translate(14732)" fill="white"/>
<path d="M14714 -20C14714 -20 14808.4 146.967 14893.3 108.733C14953.5 81.6066 14939.6 256.023 14874.1 264.6C14819.1 271.807 14787.4 219.574 14773.1 166.006C14748.5 73.3566 14898.1 37.4153 14993.9 41.1345C15096.7 45.1207 15203.2 146.188 15164.6 241.423C15136.8 309.954 15071.6 336.166 14997.8 331.19C14871.7 322.691 15059.8 -11.2981 15178.8 31.3462C15209.4 42.3201 15268.5 108.69 15268.5 108.69" stroke="black" stroke-width="10.4347"/>
<circle cx="15164" cy="228" r="28" fill="#F5DA24"/>
<circle cx="15131" cy="295" r="28" fill="#F5DA24"/>
</g>
<g clip-path="url(#clip3_1381_349)">
<rect width="508" height="290" transform="translate(15240)" fill="white"/>
<path d="M15222 -20C15222 -20 15316.4 146.967 15401.3 108.733C15461.5 81.6066 15447.6 256.023 15382.1 264.6C15327.1 271.807 15295.4 219.574 15281.1 166.006C15256.5 73.3566 15406.1 37.4153 15501.9 41.1345C15604.7 45.1207 15711.2 146.188 15672.6 241.423C15644.8 309.954 15579.6 336.166 15505.8 331.19C15379.7 322.691 15567.8 -11.2981 15686.8 31.3462C15717.4 42.3201 15776.5 108.69 15776.5 108.69" stroke="black" stroke-width="10.4347"/>
<circle cx="15658" cy="262" r="28" fill="#F5DA24"/>
</g>
<g clip-path="url(#clip4_1381_349)">
<rect width="508" height="290" transform="translate(15748)" fill="white"/>
<path d="M15730 -20C15730 -20 15824.4 146.967 15909.3 108.733C15969.5 81.6066 15955.6 256.023 15890.1 264.6C15835.1 271.807 15803.4 219.574 15789.1 166.006C15764.5 73.3566 15914.1 37.4153 16009.9 41.1345C16112.7 45.1207 16219.2 146.188 16180.6 241.423C16152.8 309.954 16087.6 336.166 16013.8 331.19C15887.7 322.691 16075.8 -11.2981 16194.8 31.3462C16225.4 42.3201 16284.5 108.69 16284.5 108.69" stroke="black" stroke-width="10.4347"/>
<circle cx="16144" cy="299" r="28" fill="#F5DA24"/>
</g>
<g clip-path="url(#clip5_1381_349)">
<rect width="508" height="290" transform="translate(12192)" fill="white"/>
<path d="M12174 -20C12174 -20 12268.4 146.967 12353.3 108.733C12413.5 81.6066 12399.6 256.023 12334.1 264.6C12279.1 271.807 12247.4 219.574 12233.1 166.006C12208.5 73.3566 12358.1 37.4153 12453.9 41.1345C12556.7 45.1207 12663.2 146.188 12624.6 241.423C12596.8 309.954 12531.6 336.166 12457.8 331.19C12331.7 322.691 12519.8 -11.2981 12638.8 31.3462C12669.4 42.3201 12728.5 108.69 12728.5 108.69" stroke="black" stroke-width="10.4347"/>
<circle cx="12578" cy="96" r="28" fill="#F5DA24"/>
<circle cx="12615" cy="152" r="28" fill="#F5DA24"/>
<circle cx="12627.5" cy="212.5" r="20.5" fill="#F5DA24"/>
<circle cx="12606.5" cy="276.5" r="28.5" fill="#F5DA24"/>
</g>
<g clip-path="url(#clip6_1381_349)">
<rect width="508" height="290" transform="translate(12700)" fill="white"/>
<path d="M12682 -20C12682 -20 12776.4 146.967 12861.3 108.733C12921.5 81.6066 12907.6 256.023 12842.1 264.6C12787.1 271.807 12755.4 219.574 12741.1 166.006C12716.5 73.3566 12866.1 37.4153 12961.9 41.1345C13064.7 45.1207 13171.2 146.188 13132.6 241.423C13104.8 309.954 13039.6 336.166 12965.8 331.19C12839.7 322.691 13027.8 -11.2981 13146.8 31.3462C13177.4 42.3201 13236.5 108.69 13236.5 108.69" stroke="black" stroke-width="10.4347"/>
<circle cx="13107" cy="117" r="28" fill="#F5DA24"/>
<circle cx="13135" cy="181" r="28" fill="#F5DA24"/>
<circle cx="13134.5" cy="245.5" r="20.5" fill="#F5DA24"/>
<circle cx="13099.5" cy="303.5" r="28.5" fill="#F5DA24"/>
</g>
<g clip-path="url(#clip7_1381_349)">
<rect width="508" height="290" transform="translate(13208)" fill="white"/>
<path d="M13190 -20C13190 -20 13284.4 146.967 13369.3 108.733C13429.5 81.6066 13415.6 256.023 13350.1 264.6C13295.1 271.807 13263.4 219.574 13249.1 166.006C13224.5 73.3566 13374.1 37.4153 13469.9 41.1345C13572.7 45.1207 13679.2 146.188 13640.6 241.423C13612.8 309.954 13547.6 336.166 13473.8 331.19C13347.7 322.691 13535.8 -11.2981 13654.8 31.3462C13685.4 42.3201 13744.5 108.69 13744.5 108.69" stroke="black" stroke-width="10.4347"/>
<circle cx="13634" cy="160" r="28" fill="#F5DA24"/>
<circle cx="13643" cy="225" r="28" fill="#F5DA24"/>
<circle cx="13622.5" cy="273.5" r="20.5" fill="#F5DA24"/>
</g>
<g clip-path="url(#clip8_1381_349)">
<rect width="508" height="290" transform="translate(16256)" fill="white"/>
<path d="M16238 -20C16238 -20 16332.4 146.967 16417.3 108.733C16477.5 81.6066 16463.6 256.023 16398.1 264.6C16343.1 271.807 16311.4 219.574 16297.1 166.006C16272.5 73.3566 16422.1 37.4153 16518 41.1345C16620.7 45.1207 16727.2 146.188 16688.6 241.423C16660.8 309.954 16595.6 336.166 16521.8 331.19C16395.7 322.691 16583.8 -11.2981 16702.8 31.3462C16733.4 42.3201 16792.5 108.69 16792.5 108.69" stroke="black" stroke-width="10.4347"/>
</g>
<g clip-path="url(#clip9_1381_349)">
<rect width="508" height="290" transform="translate(13716)" fill="white"/>
<path d="M13698 -20C13698 -20 13792.4 146.967 13877.3 108.733C13937.5 81.6066 13923.6 256.023 13858.1 264.6C13803.1 271.807 13771.4 219.574 13757.1 166.006C13732.5 73.3566 13882.1 37.4153 13978 41.1345C14080.7 45.1207 14187.2 146.188 14148.6 241.423C14120.8 309.954 14055.6 336.166 13981.8 331.19C13855.7 322.691 14043.8 -11.2981 14162.8 31.3462C14193.4 42.3201 14252.5 108.69 14252.5 108.69" stroke="black" stroke-width="10.4347"/>
<circle cx="14142" cy="178" r="28" fill="#F5DA24"/>
<circle cx="14142" cy="241" r="28" fill="#F5DA24"/>
<circle cx="14113.5" cy="289.5" r="20.5" fill="#F5DA24"/>
</g>
<g clip-path="url(#clip10_1381_349)">
<rect width="508" height="290" transform="translate(8128)" fill="white"/>
<path d="M8110 -20C8110 -20 8204.45 146.967 8289.27 108.733C8349.45 81.6066 8335.56 256.023 8270.1 264.6C8215.11 271.807 8183.38 219.574 8169.14 166.006C8144.52 73.3566 8294.09 37.4153 8389.95 41.1345C8492.69 45.1207 8599.24 146.188 8560.63 241.423C8532.84 309.954 8467.62 336.166 8393.8 331.19C8267.72 322.691 8455.82 -11.2981 8574.76 31.3462C8605.36 42.3201 8664.46 108.69 8664.46 108.69" stroke="black" stroke-width="10.4347"/>
<circle cx="8177" cy="118" r="28" fill="#F5DA24"/>
<circle cx="8272" cy="56" r="28" fill="#F5DA24"/>
<circle cx="8367.5" cy="48.5" r="20.5" fill="#F5DA24"/>
<circle cx="8452.5" cy="48.5" r="28.5" fill="#F5DA24"/>
<circle cx="8523" cy="95" r="21" fill="#F5DA24"/>
<circle cx="8629" cy="69" r="21" fill="#F5DA24"/>
</g>
<g clip-path="url(#clip11_1381_349)">
<rect width="508" height="290" transform="translate(8636)" fill="white"/>
<path d="M8618 -20C8618 -20 8712.45 146.967 8797.27 108.733C8857.45 81.6066 8843.56 256.023 8778.1 264.6C8723.11 271.807 8691.38 219.574 8677.14 166.006C8652.52 73.3566 8802.09 37.4153 8897.95 41.1345C9000.69 45.1207 9107.24 146.188 9068.63 241.423C9040.84 309.954 8975.62 336.166 8901.8 331.19C8775.72 322.691 8963.82 -11.2981 9082.76 31.3462C9113.36 42.3201 9172.46 108.69 9172.46 108.69" stroke="black" stroke-width="10.4347"/>
<circle cx="8712" cy="84" r="28" fill="#F5DA24"/>
<circle cx="8832" cy="42" r="28" fill="#F5DA24"/>
<circle cx="8915.5" cy="48.5" r="20.5" fill="#F5DA24"/>
<circle cx="8999.5" cy="69.5" r="28.5" fill="#F5DA24"/>
<circle cx="9049" cy="118" r="21" fill="#F5DA24"/>
<circle cx="9155" cy="77" r="21" fill="#F5DA24"/>
</g>
<g clip-path="url(#clip12_1381_349)">
<rect width="508" height="290" transform="translate(9144)" fill="white"/>
<path d="M9126 -20C9126 -20 9220.45 146.967 9305.27 108.733C9365.45 81.6066 9351.56 256.023 9286.1 264.6C9231.11 271.807 9199.38 219.574 9185.14 166.006C9160.52 73.3566 9310.09 37.4153 9405.95 41.1345C9508.69 45.1207 9615.24 146.188 9576.63 241.423C9548.84 309.954 9483.62 336.166 9409.8 331.19C9283.72 322.691 9471.82 -11.2981 9590.76 31.3462C9621.36 42.3201 9680.46 108.69 9680.46 108.69" stroke="black" stroke-width="10.4347"/>
<circle cx="9271" cy="56" r="28" fill="#F5DA24"/>
<circle cx="9390" cy="41" r="28" fill="#F5DA24"/>
<circle cx="9472.5" cy="55.5" r="20.5" fill="#F5DA24"/>
<circle cx="9536.5" cy="97.5" r="28.5" fill="#F5DA24"/>
<circle cx="9577" cy="156" r="21" fill="#F5DA24"/>
</g>
<g clip-path="url(#clip13_1381_349)">
<rect width="508" height="290" transform="translate(9652)" fill="white"/>
<path d="M9634 -20C9634 -20 9728.45 146.967 9813.27 108.733C9873.45 81.6066 9859.56 256.023 9794.1 264.6C9739.11 271.807 9707.38 219.574 9693.14 166.006C9668.52 73.3566 9818.09 37.4153 9913.95 41.1345C10016.7 45.1207 10123.2 146.188 10084.6 241.423C10056.8 309.954 9991.62 336.166 9917.8 331.19C9791.72 322.691 9979.82 -11.2981 10098.8 31.3462C10129.4 42.3201 10188.5 108.69 10188.5 108.69" stroke="black" stroke-width="10.4347"/>
<circle cx="9873" cy="47" r="28" fill="#F5DA24"/>
<circle cx="9954" cy="43" r="28" fill="#F5DA24"/>
<circle cx="10009.5" cy="63.5" r="20.5" fill="#F5DA24"/>
<circle cx="10064.5" cy="125.5" r="28.5" fill="#F5DA24"/>
<circle cx="10086" cy="201" r="21" fill="#F5DA24"/>
</g>
<g clip-path="url(#clip14_1381_349)">
<rect width="508" height="290" transform="translate(6096)" fill="white"/>
<path d="M6078 -20C6078 -20 6172.45 146.967 6257.27 108.733C6317.45 81.6066 6303.56 256.023 6238.1 264.6C6183.11 271.807 6151.38 219.574 6137.14 166.006C6112.52 73.3566 6262.09 37.4153 6357.95 41.1345C6460.69 45.1207 6567.24 146.188 6528.63 241.423C6500.84 309.954 6435.62 336.166 6361.8 331.19C6235.72 322.691 6423.82 -11.2981 6542.76 31.3462C6573.36 42.3201 6632.46 108.69 6632.46 108.69" stroke="black" stroke-width="10.4347"/>
<circle cx="6207" cy="245" r="28" fill="#F5DA24"/>
<circle cx="6144" cy="174" r="28" fill="#F5DA24"/>
<circle cx="6171.5" cy="87.5" r="20.5" fill="#F5DA24"/>
<circle cx="6269.5" cy="46.5" r="28.5" fill="#F5DA24"/>
<circle cx="6350" cy="46" r="21" fill="#F5DA24"/>
<circle cx="6517" cy="31" r="21" fill="#F5DA24"/>
<circle cx="6535.5" cy="201.5" r="31.5" fill="#F5DA24"/>
<circle cx="6575.5" cy="51.5" r="23.5" fill="#F5DA24"/>
<circle cx="6506.5" cy="289.5" r="23.5" fill="#F5DA24"/>
</g>
<g clip-path="url(#clip15_1381_349)">
<rect width="508" height="290" transform="translate(6604)" fill="white"/>
<path d="M6586 -20C6586 -20 6680.45 146.967 6765.27 108.733C6825.45 81.6066 6811.56 256.023 6746.1 264.6C6691.11 271.807 6659.38 219.574 6645.14 166.006C6620.52 73.3566 6770.09 37.4153 6865.95 41.1345C6968.69 45.1207 7075.24 146.188 7036.63 241.423C7008.84 309.954 6943.62 336.166 6869.8 331.19C6743.72 322.691 6931.82 -11.2981 7050.76 31.3462C7081.36 42.3201 7140.46 108.69 7140.46 108.69" stroke="black" stroke-width="10.4347"/>
<circle cx="6673" cy="227" r="28" fill="#F5DA24"/>
<circle cx="6652" cy="135" r="28" fill="#F5DA24"/>
<circle cx="6700.5" cy="76.5" r="20.5" fill="#F5DA24"/>
<circle cx="6808.5" cy="45.5" r="28.5" fill="#F5DA24"/>
<circle cx="6889" cy="46" r="21" fill="#F5DA24"/>
<circle cx="7053" cy="31" r="21" fill="#F5DA24"/>
<circle cx="7036.5" cy="237.5" r="31.5" fill="#F5DA24"/>
<circle cx="7103.5" cy="62.5" r="23.5" fill="#F5DA24"/>
</g>
<g clip-path="url(#clip16_1381_349)">
<rect width="508" height="290" transform="translate(7112)" fill="white"/>
<path d="M7094 -20C7094 -20 7188.45 146.967 7273.27 108.733C7333.45 81.6066 7319.56 256.023 7254.1 264.6C7199.11 271.807 7167.38 219.574 7153.14 166.006C7128.52 73.3566 7278.09 37.4153 7373.95 41.1345C7476.69 45.1207 7583.24 146.188 7544.63 241.423C7516.84 309.954 7451.62 336.166 7377.8 331.19C7251.72 322.691 7439.82 -11.2981 7558.76 31.3462C7589.36 42.3201 7648.46 108.69 7648.46 108.69" stroke="black" stroke-width="10.4347"/>
<circle cx="7173" cy="198" r="28" fill="#F5DA24"/>
<circle cx="7181" cy="91" r="28" fill="#F5DA24"/>
<circle cx="7273.5" cy="53.5" r="20.5" fill="#F5DA24"/>
<circle cx="7352.5" cy="45.5" r="28.5" fill="#F5DA24"/>
<circle cx="7432" cy="53" r="21" fill="#F5DA24"/>
<circle cx="7576" cy="38" r="21" fill="#F5DA24"/>
<circle cx="7532.5" cy="282.5" r="31.5" fill="#F5DA24"/>
<circle cx="7626.5" cy="75.5" r="23.5" fill="#F5DA24"/>
</g>
<g clip-path="url(#clip17_1381_349)">
<rect width="508" height="290" transform="translate(7620)" fill="white"/>
<path d="M7602 -20C7602 -20 7696.45 146.967 7781.27 108.733C7841.45 81.6066 7827.56 256.023 7762.1 264.6C7707.11 271.807 7675.38 219.574 7661.14 166.006C7636.52 73.3566 7786.09 37.4153 7881.95 41.1345C7984.69 45.1207 8091.24 146.188 8052.63 241.423C8024.84 309.954 7959.62 336.166 7885.8 331.19C7759.72 322.691 7947.82 -11.2981 8066.76 31.3462C8097.36 42.3201 8156.46 108.69 8156.46 108.69" stroke="black" stroke-width="10.4347"/>
<circle cx="7668" cy="168" r="28" fill="#F5DA24"/>
<circle cx="7716" cy="71" r="28" fill="#F5DA24"/>
<circle cx="7811.5" cy="48.5" r="20.5" fill="#F5DA24"/>
<circle cx="7907.5" cy="45.5" r="28.5" fill="#F5DA24"/>
<circle cx="7988" cy="78" r="21" fill="#F5DA24"/>
<circle cx="8107" cy="53" r="21" fill="#F5DA24"/>
<circle cx="8023.5" cy="299.5" r="31.5" fill="#F5DA24"/>
</g>
<g clip-path="url(#clip18_1381_349)">
<rect width="508" height="290" transform="translate(4064)" fill="white"/>
<path d="M4046 -20C4046 -20 4140.45 146.967 4225.27 108.733C4285.45 81.6066 4271.56 256.023 4206.1 264.6C4151.11 271.807 4119.38 219.574 4105.14 166.006C4080.52 73.3566 4230.09 37.4153 4325.95 41.1345C4428.69 45.1207 4535.24 146.188 4496.63 241.423C4468.84 309.954 4403.62 336.166 4329.8 331.19C4203.72 322.691 4391.82 -11.2981 4510.76 31.3462C4541.36 42.3201 4600.46 108.69 4600.46 108.69" stroke="black" stroke-width="10.4347"/>
<circle cx="4258" cy="179" r="28" fill="#F5DA24"/>
<circle cx="4174" cy="252" r="28" fill="#F5DA24"/>
<circle cx="4118.5" cy="195.5" r="20.5" fill="#F5DA24"/>
<circle cx="4118.5" cy="106.5" r="28.5" fill="#F5DA24"/>
<circle cx="4202" cy="57" r="21" fill="#F5DA24"/>
<circle cx="4391" cy="49" r="21" fill="#F5DA24"/>
<circle cx="4473.5" cy="123.5" r="31.5" fill="#F5DA24"/>
<circle cx="4452.5" cy="41.5" r="23.5" fill="#F5DA24"/>
<circle cx="4499.5" cy="206.5" r="23.5" fill="#F5DA24"/>
<circle cx="4473" cy="276" r="31" fill="#F5DA24"/>
</g>
<g clip-path="url(#clip19_1381_349)">
<rect width="508" height="290" transform="translate(4572)" fill="white"/>
<path d="M4554 -20C4554 -20 4648.45 146.967 4733.27 108.733C4793.45 81.6066 4779.56 256.023 4714.1 264.6C4659.11 271.807 4627.38 219.574 4613.14 166.006C4588.52 73.3566 4738.09 37.4153 4833.95 41.1345C4936.69 45.1207 5043.24 146.188 5004.63 241.423C4976.84 309.954 4911.62 336.166 4837.8 331.19C4711.72 322.691 4899.82 -11.2981 5018.76 31.3462C5049.36 42.3201 5108.46 108.69 5108.46 108.69" stroke="black" stroke-width="10.4347"/>
<circle cx="4759" cy="199" r="28" fill="#F5DA24"/>
<circle cx="4660" cy="244" r="28" fill="#F5DA24"/>
<circle cx="4614.5" cy="170.5" r="20.5" fill="#F5DA24"/>
<circle cx="4648.5" cy="77.5" r="28.5" fill="#F5DA24"/>
<circle cx="4738" cy="49" r="21" fill="#F5DA24"/>
<circle cx="4921" cy="65" r="21" fill="#F5DA24"/>
<circle cx="4996.5" cy="139.5" r="31.5" fill="#F5DA24"/>
<circle cx="4984.5" cy="27.5" r="23.5" fill="#F5DA24"/>
<circle cx="5007.5" cy="230.5" r="23.5" fill="#F5DA24"/>
<circle cx="4968" cy="302" r="31" fill="#F5DA24"/>
</g>
<g clip-path="url(#clip20_1381_349)">
<rect width="508" height="290" transform="translate(5080)" fill="white"/>
<path d="M5062 -20C5062 -20 5156.45 146.967 5241.27 108.733C5301.45 81.6066 5287.56 256.023 5222.1 264.6C5167.11 271.807 5135.38 219.574 5121.14 166.006C5096.52 73.3566 5246.09 37.4153 5341.95 41.1345C5444.69 45.1207 5551.24 146.188 5512.63 241.423C5484.84 309.954 5419.62 336.166 5345.8 331.19C5219.72 322.691 5407.82 -11.2981 5526.76 31.3462C5557.36 42.3201 5616.46 108.69 5616.46 108.69" stroke="black" stroke-width="10.4347"/>
<circle cx="5251" cy="233" r="28" fill="#F5DA24"/>
<circle cx="5154" cy="227" r="28" fill="#F5DA24"/>
<circle cx="5119.5" cy="135.5" r="20.5" fill="#F5DA24"/>
<circle cx="5195.5" cy="56.5" r="28.5" fill="#F5DA24"/>
<circle cx="5279" cy="49" r="21" fill="#F5DA24"/>
<circle cx="5450" cy="49" r="21" fill="#F5DA24"/>
<circle cx="5509.5" cy="155.5" r="31.5" fill="#F5DA24"/>
<circle cx="5521.5" cy="27.5" r="23.5" fill="#F5DA24"/>
<circle cx="5509.5" cy="247.5" r="23.5" fill="#F5DA24"/>
<circle cx="5467" cy="311" r="31" fill="#F5DA24"/>
</g>
<g clip-path="url(#clip21_1381_349)">
<rect width="508" height="290" transform="translate(5588)" fill="white"/>
<path d="M5570 -20C5570 -20 5664.45 146.967 5749.27 108.733C5809.45 81.6066 5795.56 256.023 5730.1 264.6C5675.11 271.807 5643.38 219.574 5629.14 166.006C5604.52 73.3566 5754.09 37.4153 5849.95 41.1345C5952.69 45.1207 6059.24 146.188 6020.63 241.423C5992.84 309.954 5927.62 336.166 5853.8 331.19C5727.72 322.691 5915.82 -11.2981 6034.76 31.3462C6065.36 42.3201 6124.46 108.69 6124.46 108.69" stroke="black" stroke-width="10.4347"/>
<circle cx="5738" cy="250" r="28" fill="#F5DA24"/>
<circle cx="5643" cy="205" r="28" fill="#F5DA24"/>
<circle cx="5635.5" cy="105.5" r="20.5" fill="#F5DA24"/>
<circle cx="5721.5" cy="53.5" r="28.5" fill="#F5DA24"/>
<circle cx="5814" cy="46" r="21" fill="#F5DA24"/>
<circle cx="5978" cy="39" r="21" fill="#F5DA24"/>
<circle cx="6021.5" cy="180.5" r="31.5" fill="#F5DA24"/>
<circle cx="6052.5" cy="29.5" r="23.5" fill="#F5DA24"/>
<circle cx="6009.5" cy="266.5" r="23.5" fill="#F5DA24"/>
</g>
<g clip-path="url(#clip22_1381_349)">
<rect width="508" height="290" transform="translate(2032)" fill="white"/>
<path d="M2014 -20C2014 -20 2108.45 146.967 2193.27 108.733C2253.45 81.6066 2239.56 256.023 2174.1 264.6C2119.1 271.807 2087.38 219.574 2073.14 166.006C2048.52 73.3566 2198.09 37.4153 2293.95 41.1345C2396.69 45.1207 2503.24 146.188 2464.63 241.423C2436.84 309.954 2371.62 336.166 2297.8 331.19C2171.72 322.691 2359.82 -11.2981 2478.76 31.3462C2509.36 42.3201 2568.46 108.69 2568.46 108.69" stroke="black" stroke-width="10.4347"/>
<circle cx="2194" cy="111" r="28" fill="#F5DA24"/>
<circle cx="2222" cy="220" r="28" fill="#F5DA24"/>
<circle cx="2150.5" cy="255.5" r="20.5" fill="#F5DA24"/>
<circle cx="2081.5" cy="188.5" r="28.5" fill="#F5DA24"/>
<circle cx="2092" cy="99" r="21" fill="#F5DA24"/>
<circle cx="2265" cy="42" r="21" fill="#F5DA24"/>
<circle cx="2402.5" cy="73.5" r="31.5" fill="#F5DA24"/>
<circle cx="2349.5" cy="96.5" r="23.5" fill="#F5DA24"/>
<circle cx="2440.5" cy="300.5" r="32.5" fill="#F5DA24"/>
<circle cx="2449.5" cy="134.5" r="23.5" fill="#F5DA24"/>
<circle cx="2465" cy="213" r="31" fill="#F5DA24"/>
</g>
<g clip-path="url(#clip23_1381_349)">
<rect width="508" height="290" transform="translate(2540)" fill="white"/>
<path d="M2522 -20C2522 -20 2616.45 146.967 2701.27 108.733C2761.45 81.6066 2747.56 256.023 2682.1 264.6C2627.11 271.807 2595.38 219.574 2581.15 166.006C2556.52 73.3566 2706.09 37.4153 2801.95 41.1345C2904.69 45.1207 3011.24 146.188 2972.63 241.423C2944.84 309.954 2879.62 336.166 2805.8 331.19C2679.72 322.691 2867.82 -11.2981 2986.76 31.3462C3017.36 42.3201 3076.47 108.69 3076.47 108.69" stroke="black" stroke-width="10.4347"/>
<circle cx="2723" cy="117" r="28" fill="#F5DA24"/>
<circle cx="2723" cy="235" r="28" fill="#F5DA24"/>
<circle cx="2631.5" cy="249.5" r="20.5" fill="#F5DA24"/>
<circle cx="2586.5" cy="173.5" r="28.5" fill="#F5DA24"/>
<circle cx="2611" cy="90" r="21" fill="#F5DA24"/>
<circle cx="2794" cy="42" r="21" fill="#F5DA24"/>
<circle cx="2919.5" cy="79.5" r="31.5" fill="#F5DA24"/>
<circle cx="2867.5" cy="79.5" r="23.5" fill="#F5DA24"/>
<circle cx="2937.5" cy="310.5" r="32.5" fill="#F5DA24"/>
<circle cx="2961.5" cy="144.5" r="23.5" fill="#F5DA24"/>
<circle cx="2973" cy="223" r="31" fill="#F5DA24"/>
</g>
<g clip-path="url(#clip24_1381_349)">
<rect width="508" height="290" transform="translate(3048)" fill="white"/>
<path d="M3030 -20C3030 -20 3124.45 146.967 3209.27 108.733C3269.45 81.6066 3255.56 256.023 3190.1 264.6C3135.11 271.807 3103.38 219.574 3089.14 166.006C3064.52 73.3566 3214.09 37.4153 3309.95 41.1345C3412.69 45.1207 3519.24 146.188 3480.63 241.423C3452.84 309.954 3387.62 336.166 3313.8 331.19C3187.72 322.691 3375.82 -11.2981 3494.76 31.3462C3525.36 42.3201 3584.46 108.69 3584.46 108.69" stroke="black" stroke-width="10.4347"/>
<circle cx="3240" cy="131" r="28" fill="#F5DA24"/>
<circle cx="3217" cy="255" r="28" fill="#F5DA24"/>
<circle cx="3122.5" cy="243.5" r="20.5" fill="#F5DA24"/>
<circle cx="3087.5" cy="154.5" r="28.5" fill="#F5DA24"/>
<circle cx="3137" cy="77" r="21" fill="#F5DA24"/>
<circle cx="3323" cy="42" r="21" fill="#F5DA24"/>
<circle cx="3436.5" cy="87.5" r="31.5" fill="#F5DA24"/>
<circle cx="3395.5" cy="49.5" r="23.5" fill="#F5DA24"/>
<circle cx="3436.5" cy="315.5" r="32.5" fill="#F5DA24"/>
<circle cx="3473.5" cy="158.5" r="23.5" fill="#F5DA24"/>
<circle cx="3481" cy="238" r="31" fill="#F5DA24"/>
</g>
<g clip-path="url(#clip25_1381_349)">
<rect width="508" height="290" transform="translate(3556)" fill="white"/>
<path d="M3538 -20C3538 -20 3632.45 146.967 3717.27 108.733C3777.45 81.6066 3763.56 256.023 3698.1 264.6C3643.11 271.807 3611.38 219.574 3597.14 166.006C3572.52 73.3566 3722.09 37.4153 3817.95 41.1345C3920.69 45.1207 4027.24 146.188 3988.63 241.423C3960.84 309.954 3895.62 336.166 3821.8 331.19C3695.72 322.691 3883.82 -11.2981 4002.76 31.3462C4033.36 42.3201 4092.46 108.69 4092.46 108.69" stroke="black" stroke-width="10.4347"/>
<circle cx="3748" cy="151" r="28" fill="#F5DA24"/>
<circle cx="3694" cy="257" r="28" fill="#F5DA24"/>
<circle cx="3623.5" cy="219.5" r="20.5" fill="#F5DA24"/>
<circle cx="3595.5" cy="134.5" r="28.5" fill="#F5DA24"/>
<circle cx="3669" cy="63" r="21" fill="#F5DA24"/>
<circle cx="3862" cy="42" r="21" fill="#F5DA24"/>
<circle cx="3950.5" cy="99.5" r="31.5" fill="#F5DA24"/>
<circle cx="3927.5" cy="41.5" r="23.5" fill="#F5DA24"/>
<circle cx="3988.5" cy="182.5" r="23.5" fill="#F5DA24"/>
<circle cx="3977" cy="258" r="31" fill="#F5DA24"/>
</g>
<g clip-path="url(#clip26_1381_349)">
<rect width="508" height="290" fill="white"/>
<path d="M-18 -20C-18 -20 76.446 146.967 161.272 108.733C221.454 81.6066 207.559 256.023 142.102 264.6C87.1053 271.807 55.3805 219.574 41.1447 166.006C16.5227 73.3566 166.089 37.4153 261.949 41.1345C364.69 45.1207 471.244 146.188 432.629 241.423C404.843 309.954 339.62 336.166 265.801 331.19C139.722 322.691 327.822 -11.2981 446.756 31.3462C477.361 42.3201 536.465 108.69 536.465 108.69" stroke="black" stroke-width="10.4347"/>
<circle cx="113" cy="104" r="28" fill="#F5DA24"/>
<circle cx="200" cy="174" r="28" fill="#F5DA24"/>
<circle cx="172.5" cy="248.5" r="20.5" fill="#F5DA24"/>
<circle cx="77.5" cy="240.5" r="28.5" fill="#F5DA24"/>
<circle cx="42" cy="153" r="21" fill="#F5DA24"/>
<circle cx="178" cy="42" r="21" fill="#F5DA24"/>
<circle cx="273.5" cy="44.5" r="31.5" fill="#F5DA24"/>
<circle cx="289.5" cy="126.5" r="23.5" fill="#F5DA24"/>
<circle cx="425.5" cy="257.5" r="32.5" fill="#F5DA24"/>
<circle cx="401.5" cy="107.5" r="23.5" fill="#F5DA24"/>
<circle cx="432" cy="169" r="31" fill="#F5DA24"/>
</g>
<g clip-path="url(#clip27_1381_349)">
<rect width="508" height="290" transform="translate(508)" fill="white"/>
<path d="M490 -20C490 -20 584.446 146.967 669.272 108.733C729.454 81.6066 715.559 256.023 650.102 264.6C595.105 271.807 563.381 219.574 549.145 166.006C524.523 73.3566 674.089 37.4153 769.949 41.1345C872.69 45.1207 979.244 146.188 940.629 241.423C912.843 309.954 847.62 336.166 773.801 331.19C647.722 322.691 835.822 -11.2981 954.756 31.3462C985.361 42.3201 1044.46 108.69 1044.46 108.69" stroke="black" stroke-width="10.4347"/>
<circle cx="632" cy="105" r="28" fill="#F5DA24"/>
<circle cx="709" cy="184" r="28" fill="#F5DA24"/>
<circle cx="674.5" cy="250.5" r="20.5" fill="#F5DA24"/>
<circle cx="580.5" cy="235.5" r="28.5" fill="#F5DA24"/>
<circle cx="550" cy="145" r="21" fill="#F5DA24"/>
<circle cx="695" cy="42" r="21" fill="#F5DA24"/>
<circle cx="785.5" cy="45.5" r="31.5" fill="#F5DA24"/>
<circle cx="803.5" cy="117.5" r="23.5" fill="#F5DA24"/>
<circle cx="931.5" cy="264.5" r="32.5" fill="#F5DA24"/>
<circle cx="912.5" cy="114.5" r="23.5" fill="#F5DA24"/>
<circle cx="940" cy="176" r="31" fill="#F5DA24"/>
</g>
<g clip-path="url(#clip28_1381_349)">
<rect width="508" height="290" transform="translate(1016)" fill="white"/>
<path d="M998 -20C998 -20 1092.45 146.967 1177.27 108.733C1237.45 81.6066 1223.56 256.023 1158.1 264.6C1103.11 271.807 1071.38 219.574 1057.15 166.006C1032.52 73.3566 1182.09 37.4153 1277.95 41.1345C1380.69 45.1207 1487.24 146.188 1448.63 241.423C1420.84 309.954 1355.62 336.166 1281.8 331.19C1155.72 322.691 1343.82 -11.2981 1462.76 31.3462C1493.36 42.3201 1552.47 108.69 1552.47 108.69" stroke="black" stroke-width="10.4347"/>
<circle cx="1147" cy="105" r="28" fill="#F5DA24"/>
<circle cx="1217" cy="194" r="28" fill="#F5DA24"/>
<circle cx="1174.5" cy="253.5" r="20.5" fill="#F5DA24"/>
<circle cx="1086.5" cy="225.5" r="28.5" fill="#F5DA24"/>
<circle cx="1058" cy="135" r="21" fill="#F5DA24"/>
<circle cx="1214" cy="42" r="21" fill="#F5DA24"/>
<circle cx="1301.5" cy="45.5" r="31.5" fill="#F5DA24"/>
<circle cx="1313.5" cy="113.5" r="23.5" fill="#F5DA24"/>
<circle cx="1436.5" cy="270.5" r="32.5" fill="#F5DA24"/>
<circle cx="1424.5" cy="119.5" r="23.5" fill="#F5DA24"/>
<circle cx="1448" cy="182" r="31" fill="#F5DA24"/>
</g>
<g clip-path="url(#clip29_1381_349)">
<rect width="508" height="290" transform="translate(1524)" fill="white"/>
<path d="M1506 -20C1506 -20 1600.45 146.967 1685.27 108.733C1745.45 81.6066 1731.56 256.023 1666.1 264.6C1611.11 271.807 1579.38 219.574 1565.14 166.006C1540.52 73.3566 1690.09 37.4153 1785.95 41.1345C1888.69 45.1207 1995.24 146.188 1956.63 241.423C1928.84 309.954 1863.62 336.166 1789.8 331.19C1663.72 322.691 1851.82 -11.2981 1970.76 31.3462C2001.36 42.3201 2060.46 108.69 2060.46 108.69" stroke="black" stroke-width="10.4347"/>
<circle cx="1662" cy="114" r="28" fill="#F5DA24"/>
<circle cx="1721" cy="209" r="28" fill="#F5DA24"/>
<circle cx="1669.5" cy="257.5" r="20.5" fill="#F5DA24"/>
<circle cx="1586.5" cy="214.5" r="28.5" fill="#F5DA24"/>
<circle cx="1571" cy="118" r="21" fill="#F5DA24"/>
<circle cx="1732" cy="42" r="21" fill="#F5DA24"/>
<circle cx="1837.5" cy="45.5" r="31.5" fill="#F5DA24"/>
<circle cx="1829.5" cy="104.5" r="23.5" fill="#F5DA24"/>
<circle cx="1941.5" cy="286.5" r="32.5" fill="#F5DA24"/>
<circle cx="1935.5" cy="125.5" r="23.5" fill="#F5DA24"/>
<circle cx="1956" cy="194" r="31" fill="#F5DA24"/>
</g>
<g clip-path="url(#clip30_1381_349)">
<rect width="508" height="290" transform="translate(10160)" fill="white"/>
<path d="M10142 -20C10142 -20 10236.4 146.967 10321.3 108.733C10381.5 81.6066 10367.6 256.023 10302.1 264.6C10247.1 271.807 10215.4 219.574 10201.1 166.006C10176.5 73.3566 10326.1 37.4153 10421.9 41.1345C10524.7 45.1207 10631.2 146.188 10592.6 241.423C10564.8 309.954 10499.6 336.166 10425.8 331.19C10299.7 322.691 10487.8 -11.2981 10606.8 31.3462C10637.4 42.3201 10696.5 108.69 10696.5 108.69" stroke="black" stroke-width="10.4347"/>
<circle cx="10425" cy="47" r="28" fill="#F5DA24"/>
<circle cx="10495" cy="61" r="28" fill="#F5DA24"/>
<circle cx="10552.5" cy="95.5" r="20.5" fill="#F5DA24"/>
<circle cx="10586.5" cy="163.5" r="28.5" fill="#F5DA24"/>
<circle cx="10594" cy="245" r="21" fill="#F5DA24"/>
</g>
<g clip-path="url(#clip31_1381_349)">
<rect width="508" height="290" transform="translate(10668)" fill="white"/>
<path d="M10650 -20C10650 -20 10744.4 146.967 10829.3 108.733C10889.5 81.6066 10875.6 256.023 10810.1 264.6C10755.1 271.807 10723.4 219.574 10709.1 166.006C10684.5 73.3566 10834.1 37.4153 10929.9 41.1345C11032.7 45.1207 11139.2 146.188 11100.6 241.423C11072.8 309.954 11007.6 336.166 10933.8 331.19C10807.7 322.691 10995.8 -11.2981 11114.8 31.3462C11145.4 42.3201 11204.5 108.69 11204.5 108.69" stroke="black" stroke-width="10.4347"/>
<circle cx="10970" cy="47" r="28" fill="#F5DA24"/>
<circle cx="11032" cy="75" r="28" fill="#F5DA24"/>
<circle cx="11086.5" cy="117.5" r="20.5" fill="#F5DA24"/>
<circle cx="11101.5" cy="197.5" r="28.5" fill="#F5DA24"/>
<circle cx="11087" cy="272" r="21" fill="#F5DA24"/>
</g>
<g clip-path="url(#clip32_1381_349)">
<rect width="508" height="290" transform="translate(11176)" fill="white"/>
<path d="M11158 -20C11158 -20 11252.4 146.967 11337.3 108.733C11397.5 81.6066 11383.6 256.023 11318.1 264.6C11263.1 271.807 11231.4 219.574 11217.1 166.006C11192.5 73.3566 11342.1 37.4153 11437.9 41.1345C11540.7 45.1207 11647.2 146.188 11608.6 241.423C11580.8 309.954 11515.6 336.166 11441.8 331.19C11315.7 322.691 11503.8 -11.2981 11622.8 31.3462C11653.4 42.3201 11712.5 108.69 11712.5 108.69" stroke="black" stroke-width="10.4347"/>
<circle cx="11510" cy="57" r="28" fill="#F5DA24"/>
<circle cx="11566" cy="96" r="28" fill="#F5DA24"/>
<circle cx="11603.5" cy="148.5" r="20.5" fill="#F5DA24"/>
<circle cx="11609.5" cy="231.5" r="28.5" fill="#F5DA24"/>
<circle cx="11579" cy="290" r="21" fill="#F5DA24"/>
</g>
<g clip-path="url(#clip33_1381_349)">
<rect width="508" height="290" transform="translate(11684)" fill="white"/>
<path d="M11666 -20C11666 -20 11760.4 146.967 11845.3 108.733C11905.5 81.6066 11891.6 256.023 11826.1 264.6C11771.1 271.807 11739.4 219.574 11725.1 166.006C11700.5 73.3566 11850.1 37.4153 11945.9 41.1345C12048.7 45.1207 12155.2 146.188 12116.6 241.423C12088.8 309.954 12023.6 336.166 11949.8 331.19C11823.7 322.691 12011.8 -11.2981 12130.8 31.3462C12161.4 42.3201 12220.5 108.69 12220.5 108.69" stroke="black" stroke-width="10.4347"/>
<circle cx="12047" cy="73" r="28" fill="#F5DA24"/>
<circle cx="12092" cy="119" r="28" fill="#F5DA24"/>
<circle cx="12119.5" cy="177.5" r="20.5" fill="#F5DA24"/>
<circle cx="12111.5" cy="242.5" r="28.5" fill="#F5DA24"/>
<circle cx="12078" cy="302" r="21" fill="#F5DA24"/>
</g>
</g>
<defs>
<clipPath id="clip0_1381_349">
<rect width="16764" height="290" fill="white"/>
</clipPath>
<clipPath id="clip1_1381_349">
<rect width="508" height="290" fill="white" transform="translate(14224)"/>
</clipPath>
<clipPath id="clip2_1381_349">
<rect width="508" height="290" fill="white" transform="translate(14732)"/>
</clipPath>
<clipPath id="clip3_1381_349">
<rect width="508" height="290" fill="white" transform="translate(15240)"/>
</clipPath>
<clipPath id="clip4_1381_349">
<rect width="508" height="290" fill="white" transform="translate(15748)"/>
</clipPath>
<clipPath id="clip5_1381_349">
<rect width="508" height="290" fill="white" transform="translate(12192)"/>
</clipPath>
<clipPath id="clip6_1381_349">
<rect width="508" height="290" fill="white" transform="translate(12700)"/>
</clipPath>
<clipPath id="clip7_1381_349">
<rect width="508" height="290" fill="white" transform="translate(13208)"/>
</clipPath>
<clipPath id="clip8_1381_349">
<rect width="508" height="290" fill="white" transform="translate(16256)"/>
</clipPath>
<clipPath id="clip9_1381_349">
<rect width="508" height="290" fill="white" transform="translate(13716)"/>
</clipPath>
<clipPath id="clip10_1381_349">
<rect width="508" height="290" fill="white" transform="translate(8128)"/>
</clipPath>
<clipPath id="clip11_1381_349">
<rect width="508" height="290" fill="white" transform="translate(8636)"/>
</clipPath>
<clipPath id="clip12_1381_349">
<rect width="508" height="290" fill="white" transform="translate(9144)"/>
</clipPath>
<clipPath id="clip13_1381_349">
<rect width="508" height="290" fill="white" transform="translate(9652)"/>
</clipPath>
<clipPath id="clip14_1381_349">
<rect width="508" height="290" fill="white" transform="translate(6096)"/>
</clipPath>
<clipPath id="clip15_1381_349">
<rect width="508" height="290" fill="white" transform="translate(6604)"/>
</clipPath>
<clipPath id="clip16_1381_349">
<rect width="508" height="290" fill="white" transform="translate(7112)"/>
</clipPath>
<clipPath id="clip17_1381_349">
<rect width="508" height="290" fill="white" transform="translate(7620)"/>
</clipPath>
<clipPath id="clip18_1381_349">
<rect width="508" height="290" fill="white" transform="translate(4064)"/>
</clipPath>
<clipPath id="clip19_1381_349">
<rect width="508" height="290" fill="white" transform="translate(4572)"/>
</clipPath>
<clipPath id="clip20_1381_349">
<rect width="508" height="290" fill="white" transform="translate(5080)"/>
</clipPath>
<clipPath id="clip21_1381_349">
<rect width="508" height="290" fill="white" transform="translate(5588)"/>
</clipPath>
<clipPath id="clip22_1381_349">
<rect width="508" height="290" fill="white" transform="translate(2032)"/>
</clipPath>
<clipPath id="clip23_1381_349">
<rect width="508" height="290" fill="white" transform="translate(2540)"/>
</clipPath>
<clipPath id="clip24_1381_349">
<rect width="508" height="290" fill="white" transform="translate(3048)"/>
</clipPath>
<clipPath id="clip25_1381_349">
<rect width="508" height="290" fill="white" transform="translate(3556)"/>
</clipPath>
<clipPath id="clip26_1381_349">
<rect width="508" height="290" fill="white"/>
</clipPath>
<clipPath id="clip27_1381_349">
<rect width="508" height="290" fill="white" transform="translate(508)"/>
</clipPath>
<clipPath id="clip28_1381_349">
<rect width="508" height="290" fill="white" transform="translate(1016)"/>
</clipPath>
<clipPath id="clip29_1381_349">
<rect width="508" height="290" fill="white" transform="translate(1524)"/>
</clipPath>
<clipPath id="clip30_1381_349">
<rect width="508" height="290" fill="white" transform="translate(10160)"/>
</clipPath>
<clipPath id="clip31_1381_349">
<rect width="508" height="290" fill="white" transform="translate(10668)"/>
</clipPath>
<clipPath id="clip32_1381_349">
<rect width="508" height="290" fill="white" transform="translate(11176)"/>
</clipPath>
<clipPath id="clip33_1381_349">
<rect width="508" height="290" fill="white" transform="translate(11684)"/>
</clipPath>
</defs>
</svg>
