<svg width="17169" height="297" viewBox="0 0 17169 297" fill="none" xmlns="http://www.w3.org/2000/svg">
<g clip-path="url(#clip0_1381_1784)">
<g clip-path="url(#clip1_1381_1784)">
<rect width="520.262" height="297" transform="translate(14567.3)" fill="white"/>
<path d="M14548.9 -20.4824C14548.9 -20.4824 14645.6 150.515 14732.5 111.358C14794.1 83.5767 14779.9 262.203 14712.9 270.987C14656.5 278.368 14624.1 224.874 14609.5 170.014C14584.3 75.1276 14737.4 38.3187 14835.6 42.1277C14940.8 46.2101 15050 149.717 15010.4 247.251C14982 317.436 14915.2 344.281 14839.6 339.185C14710.4 330.48 14903.1 -11.5705 15024.9 32.1032C15056.2 43.342 15116.8 111.314 15116.8 111.314" stroke="black" stroke-width="10.6866"/>
<circle cx="15011.8" cy="206.875" r="28.6759" fill="#F5DA24"/>
<circle cx="14992.4" cy="272.421" r="28.6759" fill="#F5DA24"/>
</g>
<g clip-path="url(#clip2_1381_1784)">
<rect width="520.262" height="297" transform="translate(15087.6)" fill="white"/>
<path d="M15069.2 -20.4824C15069.2 -20.4824 15165.9 150.515 15252.8 111.358C15314.4 83.5767 15300.2 262.203 15233.1 270.987C15176.8 278.368 15144.3 224.874 15129.7 170.014C15104.5 75.1276 15257.7 38.3187 15355.9 42.1277C15461.1 46.2101 15570.2 149.717 15530.7 247.251C15502.2 317.436 15435.4 344.281 15359.8 339.185C15230.7 330.48 15423.3 -11.5705 15545.1 32.1032C15576.5 43.342 15637 111.314 15637 111.314" stroke="black" stroke-width="10.6866"/>
<circle cx="15530" cy="233.504" r="28.6759" fill="#F5DA24"/>
<circle cx="15496.2" cy="302.122" r="28.6759" fill="#F5DA24"/>
</g>
<g clip-path="url(#clip3_1381_1784)">
<rect width="520.262" height="297" transform="translate(15607.9)" fill="white"/>
<path d="M15589.4 -20.4824C15589.4 -20.4824 15686.2 150.515 15773 111.358C15834.7 83.5767 15820.4 262.203 15753.4 270.987C15697.1 278.368 15664.6 224.874 15650 170.014C15624.8 75.1276 15778 38.3187 15876.1 42.1277C15981.4 46.2101 16090.5 149.717 16050.9 247.251C16022.5 317.436 15955.7 344.281 15880.1 339.185C15751 330.48 15943.6 -11.5705 16065.4 32.1032C16096.7 43.342 16157.3 111.314 16157.3 111.314" stroke="black" stroke-width="10.6866"/>
<circle cx="16036" cy="268.324" r="28.6759" fill="#F5DA24"/>
</g>
<g clip-path="url(#clip4_1381_1784)">
<rect width="520.262" height="297" transform="translate(16128.1)" fill="white"/>
<path d="M16109.7 -20.4824C16109.7 -20.4824 16206.4 150.515 16293.3 111.358C16354.9 83.5767 16340.7 262.203 16273.7 270.987C16217.3 278.368 16184.8 224.874 16170.3 170.014C16145 75.1276 16298.2 38.3187 16396.4 42.1277C16501.6 46.2101 16610.7 149.717 16571.2 247.251C16542.7 317.436 16475.9 344.281 16400.3 339.185C16271.2 330.48 16463.9 -11.5705 16585.7 32.1032C16617 43.342 16677.5 111.314 16677.5 111.314" stroke="black" stroke-width="10.6866"/>
<circle cx="16533.7" cy="306.219" r="28.6759" fill="#F5DA24"/>
</g>
<g clip-path="url(#clip5_1381_1784)">
<rect width="520.262" height="297" transform="translate(12486.3)" fill="white"/>
<path d="M12467.9 -20.4824C12467.9 -20.4824 12564.6 150.515 12651.5 111.358C12713.1 83.5767 12698.9 262.203 12631.8 270.987C12575.5 278.368 12543 224.874 12528.4 170.014C12503.2 75.1276 12656.4 38.3187 12754.6 42.1277C12859.8 46.2101 12968.9 149.717 12929.4 247.251C12900.9 317.436 12834.1 344.281 12758.5 339.185C12629.4 330.48 12822 -11.5705 12943.8 32.1032C12975.2 43.342 13035.7 111.314 13035.7 111.314" stroke="black" stroke-width="10.6866"/>
<circle cx="12881.6" cy="98.3175" r="28.6759" fill="#F5DA24"/>
<circle cx="12919.5" cy="155.669" r="28.6759" fill="#F5DA24"/>
<circle cx="12932.3" cy="217.629" r="20.9948" fill="#F5DA24"/>
<circle cx="12910.8" cy="283.173" r="29.1879" fill="#F5DA24"/>
</g>
<g clip-path="url(#clip6_1381_1784)">
<rect width="520.262" height="297" transform="translate(13006.6)" fill="white"/>
<path d="M12988.1 -20.4824C12988.1 -20.4824 13084.8 150.515 13171.7 111.358C13233.4 83.5767 13219.1 262.203 13152.1 270.987C13095.8 278.368 13063.3 224.874 13048.7 170.014C13023.5 75.1276 13176.6 38.3187 13274.8 42.1277C13380 46.2101 13489.2 149.717 13449.6 247.251C13421.2 317.436 13354.4 344.281 13278.8 339.185C13149.6 330.48 13342.3 -11.5705 13464.1 32.1032C13495.4 43.342 13556 111.314 13556 111.314" stroke="black" stroke-width="10.6866"/>
<circle cx="13423.4" cy="119.824" r="28.6759" fill="#F5DA24"/>
<circle cx="13452.1" cy="185.368" r="28.6759" fill="#F5DA24"/>
<circle cx="13451.5" cy="251.426" r="20.9948" fill="#F5DA24"/>
<circle cx="13415.7" cy="310.825" r="29.1879" fill="#F5DA24"/>
</g>
<g clip-path="url(#clip7_1381_1784)">
<rect width="520.262" height="297" transform="translate(13526.8)" fill="white"/>
<path d="M13508.4 -20.4824C13508.4 -20.4824 13605.1 150.515 13692 111.358C13753.6 83.5767 13739.4 262.203 13672.3 270.987C13616 278.368 13583.5 224.874 13569 170.014C13543.7 75.1276 13696.9 38.3187 13795.1 42.1277C13900.3 46.2101 14009.4 149.717 13969.9 247.251C13941.4 317.436 13874.6 344.281 13799 339.185C13669.9 330.48 13862.5 -11.5705 13984.4 32.1032C14015.7 43.342 14076.2 111.314 14076.2 111.314" stroke="black" stroke-width="10.6866"/>
<circle cx="13963.1" cy="163.862" r="28.6759" fill="#F5DA24"/>
<circle cx="13972.3" cy="230.431" r="28.6759" fill="#F5DA24"/>
<circle cx="13951.3" cy="280.102" r="20.9948" fill="#F5DA24"/>
</g>
<g clip-path="url(#clip8_1381_1784)">
<rect width="520.262" height="297" transform="translate(16648.4)" fill="white"/>
<path d="M16630 -20.4824C16630 -20.4824 16726.7 150.515 16813.6 111.358C16875.2 83.5767 16861 262.203 16793.9 270.987C16737.6 278.368 16705.1 224.874 16690.5 170.014C16665.3 75.1276 16818.5 38.3187 16916.7 42.1277C17021.9 46.2101 17131 149.717 17091.5 247.251C17063 317.436 16996.2 344.281 16920.6 339.185C16791.5 330.48 16984.1 -11.5705 17105.9 32.1032C17137.3 43.342 17197.8 111.314 17197.8 111.314" stroke="black" stroke-width="10.6866"/>
</g>
<g clip-path="url(#clip9_1381_1784)">
<rect width="520.262" height="297" transform="translate(14047.1)" fill="white"/>
<path d="M14028.6 -20.4824C14028.6 -20.4824 14125.4 150.515 14212.2 111.358C14273.9 83.5767 14259.6 262.203 14192.6 270.987C14136.3 278.368 14103.8 224.874 14089.2 170.014C14064 75.1276 14217.2 38.3187 14315.3 42.1277C14420.6 46.2101 14529.7 149.717 14490.1 247.251C14461.7 317.436 14394.9 344.281 14319.3 339.185C14190.2 330.48 14382.8 -11.5705 14504.6 32.1032C14536 43.342 14596.5 111.314 14596.5 111.314" stroke="black" stroke-width="10.6866"/>
<circle cx="14483.4" cy="182.297" r="28.6759" fill="#F5DA24"/>
<circle cx="14483.4" cy="246.817" r="28.6759" fill="#F5DA24"/>
<circle cx="14454.2" cy="296.488" r="20.9948" fill="#F5DA24"/>
</g>
<g clip-path="url(#clip10_1381_1784)">
<rect width="520.262" height="297" transform="translate(8324.19)" fill="white"/>
<path d="M8305.76 -20.4824C8305.76 -20.4824 8402.48 150.515 8489.36 111.358C8550.99 83.5767 8536.76 262.203 8469.73 270.987C8413.4 278.368 8380.91 224.874 8366.33 170.014C8341.11 75.1276 8494.29 38.3187 8592.46 42.1277C8697.69 46.2101 8806.81 149.717 8767.26 247.251C8738.81 317.436 8672.01 344.281 8596.41 339.185C8467.29 330.48 8659.93 -11.5705 8781.73 32.1032C8813.08 43.342 8873.61 111.314 8873.61 111.314" stroke="black" stroke-width="10.6866"/>
<circle cx="8374.38" cy="120.848" r="28.6759" fill="#F5DA24"/>
<circle cx="8471.67" cy="57.3507" r="28.6759" fill="#F5DA24"/>
<circle cx="8569.47" cy="49.6696" r="20.9948" fill="#F5DA24"/>
<circle cx="8656.53" cy="49.6703" r="29.1879" fill="#F5DA24"/>
<circle cx="8728.73" cy="97.295" r="21.5069" fill="#F5DA24"/>
<circle cx="8837.29" cy="70.6651" r="21.5069" fill="#F5DA24"/>
</g>
<g clip-path="url(#clip11_1381_1784)">
<rect width="520.262" height="297" transform="translate(8844.46)" fill="white"/>
<path d="M8826.02 -20.4824C8826.02 -20.4824 8922.75 150.515 9009.62 111.358C9071.25 83.5767 9057.02 262.203 8989.99 270.987C8933.66 278.368 8901.17 224.874 8886.59 170.014C8861.38 75.1276 9014.55 38.3187 9112.73 42.1277C9217.95 46.2101 9327.07 149.717 9287.53 247.251C9259.07 317.436 9192.27 344.281 9116.67 339.185C8987.55 330.48 9180.19 -11.5705 9301.99 32.1032C9333.34 43.342 9393.87 111.314 9393.87 111.314" stroke="black" stroke-width="10.6866"/>
<circle cx="8922.29" cy="86.0274" r="28.6759" fill="#F5DA24"/>
<circle cx="9045.19" cy="43.0147" r="28.6759" fill="#F5DA24"/>
<circle cx="9130.7" cy="49.6696" r="20.9948" fill="#F5DA24"/>
<circle cx="9216.73" cy="71.1782" r="29.1879" fill="#F5DA24"/>
<circle cx="9267.42" cy="120.849" r="21.5069" fill="#F5DA24"/>
<circle cx="9375.98" cy="78.8585" r="21.5069" fill="#F5DA24"/>
</g>
<g clip-path="url(#clip12_1381_1784)">
<rect width="520.262" height="297" transform="translate(9364.72)" fill="white"/>
<path d="M9346.28 -20.4824C9346.28 -20.4824 9443.01 150.515 9529.88 111.358C9591.52 83.5767 9577.29 262.203 9510.25 270.987C9453.92 278.368 9421.43 224.874 9406.85 170.014C9381.64 75.1276 9534.81 38.3187 9632.99 42.1277C9738.21 46.2101 9847.33 149.717 9807.79 247.251C9779.33 317.436 9712.53 344.281 9636.93 339.185C9507.81 330.48 9700.45 -11.5705 9822.26 32.1032C9853.6 43.342 9914.13 111.314 9914.13 111.314" stroke="black" stroke-width="10.6866"/>
<circle cx="9494.78" cy="57.3507" r="28.6759" fill="#F5DA24"/>
<circle cx="9616.66" cy="41.9893" r="28.6759" fill="#F5DA24"/>
<circle cx="9701.15" cy="56.8386" r="20.9948" fill="#F5DA24"/>
<circle cx="9766.69" cy="99.853" r="29.1879" fill="#F5DA24"/>
<circle cx="9808.17" cy="159.767" r="21.5069" fill="#F5DA24"/>
</g>
<g clip-path="url(#clip13_1381_1784)">
<rect width="520.262" height="297" transform="translate(9884.98)" fill="white"/>
<path d="M9866.54 -20.4824C9866.54 -20.4824 9963.27 150.515 10050.1 111.358C10111.8 83.5767 10097.5 262.203 10030.5 270.987C9974.19 278.368 9941.7 224.874 9927.12 170.014C9901.9 75.1276 10055.1 38.3187 10153.3 42.1277C10258.5 46.2101 10367.6 149.717 10328.1 247.251C10299.6 317.436 10232.8 344.281 10157.2 339.185C10028.1 330.48 10220.7 -11.5705 10342.5 32.1032C10373.9 43.342 10434.4 111.314 10434.4 111.314" stroke="black" stroke-width="10.6866"/>
<circle cx="10111.3" cy="48.1329" r="28.6759" fill="#F5DA24"/>
<circle cx="10194.3" cy="44.0391" r="28.6759" fill="#F5DA24"/>
<circle cx="10251.1" cy="65.0329" r="20.9948" fill="#F5DA24"/>
<circle cx="10307.4" cy="128.53" r="29.1879" fill="#F5DA24"/>
<circle cx="10329.5" cy="205.851" r="21.5069" fill="#F5DA24"/>
</g>
<g clip-path="url(#clip14_1381_1784)">
<rect width="520.262" height="297" transform="translate(6243.14)" fill="white"/>
<path d="M6224.71 -20.4824C6224.71 -20.4824 6321.44 150.515 6408.31 111.358C6469.94 83.5767 6455.71 262.203 6388.68 270.987C6332.35 278.368 6299.86 224.874 6285.28 170.014C6260.07 75.1276 6413.24 38.3187 6511.42 42.1277C6616.64 46.2101 6725.76 149.717 6686.22 247.251C6657.76 317.436 6590.96 344.281 6515.36 339.185C6386.24 330.48 6578.88 -11.5705 6700.68 32.1032C6732.03 43.342 6792.56 111.314 6792.56 111.314" stroke="black" stroke-width="10.6866"/>
<circle cx="6356.82" cy="250.914" r="28.6759" fill="#F5DA24"/>
<circle cx="6292.3" cy="178.199" r="28.6759" fill="#F5DA24"/>
<circle cx="6320.47" cy="89.613" r="20.9948" fill="#F5DA24"/>
<circle cx="6420.83" cy="47.6215" r="29.1879" fill="#F5DA24"/>
<circle cx="6503.28" cy="47.1104" r="21.5069" fill="#F5DA24"/>
<circle cx="6674.31" cy="31.7471" r="21.5069" fill="#F5DA24"/>
<circle cx="6693.25" cy="206.364" r="32.2603" fill="#F5DA24"/>
<circle cx="6734.22" cy="52.742" r="24.0672" fill="#F5DA24"/>
<circle cx="6663.55" cy="296.487" r="24.0672" fill="#F5DA24"/>
</g>
<g clip-path="url(#clip15_1381_1784)">
<rect width="520.262" height="297" transform="translate(6763.41)" fill="white"/>
<path d="M6744.97 -20.4824C6744.97 -20.4824 6841.7 150.515 6928.57 111.358C6990.21 83.5767 6975.98 262.203 6908.94 270.987C6852.61 278.368 6820.12 224.874 6805.54 170.014C6780.33 75.1276 6933.5 38.3187 7031.68 42.1277C7136.9 46.2101 7246.02 149.717 7206.48 247.251C7178.02 317.436 7111.22 344.281 7035.62 339.185C6906.5 330.48 7099.14 -11.5705 7220.95 32.1032C7252.29 43.342 7312.82 111.314 7312.82 111.314" stroke="black" stroke-width="10.6866"/>
<circle cx="6834.07" cy="232.479" r="28.6759" fill="#F5DA24"/>
<circle cx="6812.57" cy="138.259" r="28.6759" fill="#F5DA24"/>
<circle cx="6862.24" cy="78.3464" r="20.9948" fill="#F5DA24"/>
<circle cx="6972.84" cy="46.5971" r="29.1879" fill="#F5DA24"/>
<circle cx="7055.29" cy="47.1104" r="21.5069" fill="#F5DA24"/>
<circle cx="7223.24" cy="31.7471" r="21.5069" fill="#F5DA24"/>
<circle cx="7206.35" cy="243.233" r="32.2603" fill="#F5DA24"/>
<circle cx="7274.96" cy="64.0096" r="24.0672" fill="#F5DA24"/>
</g>
<g clip-path="url(#clip16_1381_1784)">
<rect width="520.262" height="297" transform="translate(7283.67)" fill="white"/>
<path d="M7265.23 -20.4824C7265.23 -20.4824 7361.96 150.515 7448.83 111.358C7510.47 83.5767 7496.24 262.203 7429.2 270.987C7372.88 278.368 7340.39 224.874 7325.81 170.014C7300.59 75.1276 7453.77 38.3187 7551.94 42.1277C7657.16 46.2101 7766.29 149.717 7726.74 247.251C7698.28 317.436 7631.49 344.281 7555.89 339.185C7426.76 330.48 7619.4 -11.5705 7741.21 32.1032C7772.55 43.342 7833.08 111.314 7833.08 111.314" stroke="black" stroke-width="10.6866"/>
<circle cx="7346.14" cy="202.779" r="28.6759" fill="#F5DA24"/>
<circle cx="7354.33" cy="93.1964" r="28.6759" fill="#F5DA24"/>
<circle cx="7449.07" cy="54.7927" r="20.9948" fill="#F5DA24"/>
<circle cx="7529.97" cy="46.5971" r="29.1879" fill="#F5DA24"/>
<circle cx="7611.39" cy="54.2794" r="21.5069" fill="#F5DA24"/>
<circle cx="7758.87" cy="38.9161" r="21.5069" fill="#F5DA24"/>
<circle cx="7714.32" cy="289.318" r="32.2603" fill="#F5DA24"/>
<circle cx="7810.59" cy="77.3221" r="24.0672" fill="#F5DA24"/>
</g>
<g clip-path="url(#clip17_1381_1784)">
<rect width="520.262" height="297" transform="translate(7803.93)" fill="white"/>
<path d="M7785.5 -20.4824C7785.5 -20.4824 7882.22 150.515 7969.1 111.358C8030.73 83.5767 8016.5 262.203 7949.46 270.987C7893.14 278.368 7860.65 224.874 7846.07 170.014C7820.85 75.1276 7974.03 38.3187 8072.2 42.1277C8177.42 46.2101 8286.55 149.717 8247 247.251C8218.55 317.436 8151.75 344.281 8076.15 339.185C7947.03 330.48 8139.67 -11.5705 8261.47 32.1032C8292.81 43.342 8353.34 111.314 8353.34 111.314" stroke="black" stroke-width="10.6866"/>
<circle cx="7853.09" cy="172.055" r="28.6759" fill="#F5DA24"/>
<circle cx="7902.25" cy="72.714" r="28.6759" fill="#F5DA24"/>
<circle cx="8000.05" cy="49.6696" r="20.9948" fill="#F5DA24"/>
<circle cx="8098.37" cy="46.5971" r="29.1879" fill="#F5DA24"/>
<circle cx="8180.81" cy="79.8829" r="21.5069" fill="#F5DA24"/>
<circle cx="8302.69" cy="54.2794" r="21.5069" fill="#F5DA24"/>
<circle cx="8217.17" cy="306.73" r="32.2603" fill="#F5DA24"/>
</g>
<g clip-path="url(#clip18_1381_1784)">
<rect width="520.262" height="297" transform="translate(4162.1)" fill="white"/>
<path d="M4143.66 -20.4824C4143.66 -20.4824 4240.39 150.515 4327.26 111.358C4388.89 83.5767 4374.66 262.203 4307.63 270.987C4251.3 278.368 4218.81 224.874 4204.23 170.014C4179.02 75.1276 4332.19 38.3187 4430.37 42.1277C4535.59 46.2101 4644.71 149.717 4605.17 247.251C4576.71 317.436 4509.91 344.281 4434.31 339.185C4305.19 330.48 4497.83 -11.5705 4619.63 32.1032C4650.98 43.342 4711.51 111.314 4711.51 111.314" stroke="black" stroke-width="10.6866"/>
<circle cx="4360.78" cy="183.322" r="28.6759" fill="#F5DA24"/>
<circle cx="4274.75" cy="258.084" r="28.6759" fill="#F5DA24"/>
<circle cx="4217.91" cy="200.219" r="20.9948" fill="#F5DA24"/>
<circle cx="4217.91" cy="109.07" r="29.1879" fill="#F5DA24"/>
<circle cx="4303.43" cy="58.376" r="21.5069" fill="#F5DA24"/>
<circle cx="4496.99" cy="50.1817" r="21.5069" fill="#F5DA24"/>
<circle cx="4581.48" cy="126.482" r="32.2603" fill="#F5DA24"/>
<circle cx="4559.97" cy="42.5008" r="24.0672" fill="#F5DA24"/>
<circle cx="4608.11" cy="211.484" r="24.0672" fill="#F5DA24"/>
<circle cx="4580.97" cy="282.66" r="31.7483" fill="#F5DA24"/>
</g>
<g clip-path="url(#clip19_1381_1784)">
<rect width="520.262" height="297" transform="translate(4682.36)" fill="white"/>
<path d="M4663.92 -20.4824C4663.92 -20.4824 4760.65 150.515 4847.52 111.358C4909.16 83.5767 4894.93 262.203 4827.89 270.987C4771.57 278.368 4739.08 224.874 4724.5 170.014C4699.28 75.1276 4852.46 38.3187 4950.63 42.1277C5055.85 46.2101 5164.98 149.717 5125.43 247.251C5096.97 317.436 5030.18 344.281 4954.57 339.185C4825.45 330.48 5018.09 -11.5705 5139.9 32.1032C5171.24 43.342 5231.77 111.314 5231.77 111.314" stroke="black" stroke-width="10.6866"/>
<circle cx="4873.87" cy="203.804" r="28.6759" fill="#F5DA24"/>
<circle cx="4772.48" cy="249.888" r="28.6759" fill="#F5DA24"/>
<circle cx="4725.88" cy="174.616" r="20.9948" fill="#F5DA24"/>
<circle cx="4760.7" cy="79.3715" r="29.1879" fill="#F5DA24"/>
<circle cx="4852.36" cy="50.1817" r="21.5069" fill="#F5DA24"/>
<circle cx="5039.78" cy="66.5674" r="21.5069" fill="#F5DA24"/>
<circle cx="5117.1" cy="142.868" r="32.2603" fill="#F5DA24"/>
<circle cx="5104.81" cy="28.1639" r="24.0672" fill="#F5DA24"/>
<circle cx="5128.37" cy="236.062" r="24.0672" fill="#F5DA24"/>
<circle cx="5087.92" cy="309.291" r="31.7483" fill="#F5DA24"/>
</g>
<g clip-path="url(#clip20_1381_1784)">
<rect width="520.262" height="297" transform="translate(5202.62)" fill="white"/>
<path d="M5184.19 -20.4824C5184.19 -20.4824 5280.91 150.515 5367.79 111.358C5429.42 83.5767 5415.19 262.203 5348.15 270.987C5291.83 278.368 5259.34 224.874 5244.76 170.014C5219.54 75.1276 5372.72 38.3187 5470.89 42.1277C5576.11 46.2101 5685.24 149.717 5645.69 247.251C5617.24 317.436 5550.44 344.281 5474.84 339.185C5345.72 330.48 5538.36 -11.5705 5660.16 32.1032C5691.5 43.342 5752.03 111.314 5752.03 111.314" stroke="black" stroke-width="10.6866"/>
<circle cx="5377.75" cy="238.625" r="28.6759" fill="#F5DA24"/>
<circle cx="5278.41" cy="232.479" r="28.6759" fill="#F5DA24"/>
<circle cx="5243.07" cy="138.77" r="20.9948" fill="#F5DA24"/>
<circle cx="5320.91" cy="57.8627" r="29.1879" fill="#F5DA24"/>
<circle cx="5406.42" cy="50.1817" r="21.5069" fill="#F5DA24"/>
<circle cx="5581.55" cy="50.1817" r="21.5069" fill="#F5DA24"/>
<circle cx="5642.49" cy="159.254" r="32.2603" fill="#F5DA24"/>
<circle cx="5654.78" cy="28.1639" r="24.0672" fill="#F5DA24"/>
<circle cx="5642.49" cy="253.475" r="24.0672" fill="#F5DA24"/>
<circle cx="5598.96" cy="318.508" r="31.7483" fill="#F5DA24"/>
</g>
<g clip-path="url(#clip21_1381_1784)">
<rect width="520.262" height="297" transform="translate(5722.88)" fill="white"/>
<path d="M5704.45 -20.4824C5704.45 -20.4824 5801.17 150.515 5888.05 111.358C5949.68 83.5767 5935.45 262.203 5868.41 270.987C5812.09 278.368 5779.6 224.874 5765.02 170.014C5739.8 75.1276 5892.98 38.3187 5991.15 42.1277C6096.37 46.2101 6205.5 149.717 6165.95 247.251C6137.5 317.436 6070.7 344.281 5995.1 339.185C5865.98 330.48 6058.62 -11.5705 6180.42 32.1032C6211.77 43.342 6272.3 111.314 6272.3 111.314" stroke="black" stroke-width="10.6866"/>
<circle cx="5876.5" cy="256.034" r="28.6759" fill="#F5DA24"/>
<circle cx="5779.21" cy="209.948" r="28.6759" fill="#F5DA24"/>
<circle cx="5771.53" cy="108.046" r="20.9948" fill="#F5DA24"/>
<circle cx="5859.6" cy="54.7914" r="29.1879" fill="#F5DA24"/>
<circle cx="5954.34" cy="47.1104" r="21.5069" fill="#F5DA24"/>
<circle cx="6122.3" cy="39.9405" r="21.5069" fill="#F5DA24"/>
<circle cx="6166.85" cy="184.857" r="32.2603" fill="#F5DA24"/>
<circle cx="6198.59" cy="30.2137" r="24.0672" fill="#F5DA24"/>
<circle cx="6154.56" cy="272.933" r="24.0672" fill="#F5DA24"/>
</g>
<g clip-path="url(#clip22_1381_1784)">
<rect width="520.262" height="297" transform="translate(2081.05)" fill="white"/>
<path d="M2062.61 -20.4824C2062.61 -20.4824 2159.34 150.515 2246.21 111.358C2307.85 83.5767 2293.62 262.203 2226.58 270.987C2170.26 278.368 2137.76 224.874 2123.19 170.014C2097.97 75.1276 2251.15 38.3187 2349.32 42.1277C2454.54 46.2101 2563.67 149.717 2524.12 247.251C2495.66 317.436 2428.86 344.281 2353.26 339.185C2224.14 330.48 2416.78 -11.5705 2538.59 32.1032C2569.93 43.342 2630.46 111.314 2630.46 111.314" stroke="black" stroke-width="10.6866"/>
<circle cx="2246.96" cy="113.681" r="28.6759" fill="#F5DA24"/>
<circle cx="2275.63" cy="225.31" r="28.6759" fill="#F5DA24"/>
<circle cx="2202.41" cy="261.667" r="20.9948" fill="#F5DA24"/>
<circle cx="2131.74" cy="193.051" r="29.1879" fill="#F5DA24"/>
<circle cx="2142.5" cy="101.389" r="21.5069" fill="#F5DA24"/>
<circle cx="2319.67" cy="43.0137" r="21.5069" fill="#F5DA24"/>
<circle cx="2460.49" cy="75.275" r="32.2603" fill="#F5DA24"/>
<circle cx="2406.21" cy="98.829" r="24.0672" fill="#F5DA24"/>
<circle cx="2499.41" cy="307.754" r="33.2845" fill="#F5DA24"/>
<circle cx="2508.62" cy="137.746" r="24.0672" fill="#F5DA24"/>
<circle cx="2524.5" cy="218.141" r="31.7483" fill="#F5DA24"/>
</g>
<g clip-path="url(#clip23_1381_1784)">
<rect width="520.262" height="297" transform="translate(2601.31)" fill="white"/>
<path d="M2582.88 -20.4824C2582.88 -20.4824 2679.6 150.515 2766.48 111.358C2828.11 83.5767 2813.88 262.203 2746.84 270.987C2690.52 278.368 2658.03 224.874 2643.45 170.014C2618.23 75.1276 2771.41 38.3187 2869.58 42.1277C2974.8 46.2101 3083.93 149.717 3044.38 247.251C3015.93 317.436 2949.13 344.281 2873.53 339.185C2744.41 330.48 2937.05 -11.5705 3058.85 32.1032C3090.19 43.342 3150.72 111.314 3150.72 111.314" stroke="black" stroke-width="10.6866"/>
<circle cx="2788.73" cy="119.824" r="28.6759" fill="#F5DA24"/>
<circle cx="2788.73" cy="240.671" r="28.6759" fill="#F5DA24"/>
<circle cx="2695.02" cy="255.522" r="20.9948" fill="#F5DA24"/>
<circle cx="2648.93" cy="177.688" r="29.1879" fill="#F5DA24"/>
<circle cx="2674.02" cy="92.1719" r="21.5069" fill="#F5DA24"/>
<circle cx="2861.44" cy="43.0137" r="21.5069" fill="#F5DA24"/>
<circle cx="2989.97" cy="81.4185" r="32.2603" fill="#F5DA24"/>
<circle cx="2936.72" cy="81.4188" r="24.0672" fill="#F5DA24"/>
<circle cx="3008.41" cy="317.994" r="33.2845" fill="#F5DA24"/>
<circle cx="3032.98" cy="147.987" r="24.0672" fill="#F5DA24"/>
<circle cx="3044.76" cy="228.382" r="31.7483" fill="#F5DA24"/>
</g>
<g clip-path="url(#clip24_1381_1784)">
<rect width="520.262" height="297" transform="translate(3121.57)" fill="white"/>
<path d="M3103.14 -20.4824C3103.14 -20.4824 3199.86 150.515 3286.74 111.358C3348.37 83.5767 3334.14 262.203 3267.1 270.987C3210.78 278.368 3178.29 224.874 3163.71 170.014C3138.49 75.1276 3291.67 38.3187 3389.84 42.1277C3495.06 46.2101 3604.19 149.717 3564.64 247.251C3536.19 317.436 3469.39 344.281 3393.79 339.185C3264.67 330.48 3457.31 -11.5705 3579.11 32.1032C3610.46 43.342 3670.99 111.314 3670.99 111.314" stroke="black" stroke-width="10.6866"/>
<circle cx="3318.21" cy="134.161" r="28.6759" fill="#F5DA24"/>
<circle cx="3294.65" cy="261.155" r="28.6759" fill="#F5DA24"/>
<circle cx="3197.87" cy="249.377" r="20.9948" fill="#F5DA24"/>
<circle cx="3162.02" cy="158.231" r="29.1879" fill="#F5DA24"/>
<circle cx="3212.72" cy="78.8585" r="21.5069" fill="#F5DA24"/>
<circle cx="3403.21" cy="43.0137" r="21.5069" fill="#F5DA24"/>
<circle cx="3519.45" cy="89.6119" r="32.2603" fill="#F5DA24"/>
<circle cx="3477.46" cy="50.6952" r="24.0672" fill="#F5DA24"/>
<circle cx="3519.45" cy="323.116" r="33.2845" fill="#F5DA24"/>
<circle cx="3557.34" cy="162.327" r="24.0672" fill="#F5DA24"/>
<circle cx="3565.02" cy="243.743" r="31.7483" fill="#F5DA24"/>
</g>
<g clip-path="url(#clip25_1381_1784)">
<rect width="520.262" height="297" transform="translate(3641.83)" fill="white"/>
<path d="M3623.4 -20.4824C3623.4 -20.4824 3720.13 150.515 3807 111.358C3868.63 83.5767 3854.4 262.203 3787.37 270.987C3731.04 278.368 3698.55 224.874 3683.97 170.014C3658.76 75.1276 3811.93 38.3187 3910.11 42.1277C4015.33 46.2101 4124.45 149.717 4084.91 247.251C4056.45 317.436 3989.65 344.281 3914.05 339.185C3784.93 330.48 3977.57 -11.5705 4099.37 32.1032C4130.72 43.342 4191.25 111.314 4191.25 111.314" stroke="black" stroke-width="10.6866"/>
<circle cx="3838.47" cy="154.646" r="28.6759" fill="#F5DA24"/>
<circle cx="3783.16" cy="263.203" r="28.6759" fill="#F5DA24"/>
<circle cx="3710.96" cy="224.798" r="20.9948" fill="#F5DA24"/>
<circle cx="3682.29" cy="137.746" r="29.1879" fill="#F5DA24"/>
<circle cx="3757.56" cy="64.5215" r="21.5069" fill="#F5DA24"/>
<circle cx="3955.22" cy="43.0137" r="21.5069" fill="#F5DA24"/>
<circle cx="4045.86" cy="101.902" r="32.2603" fill="#F5DA24"/>
<circle cx="4022.3" cy="42.5008" r="24.0672" fill="#F5DA24"/>
<circle cx="4084.77" cy="186.906" r="24.0672" fill="#F5DA24"/>
<circle cx="4073" cy="264.228" r="31.7483" fill="#F5DA24"/>
</g>
<g clip-path="url(#clip26_1381_1784)">
<rect width="520.262" height="297" transform="translate(-0.000488281)" fill="white"/>
<path d="M-18.4355 -20.4824C-18.4355 -20.4824 78.2902 150.515 165.164 111.358C226.798 83.5767 212.568 262.203 145.531 270.987C89.2068 278.368 56.7162 224.874 42.1367 170.014C16.9204 75.1276 170.097 38.3187 268.271 42.1277C373.492 46.2101 482.617 149.717 443.071 247.251C414.614 317.436 347.816 344.281 272.215 339.185C143.094 330.48 335.734 -11.5705 457.538 32.1032C488.883 43.342 549.413 111.314 549.413 111.314" stroke="black" stroke-width="10.6866"/>
<circle cx="115.727" cy="106.511" r="28.6759" fill="#F5DA24"/>
<circle cx="204.827" cy="178.199" r="28.6759" fill="#F5DA24"/>
<circle cx="176.663" cy="254.5" r="20.9948" fill="#F5DA24"/>
<circle cx="79.3701" cy="246.306" r="29.1879" fill="#F5DA24"/>
<circle cx="43.0132" cy="156.693" r="21.5069" fill="#F5DA24"/>
<circle cx="182.296" cy="43.0137" r="21.5069" fill="#F5DA24"/>
<circle cx="280.1" cy="45.5738" r="32.2603" fill="#F5DA24"/>
<circle cx="296.488" cy="129.553" r="24.0672" fill="#F5DA24"/>
<circle cx="435.77" cy="263.716" r="33.2845" fill="#F5DA24"/>
<circle cx="411.19" cy="110.095" r="24.0672" fill="#F5DA24"/>
<circle cx="442.427" cy="173.079" r="31.7483" fill="#F5DA24"/>
</g>
<g clip-path="url(#clip27_1381_1784)">
<rect width="520.262" height="297" transform="translate(520.262)" fill="white"/>
<path d="M501.827 -20.4824C501.827 -20.4824 598.553 150.515 685.426 111.358C747.061 83.5767 732.831 262.203 665.794 270.987C609.47 278.368 576.979 224.874 562.399 170.014C537.183 75.1276 690.359 38.3187 788.534 42.1277C893.754 46.2101 1002.88 149.717 963.334 247.251C934.877 317.436 868.079 344.281 792.478 339.185C663.357 330.48 855.997 -11.5705 977.801 32.1032C1009.15 43.342 1069.68 111.314 1069.68 111.314" stroke="black" stroke-width="10.6866"/>
<circle cx="647.254" cy="107.534" r="28.6759" fill="#F5DA24"/>
<circle cx="726.114" cy="188.443" r="28.6759" fill="#F5DA24"/>
<circle cx="690.781" cy="256.546" r="20.9948" fill="#F5DA24"/>
<circle cx="594.512" cy="241.183" r="29.1879" fill="#F5DA24"/>
<circle cx="563.275" cy="148.5" r="21.5069" fill="#F5DA24"/>
<circle cx="711.775" cy="43.0137" r="21.5069" fill="#F5DA24"/>
<circle cx="804.46" cy="46.5992" r="32.2603" fill="#F5DA24"/>
<circle cx="822.894" cy="120.337" r="24.0672" fill="#F5DA24"/>
<circle cx="953.984" cy="270.883" r="33.2845" fill="#F5DA24"/>
<circle cx="934.526" cy="117.265" r="24.0672" fill="#F5DA24"/>
<circle cx="962.688" cy="180.248" r="31.7483" fill="#F5DA24"/>
</g>
<g clip-path="url(#clip28_1381_1784)">
<rect width="520.262" height="297" transform="translate(1040.52)" fill="white"/>
<path d="M1022.09 -20.4824C1022.09 -20.4824 1118.82 150.515 1205.69 111.358C1267.32 83.5767 1253.09 262.203 1186.06 270.987C1129.73 278.368 1097.24 224.874 1082.66 170.014C1057.45 75.1276 1210.62 38.3187 1308.8 42.1277C1414.02 46.2101 1523.14 149.717 1483.6 247.251C1455.14 317.436 1388.34 344.281 1312.74 339.185C1183.62 330.48 1376.26 -11.5705 1498.06 32.1032C1529.41 43.342 1589.94 111.314 1589.94 111.314" stroke="black" stroke-width="10.6866"/>
<circle cx="1174.69" cy="107.534" r="28.6759" fill="#F5DA24"/>
<circle cx="1246.37" cy="198.683" r="28.6759" fill="#F5DA24"/>
<circle cx="1202.85" cy="259.621" r="20.9948" fill="#F5DA24"/>
<circle cx="1112.73" cy="230.943" r="29.1879" fill="#F5DA24"/>
<circle cx="1083.54" cy="138.258" r="21.5069" fill="#F5DA24"/>
<circle cx="1243.3" cy="43.0137" r="21.5069" fill="#F5DA24"/>
<circle cx="1332.92" cy="46.5992" r="32.2603" fill="#F5DA24"/>
<circle cx="1345.2" cy="116.239" r="24.0672" fill="#F5DA24"/>
<circle cx="1471.17" cy="277.03" r="33.2845" fill="#F5DA24"/>
<circle cx="1458.88" cy="122.384" r="24.0672" fill="#F5DA24"/>
<circle cx="1482.95" cy="186.395" r="31.7483" fill="#F5DA24"/>
</g>
<g clip-path="url(#clip29_1381_1784)">
<rect width="520.262" height="297" transform="translate(1560.79)" fill="white"/>
<path d="M1542.35 -20.4824C1542.35 -20.4824 1639.08 150.515 1725.95 111.358C1787.58 83.5767 1773.35 262.203 1706.32 270.987C1649.99 278.368 1617.5 224.874 1602.92 170.014C1577.71 75.1276 1730.88 38.3187 1829.06 42.1277C1934.28 46.2101 2043.4 149.717 2003.86 247.251C1975.4 317.436 1908.6 344.281 1833 339.185C1703.88 330.48 1896.52 -11.5705 2018.32 32.1032C2049.67 43.342 2110.2 111.314 2110.2 111.314" stroke="black" stroke-width="10.6866"/>
<circle cx="1702.12" cy="116.752" r="28.6759" fill="#F5DA24"/>
<circle cx="1762.54" cy="214.045" r="28.6759" fill="#F5DA24"/>
<circle cx="1709.8" cy="263.716" r="20.9948" fill="#F5DA24"/>
<circle cx="1624.79" cy="219.678" r="29.1879" fill="#F5DA24"/>
<circle cx="1608.92" cy="120.849" r="21.5069" fill="#F5DA24"/>
<circle cx="1773.81" cy="43.0137" r="21.5069" fill="#F5DA24"/>
<circle cx="1881.85" cy="46.5992" r="32.2603" fill="#F5DA24"/>
<circle cx="1873.66" cy="107.021" r="24.0672" fill="#F5DA24"/>
<circle cx="1988.36" cy="293.415" r="33.2845" fill="#F5DA24"/>
<circle cx="1982.22" cy="128.529" r="24.0672" fill="#F5DA24"/>
<circle cx="2003.21" cy="198.682" r="31.7483" fill="#F5DA24"/>
</g>
<g clip-path="url(#clip30_1381_1784)">
<rect width="520.262" height="297" transform="translate(10405.2)" fill="white"/>
<path d="M10386.8 -20.4824C10386.8 -20.4824 10483.5 150.515 10570.4 111.358C10632 83.5767 10617.8 262.203 10550.8 270.987C10494.4 278.368 10462 224.874 10447.4 170.014C10422.2 75.1276 10575.3 38.3187 10673.5 42.1277C10778.7 46.2101 10887.9 149.717 10848.3 247.251C10819.9 317.436 10753.1 344.281 10677.5 339.185C10548.3 330.48 10741 -11.5705 10862.8 32.1032C10894.1 43.342 10954.7 111.314 10954.7 111.314" stroke="black" stroke-width="10.6866"/>
<circle cx="10676.6" cy="48.1329" r="28.6759" fill="#F5DA24"/>
<circle cx="10748.3" cy="62.4737" r="28.6759" fill="#F5DA24"/>
<circle cx="10807.2" cy="97.8054" r="20.9948" fill="#F5DA24"/>
<circle cx="10842" cy="167.448" r="29.1879" fill="#F5DA24"/>
<circle cx="10849.7" cy="250.915" r="21.5069" fill="#F5DA24"/>
</g>
<g clip-path="url(#clip31_1381_1784)">
<rect width="520.262" height="297" transform="translate(10925.5)" fill="white"/>
<path d="M10907.1 -20.4824C10907.1 -20.4824 11003.8 150.515 11090.7 111.358C11152.3 83.5767 11138.1 262.203 11071 270.987C11014.7 278.368 10982.2 224.874 10967.6 170.014C10942.4 75.1276 11095.6 38.3187 11193.8 42.1277C11299 46.2101 11408.1 149.717 11368.6 247.251C11340.1 317.436 11273.3 344.281 11197.7 339.185C11068.6 330.48 11261.2 -11.5705 11383 32.1032C11414.4 43.342 11474.9 111.314 11474.9 111.314" stroke="black" stroke-width="10.6866"/>
<circle cx="11234.8" cy="48.1329" r="28.6759" fill="#F5DA24"/>
<circle cx="11298.3" cy="76.8097" r="28.6759" fill="#F5DA24"/>
<circle cx="11354.1" cy="120.337" r="20.9948" fill="#F5DA24"/>
<circle cx="11369.5" cy="202.268" r="29.1879" fill="#F5DA24"/>
<circle cx="11354.6" cy="278.565" r="21.5069" fill="#F5DA24"/>
</g>
<g clip-path="url(#clip32_1381_1784)">
<rect width="520.262" height="297" transform="translate(11445.8)" fill="white"/>
<path d="M11427.3 -20.4824C11427.3 -20.4824 11524.1 150.515 11610.9 111.358C11672.6 83.5767 11658.3 262.203 11591.3 270.987C11535 278.368 11502.5 224.874 11487.9 170.014C11462.7 75.1276 11615.9 38.3187 11714 42.1277C11819.3 46.2101 11928.4 149.717 11888.8 247.251C11860.4 317.436 11793.6 344.281 11718 339.185C11588.9 330.48 11781.5 -11.5705 11903.3 32.1032C11934.6 43.342 11995.2 111.314 11995.2 111.314" stroke="black" stroke-width="10.6866"/>
<circle cx="11787.8" cy="58.3751" r="28.6759" fill="#F5DA24"/>
<circle cx="11845.2" cy="98.3175" r="28.6759" fill="#F5DA24"/>
<circle cx="11883.6" cy="152.086" r="20.9948" fill="#F5DA24"/>
<circle cx="11889.7" cy="237.089" r="29.1879" fill="#F5DA24"/>
<circle cx="11858.5" cy="297" r="21.5069" fill="#F5DA24"/>
</g>
<g clip-path="url(#clip33_1381_1784)">
<rect width="520.262" height="297" transform="translate(11966)" fill="white"/>
<path d="M11947.6 -20.4824C11947.6 -20.4824 12044.3 150.515 12131.2 111.358C12192.8 83.5767 12178.6 262.203 12111.6 270.987C12055.2 278.368 12022.7 224.874 12008.2 170.014C11982.9 75.1276 12136.1 38.3187 12234.3 42.1277C12339.5 46.2101 12448.6 149.717 12409.1 247.251C12380.6 317.436 12313.8 344.281 12238.2 339.185C12109.1 330.48 12301.8 -11.5705 12423.6 32.1032C12454.9 43.342 12515.4 111.314 12515.4 111.314" stroke="black" stroke-width="10.6866"/>
<circle cx="12337.8" cy="74.7638" r="28.6759" fill="#F5DA24"/>
<circle cx="12383.9" cy="121.873" r="28.6759" fill="#F5DA24"/>
<circle cx="12412" cy="181.785" r="20.9948" fill="#F5DA24"/>
<circle cx="12403.8" cy="248.353" r="29.1879" fill="#F5DA24"/>
<circle cx="12369.5" cy="309.289" r="21.5069" fill="#F5DA24"/>
</g>
</g>
<defs>
<clipPath id="clip0_1381_1784">
<rect width="17168.6" height="297" fill="white"/>
</clipPath>
<clipPath id="clip1_1381_1784">
<rect width="520.262" height="297" fill="white" transform="translate(14567.3)"/>
</clipPath>
<clipPath id="clip2_1381_1784">
<rect width="520.262" height="297" fill="white" transform="translate(15087.6)"/>
</clipPath>
<clipPath id="clip3_1381_1784">
<rect width="520.262" height="297" fill="white" transform="translate(15607.9)"/>
</clipPath>
<clipPath id="clip4_1381_1784">
<rect width="520.262" height="297" fill="white" transform="translate(16128.1)"/>
</clipPath>
<clipPath id="clip5_1381_1784">
<rect width="520.262" height="297" fill="white" transform="translate(12486.3)"/>
</clipPath>
<clipPath id="clip6_1381_1784">
<rect width="520.262" height="297" fill="white" transform="translate(13006.6)"/>
</clipPath>
<clipPath id="clip7_1381_1784">
<rect width="520.262" height="297" fill="white" transform="translate(13526.8)"/>
</clipPath>
<clipPath id="clip8_1381_1784">
<rect width="520.262" height="297" fill="white" transform="translate(16648.4)"/>
</clipPath>
<clipPath id="clip9_1381_1784">
<rect width="520.262" height="297" fill="white" transform="translate(14047.1)"/>
</clipPath>
<clipPath id="clip10_1381_1784">
<rect width="520.262" height="297" fill="white" transform="translate(8324.19)"/>
</clipPath>
<clipPath id="clip11_1381_1784">
<rect width="520.262" height="297" fill="white" transform="translate(8844.46)"/>
</clipPath>
<clipPath id="clip12_1381_1784">
<rect width="520.262" height="297" fill="white" transform="translate(9364.72)"/>
</clipPath>
<clipPath id="clip13_1381_1784">
<rect width="520.262" height="297" fill="white" transform="translate(9884.98)"/>
</clipPath>
<clipPath id="clip14_1381_1784">
<rect width="520.262" height="297" fill="white" transform="translate(6243.14)"/>
</clipPath>
<clipPath id="clip15_1381_1784">
<rect width="520.262" height="297" fill="white" transform="translate(6763.41)"/>
</clipPath>
<clipPath id="clip16_1381_1784">
<rect width="520.262" height="297" fill="white" transform="translate(7283.67)"/>
</clipPath>
<clipPath id="clip17_1381_1784">
<rect width="520.262" height="297" fill="white" transform="translate(7803.93)"/>
</clipPath>
<clipPath id="clip18_1381_1784">
<rect width="520.262" height="297" fill="white" transform="translate(4162.1)"/>
</clipPath>
<clipPath id="clip19_1381_1784">
<rect width="520.262" height="297" fill="white" transform="translate(4682.36)"/>
</clipPath>
<clipPath id="clip20_1381_1784">
<rect width="520.262" height="297" fill="white" transform="translate(5202.62)"/>
</clipPath>
<clipPath id="clip21_1381_1784">
<rect width="520.262" height="297" fill="white" transform="translate(5722.88)"/>
</clipPath>
<clipPath id="clip22_1381_1784">
<rect width="520.262" height="297" fill="white" transform="translate(2081.05)"/>
</clipPath>
<clipPath id="clip23_1381_1784">
<rect width="520.262" height="297" fill="white" transform="translate(2601.31)"/>
</clipPath>
<clipPath id="clip24_1381_1784">
<rect width="520.262" height="297" fill="white" transform="translate(3121.57)"/>
</clipPath>
<clipPath id="clip25_1381_1784">
<rect width="520.262" height="297" fill="white" transform="translate(3641.83)"/>
</clipPath>
<clipPath id="clip26_1381_1784">
<rect width="520.262" height="297" fill="white" transform="translate(-0.000488281)"/>
</clipPath>
<clipPath id="clip27_1381_1784">
<rect width="520.262" height="297" fill="white" transform="translate(520.262)"/>
</clipPath>
<clipPath id="clip28_1381_1784">
<rect width="520.262" height="297" fill="white" transform="translate(1040.52)"/>
</clipPath>
<clipPath id="clip29_1381_1784">
<rect width="520.262" height="297" fill="white" transform="translate(1560.79)"/>
</clipPath>
<clipPath id="clip30_1381_1784">
<rect width="520.262" height="297" fill="white" transform="translate(10405.2)"/>
</clipPath>
<clipPath id="clip31_1381_1784">
<rect width="520.262" height="297" fill="white" transform="translate(10925.5)"/>
</clipPath>
<clipPath id="clip32_1381_1784">
<rect width="520.262" height="297" fill="white" transform="translate(11445.8)"/>
</clipPath>
<clipPath id="clip33_1381_1784">
<rect width="520.262" height="297" fill="white" transform="translate(11966)"/>
</clipPath>
</defs>
</svg>
