<svg width="23586" height="408" viewBox="0 0 23586 408" fill="none" xmlns="http://www.w3.org/2000/svg">
<g clip-path="url(#clip0_1380_335)">
<g clip-path="url(#clip1_1380_335)">
<rect width="714.703" height="408" transform="translate(20012.1)" fill="white"/>
<path d="M19986.8 -28.1377C19986.8 -28.1377 20119.6 206.768 20239 152.976C20323.7 114.812 20304.1 360.197 20212 372.265C20134.6 382.404 20090 308.918 20070 233.554C20035.3 103.205 20245.8 52.6396 20380.6 57.8722C20525.2 63.4803 20675.1 205.671 20620.8 339.658C20581.7 436.073 20489.9 472.952 20386 465.95C20208.7 453.993 20473.3 -15.8951 20640.6 44.1011C20683.7 59.5402 20766.8 152.915 20766.8 152.915" stroke="black" stroke-width="14.6806"/>
<circle cx="20622.7" cy="284.193" r="39.3931" fill="#F5DA24"/>
<circle cx="20596" cy="374.235" r="39.3931" fill="#F5DA24"/>
</g>
<g clip-path="url(#clip2_1380_335)">
<rect width="714.703" height="408" transform="translate(20726.8)" fill="white"/>
<path d="M20701.5 -28.1377C20701.5 -28.1377 20834.3 206.768 20953.7 152.976C21038.4 114.812 21018.8 360.197 20926.7 372.265C20849.3 382.404 20804.7 308.918 20784.7 233.554C20750 103.205 20960.5 52.6396 21095.3 57.8722C21239.9 63.4803 21389.8 205.671 21335.5 339.658C21296.4 436.073 21204.6 472.952 21100.7 465.95C20923.4 453.993 21188 -15.8951 21355.3 44.1011C21398.4 59.5402 21481.5 152.915 21481.5 152.915" stroke="black" stroke-width="14.6806"/>
<circle cx="21334.6" cy="320.772" r="39.3931" fill="#F5DA24"/>
<circle cx="21288.1" cy="415.035" r="39.3931" fill="#F5DA24"/>
</g>
<g clip-path="url(#clip3_1380_335)">
<rect width="714.703" height="408" transform="translate(21441.5)" fill="white"/>
<path d="M21416.2 -28.1377C21416.2 -28.1377 21549 206.768 21668.4 152.976C21753.1 114.812 21733.5 360.197 21641.4 372.265C21564 382.404 21519.4 308.918 21499.4 233.554C21464.7 103.205 21675.2 52.6396 21810 57.8722C21954.6 63.4803 22104.5 205.671 22050.2 339.658C22011.1 436.073 21919.3 472.952 21815.5 465.95C21638.1 453.993 21902.7 -15.8951 22070 44.1011C22113.1 59.5402 22196.2 152.915 22196.2 152.915" stroke="black" stroke-width="14.6806"/>
<circle cx="22029.6" cy="368.607" r="39.3931" fill="#F5DA24"/>
</g>
<g clip-path="url(#clip4_1380_335)">
<rect width="714.703" height="408" transform="translate(22156.2)" fill="white"/>
<path d="M22130.9 -28.1377C22130.9 -28.1377 22263.8 206.768 22383.1 152.976C22467.8 114.812 22448.2 360.197 22356.1 372.265C22278.7 382.404 22234.1 308.918 22214.1 233.554C22179.4 103.205 22389.9 52.6396 22524.7 57.8722C22669.3 63.4803 22819.2 205.671 22764.9 339.658C22725.8 436.073 22634 472.952 22530.2 465.95C22352.8 453.993 22617.4 -15.8951 22784.7 44.1011C22827.8 59.5402 22911 152.915 22911 152.915" stroke="black" stroke-width="14.6806"/>
<circle cx="22713.3" cy="420.662" r="39.3931" fill="#F5DA24"/>
</g>
<g clip-path="url(#clip5_1380_335)">
<rect width="714.703" height="408" transform="translate(17153.3)" fill="white"/>
<path d="M17128 -28.1377C17128 -28.1377 17260.8 206.768 17380.2 152.976C17464.8 114.812 17445.3 360.197 17353.2 372.265C17275.8 382.404 17231.2 308.918 17211.2 233.554C17176.5 103.205 17386.9 52.6396 17521.8 57.8722C17666.4 63.4803 17816.3 205.671 17761.9 339.658C17722.8 436.073 17631.1 472.952 17527.2 465.95C17349.9 453.993 17614.5 -15.8951 17781.8 44.1011C17824.9 59.5402 17908 152.915 17908 152.915" stroke="black" stroke-width="14.6806"/>
<circle cx="17696.3" cy="135.062" r="39.3931" fill="#F5DA24"/>
<circle cx="17748.4" cy="213.848" r="39.3931" fill="#F5DA24"/>
<circle cx="17766" cy="298.965" r="28.8414" fill="#F5DA24"/>
<circle cx="17736.4" cy="389.007" r="40.0965" fill="#F5DA24"/>
</g>
<g clip-path="url(#clip6_1380_335)">
<rect width="714.703" height="408" transform="translate(17868)" fill="white"/>
<path d="M17842.7 -28.1377C17842.7 -28.1377 17975.5 206.768 18094.9 152.976C18179.5 114.812 18160 360.197 18067.9 372.265C17990.5 382.404 17945.9 308.918 17925.9 233.554C17891.2 103.205 18101.6 52.6396 18236.5 57.8722C18381.1 63.4803 18531 205.671 18476.6 339.658C18437.6 436.073 18345.8 472.952 18241.9 465.95C18064.6 453.993 18329.2 -15.8951 18496.5 44.1011C18539.6 59.5402 18622.7 152.915 18622.7 152.915" stroke="black" stroke-width="14.6806"/>
<circle cx="18440.6" cy="164.607" r="39.3931" fill="#F5DA24"/>
<circle cx="18480" cy="254.648" r="39.3931" fill="#F5DA24"/>
<circle cx="18479.3" cy="345.393" r="28.8414" fill="#F5DA24"/>
<circle cx="18430" cy="426.993" r="40.0965" fill="#F5DA24"/>
</g>
<g clip-path="url(#clip7_1380_335)">
<rect width="714.703" height="408" transform="translate(18582.7)" fill="white"/>
<path d="M18557.4 -28.1377C18557.4 -28.1377 18690.2 206.768 18809.6 152.976C18894.2 114.812 18874.7 360.197 18782.6 372.265C18705.2 382.404 18660.6 308.918 18640.6 233.554C18605.9 103.205 18816.4 52.6396 18951.2 57.8722C19095.8 63.4803 19245.7 205.671 19191.3 339.658C19152.3 436.073 19060.5 472.952 18956.6 465.95C18779.3 453.993 19043.9 -15.8951 19211.2 44.1011C19254.3 59.5402 19337.4 152.915 19337.4 152.915" stroke="black" stroke-width="14.6806"/>
<circle cx="19182" cy="225.103" r="39.3931" fill="#F5DA24"/>
<circle cx="19194.7" cy="316.551" r="39.3931" fill="#F5DA24"/>
<circle cx="19165.8" cy="384.787" r="28.8414" fill="#F5DA24"/>
</g>
<g clip-path="url(#clip8_1380_335)">
<rect width="714.703" height="408" transform="translate(22870.9)" fill="white"/>
<path d="M22845.6 -28.1377C22845.6 -28.1377 22978.5 206.768 23097.8 152.976C23182.5 114.812 23162.9 360.197 23070.8 372.265C22993.5 382.404 22948.8 308.918 22928.8 233.554C22894.1 103.205 23104.6 52.6396 23239.4 57.8722C23384 63.4803 23533.9 205.671 23479.6 339.658C23440.5 436.073 23348.7 472.952 23244.9 465.95C23067.5 453.993 23332.1 -15.8951 23499.4 44.1011C23542.5 59.5402 23625.7 152.915 23625.7 152.915" stroke="black" stroke-width="14.6806"/>
</g>
<g clip-path="url(#clip9_1380_335)">
<rect width="714.703" height="408" transform="translate(19297.4)" fill="white"/>
<path d="M19272.1 -28.1377C19272.1 -28.1377 19404.9 206.768 19524.3 152.976C19608.9 114.812 19589.4 360.197 19497.3 372.265C19419.9 382.404 19375.3 308.918 19355.3 233.554C19320.6 103.205 19531.1 52.6396 19665.9 57.8722C19810.5 63.4803 19960.4 205.671 19906.1 339.658C19867 436.073 19775.2 472.952 19671.3 465.95C19494 453.993 19758.6 -15.8951 19925.9 44.1011C19969 59.5402 20052.1 152.915 20052.1 152.915" stroke="black" stroke-width="14.6806"/>
<circle cx="19896.7" cy="250.427" r="39.3931" fill="#F5DA24"/>
<circle cx="19896.7" cy="339.062" r="39.3931" fill="#F5DA24"/>
<circle cx="19856.6" cy="407.296" r="28.8414" fill="#F5DA24"/>
</g>
<g clip-path="url(#clip10_1380_335)">
<rect width="714.703" height="408" transform="translate(11435.6)" fill="white"/>
<path d="M11410.3 -28.1377C11410.3 -28.1377 11543.2 206.768 11662.5 152.976C11747.2 114.812 11727.7 360.197 11635.6 372.265C11558.2 382.404 11513.6 308.918 11493.5 233.554C11458.9 103.205 11669.3 52.6396 11804.2 57.8722C11948.7 63.4803 12098.6 205.671 12044.3 339.658C12005.2 436.073 11913.5 472.952 11809.6 465.95C11632.2 453.993 11896.9 -15.8951 12064.2 44.1011C12107.2 59.5402 12190.4 152.915 12190.4 152.915" stroke="black" stroke-width="14.6806"/>
<circle cx="11504.6" cy="166.014" r="39.3931" fill="#F5DA24"/>
<circle cx="11638.2" cy="78.7867" r="39.3931" fill="#F5DA24"/>
<circle cx="11772.6" cy="68.2349" r="28.8414" fill="#F5DA24"/>
<circle cx="11892.2" cy="68.2342" r="40.0965" fill="#F5DA24"/>
<circle cx="11991.4" cy="133.655" r="29.5448" fill="#F5DA24"/>
<circle cx="12140.5" cy="97.0761" r="29.5448" fill="#F5DA24"/>
</g>
<g clip-path="url(#clip11_1380_335)">
<rect width="714.703" height="408" transform="translate(12150.4)" fill="white"/>
<path d="M12125 -28.1377C12125 -28.1377 12257.9 206.768 12377.2 152.976C12461.9 114.812 12442.4 360.197 12350.3 372.265C12272.9 382.404 12228.3 308.918 12208.2 233.554C12173.6 103.205 12384 52.6396 12518.9 57.8722C12663.4 63.4803 12813.3 205.671 12759 339.658C12719.9 436.073 12628.2 472.952 12524.3 465.95C12346.9 453.993 12611.6 -15.8951 12778.9 44.1011C12821.9 59.5402 12905.1 152.915 12905.1 152.915" stroke="black" stroke-width="14.6806"/>
<circle cx="12257.3" cy="118.179" r="39.3931" fill="#F5DA24"/>
<circle cx="12426.1" cy="59.0894" r="39.3931" fill="#F5DA24"/>
<circle cx="12543.6" cy="68.2349" r="28.8414" fill="#F5DA24"/>
<circle cx="12661.8" cy="97.7792" r="40.0965" fill="#F5DA24"/>
<circle cx="12731.4" cy="166.014" r="29.5448" fill="#F5DA24"/>
<circle cx="12880.5" cy="108.331" r="29.5448" fill="#F5DA24"/>
</g>
<g clip-path="url(#clip12_1380_335)">
<rect width="714.703" height="408" transform="translate(12865.1)" fill="white"/>
<path d="M12839.7 -28.1377C12839.7 -28.1377 12972.6 206.768 13091.9 152.976C13176.6 114.812 13157.1 360.197 13065 372.265C12987.6 382.404 12943 308.918 12922.9 233.554C12888.3 103.205 13098.7 52.6396 13233.6 57.8722C13378.1 63.4803 13528 205.671 13473.7 339.658C13434.6 436.073 13342.9 472.952 13239 465.95C13061.6 453.993 13326.3 -15.8951 13493.6 44.1011C13536.7 59.5402 13619.8 152.915 13619.8 152.915" stroke="black" stroke-width="14.6806"/>
<circle cx="13043.7" cy="78.7867" r="39.3931" fill="#F5DA24"/>
<circle cx="13211.2" cy="57.6831" r="39.3931" fill="#F5DA24"/>
<circle cx="13327.2" cy="78.0826" r="28.8414" fill="#F5DA24"/>
<circle cx="13417.3" cy="137.173" r="40.0965" fill="#F5DA24"/>
<circle cx="13474.2" cy="219.475" r="29.5448" fill="#F5DA24"/>
</g>
<g clip-path="url(#clip13_1380_335)">
<rect width="714.703" height="408" transform="translate(13579.8)" fill="white"/>
<path d="M13554.4 -28.1377C13554.4 -28.1377 13687.3 206.768 13806.7 152.976C13891.3 114.812 13871.8 360.197 13779.7 372.265C13702.3 382.404 13657.7 308.918 13637.6 233.554C13603 103.205 13813.4 52.6396 13948.3 57.8722C14092.8 63.4803 14242.7 205.671 14188.4 339.658C14149.3 436.073 14057.6 472.952 13953.7 465.95C13776.3 453.993 14041 -15.8951 14208.3 44.1011C14251.4 59.5402 14334.5 152.915 14334.5 152.915" stroke="black" stroke-width="14.6806"/>
<circle cx="13890.7" cy="66.1245" r="39.3931" fill="#F5DA24"/>
<circle cx="14004.6" cy="60.4966" r="39.3931" fill="#F5DA24"/>
<circle cx="14082.7" cy="89.3375" r="28.8414" fill="#F5DA24"/>
<circle cx="14160.1" cy="176.565" r="40.0965" fill="#F5DA24"/>
<circle cx="14190.4" cy="282.786" r="29.5448" fill="#F5DA24"/>
</g>
<g clip-path="url(#clip14_1380_335)">
<rect width="714.703" height="408" transform="translate(8576.83)" fill="white"/>
<path d="M8551.51 -28.1377C8551.51 -28.1377 8684.39 206.768 8803.73 152.976C8888.4 114.812 8868.85 360.197 8776.76 372.265C8699.38 382.404 8654.75 308.918 8634.72 233.554C8600.08 103.205 8810.5 52.6396 8945.37 57.8722C9089.92 63.4803 9239.83 205.671 9185.5 339.658C9146.41 436.073 9054.64 472.952 8950.79 465.95C8773.41 453.993 9038.05 -15.8951 9205.37 44.1011C9248.43 59.5402 9331.59 152.915 9331.59 152.915" stroke="black" stroke-width="14.6806"/>
<circle cx="8733" cy="344.69" r="39.3931" fill="#F5DA24"/>
<circle cx="8644.37" cy="244.8" r="39.3931" fill="#F5DA24"/>
<circle cx="8683.06" cy="123.103" r="28.8414" fill="#F5DA24"/>
<circle cx="8820.93" cy="65.4208" r="40.0965" fill="#F5DA24"/>
<circle cx="8934.19" cy="64.7177" r="29.5448" fill="#F5DA24"/>
<circle cx="9169.14" cy="43.6142" r="29.5448" fill="#F5DA24"/>
<circle cx="9195.17" cy="283.49" r="44.3172" fill="#F5DA24"/>
<circle cx="9251.44" cy="72.4556" r="33.0621" fill="#F5DA24"/>
<circle cx="9154.37" cy="407.296" r="33.0621" fill="#F5DA24"/>
</g>
<g clip-path="url(#clip15_1380_335)">
<rect width="714.703" height="408" transform="translate(9291.54)" fill="white"/>
<path d="M9266.21 -28.1377C9266.21 -28.1377 9399.09 206.768 9518.43 152.976C9603.1 114.812 9583.55 360.197 9491.46 372.265C9414.09 382.404 9369.45 308.918 9349.42 233.554C9314.78 103.205 9525.21 52.6396 9660.07 57.8722C9804.62 63.4803 9954.53 205.671 9900.2 339.658C9861.11 436.073 9769.35 472.952 9665.49 465.95C9488.11 453.993 9752.75 -15.8951 9920.08 44.1011C9963.14 59.5402 10046.3 152.915 10046.3 152.915" stroke="black" stroke-width="14.6806"/>
<circle cx="9388.61" cy="319.366" r="39.3931" fill="#F5DA24"/>
<circle cx="9359.07" cy="189.931" r="39.3931" fill="#F5DA24"/>
<circle cx="9427.3" cy="107.628" r="28.8414" fill="#F5DA24"/>
<circle cx="9579.25" cy="64.0135" r="40.0965" fill="#F5DA24"/>
<circle cx="9692.5" cy="64.7177" r="29.5448" fill="#F5DA24"/>
<circle cx="9923.23" cy="43.6142" r="29.5448" fill="#F5DA24"/>
<circle cx="9900.02" cy="334.138" r="44.3172" fill="#F5DA24"/>
<circle cx="9994.28" cy="87.9312" r="33.0621" fill="#F5DA24"/>
</g>
<g clip-path="url(#clip16_1380_335)">
<rect width="714.703" height="408" transform="translate(10006.2)" fill="white"/>
<path d="M9980.92 -28.1377C9980.92 -28.1377 10113.8 206.768 10233.1 152.976C10317.8 114.812 10298.3 360.197 10206.2 372.265C10128.8 382.404 10084.2 308.918 10064.1 233.554C10029.5 103.205 10239.9 52.6396 10374.8 57.8722C10519.3 63.4803 10669.2 205.671 10614.9 339.658C10575.8 436.073 10484.1 472.952 10380.2 465.95C10202.8 453.993 10467.5 -15.8951 10634.8 44.1011C10677.8 59.5402 10761 152.915 10761 152.915" stroke="black" stroke-width="14.6806"/>
<circle cx="10092.1" cy="278.566" r="39.3931" fill="#F5DA24"/>
<circle cx="10103.3" cy="128.028" r="39.3931" fill="#F5DA24"/>
<circle cx="10233.5" cy="75.2691" r="28.8414" fill="#F5DA24"/>
<circle cx="10344.6" cy="64.0135" r="40.0965" fill="#F5DA24"/>
<circle cx="10456.4" cy="74.5653" r="29.5448" fill="#F5DA24"/>
<circle cx="10659" cy="53.4618" r="29.5448" fill="#F5DA24"/>
<circle cx="10597.8" cy="397.448" r="44.3172" fill="#F5DA24"/>
<circle cx="10730.1" cy="106.22" r="33.0621" fill="#F5DA24"/>
</g>
<g clip-path="url(#clip17_1380_335)">
<rect width="714.703" height="408" transform="translate(10720.9)" fill="white"/>
<path d="M10695.6 -28.1377C10695.6 -28.1377 10828.5 206.768 10947.8 152.976C11032.5 114.812 11013 360.197 10920.9 372.265C10843.5 382.404 10798.9 308.918 10778.8 233.554C10744.2 103.205 10954.6 52.6396 11089.5 57.8722C11234 63.4803 11383.9 205.671 11329.6 339.658C11290.5 436.073 11198.8 472.952 11094.9 465.95C10917.5 453.993 11182.2 -15.8951 11349.5 44.1011C11392.5 59.5402 11475.7 152.915 11475.7 152.915" stroke="black" stroke-width="14.6806"/>
<circle cx="10788.5" cy="236.359" r="39.3931" fill="#F5DA24"/>
<circle cx="10856" cy="99.8892" r="39.3931" fill="#F5DA24"/>
<circle cx="10990.4" cy="68.2349" r="28.8414" fill="#F5DA24"/>
<circle cx="11125.4" cy="64.0135" r="40.0965" fill="#F5DA24"/>
<circle cx="11238.7" cy="109.738" r="29.5448" fill="#F5DA24"/>
<circle cx="11406.1" cy="74.5653" r="29.5448" fill="#F5DA24"/>
<circle cx="11288.6" cy="421.365" r="44.3172" fill="#F5DA24"/>
</g>
<g clip-path="url(#clip18_1380_335)">
<rect width="714.703" height="408" transform="translate(5718.02)" fill="white"/>
<path d="M5692.7 -28.1377C5692.7 -28.1377 5825.57 206.768 5944.91 152.976C6029.58 114.812 6010.04 360.197 5917.94 372.265C5840.57 382.404 5795.94 308.918 5775.91 233.554C5741.27 103.205 5951.69 52.6396 6086.56 57.8722C6231.1 63.4803 6381.01 205.671 6326.69 339.658C6287.59 436.073 6195.83 472.952 6091.97 465.95C5914.6 453.993 6179.23 -15.8951 6346.56 44.1011C6389.62 59.5402 6472.77 152.915 6472.77 152.915" stroke="black" stroke-width="14.6806"/>
<circle cx="5990.96" cy="251.835" r="39.3931" fill="#F5DA24"/>
<circle cx="5872.78" cy="354.538" r="39.3931" fill="#F5DA24"/>
<circle cx="5794.7" cy="275.048" r="28.8414" fill="#F5DA24"/>
<circle cx="5794.7" cy="149.835" r="40.0965" fill="#F5DA24"/>
<circle cx="5912.17" cy="80.1933" r="29.5448" fill="#F5DA24"/>
<circle cx="6178.08" cy="68.9384" r="29.5448" fill="#F5DA24"/>
<circle cx="6294.15" cy="173.752" r="44.3172" fill="#F5DA24"/>
<circle cx="6264.6" cy="58.3863" r="33.0621" fill="#F5DA24"/>
<circle cx="6330.72" cy="290.524" r="33.0621" fill="#F5DA24"/>
<circle cx="6293.44" cy="388.303" r="43.6138" fill="#F5DA24"/>
</g>
<g clip-path="url(#clip19_1380_335)">
<rect width="714.703" height="408" transform="translate(6432.72)" fill="white"/>
<path d="M6407.4 -28.1377C6407.4 -28.1377 6540.28 206.768 6659.62 152.976C6744.29 114.812 6724.74 360.197 6632.65 372.265C6555.27 382.404 6510.64 308.918 6490.61 233.554C6455.97 103.205 6666.39 52.6396 6801.26 57.8722C6945.81 63.4803 7095.72 205.671 7041.39 339.658C7002.3 436.073 6910.53 472.952 6806.68 465.95C6629.3 453.993 6893.94 -15.8951 7061.26 44.1011C7104.32 59.5402 7187.47 152.915 7187.47 152.915" stroke="black" stroke-width="14.6806"/>
<circle cx="6695.81" cy="279.972" r="39.3931" fill="#F5DA24"/>
<circle cx="6556.53" cy="343.283" r="39.3931" fill="#F5DA24"/>
<circle cx="6492.52" cy="239.876" r="28.8414" fill="#F5DA24"/>
<circle cx="6540.35" cy="109.034" r="40.0965" fill="#F5DA24"/>
<circle cx="6666.27" cy="68.9384" r="29.5448" fill="#F5DA24"/>
<circle cx="6923.73" cy="91.4482" r="29.5448" fill="#F5DA24"/>
<circle cx="7029.95" cy="196.263" r="44.3172" fill="#F5DA24"/>
<circle cx="7013.07" cy="38.69" r="33.0621" fill="#F5DA24"/>
<circle cx="7045.43" cy="324.29" r="33.0621" fill="#F5DA24"/>
<circle cx="6989.85" cy="424.882" r="43.6138" fill="#F5DA24"/>
</g>
<g clip-path="url(#clip20_1380_335)">
<rect width="714.703" height="408" transform="translate(7147.43)" fill="white"/>
<path d="M7122.1 -28.1377C7122.1 -28.1377 7254.98 206.768 7374.32 152.976C7458.99 114.812 7439.44 360.197 7347.35 372.265C7269.98 382.404 7225.34 308.918 7205.31 233.554C7170.67 103.205 7381.1 52.6396 7515.96 57.8722C7660.51 63.4803 7810.42 205.671 7756.09 339.658C7717 436.073 7625.24 472.952 7521.38 465.95C7344 453.993 7608.64 -15.8951 7775.97 44.1011C7819.03 59.5402 7902.18 152.915 7902.18 152.915" stroke="black" stroke-width="14.6806"/>
<circle cx="7388.01" cy="327.807" r="39.3931" fill="#F5DA24"/>
<circle cx="7251.54" cy="319.366" r="39.3931" fill="#F5DA24"/>
<circle cx="7203" cy="190.634" r="28.8414" fill="#F5DA24"/>
<circle cx="7309.92" cy="79.4901" r="40.0965" fill="#F5DA24"/>
<circle cx="7427.4" cy="68.9384" r="29.5448" fill="#F5DA24"/>
<circle cx="7667.98" cy="68.9384" r="29.5448" fill="#F5DA24"/>
<circle cx="7751.69" cy="218.772" r="44.3172" fill="#F5DA24"/>
<circle cx="7768.57" cy="38.69" r="33.0621" fill="#F5DA24"/>
<circle cx="7751.69" cy="348.207" r="33.0621" fill="#F5DA24"/>
<circle cx="7691.9" cy="437.544" r="43.6138" fill="#F5DA24"/>
</g>
<g clip-path="url(#clip21_1380_335)">
<rect width="714.703" height="408" transform="translate(7862.13)" fill="white"/>
<path d="M7836.81 -28.1377C7836.81 -28.1377 7969.68 206.768 8089.02 152.976C8173.69 114.812 8154.15 360.197 8062.05 372.265C7984.68 382.404 7940.05 308.918 7920.02 233.554C7885.38 103.205 8095.8 52.6396 8230.67 57.8722C8375.21 63.4803 8525.12 205.671 8470.8 339.658C8431.7 436.073 8339.94 472.952 8236.09 465.95C8058.71 453.993 8323.34 -15.8951 8490.67 44.1011C8533.73 59.5402 8616.88 152.915 8616.88 152.915" stroke="black" stroke-width="14.6806"/>
<circle cx="8073.17" cy="351.724" r="39.3931" fill="#F5DA24"/>
<circle cx="7939.51" cy="288.414" r="39.3931" fill="#F5DA24"/>
<circle cx="7928.96" cy="148.427" r="28.8414" fill="#F5DA24"/>
<circle cx="8049.95" cy="75.2694" r="40.0965" fill="#F5DA24"/>
<circle cx="8180.09" cy="64.7177" r="29.5448" fill="#F5DA24"/>
<circle cx="8410.82" cy="54.869" r="29.5448" fill="#F5DA24"/>
<circle cx="8472.02" cy="253.945" r="44.3172" fill="#F5DA24"/>
<circle cx="8515.63" cy="41.5035" r="33.0621" fill="#F5DA24"/>
<circle cx="8455.14" cy="374.938" r="33.0621" fill="#F5DA24"/>
</g>
<g clip-path="url(#clip22_1380_335)">
<rect width="714.703" height="408" transform="translate(2859.21)" fill="white"/>
<path d="M2833.88 -28.1377C2833.88 -28.1377 2966.76 206.768 3086.1 152.976C3170.77 114.812 3151.22 360.197 3059.13 372.265C2981.76 382.404 2937.12 308.918 2917.09 233.554C2882.45 103.205 3092.88 52.6396 3227.74 57.8722C3372.29 63.4803 3522.2 205.671 3467.87 339.658C3428.78 436.073 3337.02 472.952 3233.16 465.95C3055.78 453.993 3320.42 -15.8951 3487.75 44.1011C3530.8 59.5402 3613.96 152.915 3613.96 152.915" stroke="black" stroke-width="14.6806"/>
<circle cx="3087.12" cy="156.166" r="39.3931" fill="#F5DA24"/>
<circle cx="3126.52" cy="309.517" r="39.3931" fill="#F5DA24"/>
<circle cx="3025.92" cy="359.462" r="28.8414" fill="#F5DA24"/>
<circle cx="2928.85" cy="265.2" r="40.0965" fill="#F5DA24"/>
<circle cx="2943.62" cy="139.283" r="29.5448" fill="#F5DA24"/>
<circle cx="3187.01" cy="59.0898" r="29.5448" fill="#F5DA24"/>
<circle cx="3380.46" cy="103.407" r="44.3172" fill="#F5DA24"/>
<circle cx="3305.9" cy="135.765" r="33.0621" fill="#F5DA24"/>
<circle cx="3433.92" cy="422.772" r="45.7241" fill="#F5DA24"/>
<circle cx="3446.59" cy="189.227" r="33.0621" fill="#F5DA24"/>
<circle cx="3468.39" cy="299.668" r="43.6138" fill="#F5DA24"/>
</g>
<g clip-path="url(#clip23_1380_335)">
<rect width="714.703" height="408" transform="translate(3573.91)" fill="white"/>
<path d="M3548.59 -28.1377C3548.59 -28.1377 3681.46 206.768 3800.8 152.976C3885.47 114.812 3865.92 360.197 3773.83 372.265C3696.46 382.404 3651.83 308.918 3631.8 233.554C3597.16 103.205 3807.58 52.6396 3942.45 57.8722C4086.99 63.4803 4236.9 205.671 4182.58 339.658C4143.48 436.073 4051.72 472.952 3947.86 465.95C3770.49 453.993 4035.12 -15.8951 4202.45 44.1011C4245.51 59.5402 4328.66 152.915 4328.66 152.915" stroke="black" stroke-width="14.6806"/>
<circle cx="3831.37" cy="164.607" r="39.3931" fill="#F5DA24"/>
<circle cx="3831.37" cy="330.621" r="39.3931" fill="#F5DA24"/>
<circle cx="3702.64" cy="351.021" r="28.8414" fill="#F5DA24"/>
<circle cx="3639.33" cy="244.097" r="40.0965" fill="#F5DA24"/>
<circle cx="3673.8" cy="126.621" r="29.5448" fill="#F5DA24"/>
<circle cx="3931.26" cy="59.0898" r="29.5448" fill="#F5DA24"/>
<circle cx="4107.83" cy="111.848" r="44.3172" fill="#F5DA24"/>
<circle cx="4034.67" cy="111.848" r="33.0621" fill="#F5DA24"/>
<circle cx="4133.15" cy="436.841" r="45.7241" fill="#F5DA24"/>
<circle cx="4166.92" cy="203.296" r="33.0621" fill="#F5DA24"/>
<circle cx="4183.1" cy="313.738" r="43.6138" fill="#F5DA24"/>
</g>
<g clip-path="url(#clip24_1380_335)">
<rect width="714.703" height="408" transform="translate(4288.61)" fill="white"/>
<path d="M4263.29 -28.1377C4263.29 -28.1377 4396.17 206.768 4515.51 152.976C4600.18 114.812 4580.63 360.197 4488.54 372.265C4411.16 382.404 4366.53 308.918 4346.5 233.554C4311.86 103.205 4522.28 52.6396 4657.15 57.8722C4801.69 63.4803 4951.6 205.671 4897.28 339.658C4858.19 436.073 4766.42 472.952 4662.57 465.95C4485.19 453.993 4749.83 -15.8951 4917.15 44.1011C4960.21 59.5402 5043.36 152.915 5043.36 152.915" stroke="black" stroke-width="14.6806"/>
<circle cx="4558.74" cy="184.303" r="39.3931" fill="#F5DA24"/>
<circle cx="4526.38" cy="358.758" r="39.3931" fill="#F5DA24"/>
<circle cx="4393.43" cy="342.58" r="28.8414" fill="#F5DA24"/>
<circle cx="4344.19" cy="217.365" r="40.0965" fill="#F5DA24"/>
<circle cx="4413.83" cy="108.331" r="29.5448" fill="#F5DA24"/>
<circle cx="4675.51" cy="59.0898" r="29.5448" fill="#F5DA24"/>
<circle cx="4835.19" cy="123.103" r="44.3172" fill="#F5DA24"/>
<circle cx="4777.51" cy="69.6412" r="33.0621" fill="#F5DA24"/>
<circle cx="4835.19" cy="443.875" r="45.7241" fill="#F5DA24"/>
<circle cx="4887.25" cy="222.993" r="33.0621" fill="#F5DA24"/>
<circle cx="4897.8" cy="334.841" r="43.6138" fill="#F5DA24"/>
</g>
<g clip-path="url(#clip25_1380_335)">
<rect width="714.703" height="408" transform="translate(5003.32)" fill="white"/>
<path d="M4977.99 -28.1377C4977.99 -28.1377 5110.87 206.768 5230.21 152.976C5314.88 114.812 5295.33 360.197 5203.24 372.265C5125.87 382.404 5081.23 308.918 5061.2 233.554C5026.56 103.205 5236.99 52.6396 5371.85 57.8722C5516.4 63.4803 5666.31 205.671 5611.98 339.658C5572.89 436.073 5481.13 472.952 5377.27 465.95C5199.89 453.993 5464.53 -15.8951 5631.86 44.1011C5674.92 59.5402 5758.07 152.915 5758.07 152.915" stroke="black" stroke-width="14.6806"/>
<circle cx="5273.44" cy="212.441" r="39.3931" fill="#F5DA24"/>
<circle cx="5197.47" cy="361.573" r="39.3931" fill="#F5DA24"/>
<circle cx="5098.28" cy="308.814" r="28.8414" fill="#F5DA24"/>
<circle cx="5058.89" cy="189.227" r="40.0965" fill="#F5DA24"/>
<circle cx="5162.3" cy="88.6347" r="29.5448" fill="#F5DA24"/>
<circle cx="5433.83" cy="59.0898" r="29.5448" fill="#F5DA24"/>
<circle cx="5558.34" cy="139.986" r="44.3172" fill="#F5DA24"/>
<circle cx="5525.98" cy="58.3863" r="33.0621" fill="#F5DA24"/>
<circle cx="5611.8" cy="256.758" r="33.0621" fill="#F5DA24"/>
<circle cx="5595.62" cy="362.979" r="43.6138" fill="#F5DA24"/>
</g>
<g clip-path="url(#clip26_1380_335)">
<rect width="714.703" height="408" transform="translate(0.393066)" fill="white"/>
<path d="M-24.9312 -28.1377C-24.9312 -28.1377 107.945 206.768 227.286 152.976C311.956 114.812 292.407 360.197 200.316 372.265C122.941 382.404 78.3076 308.918 58.2793 233.554C23.6387 103.205 234.063 52.6396 368.928 57.8722C513.474 63.4803 663.384 205.671 609.058 339.658C569.965 436.073 478.203 472.952 374.347 465.95C196.968 453.993 461.605 -15.8951 628.932 44.1011C671.991 59.5402 755.144 152.915 755.144 152.915" stroke="black" stroke-width="14.6806"/>
<circle cx="159.373" cy="146.317" r="39.3931" fill="#F5DA24"/>
<circle cx="281.772" cy="244.8" r="39.3931" fill="#F5DA24"/>
<circle cx="243.083" cy="349.614" r="28.8414" fill="#F5DA24"/>
<circle cx="109.428" cy="338.358" r="40.0965" fill="#F5DA24"/>
<circle cx="59.4828" cy="215.255" r="29.5448" fill="#F5DA24"/>
<circle cx="250.821" cy="59.0898" r="29.5448" fill="#F5DA24"/>
<circle cx="385.18" cy="62.6073" r="44.3172" fill="#F5DA24"/>
<circle cx="407.69" cy="177.972" r="33.0621" fill="#F5DA24"/>
<circle cx="599.028" cy="362.276" r="45.7241" fill="#F5DA24"/>
<circle cx="565.262" cy="151.242" r="33.0621" fill="#F5DA24"/>
<circle cx="608.172" cy="237.765" r="43.6138" fill="#F5DA24"/>
</g>
<g clip-path="url(#clip27_1380_335)">
<rect width="714.703" height="408" transform="translate(715.097)" fill="white"/>
<path d="M689.772 -28.1377C689.772 -28.1377 822.648 206.768 941.99 152.976C1026.66 114.812 1007.11 360.197 915.02 372.265C837.645 382.404 793.011 308.918 772.983 233.554C738.342 103.205 948.766 52.6396 1083.63 57.8722C1228.18 63.4803 1378.09 205.671 1323.76 339.658C1284.67 436.073 1192.91 472.952 1089.05 465.95C911.672 453.993 1176.31 -15.8951 1343.64 44.1011C1386.69 59.5402 1469.85 152.915 1469.85 152.915" stroke="black" stroke-width="14.6806"/>
<circle cx="889.552" cy="147.724" r="39.3931" fill="#F5DA24"/>
<circle cx="997.883" cy="258.869" r="39.3931" fill="#F5DA24"/>
<circle cx="949.345" cy="352.427" r="28.8414" fill="#F5DA24"/>
<circle cx="817.097" cy="331.324" r="40.0965" fill="#F5DA24"/>
<circle cx="774.186" cy="204" r="29.5448" fill="#F5DA24"/>
<circle cx="978.186" cy="59.0898" r="29.5448" fill="#F5DA24"/>
<circle cx="1105.51" cy="64.0135" r="44.3172" fill="#F5DA24"/>
<circle cx="1130.83" cy="165.31" r="33.0621" fill="#F5DA24"/>
<circle cx="1310.92" cy="372.125" r="45.7241" fill="#F5DA24"/>
<circle cx="1284.19" cy="161.089" r="33.0621" fill="#F5DA24"/>
<circle cx="1322.88" cy="247.614" r="43.6138" fill="#F5DA24"/>
</g>
<g clip-path="url(#clip28_1380_335)">
<rect width="714.703" height="408" transform="translate(1429.8)" fill="white"/>
<path d="M1404.48 -28.1377C1404.48 -28.1377 1537.35 206.768 1656.69 152.976C1741.36 114.812 1721.81 360.197 1629.72 372.265C1552.35 382.404 1507.71 308.918 1487.69 233.554C1453.05 103.205 1663.47 52.6396 1798.34 57.8722C1942.88 63.4803 2092.79 205.671 2038.47 339.658C1999.37 436.073 1907.61 472.952 1803.75 465.95C1626.38 453.993 1891.01 -15.8951 2058.34 44.1011C2101.4 59.5402 2184.55 152.915 2184.55 152.915" stroke="black" stroke-width="14.6806"/>
<circle cx="1614.1" cy="147.724" r="39.3931" fill="#F5DA24"/>
<circle cx="1712.59" cy="272.938" r="39.3931" fill="#F5DA24"/>
<circle cx="1652.79" cy="356.648" r="28.8414" fill="#F5DA24"/>
<circle cx="1528.99" cy="317.255" r="40.0965" fill="#F5DA24"/>
<circle cx="1488.89" cy="189.931" r="29.5448" fill="#F5DA24"/>
<circle cx="1708.37" cy="59.0898" r="29.5448" fill="#F5DA24"/>
<circle cx="1831.47" cy="64.0135" r="44.3172" fill="#F5DA24"/>
<circle cx="1848.35" cy="159.683" r="33.0621" fill="#F5DA24"/>
<circle cx="2021.4" cy="380.566" r="45.7241" fill="#F5DA24"/>
<circle cx="2004.52" cy="168.125" r="33.0621" fill="#F5DA24"/>
<circle cx="2037.58" cy="256.055" r="43.6138" fill="#F5DA24"/>
</g>
<g clip-path="url(#clip29_1380_335)">
<rect width="714.703" height="408" transform="translate(2144.5)" fill="white"/>
<path d="M2119.18 -28.1377C2119.18 -28.1377 2252.05 206.768 2371.4 152.976C2456.07 114.812 2436.52 360.197 2344.43 372.265C2267.05 382.404 2222.42 308.918 2202.39 233.554C2167.75 103.205 2378.17 52.6396 2513.04 57.8722C2657.58 63.4803 2807.49 205.671 2753.17 339.658C2714.08 436.073 2622.31 472.952 2518.46 465.95C2341.08 453.993 2605.72 -15.8951 2773.04 44.1011C2816.1 59.5402 2899.25 152.915 2899.25 152.915" stroke="black" stroke-width="14.6806"/>
<circle cx="2338.66" cy="160.386" r="39.3931" fill="#F5DA24"/>
<circle cx="2421.66" cy="294.042" r="39.3931" fill="#F5DA24"/>
<circle cx="2349.21" cy="362.276" r="28.8414" fill="#F5DA24"/>
<circle cx="2232.43" cy="301.779" r="40.0965" fill="#F5DA24"/>
<circle cx="2210.63" cy="166.014" r="29.5448" fill="#F5DA24"/>
<circle cx="2437.14" cy="59.0898" r="29.5448" fill="#F5DA24"/>
<circle cx="2585.57" cy="64.0135" r="44.3172" fill="#F5DA24"/>
<circle cx="2574.31" cy="147.021" r="33.0621" fill="#F5DA24"/>
<circle cx="2731.88" cy="403.076" r="45.7241" fill="#F5DA24"/>
<circle cx="2723.44" cy="176.566" r="33.0621" fill="#F5DA24"/>
<circle cx="2752.28" cy="272.938" r="43.6138" fill="#F5DA24"/>
</g>
<g clip-path="url(#clip30_1380_335)">
<rect width="714.703" height="408" transform="translate(14294.5)" fill="white"/>
<path d="M14269.1 -28.1377C14269.1 -28.1377 14402 206.768 14521.4 152.976C14606 114.812 14586.5 360.197 14494.4 372.265C14417 382.404 14372.4 308.918 14352.3 233.554C14317.7 103.205 14528.1 52.6396 14663 57.8722C14807.5 63.4803 14957.5 205.671 14903.1 339.658C14864 436.073 14772.3 472.952 14668.4 465.95C14491 453.993 14755.7 -15.8951 14923 44.1011C14966.1 59.5402 15049.2 152.915 15049.2 152.915" stroke="black" stroke-width="14.6806"/>
<circle cx="14667.3" cy="66.1245" r="39.3931" fill="#F5DA24"/>
<circle cx="14765.8" cy="85.8208" r="39.3931" fill="#F5DA24"/>
<circle cx="14846.7" cy="134.359" r="28.8414" fill="#F5DA24"/>
<circle cx="14894.5" cy="230.027" r="40.0965" fill="#F5DA24"/>
<circle cx="14905.1" cy="344.689" r="29.5448" fill="#F5DA24"/>
</g>
<g clip-path="url(#clip31_1380_335)">
<rect width="714.703" height="408" transform="translate(15009.2)" fill="white"/>
<path d="M14983.8 -28.1377C14983.8 -28.1377 15116.7 206.768 15236.1 152.976C15320.7 114.812 15301.2 360.197 15209.1 372.265C15131.7 382.404 15087.1 308.918 15067.1 233.554C15032.4 103.205 15242.8 52.6396 15377.7 57.8722C15522.2 63.4803 15672.2 205.671 15617.8 339.658C15578.7 436.073 15487 472.952 15383.1 465.95C15205.7 453.993 15470.4 -15.8951 15637.7 44.1011C15680.8 59.5402 15763.9 152.915 15763.9 152.915" stroke="black" stroke-width="14.6806"/>
<circle cx="15434" cy="66.1245" r="39.3931" fill="#F5DA24"/>
<circle cx="15521.3" cy="105.517" r="39.3931" fill="#F5DA24"/>
<circle cx="15598" cy="165.31" r="28.8414" fill="#F5DA24"/>
<circle cx="15619.1" cy="277.862" r="40.0965" fill="#F5DA24"/>
<circle cx="15598.7" cy="382.676" r="29.5448" fill="#F5DA24"/>
</g>
<g clip-path="url(#clip32_1380_335)">
<rect width="714.703" height="408" transform="translate(15723.9)" fill="white"/>
<path d="M15698.5 -28.1377C15698.5 -28.1377 15831.4 206.768 15950.8 152.976C16035.4 114.812 16015.9 360.197 15923.8 372.265C15846.4 382.404 15801.8 308.918 15781.8 233.554C15747.1 103.205 15957.5 52.6396 16092.4 57.8722C16237 63.4803 16386.9 205.671 16332.5 339.658C16293.4 436.073 16201.7 472.952 16097.8 465.95C15920.4 453.993 16185.1 -15.8951 16352.4 44.1011C16395.5 59.5402 16478.6 152.915 16478.6 152.915" stroke="black" stroke-width="14.6806"/>
<circle cx="16193.8" cy="80.1929" r="39.3931" fill="#F5DA24"/>
<circle cx="16272.6" cy="135.062" r="39.3931" fill="#F5DA24"/>
<circle cx="16325.3" cy="208.924" r="28.8414" fill="#F5DA24"/>
<circle cx="16333.8" cy="325.696" r="40.0965" fill="#F5DA24"/>
<circle cx="16290.8" cy="408" r="29.5448" fill="#F5DA24"/>
</g>
<g clip-path="url(#clip33_1380_335)">
<rect width="714.703" height="408" transform="translate(16438.6)" fill="white"/>
<path d="M16413.2 -28.1377C16413.2 -28.1377 16546.1 206.768 16665.5 152.976C16750.1 114.812 16730.6 360.197 16638.5 372.265C16561.1 382.404 16516.5 308.918 16496.5 233.554C16461.8 103.205 16672.2 52.6396 16807.1 57.8722C16951.7 63.4803 17101.6 205.671 17047.2 339.658C17008.1 436.073 16916.4 472.952 16812.5 465.95C16635.1 453.993 16899.8 -15.8951 17067.1 44.1011C17110.2 59.5402 17193.3 152.915 17193.3 152.915" stroke="black" stroke-width="14.6806"/>
<circle cx="16949.3" cy="102.704" r="39.3931" fill="#F5DA24"/>
<circle cx="17012.6" cy="167.42" r="39.3931" fill="#F5DA24"/>
<circle cx="17051.3" cy="249.724" r="28.8414" fill="#F5DA24"/>
<circle cx="17040" cy="341.173" r="40.0965" fill="#F5DA24"/>
<circle cx="16992.9" cy="424.883" r="29.5448" fill="#F5DA24"/>
</g>
</g>
<defs>
<clipPath id="clip0_1380_335">
<rect width="23585.2" height="408" fill="white" transform="translate(0.393066)"/>
</clipPath>
<clipPath id="clip1_1380_335">
<rect width="714.703" height="408" fill="white" transform="translate(20012.1)"/>
</clipPath>
<clipPath id="clip2_1380_335">
<rect width="714.703" height="408" fill="white" transform="translate(20726.8)"/>
</clipPath>
<clipPath id="clip3_1380_335">
<rect width="714.703" height="408" fill="white" transform="translate(21441.5)"/>
</clipPath>
<clipPath id="clip4_1380_335">
<rect width="714.703" height="408" fill="white" transform="translate(22156.2)"/>
</clipPath>
<clipPath id="clip5_1380_335">
<rect width="714.703" height="408" fill="white" transform="translate(17153.3)"/>
</clipPath>
<clipPath id="clip6_1380_335">
<rect width="714.703" height="408" fill="white" transform="translate(17868)"/>
</clipPath>
<clipPath id="clip7_1380_335">
<rect width="714.703" height="408" fill="white" transform="translate(18582.7)"/>
</clipPath>
<clipPath id="clip8_1380_335">
<rect width="714.703" height="408" fill="white" transform="translate(22870.9)"/>
</clipPath>
<clipPath id="clip9_1380_335">
<rect width="714.703" height="408" fill="white" transform="translate(19297.4)"/>
</clipPath>
<clipPath id="clip10_1380_335">
<rect width="714.703" height="408" fill="white" transform="translate(11435.6)"/>
</clipPath>
<clipPath id="clip11_1380_335">
<rect width="714.703" height="408" fill="white" transform="translate(12150.4)"/>
</clipPath>
<clipPath id="clip12_1380_335">
<rect width="714.703" height="408" fill="white" transform="translate(12865.1)"/>
</clipPath>
<clipPath id="clip13_1380_335">
<rect width="714.703" height="408" fill="white" transform="translate(13579.8)"/>
</clipPath>
<clipPath id="clip14_1380_335">
<rect width="714.703" height="408" fill="white" transform="translate(8576.83)"/>
</clipPath>
<clipPath id="clip15_1380_335">
<rect width="714.703" height="408" fill="white" transform="translate(9291.54)"/>
</clipPath>
<clipPath id="clip16_1380_335">
<rect width="714.703" height="408" fill="white" transform="translate(10006.2)"/>
</clipPath>
<clipPath id="clip17_1380_335">
<rect width="714.703" height="408" fill="white" transform="translate(10720.9)"/>
</clipPath>
<clipPath id="clip18_1380_335">
<rect width="714.703" height="408" fill="white" transform="translate(5718.02)"/>
</clipPath>
<clipPath id="clip19_1380_335">
<rect width="714.703" height="408" fill="white" transform="translate(6432.72)"/>
</clipPath>
<clipPath id="clip20_1380_335">
<rect width="714.703" height="408" fill="white" transform="translate(7147.43)"/>
</clipPath>
<clipPath id="clip21_1380_335">
<rect width="714.703" height="408" fill="white" transform="translate(7862.13)"/>
</clipPath>
<clipPath id="clip22_1380_335">
<rect width="714.703" height="408" fill="white" transform="translate(2859.21)"/>
</clipPath>
<clipPath id="clip23_1380_335">
<rect width="714.703" height="408" fill="white" transform="translate(3573.91)"/>
</clipPath>
<clipPath id="clip24_1380_335">
<rect width="714.703" height="408" fill="white" transform="translate(4288.61)"/>
</clipPath>
<clipPath id="clip25_1380_335">
<rect width="714.703" height="408" fill="white" transform="translate(5003.32)"/>
</clipPath>
<clipPath id="clip26_1380_335">
<rect width="714.703" height="408" fill="white" transform="translate(0.393066)"/>
</clipPath>
<clipPath id="clip27_1380_335">
<rect width="714.703" height="408" fill="white" transform="translate(715.097)"/>
</clipPath>
<clipPath id="clip28_1380_335">
<rect width="714.703" height="408" fill="white" transform="translate(1429.8)"/>
</clipPath>
<clipPath id="clip29_1380_335">
<rect width="714.703" height="408" fill="white" transform="translate(2144.5)"/>
</clipPath>
<clipPath id="clip30_1380_335">
<rect width="714.703" height="408" fill="white" transform="translate(14294.5)"/>
</clipPath>
<clipPath id="clip31_1380_335">
<rect width="714.703" height="408" fill="white" transform="translate(15009.2)"/>
</clipPath>
<clipPath id="clip32_1380_335">
<rect width="714.703" height="408" fill="white" transform="translate(15723.9)"/>
</clipPath>
<clipPath id="clip33_1380_335">
<rect width="714.703" height="408" fill="white" transform="translate(16438.6)"/>
</clipPath>
</defs>
</svg>
