<svg width="15724" height="272" viewBox="0 0 15724 272" fill="none" xmlns="http://www.w3.org/2000/svg">
<g clip-path="url(#clip0_1381_636)">
<g clip-path="url(#clip1_1381_636)">
<rect width="476.469" height="272" transform="translate(13341.1)" fill="white"/>
<path d="M13324.2 -18.7588C13324.2 -18.7588 13412.8 137.845 13492.4 101.984C13548.8 76.5412 13535.8 240.131 13474.4 248.176C13422.8 254.936 13393.1 205.945 13379.7 155.702C13356.6 68.8033 13496.9 35.0928 13586.8 38.5811C13683.2 42.3199 13783.1 137.114 13746.9 226.438C13720.8 290.715 13659.7 315.301 13590.4 310.633C13472.2 302.661 13648.6 -10.597 13760.2 29.4004C13788.9 39.6932 13844.3 101.943 13844.3 101.943" stroke="black" stroke-width="9.78705"/>
<circle cx="13748.2" cy="189.462" r="26.2621" fill="#F5DA24"/>
<circle cx="13730.4" cy="249.49" r="26.2621" fill="#F5DA24"/>
</g>
<g clip-path="url(#clip2_1381_636)">
<rect width="476.469" height="272" transform="translate(13817.6)" fill="white"/>
<path d="M13800.7 -18.7588C13800.7 -18.7588 13889.3 137.845 13968.9 101.984C14025.3 76.5412 14012.3 240.131 13950.9 248.176C13899.3 254.936 13869.5 205.945 13856.2 155.702C13833.1 68.8033 13973.4 35.0928 14063.3 38.5811C14159.7 42.3199 14259.6 137.114 14223.4 226.438C14197.3 290.715 14136.1 315.301 14066.9 310.633C13948.6 302.661 14125.1 -10.597 14236.6 29.4004C14265.3 39.6932 14320.8 101.943 14320.8 101.943" stroke="black" stroke-width="9.78705"/>
<circle cx="14222.8" cy="213.848" r="26.2621" fill="#F5DA24"/>
<circle cx="14191.8" cy="276.69" r="26.2621" fill="#F5DA24"/>
</g>
<g clip-path="url(#clip3_1381_636)">
<rect width="476.469" height="272" transform="translate(14294.1)" fill="white"/>
<path d="M14277.2 -18.7588C14277.2 -18.7588 14365.8 137.845 14445.3 101.984C14501.8 76.5412 14488.7 240.131 14427.4 248.176C14375.8 254.936 14346 205.945 14332.7 155.702C14309.6 68.8033 14449.8 35.0928 14539.8 38.5811C14636.1 42.3199 14736.1 137.114 14699.8 226.438C14673.8 290.715 14612.6 315.301 14543.4 310.633C14425.1 302.661 14601.5 -10.597 14713.1 29.4004C14741.8 39.6932 14797.2 101.943 14797.2 101.943" stroke="black" stroke-width="9.78705"/>
<circle cx="14686.1" cy="245.738" r="26.2621" fill="#F5DA24"/>
</g>
<g clip-path="url(#clip4_1381_636)">
<rect width="476.469" height="272" transform="translate(14770.5)" fill="white"/>
<path d="M14753.7 -18.7588C14753.7 -18.7588 14842.2 137.845 14921.8 101.984C14978.2 76.5412 14965.2 240.131 14903.8 248.176C14852.2 254.936 14822.5 205.945 14809.1 155.702C14786 68.8033 14926.3 35.0928 15016.2 38.5811C15112.6 42.3199 15212.5 137.114 15176.3 226.438C15150.3 290.715 15089.1 315.301 15019.8 310.633C14901.6 302.661 15078 -10.597 15189.6 29.4004C15218.3 39.6932 15273.7 101.943 15273.7 101.943" stroke="black" stroke-width="9.78705"/>
<circle cx="15142" cy="280.442" r="26.2621" fill="#F5DA24"/>
</g>
<g clip-path="url(#clip5_1381_636)">
<rect width="476.469" height="272" transform="translate(11435.3)" fill="white"/>
<path d="M11418.4 -18.7588C11418.4 -18.7588 11507 137.845 11586.5 101.984C11643 76.5412 11629.9 240.131 11568.5 248.176C11517 254.936 11487.2 205.945 11473.8 155.702C11450.8 68.8033 11591 35.0928 11680.9 38.5811C11777.3 42.3199 11877.2 137.114 11841 226.438C11815 290.715 11753.8 315.301 11684.6 310.633C11566.3 302.661 11742.7 -10.597 11854.3 29.4004C11883 39.6932 11938.4 101.943 11938.4 101.943" stroke="black" stroke-width="9.78705"/>
<circle cx="11797.3" cy="90.0414" r="26.2621" fill="#F5DA24"/>
<circle cx="11832" cy="142.566" r="26.2621" fill="#F5DA24"/>
<circle cx="11843.7" cy="199.311" r="19.2276" fill="#F5DA24"/>
<circle cx="11824" cy="259.337" r="26.731" fill="#F5DA24"/>
</g>
<g clip-path="url(#clip6_1381_636)">
<rect width="476.469" height="272" transform="translate(11911.7)" fill="white"/>
<path d="M11894.8 -18.7588C11894.8 -18.7588 11983.4 137.845 12063 101.984C12119.4 76.5412 12106.4 240.131 12045 248.176C11993.4 254.936 11963.7 205.945 11950.3 155.702C11927.2 68.8033 12067.5 35.0928 12157.4 38.5811C12253.8 42.3199 12353.7 137.114 12317.5 226.438C12291.4 290.715 12230.3 315.301 12161 310.633C12042.8 302.661 12219.2 -10.597 12330.7 29.4004C12359.5 39.6932 12414.9 101.943 12414.9 101.943" stroke="black" stroke-width="9.78705"/>
<circle cx="12293.5" cy="109.738" r="26.2621" fill="#F5DA24"/>
<circle cx="12319.7" cy="169.766" r="26.2621" fill="#F5DA24"/>
<circle cx="12319.3" cy="230.262" r="19.2276" fill="#F5DA24"/>
<circle cx="12286.4" cy="284.662" r="26.731" fill="#F5DA24"/>
</g>
<g clip-path="url(#clip7_1381_636)">
<rect width="476.469" height="272" transform="translate(12388.2)" fill="white"/>
<path d="M12371.3 -18.7588C12371.3 -18.7588 12459.9 137.845 12539.5 101.984C12595.9 76.5412 12582.9 240.131 12521.5 248.176C12469.9 254.936 12440.1 205.945 12426.8 155.702C12403.7 68.8033 12544 35.0928 12633.9 38.5811C12730.2 42.3199 12830.2 137.114 12794 226.438C12767.9 290.715 12706.7 315.301 12637.5 310.633C12519.2 302.661 12695.7 -10.597 12807.2 29.4004C12835.9 39.6932 12891.4 101.943 12891.4 101.943" stroke="black" stroke-width="9.78705"/>
<circle cx="12787.8" cy="150.069" r="26.2621" fill="#F5DA24"/>
<circle cx="12796.2" cy="211.035" r="26.2621" fill="#F5DA24"/>
<circle cx="12777" cy="256.524" r="19.2276" fill="#F5DA24"/>
</g>
<g clip-path="url(#clip8_1381_636)">
<rect width="476.469" height="272" transform="translate(15247)" fill="white"/>
<path d="M15230.1 -18.7588C15230.1 -18.7588 15318.7 137.845 15398.3 101.984C15454.7 76.5412 15441.7 240.131 15380.3 248.176C15328.7 254.936 15299 205.945 15285.6 155.702C15262.5 68.8033 15402.8 35.0928 15492.7 38.5811C15589.1 42.3199 15689 137.114 15652.8 226.438C15626.7 290.715 15565.5 315.301 15496.3 310.633C15378.1 302.661 15554.5 -10.597 15666 29.4004C15694.7 39.6932 15750.2 101.943 15750.2 101.943" stroke="black" stroke-width="9.78705"/>
</g>
<g clip-path="url(#clip9_1381_636)">
<rect width="476.469" height="272" transform="translate(12864.7)" fill="white"/>
<path d="M12847.8 -18.7588C12847.8 -18.7588 12936.4 137.845 13015.9 101.984C13072.4 76.5412 13059.3 240.131 12997.9 248.176C12946.4 254.936 12916.6 205.945 12903.3 155.702C12880.2 68.8033 13020.4 35.0928 13110.4 38.5811C13206.7 42.3199 13306.7 137.114 13270.4 226.438C13244.4 290.715 13183.2 315.301 13114 310.633C12995.7 302.661 13172.1 -10.597 13283.7 29.4004C13312.4 39.6932 13367.8 101.943 13367.8 101.943" stroke="black" stroke-width="9.78705"/>
<circle cx="13264.2" cy="166.952" r="26.2621" fill="#F5DA24"/>
<circle cx="13264.2" cy="226.041" r="26.2621" fill="#F5DA24"/>
<circle cx="13237.5" cy="271.531" r="19.2276" fill="#F5DA24"/>
</g>
<g clip-path="url(#clip10_1381_636)">
<rect width="476.469" height="272" transform="translate(7623.5)" fill="white"/>
<path d="M7606.62 -18.7588C7606.62 -18.7588 7695.2 137.845 7774.77 101.984C7831.21 76.5412 7818.18 240.131 7756.79 248.176C7705.2 254.936 7675.45 205.945 7662.09 155.702C7639 68.8033 7779.28 35.0928 7869.19 38.5811C7965.56 42.3199 8065.5 137.114 8029.28 226.438C8003.22 290.715 7942.04 315.301 7872.81 310.633C7754.55 302.661 7930.98 -10.597 8042.53 29.4004C8071.24 39.6932 8126.67 101.943 8126.67 101.943" stroke="black" stroke-width="9.78705"/>
<circle cx="7669.46" cy="110.676" r="26.2621" fill="#F5DA24"/>
<circle cx="7758.57" cy="52.5238" r="26.2621" fill="#F5DA24"/>
<circle cx="7848.14" cy="45.4893" r="19.2276" fill="#F5DA24"/>
<circle cx="7927.86" cy="45.4898" r="26.731" fill="#F5DA24"/>
<circle cx="7993.99" cy="89.1038" r="19.6966" fill="#F5DA24"/>
<circle cx="8093.41" cy="64.7171" r="19.6966" fill="#F5DA24"/>
</g>
<g clip-path="url(#clip11_1381_636)">
<rect width="476.469" height="272" transform="translate(8099.97)" fill="white"/>
<path d="M8083.09 -18.7588C8083.09 -18.7588 8171.67 137.845 8251.23 101.984C8307.68 76.5412 8294.65 240.131 8233.25 248.176C8181.67 254.936 8151.92 205.945 8138.56 155.702C8115.47 68.8033 8255.75 35.0928 8345.66 38.5811C8442.03 42.3199 8541.97 137.114 8505.75 226.438C8479.69 290.715 8418.51 315.301 8349.27 310.633C8231.02 302.661 8407.45 -10.597 8519 29.4004C8547.7 39.6932 8603.14 101.943 8603.14 101.943" stroke="black" stroke-width="9.78705"/>
<circle cx="8171.25" cy="78.7865" r="26.2621" fill="#F5DA24"/>
<circle cx="8283.81" cy="39.3929" r="26.2621" fill="#F5DA24"/>
<circle cx="8362.12" cy="45.4893" r="19.2276" fill="#F5DA24"/>
<circle cx="8440.91" cy="65.1861" r="26.731" fill="#F5DA24"/>
<circle cx="8487.34" cy="110.676" r="19.6966" fill="#F5DA24"/>
<circle cx="8586.76" cy="72.221" r="19.6966" fill="#F5DA24"/>
</g>
<g clip-path="url(#clip12_1381_636)">
<rect width="476.469" height="272" transform="translate(8576.44)" fill="white"/>
<path d="M8559.56 -18.7588C8559.56 -18.7588 8648.14 137.845 8727.7 101.984C8784.15 76.5412 8771.12 240.131 8709.72 248.176C8658.14 254.936 8628.38 205.945 8615.03 155.702C8591.94 68.8033 8732.22 35.0928 8822.13 38.5811C8918.49 42.3199 9018.43 137.114 8982.22 226.438C8956.16 290.715 8894.98 315.301 8825.74 310.633C8707.49 302.661 8883.92 -10.597 8995.47 29.4004C9024.17 39.6932 9079.61 101.943 9079.61 101.943" stroke="black" stroke-width="9.78705"/>
<circle cx="8695.56" cy="52.5238" r="26.2621" fill="#F5DA24"/>
<circle cx="8807.17" cy="38.4554" r="26.2621" fill="#F5DA24"/>
<circle cx="8884.55" cy="52.0547" r="19.2276" fill="#F5DA24"/>
<circle cx="8944.58" cy="91.4478" r="26.731" fill="#F5DA24"/>
<circle cx="8982.57" cy="146.318" r="19.6966" fill="#F5DA24"/>
</g>
<g clip-path="url(#clip13_1381_636)">
<rect width="476.469" height="272" transform="translate(9052.91)" fill="white"/>
<path d="M9036.03 -18.7588C9036.03 -18.7588 9124.61 137.845 9204.17 101.984C9260.62 76.5412 9247.59 240.131 9186.19 248.176C9134.61 254.936 9104.85 205.945 9091.5 155.702C9068.41 68.8033 9208.69 35.0928 9298.6 38.5811C9394.96 42.3199 9494.9 137.114 9458.69 226.438C9432.62 290.715 9371.45 315.301 9302.21 310.633C9183.96 302.661 9360.38 -10.597 9471.94 29.4004C9500.64 39.6932 9556.08 101.943 9556.08 101.943" stroke="black" stroke-width="9.78705"/>
<circle cx="9260.19" cy="44.0824" r="26.2621" fill="#F5DA24"/>
<circle cx="9336.17" cy="40.3314" r="26.2621" fill="#F5DA24"/>
<circle cx="9388.22" cy="59.5586" r="19.2276" fill="#F5DA24"/>
<circle cx="9439.81" cy="117.711" r="26.731" fill="#F5DA24"/>
<circle cx="9459.97" cy="188.524" r="19.6966" fill="#F5DA24"/>
</g>
<g clip-path="url(#clip14_1381_636)">
<rect width="476.469" height="272" transform="translate(5717.63)" fill="white"/>
<path d="M5700.74 -18.7588C5700.74 -18.7588 5789.33 137.845 5868.89 101.984C5925.34 76.5412 5912.3 240.131 5850.91 248.176C5799.33 254.936 5769.57 205.945 5756.22 155.702C5733.12 68.8033 5873.41 35.0928 5963.32 38.5811C6059.68 42.3199 6159.62 137.114 6123.4 226.438C6097.34 290.715 6036.17 315.301 5966.93 310.633C5848.68 302.661 6025.1 -10.597 6136.65 29.4004C6165.36 39.6932 6220.79 101.943 6220.79 101.943" stroke="black" stroke-width="9.78705"/>
<circle cx="5821.74" cy="229.793" r="26.2621" fill="#F5DA24"/>
<circle cx="5762.65" cy="163.2" r="26.2621" fill="#F5DA24"/>
<circle cx="5788.44" cy="82.0694" r="19.2276" fill="#F5DA24"/>
<circle cx="5880.36" cy="43.6138" r="26.731" fill="#F5DA24"/>
<circle cx="5955.86" cy="43.1448" r="19.6966" fill="#F5DA24"/>
<circle cx="6112.5" cy="29.0755" r="19.6966" fill="#F5DA24"/>
<circle cx="6129.85" cy="188.993" r="29.5448" fill="#F5DA24"/>
<circle cx="6167.37" cy="48.3031" r="22.0414" fill="#F5DA24"/>
<circle cx="6102.65" cy="271.531" r="22.0414" fill="#F5DA24"/>
</g>
<g clip-path="url(#clip15_1381_636)">
<rect width="476.469" height="272" transform="translate(6194.1)" fill="white"/>
<path d="M6177.21 -18.7588C6177.21 -18.7588 6265.8 137.845 6345.36 101.984C6401.8 76.5412 6388.77 240.131 6327.38 248.176C6275.8 254.936 6246.04 205.945 6232.69 155.702C6209.59 68.8033 6349.88 35.0928 6439.79 38.5811C6536.15 42.3199 6636.09 137.114 6599.87 226.438C6573.81 290.715 6512.64 315.301 6443.4 310.633C6325.15 302.661 6501.57 -10.597 6613.12 29.4004C6641.83 39.6932 6697.26 101.943 6697.26 101.943" stroke="black" stroke-width="9.78705"/>
<circle cx="6258.81" cy="212.911" r="26.2621" fill="#F5DA24"/>
<circle cx="6239.12" cy="126.62" r="26.2621" fill="#F5DA24"/>
<circle cx="6284.61" cy="71.752" r="19.2276" fill="#F5DA24"/>
<circle cx="6385.9" cy="42.6763" r="26.731" fill="#F5DA24"/>
<circle cx="6461.41" cy="43.1448" r="19.6966" fill="#F5DA24"/>
<circle cx="6615.23" cy="29.0755" r="19.6966" fill="#F5DA24"/>
<circle cx="6599.75" cy="222.759" r="29.5448" fill="#F5DA24"/>
<circle cx="6662.59" cy="58.6205" r="22.0414" fill="#F5DA24"/>
</g>
<g clip-path="url(#clip16_1381_636)">
<rect width="476.469" height="272" transform="translate(6670.57)" fill="white"/>
<path d="M6653.68 -18.7588C6653.68 -18.7588 6742.27 137.845 6821.83 101.984C6878.27 76.5412 6865.24 240.131 6803.85 248.176C6752.26 254.936 6722.51 205.945 6709.16 155.702C6686.06 68.8033 6826.35 35.0928 6916.26 38.5811C7012.62 42.3199 7112.56 137.114 7076.34 226.438C7050.28 290.715 6989.11 315.301 6919.87 310.633C6801.62 302.661 6978.04 -10.597 7089.59 29.4004C7118.3 39.6932 7173.73 101.943 7173.73 101.943" stroke="black" stroke-width="9.78705"/>
<circle cx="6727.78" cy="185.71" r="26.2621" fill="#F5DA24"/>
<circle cx="6735.28" cy="85.3519" r="26.2621" fill="#F5DA24"/>
<circle cx="6822.04" cy="50.1797" r="19.2276" fill="#F5DA24"/>
<circle cx="6896.14" cy="42.6763" r="26.731" fill="#F5DA24"/>
<circle cx="6970.7" cy="49.7102" r="19.6966" fill="#F5DA24"/>
<circle cx="7105.77" cy="35.6419" r="19.6966" fill="#F5DA24"/>
<circle cx="7064.97" cy="264.966" r="29.5448" fill="#F5DA24"/>
<circle cx="7153.13" cy="70.8138" r="22.0414" fill="#F5DA24"/>
</g>
<g clip-path="url(#clip17_1381_636)">
<rect width="476.469" height="272" transform="translate(7147.03)" fill="white"/>
<path d="M7130.15 -18.7588C7130.15 -18.7588 7218.74 137.845 7298.3 101.984C7354.74 76.5412 7341.71 240.131 7280.32 248.176C7228.73 254.936 7198.98 205.945 7185.63 155.702C7162.53 68.8033 7302.81 35.0928 7392.72 38.5811C7489.09 42.3199 7589.03 137.114 7552.81 226.438C7526.75 290.715 7465.57 315.301 7396.34 310.633C7278.08 302.661 7454.51 -10.597 7566.06 29.4004C7594.77 39.6932 7650.2 101.943 7650.2 101.943" stroke="black" stroke-width="9.78705"/>
<circle cx="7192.05" cy="157.573" r="26.2621" fill="#F5DA24"/>
<circle cx="7237.08" cy="66.5931" r="26.2621" fill="#F5DA24"/>
<circle cx="7326.65" cy="45.4893" r="19.2276" fill="#F5DA24"/>
<circle cx="7416.69" cy="42.6763" r="26.731" fill="#F5DA24"/>
<circle cx="7492.19" cy="73.1585" r="19.6966" fill="#F5DA24"/>
<circle cx="7603.81" cy="49.7102" r="19.6966" fill="#F5DA24"/>
<circle cx="7525.49" cy="280.91" r="29.5448" fill="#F5DA24"/>
</g>
<g clip-path="url(#clip18_1381_636)">
<rect width="476.469" height="272" transform="translate(3811.75)" fill="white"/>
<path d="M3794.87 -18.7588C3794.87 -18.7588 3883.45 137.845 3963.01 101.984C4019.46 76.5412 4006.43 240.131 3945.03 248.176C3893.45 254.936 3863.69 205.945 3850.34 155.702C3827.25 68.8033 3967.53 35.0928 4057.44 38.5811C4153.81 42.3199 4253.75 137.114 4217.53 226.438C4191.47 290.715 4130.29 315.301 4061.05 310.633C3942.8 302.661 4119.23 -10.597 4230.78 29.4004C4259.48 39.6932 4314.92 101.943 4314.92 101.943" stroke="black" stroke-width="9.78705"/>
<circle cx="3993.71" cy="167.89" r="26.2621" fill="#F5DA24"/>
<circle cx="3914.92" cy="236.359" r="26.2621" fill="#F5DA24"/>
<circle cx="3862.87" cy="183.365" r="19.2276" fill="#F5DA24"/>
<circle cx="3862.87" cy="99.8892" r="26.731" fill="#F5DA24"/>
<circle cx="3941.19" cy="53.4622" r="19.6966" fill="#F5DA24"/>
<circle cx="4118.46" cy="45.9583" r="19.6966" fill="#F5DA24"/>
<circle cx="4195.83" cy="115.835" r="29.5448" fill="#F5DA24"/>
<circle cx="4176.14" cy="38.9242" r="22.0414" fill="#F5DA24"/>
<circle cx="4220.22" cy="193.683" r="22.0414" fill="#F5DA24"/>
<circle cx="4195.37" cy="258.869" r="29.0759" fill="#F5DA24"/>
</g>
<g clip-path="url(#clip19_1381_636)">
<rect width="476.469" height="272" transform="translate(4288.22)" fill="white"/>
<path d="M4271.34 -18.7588C4271.34 -18.7588 4359.92 137.845 4439.48 101.984C4495.93 76.5412 4482.9 240.131 4421.5 248.176C4369.92 254.936 4340.16 205.945 4326.81 155.702C4303.72 68.8033 4444 35.0928 4533.91 38.5811C4630.27 42.3199 4730.21 137.114 4694 226.438C4667.94 290.715 4606.76 315.301 4537.52 310.633C4419.27 302.661 4595.7 -10.597 4707.25 29.4004C4735.95 39.6932 4791.39 101.943 4791.39 101.943" stroke="black" stroke-width="9.78705"/>
<circle cx="4463.61" cy="186.648" r="26.2621" fill="#F5DA24"/>
<circle cx="4370.76" cy="228.855" r="26.2621" fill="#F5DA24"/>
<circle cx="4328.08" cy="159.917" r="19.2276" fill="#F5DA24"/>
<circle cx="4359.97" cy="72.69" r="26.731" fill="#F5DA24"/>
<circle cx="4443.92" cy="45.9583" r="19.6966" fill="#F5DA24"/>
<circle cx="4615.56" cy="60.9651" r="19.6966" fill="#F5DA24"/>
<circle cx="4686.37" cy="130.842" r="29.5448" fill="#F5DA24"/>
<circle cx="4675.12" cy="25.7933" r="22.0414" fill="#F5DA24"/>
<circle cx="4696.69" cy="216.193" r="22.0414" fill="#F5DA24"/>
<circle cx="4659.64" cy="283.256" r="29.0759" fill="#F5DA24"/>
</g>
<g clip-path="url(#clip20_1381_636)">
<rect width="476.469" height="272" transform="translate(4764.69)" fill="white"/>
<path d="M4747.81 -18.7588C4747.81 -18.7588 4836.39 137.845 4915.95 101.984C4972.4 76.5412 4959.37 240.131 4897.97 248.176C4846.39 254.936 4816.63 205.945 4803.28 155.702C4780.19 68.8033 4920.47 35.0928 5010.38 38.5811C5106.74 42.3199 5206.68 137.114 5170.47 226.438C5144.4 290.715 5083.23 315.301 5013.99 310.633C4895.74 302.661 5072.16 -10.597 5183.72 29.4004C5212.42 39.6932 5267.86 101.943 5267.86 101.943" stroke="black" stroke-width="9.78705"/>
<circle cx="4925.08" cy="218.537" r="26.2621" fill="#F5DA24"/>
<circle cx="4834.1" cy="212.911" r="26.2621" fill="#F5DA24"/>
<circle cx="4801.74" cy="127.09" r="19.2276" fill="#F5DA24"/>
<circle cx="4873.02" cy="52.9928" r="26.731" fill="#F5DA24"/>
<circle cx="4951.34" cy="45.9583" r="19.6966" fill="#F5DA24"/>
<circle cx="5111.72" cy="45.9583" r="19.6966" fill="#F5DA24"/>
<circle cx="5167.53" cy="145.849" r="29.5448" fill="#F5DA24"/>
<circle cx="5178.79" cy="25.7933" r="22.0414" fill="#F5DA24"/>
<circle cx="5167.53" cy="232.138" r="22.0414" fill="#F5DA24"/>
<circle cx="5127.67" cy="291.697" r="29.0759" fill="#F5DA24"/>
</g>
<g clip-path="url(#clip21_1381_636)">
<rect width="476.469" height="272" transform="translate(5241.16)" fill="white"/>
<path d="M5224.28 -18.7588C5224.28 -18.7588 5312.86 137.845 5392.42 101.984C5448.87 76.5412 5435.83 240.131 5374.44 248.176C5322.86 254.936 5293.1 205.945 5279.75 155.702C5256.66 68.8033 5396.94 35.0928 5486.85 38.5811C5583.21 42.3199 5683.15 137.114 5646.93 226.438C5620.87 290.715 5559.7 315.301 5490.46 310.633C5372.21 302.661 5548.63 -10.597 5660.18 29.4004C5688.89 39.6932 5744.33 101.943 5744.33 101.943" stroke="black" stroke-width="9.78705"/>
<circle cx="5381.85" cy="234.483" r="26.2621" fill="#F5DA24"/>
<circle cx="5292.74" cy="192.276" r="26.2621" fill="#F5DA24"/>
<circle cx="5285.71" cy="98.9522" r="19.2276" fill="#F5DA24"/>
<circle cx="5366.37" cy="50.1793" r="26.731" fill="#F5DA24"/>
<circle cx="5453.13" cy="43.1448" r="19.6966" fill="#F5DA24"/>
<circle cx="5606.95" cy="36.5794" r="19.6966" fill="#F5DA24"/>
<circle cx="5647.75" cy="169.297" r="29.5448" fill="#F5DA24"/>
<circle cx="5676.83" cy="27.6693" r="22.0414" fill="#F5DA24"/>
<circle cx="5636.5" cy="249.958" r="22.0414" fill="#F5DA24"/>
</g>
<g clip-path="url(#clip22_1381_636)">
<rect width="476.469" height="272" transform="translate(1905.88)" fill="white"/>
<path d="M1888.99 -18.7588C1888.99 -18.7588 1977.58 137.845 2057.14 101.984C2113.58 76.5412 2100.55 240.131 2039.16 248.176C1987.57 254.936 1957.82 205.945 1944.47 155.702C1921.37 68.8033 2061.65 35.0928 2151.57 38.5811C2247.93 42.3199 2347.87 137.114 2311.65 226.438C2285.59 290.715 2224.41 315.301 2155.18 310.633C2036.92 302.661 2213.35 -10.597 2324.9 29.4004C2353.61 39.6932 2409.04 101.943 2409.04 101.943" stroke="black" stroke-width="9.78705"/>
<circle cx="2057.82" cy="104.111" r="26.2621" fill="#F5DA24"/>
<circle cx="2084.08" cy="206.345" r="26.2621" fill="#F5DA24"/>
<circle cx="2017.02" cy="239.642" r="19.2276" fill="#F5DA24"/>
<circle cx="1952.3" cy="176.8" r="26.731" fill="#F5DA24"/>
<circle cx="1962.15" cy="92.8548" r="19.6966" fill="#F5DA24"/>
<circle cx="2124.41" cy="39.3928" r="19.6966" fill="#F5DA24"/>
<circle cx="2253.38" cy="68.9384" r="29.5448" fill="#F5DA24"/>
<circle cx="2203.67" cy="90.5101" r="22.0414" fill="#F5DA24"/>
<circle cx="2289.02" cy="281.848" r="30.4828" fill="#F5DA24"/>
<circle cx="2297.46" cy="126.152" r="22.0414" fill="#F5DA24"/>
<circle cx="2312" cy="199.779" r="29.0759" fill="#F5DA24"/>
</g>
<g clip-path="url(#clip23_1381_636)">
<rect width="476.469" height="272" transform="translate(2382.34)" fill="white"/>
<path d="M2365.46 -18.7588C2365.46 -18.7588 2454.05 137.845 2533.61 101.984C2590.05 76.5412 2577.02 240.131 2515.63 248.176C2464.04 254.936 2434.29 205.945 2420.94 155.702C2397.84 68.8033 2538.12 35.0928 2628.04 38.5811C2724.4 42.3199 2824.34 137.114 2788.12 226.438C2762.06 290.715 2700.88 315.301 2631.65 310.633C2513.4 302.661 2689.82 -10.597 2801.37 29.4004C2830.08 39.6932 2885.51 101.943 2885.51 101.943" stroke="black" stroke-width="9.78705"/>
<circle cx="2553.99" cy="109.738" r="26.2621" fill="#F5DA24"/>
<circle cx="2553.99" cy="220.413" r="26.2621" fill="#F5DA24"/>
<circle cx="2468.17" cy="234.014" r="19.2276" fill="#F5DA24"/>
<circle cx="2425.96" cy="162.731" r="26.731" fill="#F5DA24"/>
<circle cx="2448.94" cy="84.4133" r="19.6966" fill="#F5DA24"/>
<circle cx="2620.58" cy="39.3928" r="19.6966" fill="#F5DA24"/>
<circle cx="2738.29" cy="74.5653" r="29.5448" fill="#F5DA24"/>
<circle cx="2689.52" cy="74.5658" r="22.0414" fill="#F5DA24"/>
<circle cx="2755.17" cy="291.228" r="30.4828" fill="#F5DA24"/>
<circle cx="2777.68" cy="135.531" r="22.0414" fill="#F5DA24"/>
<circle cx="2788.47" cy="209.159" r="29.0759" fill="#F5DA24"/>
</g>
<g clip-path="url(#clip24_1381_636)">
<rect width="476.469" height="272" transform="translate(2858.81)" fill="white"/>
<path d="M2841.93 -18.7588C2841.93 -18.7588 2930.51 137.845 3010.07 101.984C3066.52 76.5412 3053.49 240.131 2992.1 248.176C2940.51 254.936 2910.76 205.945 2897.4 155.702C2874.31 68.8033 3014.59 35.0928 3104.5 38.5811C3200.87 42.3199 3300.81 137.114 3264.59 226.438C3238.53 290.715 3177.35 315.301 3108.12 310.633C2989.86 302.661 3166.29 -10.597 3277.84 29.4004C3306.54 39.6932 3361.98 101.943 3361.98 101.943" stroke="black" stroke-width="9.78705"/>
<circle cx="3038.9" cy="122.869" r="26.2621" fill="#F5DA24"/>
<circle cx="3017.32" cy="239.172" r="26.2621" fill="#F5DA24"/>
<circle cx="2928.69" cy="228.386" r="19.2276" fill="#F5DA24"/>
<circle cx="2895.86" cy="144.911" r="26.731" fill="#F5DA24"/>
<circle cx="2942.29" cy="72.221" r="19.6966" fill="#F5DA24"/>
<circle cx="3116.74" cy="39.3928" r="19.6966" fill="#F5DA24"/>
<circle cx="3223.2" cy="82.0692" r="29.5448" fill="#F5DA24"/>
<circle cx="3184.74" cy="46.4271" r="22.0414" fill="#F5DA24"/>
<circle cx="3223.2" cy="295.917" r="30.4828" fill="#F5DA24"/>
<circle cx="3257.9" cy="148.662" r="22.0414" fill="#F5DA24"/>
<circle cx="3264.94" cy="223.227" r="29.0759" fill="#F5DA24"/>
</g>
<g clip-path="url(#clip25_1381_636)">
<rect width="476.469" height="272" transform="translate(3335.28)" fill="white"/>
<path d="M3318.4 -18.7588C3318.4 -18.7588 3406.98 137.845 3486.54 101.984C3542.99 76.5412 3529.96 240.131 3468.56 248.176C3416.98 254.936 3387.23 205.945 3373.87 155.702C3350.78 68.8033 3491.06 35.0928 3580.97 38.5811C3677.34 42.3199 3777.28 137.114 3741.06 226.438C3715 290.715 3653.82 315.301 3584.59 310.633C3466.33 302.661 3642.76 -10.597 3754.31 29.4004C3783.01 39.6932 3838.45 101.943 3838.45 101.943" stroke="black" stroke-width="9.78705"/>
<circle cx="3515.37" cy="141.627" r="26.2621" fill="#F5DA24"/>
<circle cx="3464.72" cy="241.048" r="26.2621" fill="#F5DA24"/>
<circle cx="3398.59" cy="205.876" r="19.2276" fill="#F5DA24"/>
<circle cx="3372.33" cy="126.152" r="26.731" fill="#F5DA24"/>
<circle cx="3441.27" cy="59.0901" r="19.6966" fill="#F5DA24"/>
<circle cx="3622.29" cy="39.3928" r="19.6966" fill="#F5DA24"/>
<circle cx="3705.3" cy="93.3241" r="29.5448" fill="#F5DA24"/>
<circle cx="3683.72" cy="38.9242" r="22.0414" fill="#F5DA24"/>
<circle cx="3740.94" cy="171.172" r="22.0414" fill="#F5DA24"/>
<circle cx="3730.15" cy="241.986" r="29.0759" fill="#F5DA24"/>
</g>
<g clip-path="url(#clip26_1381_636)">
<rect width="476.469" height="272" fill="white"/>
<path d="M-16.8828 -18.7588C-16.8828 -18.7588 71.701 137.845 151.262 101.984C207.709 76.5412 194.676 240.131 133.282 248.176C81.6988 254.936 51.943 205.945 38.5908 155.702C15.4971 68.8033 155.78 35.0928 245.69 38.5811C342.054 42.3199 441.994 137.114 405.777 226.438C379.715 290.715 318.54 315.301 249.303 310.633C131.05 302.661 307.475 -10.597 419.026 29.4004C447.732 39.6932 503.167 101.943 503.167 101.943" stroke="black" stroke-width="9.78705"/>
<circle cx="105.986" cy="97.5453" r="26.2621" fill="#F5DA24"/>
<circle cx="187.586" cy="163.2" r="26.2621" fill="#F5DA24"/>
<circle cx="161.793" cy="233.076" r="19.2276" fill="#F5DA24"/>
<circle cx="72.6895" cy="225.573" r="26.731" fill="#F5DA24"/>
<circle cx="39.3928" cy="143.503" r="19.6966" fill="#F5DA24"/>
<circle cx="166.951" cy="39.3928" r="19.6966" fill="#F5DA24"/>
<circle cx="256.523" cy="41.7382" r="29.5448" fill="#F5DA24"/>
<circle cx="271.531" cy="118.648" r="22.0414" fill="#F5DA24"/>
<circle cx="399.089" cy="241.517" r="30.4828" fill="#F5DA24"/>
<circle cx="376.579" cy="100.828" r="22.0414" fill="#F5DA24"/>
<circle cx="405.186" cy="158.51" r="29.0759" fill="#F5DA24"/>
</g>
<g clip-path="url(#clip27_1381_636)">
<rect width="476.469" height="272" transform="translate(476.469)" fill="white"/>
<path d="M459.586 -18.7588C459.586 -18.7588 548.17 137.845 627.731 101.984C684.177 76.5412 671.145 240.131 609.751 248.176C558.168 254.936 528.412 205.945 515.06 155.702C491.966 68.8033 632.249 35.0928 722.159 38.5811C818.523 42.3199 918.463 137.114 882.245 226.438C856.183 290.715 795.009 315.301 725.771 310.633C607.519 302.661 783.943 -10.597 895.495 29.4004C924.201 39.6932 979.636 101.943 979.636 101.943" stroke="black" stroke-width="9.78705"/>
<circle cx="592.772" cy="98.4828" r="26.2621" fill="#F5DA24"/>
<circle cx="664.993" cy="172.579" r="26.2621" fill="#F5DA24"/>
<circle cx="632.634" cy="234.952" r="19.2276" fill="#F5DA24"/>
<circle cx="544.469" cy="220.882" r="26.731" fill="#F5DA24"/>
<circle cx="515.862" cy="136" r="19.6966" fill="#F5DA24"/>
<circle cx="651.862" cy="39.3928" r="19.6966" fill="#F5DA24"/>
<circle cx="736.744" cy="42.6757" r="29.5448" fill="#F5DA24"/>
<circle cx="753.627" cy="110.206" r="22.0414" fill="#F5DA24"/>
<circle cx="873.682" cy="248.082" r="30.4828" fill="#F5DA24"/>
<circle cx="855.862" cy="107.393" r="22.0414" fill="#F5DA24"/>
<circle cx="881.655" cy="165.076" r="29.0759" fill="#F5DA24"/>
</g>
<g clip-path="url(#clip28_1381_636)">
<rect width="476.469" height="272" transform="translate(952.938)" fill="white"/>
<path d="M936.056 -18.7588C936.056 -18.7588 1024.64 137.845 1104.2 101.984C1160.65 76.5412 1147.61 240.131 1086.22 248.176C1034.64 254.936 1004.88 205.945 991.529 155.702C968.436 68.8033 1108.72 35.0928 1198.63 38.5811C1294.99 42.3199 1394.93 137.114 1358.71 226.438C1332.65 290.715 1271.48 315.301 1202.24 310.633C1083.99 302.661 1260.41 -10.597 1371.96 29.4004C1400.67 39.6932 1456.11 101.943 1456.11 101.943" stroke="black" stroke-width="9.78705"/>
<circle cx="1075.81" cy="98.4828" r="26.2621" fill="#F5DA24"/>
<circle cx="1141.46" cy="181.958" r="26.2621" fill="#F5DA24"/>
<circle cx="1101.6" cy="237.766" r="19.2276" fill="#F5DA24"/>
<circle cx="1019.06" cy="211.503" r="26.731" fill="#F5DA24"/>
<circle cx="992.331" cy="126.62" r="19.6966" fill="#F5DA24"/>
<circle cx="1138.65" cy="39.3928" r="19.6966" fill="#F5DA24"/>
<circle cx="1220.72" cy="42.6757" r="29.5448" fill="#F5DA24"/>
<circle cx="1231.97" cy="106.455" r="22.0414" fill="#F5DA24"/>
<circle cx="1347.34" cy="253.71" r="30.4828" fill="#F5DA24"/>
<circle cx="1336.08" cy="112.082" r="22.0414" fill="#F5DA24"/>
<circle cx="1358.12" cy="170.704" r="29.0759" fill="#F5DA24"/>
</g>
<g clip-path="url(#clip29_1381_636)">
<rect width="476.469" height="272" transform="translate(1429.41)" fill="white"/>
<path d="M1412.52 -18.7588C1412.52 -18.7588 1501.11 137.845 1580.67 101.984C1637.12 76.5412 1624.08 240.131 1562.69 248.176C1511.11 254.936 1481.35 205.945 1468 155.702C1444.9 68.8033 1585.19 35.0928 1675.1 38.5811C1771.46 42.3199 1871.4 137.114 1835.18 226.438C1809.12 290.715 1747.95 315.301 1678.71 310.633C1560.46 302.661 1736.88 -10.597 1848.43 29.4004C1877.14 39.6932 1932.57 101.943 1932.57 101.943" stroke="black" stroke-width="9.78705"/>
<circle cx="1558.84" cy="106.924" r="26.2621" fill="#F5DA24"/>
<circle cx="1614.18" cy="196.028" r="26.2621" fill="#F5DA24"/>
<circle cx="1565.88" cy="241.518" r="19.2276" fill="#F5DA24"/>
<circle cx="1488.03" cy="201.186" r="26.731" fill="#F5DA24"/>
<circle cx="1473.49" cy="110.676" r="19.6966" fill="#F5DA24"/>
<circle cx="1624.5" cy="39.3928" r="19.6966" fill="#F5DA24"/>
<circle cx="1723.45" cy="42.6757" r="29.5448" fill="#F5DA24"/>
<circle cx="1715.94" cy="98.014" r="22.0414" fill="#F5DA24"/>
<circle cx="1820.99" cy="268.717" r="30.4828" fill="#F5DA24"/>
<circle cx="1815.37" cy="117.71" r="22.0414" fill="#F5DA24"/>
<circle cx="1834.59" cy="181.959" r="29.0759" fill="#F5DA24"/>
</g>
<g clip-path="url(#clip30_1381_636)">
<rect width="476.469" height="272" transform="translate(9529.38)" fill="white"/>
<path d="M9512.5 -18.7588C9512.5 -18.7588 9601.08 137.845 9680.64 101.984C9737.09 76.5412 9724.06 240.131 9662.66 248.176C9611.08 254.936 9581.32 205.945 9567.97 155.702C9544.88 68.8033 9685.16 35.0928 9775.07 38.5811C9871.43 42.3199 9971.37 137.114 9935.16 226.438C9909.09 290.715 9847.92 315.301 9778.68 310.633C9660.43 302.661 9836.85 -10.597 9948.4 29.4004C9977.11 39.6932 10032.5 101.943 10032.5 101.943" stroke="black" stroke-width="9.78705"/>
<circle cx="9777.93" cy="44.0824" r="26.2621" fill="#F5DA24"/>
<circle cx="9843.59" cy="57.2142" r="26.2621" fill="#F5DA24"/>
<circle cx="9897.52" cy="89.5723" r="19.2276" fill="#F5DA24"/>
<circle cx="9929.41" cy="153.352" r="26.731" fill="#F5DA24"/>
<circle cx="9936.44" cy="229.793" r="19.6966" fill="#F5DA24"/>
</g>
<g clip-path="url(#clip31_1381_636)">
<rect width="476.469" height="272" transform="translate(10005.8)" fill="white"/>
<path d="M9988.97 -18.7588C9988.97 -18.7588 10077.5 137.845 10157.1 101.984C10213.6 76.5412 10200.5 240.131 10139.1 248.176C10087.5 254.936 10057.8 205.945 10044.4 155.702C10021.3 68.8033 10161.6 35.0928 10251.5 38.5811C10347.9 42.3199 10447.8 137.114 10411.6 226.438C10385.6 290.715 10324.4 315.301 10255.2 310.633C10136.9 302.661 10313.3 -10.597 10424.9 29.4004C10453.6 39.6932 10509 101.943 10509 101.943" stroke="black" stroke-width="9.78705"/>
<circle cx="10289.1" cy="44.0824" r="26.2621" fill="#F5DA24"/>
<circle cx="10347.3" cy="70.3451" r="26.2621" fill="#F5DA24"/>
<circle cx="10398.4" cy="110.207" r="19.2276" fill="#F5DA24"/>
<circle cx="10412.4" cy="185.242" r="26.731" fill="#F5DA24"/>
<circle cx="10398.8" cy="255.117" r="19.6966" fill="#F5DA24"/>
</g>
<g clip-path="url(#clip32_1381_636)">
<rect width="476.469" height="272" transform="translate(10482.3)" fill="white"/>
<path d="M10465.4 -18.7588C10465.4 -18.7588 10554 137.845 10633.6 101.984C10690 76.5412 10677 240.131 10615.6 248.176C10564 254.936 10534.3 205.945 10520.9 155.702C10497.8 68.8033 10638.1 35.0928 10728 38.5811C10824.4 42.3199 10924.3 137.114 10888.1 226.438C10862 290.715 10800.9 315.301 10731.6 310.633C10613.4 302.661 10789.8 -10.597 10901.3 29.4004C10930 39.6932 10985.5 101.943 10985.5 101.943" stroke="black" stroke-width="9.78705"/>
<circle cx="10795.6" cy="53.4623" r="26.2621" fill="#F5DA24"/>
<circle cx="10848.1" cy="90.0414" r="26.2621" fill="#F5DA24"/>
<circle cx="10883.3" cy="139.282" r="19.2276" fill="#F5DA24"/>
<circle cx="10888.9" cy="217.131" r="26.731" fill="#F5DA24"/>
<circle cx="10860.3" cy="272" r="19.6966" fill="#F5DA24"/>
</g>
<g clip-path="url(#clip33_1381_636)">
<rect width="476.469" height="272" transform="translate(10958.8)" fill="white"/>
<path d="M10941.9 -18.7588C10941.9 -18.7588 11030.5 137.845 11110 101.984C11166.5 76.5412 11153.5 240.131 11092.1 248.176C11040.5 254.936 11010.7 205.945 10997.4 155.702C10974.3 68.8033 11114.6 35.0928 11204.5 38.5811C11300.8 42.3199 11400.8 137.114 11364.6 226.438C11338.5 290.715 11277.3 315.301 11208.1 310.633C11089.8 302.661 11266.3 -10.597 11377.8 29.4004C11406.5 39.6932 11462 101.943 11462 101.943" stroke="black" stroke-width="9.78705"/>
<circle cx="11299.3" cy="68.4691" r="26.2621" fill="#F5DA24"/>
<circle cx="11341.5" cy="111.614" r="26.2621" fill="#F5DA24"/>
<circle cx="11367.3" cy="166.482" r="19.2276" fill="#F5DA24"/>
<circle cx="11359.8" cy="227.448" r="26.731" fill="#F5DA24"/>
<circle cx="11328.3" cy="283.255" r="19.6966" fill="#F5DA24"/>
</g>
</g>
<defs>
<clipPath id="clip0_1381_636">
<rect width="15723.5" height="272" fill="white"/>
</clipPath>
<clipPath id="clip1_1381_636">
<rect width="476.469" height="272" fill="white" transform="translate(13341.1)"/>
</clipPath>
<clipPath id="clip2_1381_636">
<rect width="476.469" height="272" fill="white" transform="translate(13817.6)"/>
</clipPath>
<clipPath id="clip3_1381_636">
<rect width="476.469" height="272" fill="white" transform="translate(14294.1)"/>
</clipPath>
<clipPath id="clip4_1381_636">
<rect width="476.469" height="272" fill="white" transform="translate(14770.5)"/>
</clipPath>
<clipPath id="clip5_1381_636">
<rect width="476.469" height="272" fill="white" transform="translate(11435.3)"/>
</clipPath>
<clipPath id="clip6_1381_636">
<rect width="476.469" height="272" fill="white" transform="translate(11911.7)"/>
</clipPath>
<clipPath id="clip7_1381_636">
<rect width="476.469" height="272" fill="white" transform="translate(12388.2)"/>
</clipPath>
<clipPath id="clip8_1381_636">
<rect width="476.469" height="272" fill="white" transform="translate(15247)"/>
</clipPath>
<clipPath id="clip9_1381_636">
<rect width="476.469" height="272" fill="white" transform="translate(12864.7)"/>
</clipPath>
<clipPath id="clip10_1381_636">
<rect width="476.469" height="272" fill="white" transform="translate(7623.5)"/>
</clipPath>
<clipPath id="clip11_1381_636">
<rect width="476.469" height="272" fill="white" transform="translate(8099.97)"/>
</clipPath>
<clipPath id="clip12_1381_636">
<rect width="476.469" height="272" fill="white" transform="translate(8576.44)"/>
</clipPath>
<clipPath id="clip13_1381_636">
<rect width="476.469" height="272" fill="white" transform="translate(9052.91)"/>
</clipPath>
<clipPath id="clip14_1381_636">
<rect width="476.469" height="272" fill="white" transform="translate(5717.63)"/>
</clipPath>
<clipPath id="clip15_1381_636">
<rect width="476.469" height="272" fill="white" transform="translate(6194.1)"/>
</clipPath>
<clipPath id="clip16_1381_636">
<rect width="476.469" height="272" fill="white" transform="translate(6670.57)"/>
</clipPath>
<clipPath id="clip17_1381_636">
<rect width="476.469" height="272" fill="white" transform="translate(7147.03)"/>
</clipPath>
<clipPath id="clip18_1381_636">
<rect width="476.469" height="272" fill="white" transform="translate(3811.75)"/>
</clipPath>
<clipPath id="clip19_1381_636">
<rect width="476.469" height="272" fill="white" transform="translate(4288.22)"/>
</clipPath>
<clipPath id="clip20_1381_636">
<rect width="476.469" height="272" fill="white" transform="translate(4764.69)"/>
</clipPath>
<clipPath id="clip21_1381_636">
<rect width="476.469" height="272" fill="white" transform="translate(5241.16)"/>
</clipPath>
<clipPath id="clip22_1381_636">
<rect width="476.469" height="272" fill="white" transform="translate(1905.88)"/>
</clipPath>
<clipPath id="clip23_1381_636">
<rect width="476.469" height="272" fill="white" transform="translate(2382.34)"/>
</clipPath>
<clipPath id="clip24_1381_636">
<rect width="476.469" height="272" fill="white" transform="translate(2858.81)"/>
</clipPath>
<clipPath id="clip25_1381_636">
<rect width="476.469" height="272" fill="white" transform="translate(3335.28)"/>
</clipPath>
<clipPath id="clip26_1381_636">
<rect width="476.469" height="272" fill="white"/>
</clipPath>
<clipPath id="clip27_1381_636">
<rect width="476.469" height="272" fill="white" transform="translate(476.469)"/>
</clipPath>
<clipPath id="clip28_1381_636">
<rect width="476.469" height="272" fill="white" transform="translate(952.938)"/>
</clipPath>
<clipPath id="clip29_1381_636">
<rect width="476.469" height="272" fill="white" transform="translate(1429.41)"/>
</clipPath>
<clipPath id="clip30_1381_636">
<rect width="476.469" height="272" fill="white" transform="translate(9529.38)"/>
</clipPath>
<clipPath id="clip31_1381_636">
<rect width="476.469" height="272" fill="white" transform="translate(10005.8)"/>
</clipPath>
<clipPath id="clip32_1381_636">
<rect width="476.469" height="272" fill="white" transform="translate(10482.3)"/>
</clipPath>
<clipPath id="clip33_1381_636">
<rect width="476.469" height="272" fill="white" transform="translate(10958.8)"/>
</clipPath>
</defs>
</svg>
