<svg width="65" height="65" viewBox="0 0 65 65" fill="none" xmlns="http://www.w3.org/2000/svg">
<path d="M29.8989 2.51533C30.5251 -0.25682 34.4749 -0.256832 35.1011 2.51532L37.7341 14.1716C38.1399 15.9682 40.2017 16.8222 41.7591 15.8388L51.8631 9.45835C54.2661 7.94093 57.0591 10.7339 55.5417 13.1369L49.1612 23.2409C48.1778 24.7983 49.0318 26.8601 50.8284 27.2659L62.4847 29.8989C65.2568 30.5251 65.2568 34.4749 62.4847 35.1011L50.8284 37.7341C49.0318 38.1399 48.1778 40.2017 49.1612 41.7591L55.5416 51.8631C57.0591 54.2661 54.2661 57.0591 51.8631 55.5417L41.7591 49.1612C40.2017 48.1778 38.1399 49.0318 37.7341 50.8284L35.1011 62.4847C34.4749 65.2568 30.5251 65.2568 29.8989 62.4847L27.2659 50.8284C26.8601 49.0318 24.7983 48.1778 23.2409 49.1612L13.1369 55.5416C10.7339 57.0591 7.94092 54.2661 9.45835 51.8631L15.8388 41.7591C16.8222 40.2017 15.9682 38.1399 14.1716 37.7341L2.51533 35.1011C-0.25682 34.4749 -0.256832 30.5251 2.51532 29.8989L14.1716 27.2659C15.9682 26.8601 16.8222 24.7983 15.8388 23.2409L9.45835 13.1369C7.94093 10.7339 10.7339 7.94092 13.1369 9.45835L23.2409 15.8388C24.7983 16.8222 26.8601 15.9682 27.2659 14.1716L29.8989 2.51533Z" fill="#F5DA24"/>
</svg>

