<svg width="1155" height="792" viewBox="0 0 1155 792" fill="none" xmlns="http://www.w3.org/2000/svg">
<g clip-path="url(#clip0_1231_4484)">
<path d="M614.019 541.295L966.416 942.001L1198.75 835.719L614.029 513.154L614.019 541.295Z" fill="white"/>
<path d="M536.129 535.86L191.584 940.001L-40.7501 833.719L543.971 511.154L536.129 535.86Z" fill="white"/>
<path d="M775.682 -11.7053L661.019 221.462L671.884 268.878L1070.87 -11.6369L775.682 -11.7053Z" fill="white"/>
<path d="M393.581 -4.47052L509.12 237.653L498.447 286.754L88.1829 -14.6884L393.581 -4.47052Z" fill="white"/>
<path d="M1181 68L616.21 325.794L584 385L1181 343.779V68Z" fill="white"/>
<path d="M-27 68L549 327.021V385L-27 345.093V68Z" fill="white"/>
<path d="M591.296 438.924L1160.65 694.842L1230.71 545.855L598.837 384.026L591.296 438.924Z" fill="white"/>
<path d="M527.669 433.369L-6.19349 705.578L-62.2183 545.739L527.668 390.17L527.669 433.369Z" fill="white"/>
<path d="M291.909 527.707C261.91 546.583 300.837 542.364 324.05 538.432C324.05 538.432 355.943 520.903 374.404 506.256C385.324 497.593 401.188 482.661 401.188 482.661C401.188 482.661 443.226 452.243 460.114 424.745C469.237 409.89 471.47 378.627 478.327 383.989C490.969 393.875 483.684 424.745 483.684 424.745C483.684 424.745 458.377 468.092 455.094 498.377C453.424 513.784 454.207 528.141 455.094 543.613C456.895 575.03 481.14 572.461 481.14 603.929C481.14 641.626 501.439 668.022 507.185 707.424C510.631 731.048 501.936 750.789 503.758 774.594C507.232 819.98 537.253 887 537.253 887H604.75L607.964 873.057C641.391 787.256 616.5 739.404 614.392 712.18C612.283 684.955 621.763 680.788 625.215 667.785C628.667 654.782 655.23 585.483 647.605 530.924C642.25 492.616 628.32 456.921 614.392 437.615C603.25 422.171 605.464 408.3 607.964 403.295C607.964 403.295 627.002 361.04 630.194 330.244C632.056 312.287 635.819 284.245 635.819 284.245C635.819 284.245 639.259 300.065 642.248 309.985C652.187 342.983 671.089 356.291 680.817 389.352C683.254 397.635 682.799 402.855 686.174 410.802C692.335 425.31 711.887 441.905 711.887 441.905C711.887 441.905 791.479 509.761 793.311 515.909C795.143 522.057 787.097 503.484 830.81 525.793C874.522 548.101 880.093 558.452 875.807 549.157L830.81 508.401C842.237 518.054 867.95 529.462 854.38 515.909C840.582 502.129 816.524 490.884 802.954 489.096C789.383 487.309 761.255 434.867 732 403.106C726.993 397.67 720.855 390.57 715.889 384.826L715.101 383.914C710.685 378.808 715.101 368.974 715.101 368.974L680.817 267.085C681.888 250.997 680.777 206.74 652.492 205.024C624.208 203.308 615.711 204.928 618.222 190.631C619.598 182.792 623.359 175.552 631.93 175.552C642.644 175.552 681.858 152.132 665.818 102.989C655.688 71.9527 639.32 67.8142 616.535 70.8139C607.056 72.0617 606.892 80.4665 594.036 80.4665C581.179 80.4665 577.251 85.4716 576.894 87.9741C575.419 91.1013 576.894 99.3428 559.752 106.207C542.61 113.071 542.141 129.63 546.939 137.169C549.51 177.496 542.827 176.936 526.377 180.35C490.05 187.889 458.435 206.37 460.577 223.53C462.292 237.258 459.293 275.327 457.15 290.7C450.365 318.943 438.901 378.627 435.472 378.627C432.044 378.627 360.476 477.298 360.476 477.298C360.476 477.298 328.335 492.314 319.764 492.314C309.05 492.314 286.551 512.692 306.908 506.256C323.192 501.108 325.121 504.111 324.05 506.256C325.835 505.541 321.907 508.83 291.909 527.707Z" fill="white"/>
<path d="M325.64 527.457C313.808 529.463 302.346 534.827 297.919 537.107C295.19 538.669 295.536 538.334 297.919 537.107C300.072 535.875 304.14 533.461 310.634 529.373C340.647 510.479 344.577 507.187 342.79 507.903C343.862 505.756 341.933 502.75 325.64 507.903C305.274 514.344 327.784 493.947 338.503 493.947C347.078 493.947 379.234 478.918 379.234 478.918C379.234 478.918 450.835 380.155 454.265 380.155C457.695 380.155 472.13 323.616 478.918 295.347C481.062 279.96 484.921 245.751 483.206 232.01C481.062 214.833 504.644 194.437 547.519 196.584C557.165 193.005 575.816 175.757 573.244 135.393C567.884 128.952 561.453 114.352 578.603 107.482C595.753 100.611 594.277 92.3622 595.753 89.2321C596.11 86.7273 600.041 81.7175 612.903 81.7175C625.766 81.7175 618.018 71.8043 627.5 70.5553C650.296 67.5529 655.615 76.7296 671.387 97.9968C702.204 139.551 652.187 170.717 641.901 176.205C634.335 180.243 620.547 185.553 622.7 191.298C626.815 202.275 636.918 202.615 665.216 204.333C693.513 206.051 687.159 250.984 696.074 266.077L716.646 370.354C716.646 370.354 710.856 389.94 715.274 395.052C720.369 400.947 742.226 406.628 747.503 412.36C776.772 444.151 808.342 488.937 821.919 490.726C835.496 492.516 859.565 503.771 873.369 517.564C886.945 531.13 861.221 519.711 849.788 510.05L894.807 550.843C899.094 560.147 893.52 549.786 849.788 527.457C806.055 505.128 814.105 523.718 812.272 517.564C810.439 511.41 730.81 443.492 730.81 443.492C730.81 443.492 711.248 426.881 705.084 412.36C701.708 404.406 702.164 399.18 699.725 390.89C689.992 357.798 671.082 344.478 661.137 311.45C658.148 301.52 654.706 285.685 654.706 285.685C654.706 285.685 650.941 313.753 649.078 331.727C645.885 362.552 626.837 404.845 626.837 404.845C624.336 409.855 627.325 423.5 638.472 438.958C652.407 458.282 668.088 491.858 673.444 530.202C681.073 584.811 648.211 653.117 643.272 666.723C638.334 680.33 633.62 686.768 635.729 714.017C637.839 741.266 660.28 789.163 626.837 875.044L623.622 889H556.094C556.094 889 533.844 820.636 530.369 775.208C528.546 751.381 533.816 737.663 530.369 714.017C524.619 674.578 502.339 657.978 491.781 619.548C483.437 589.178 479.648 571.554 477.847 540.108C476.959 524.622 476.176 515.809 477.847 500.388C481.131 470.076 502.5 426.316 502.5 426.316C502.5 426.316 509.788 395.417 497.14 385.522C490.279 380.155 488.045 411.447 478.918 426.316C462.023 453.84 419.965 484.285 419.965 484.285C419.965 484.285 395.676 485.275 384.751 493.947C366.282 508.607 325.64 527.457 325.64 527.457Z" fill="white"/>
<path d="M330.134 488.684C303.776 505.25 313.183 485.967 333.579 482.515C333.579 482.515 337.108 481.96 342.499 480.847C357.596 471.172 359.656 469.347 358.376 469.859C359.317 467.977 357.623 465.341 343.314 469.859C325.427 475.507 345.196 457.623 354.61 457.623C362.141 457.623 390.383 444.445 390.383 444.445C390.383 444.445 453.268 357.851 456.281 357.851C459.293 357.851 471.97 308.279 477.932 283.493C479.815 270.002 483.204 240.007 481.698 227.96C479.815 212.9 500.526 195.016 538.182 196.898C546.654 193.761 563.034 178.638 560.775 143.248C556.068 137.6 550.42 124.799 565.482 118.775C580.544 112.751 579.248 105.519 580.544 102.774C580.858 100.578 584.31 96.1854 595.606 96.1854C606.903 96.1854 607.047 88.8093 615.376 87.7142C635.396 85.0818 649.778 88.7137 658.68 115.952C672.773 159.079 624.789 173.29 615.376 173.29C607.844 173.29 610.826 189.682 607.688 196.898C608.316 201.605 618.765 214.217 643.617 215.723C668.47 217.229 668.565 246.029 671.859 259.962C675.153 273.895 701.983 349.38 701.983 349.38L704.913 361.873C704.913 361.873 711.251 371.242 715.886 376.268C741.592 404.141 767.253 453.23 779.177 454.799C791.102 456.368 812.241 466.237 824.364 478.33C836.288 490.224 813.695 480.213 803.654 471.741L822.545 488.831C852.152 505.764 846.676 515.055 843.192 507.509L822.545 488.831C820.147 487.46 817.52 486.038 814.643 484.572C776.234 464.994 772.315 483.726 770.705 478.33C769.095 472.934 699.159 413.384 699.159 413.384C699.159 413.384 681.979 398.82 676.566 386.088C674.489 381.204 634.965 377.203 610.723 372.747C608.986 376.969 607.844 379.5 607.844 379.5C605.648 383.892 603.702 396.066 613.493 409.619C625.731 426.562 637.971 457.888 642.676 491.508C649.376 539.388 626.036 600.206 623.002 611.617C619.969 623.028 611.64 626.686 613.493 650.577C615.345 674.469 637.216 716.464 607.844 791.764L605.02 804H545.713C545.713 804 526.172 744.059 523.119 704.228C521.518 683.337 526.147 671.31 523.119 650.577C518.07 615.998 498.502 601.443 489.229 567.748C481.901 541.12 478.573 525.668 476.991 498.096C476.212 484.518 475.524 476.791 476.991 463.27C479.876 436.693 498.643 398.325 498.643 398.325C498.643 398.325 505.044 371.233 493.936 362.557C487.91 357.851 485.948 385.288 477.932 398.325C463.094 422.457 426.156 449.152 426.156 449.152C426.156 449.152 399.978 455.667 390.383 463.27C378.945 472.334 355.393 478.185 342.499 480.847C339.083 483.036 334.999 485.627 330.134 488.684Z" fill="#F5DA24"/>
<path d="M589.136 411.385L1164.02 650.139L1266.27 531.163L589.13 358.686L589.136 411.385Z" fill="#F5DA24"/>
<path d="M1156 70L606.481 299.278L601 359L1156 306.703V70Z" fill="#F5DA24"/>
<path d="M762.826 -22.9666L642.268 223.118L666.266 247.145L1014.08 -11.6416L762.826 -22.9666Z" fill="#F5DA24"/>
<path d="M403.917 -11.4491L524.538 237.16L497.496 259.36L140.977 -13.5877L403.917 -11.4491Z" fill="#F5DA24"/>
<path d="M-13 57L540 296.007L515.281 346L-13 293.143V57Z" fill="#F5DA24"/>
<path d="M497.414 420.574L-7.84596 650.181L-109.28 531.004L509.641 355.627L497.414 420.574Z" fill="#F5DA24"/>
<path d="M506.704 517.045L149.949 906.305L-66.181 803.22L488.195 477.973L506.704 517.045Z" fill="#F5DA24"/>
<path d="M624.242 523.614L1008.14 906.341L1224.34 802.84L628.241 478.961L624.242 523.614Z" fill="#F5DA24"/>
</g>
<defs>
<clipPath id="clip0_1231_4484">
<rect width="1155" height="792" fill="white"/>
</clipPath>
</defs>
</svg>
