<svg width="1809" height="1085" viewBox="0 0 1809 1085" fill="none" xmlns="http://www.w3.org/2000/svg">
<g clip-path="url(#clip0_1231_4549)">
<rect width="1811" height="1085" fill="black"/>
<path d="M710.572 534.168L1187.69 727.682L1090.65 864.973L666.069 693.546L710.572 534.168Z" fill="#F5DA24"/>
<path d="M522.882 257.199L1028.75 161.393L1021.57 329.36L571.813 415.273L522.882 257.199Z" fill="#F5DA24"/>
<circle cx="799.732" cy="756.15" r="117.029" transform="rotate(-123.385 799.732 756.15)" stroke="white" stroke-width="16.9415"/>
<circle cx="796.114" cy="747.043" r="164.029" transform="rotate(-123.385 796.114 747.043)" stroke="white" stroke-width="16.9415"/>
<circle cx="802.062" cy="743.317" r="216.529" transform="rotate(-123.385 802.062 743.317)" stroke="white" stroke-width="16.9415"/>
<circle cx="780.458" cy="727.604" r="249.529" transform="rotate(-123.385 780.458 727.604)" stroke="white" stroke-width="16.9415"/>
<circle cx="767.569" cy="707.276" r="281.529" transform="rotate(-123.385 767.569 707.276)" stroke="white" stroke-width="16.9415"/>
<circle cx="1466.5" cy="349.625" r="117.029" transform="rotate(-22.9519 1466.5 349.625)" stroke="white" stroke-width="16.9415"/>
<circle cx="1476.11" cy="347.576" r="164.029" transform="rotate(-22.9519 1476.11 347.576)" stroke="white" stroke-width="16.9415"/>
<circle cx="1477.93" cy="354.447" r="216.529" transform="rotate(-22.9519 1477.93 354.447)" stroke="white" stroke-width="16.9415"/>
<circle cx="1498.18" cy="335.966" r="249.529" transform="rotate(-22.9519 1498.18 335.966)" stroke="white" stroke-width="16.9415"/>
<circle cx="1520.13" cy="326.953" r="281.529" transform="rotate(-22.9519 1520.13 326.953)" stroke="white" stroke-width="16.9415"/>
<circle cx="324.832" cy="314.923" r="93.2724" transform="rotate(-101.609 324.832 314.923)" stroke="white" stroke-width="13.4553"/>
<circle cx="324.63" cy="307.234" r="130.272" transform="rotate(-101.609 324.63 307.234)" stroke="white" stroke-width="13.4553"/>
<circle cx="330.319" cy="306.642" r="172.272" transform="rotate(-101.609 330.319 306.642)" stroke="white" stroke-width="13.4553"/>
<circle cx="318.555" cy="288.942" r="198.272" transform="rotate(-101.609 318.555 288.942)" stroke="white" stroke-width="13.4553"/>
<circle cx="315.403" cy="269.832" r="223.772" transform="rotate(-101.609 315.403 269.832)" stroke="white" stroke-width="13.4553"/>
<path d="M1532.77 998L965 146.38L1008.32 62.352L1313.53 7L1796 793.264L1532.77 998Z" fill="#F5DA24"/>
<path d="M1442.03 355.156L1424.7 327.322L1382.7 353.474L1379.04 347.601L1468.42 291.959L1472.07 297.832L1430.07 323.984L1447.4 351.818L1489.4 325.666L1493.14 331.667L1403.76 387.309L1400.03 381.308L1442.03 355.156ZM1452.54 421.543L1435.21 393.709L1412.64 401.561L1409.3 396.198L1510.96 360.012L1516.29 368.567L1439.18 444.206L1435.53 438.332L1452.54 421.543ZM1506.74 368.311L1440.87 391.423L1457.09 417.47L1506.74 368.311ZM1546.62 415.863C1555.12 429.525 1548.92 441.184 1536.02 449.212L1528.62 453.822L1525.12 448.204L1532.91 443.356C1542.48 437.394 1547.46 429.161 1541.34 419.329C1535.21 409.498 1525.63 410.326 1516.06 416.288L1469.58 445.221C1460 451.183 1455.16 459.337 1461.28 469.168C1467.4 479 1476.86 478.251 1486.43 472.289L1497.03 465.692L1500.53 471.31L1490.31 477.669C1477.42 485.697 1464.22 486.12 1455.71 472.459C1447.21 458.797 1453.41 447.138 1466.31 439.11L1512.02 410.653C1524.91 402.625 1538.11 402.202 1546.62 415.863ZM1488.51 523.439L1484.86 517.566L1568.87 465.263L1557.5 447.005L1562.86 443.666L1589.25 486.056L1583.89 489.394L1572.52 471.136L1488.51 523.439ZM1526.85 536.365L1572.56 507.908C1585.59 499.801 1598.9 499.84 1607.32 513.374C1615.91 527.163 1610.07 539.126 1597.05 547.233L1551.34 575.69C1538.31 583.798 1525 583.758 1516.42 569.969C1507.99 556.435 1513.83 544.473 1526.85 536.365ZM1576.6 513.543L1530.13 542.477C1520.42 548.518 1515.66 556.799 1521.78 566.631C1527.98 576.59 1537.59 576.096 1547.3 570.055L1593.77 541.122C1603.48 535.081 1608.16 526.671 1601.96 516.712C1595.84 506.881 1586.31 507.502 1576.6 513.543ZM1596.16 607.285L1590.36 597.964C1584 587.75 1576.63 583.305 1564.75 590.697L1550.71 599.441C1545.86 602.462 1542.43 604.066 1538.79 604.203L1534.98 598.074C1539.11 598.161 1543.35 595.873 1547.05 593.568L1560.97 584.904C1570.67 578.863 1579.49 578.511 1587.26 586.433C1583.82 576.351 1587.27 568.529 1597.74 562.011L1605.53 557.162C1618.17 549.293 1629.12 550.094 1637.63 563.755L1649.23 582.396L1559.86 638.038L1556.2 632.165L1596.16 607.285ZM1640.21 579.862L1632.34 567.221C1626.3 557.518 1618.25 557.392 1608.68 563.354L1600.25 568.6C1588.25 576.072 1589.13 584.028 1595.64 594.498L1601.53 603.946L1640.21 579.862ZM1597.28 724.893L1593.7 719.147L1605.7 711.675L1566.2 648.219L1655.57 592.578L1659.23 598.451L1575.21 650.754L1588.89 672.715L1672.9 620.412L1676.56 626.285L1592.54 678.588L1606.37 700.804L1690.31 648.373L1693.96 654.246L1609.95 706.549L1614.64 714.083L1597.28 724.893ZM1666.76 702.757L1681.95 727.144L1676.58 730.482L1661.4 706.096L1624.12 729.306L1642.4 758.672L1637.04 762.011L1615.1 726.771L1704.47 671.13L1726.41 706.369L1721.05 709.708L1702.77 680.342L1666.76 702.757ZM1694.63 747.52L1709.81 771.906L1704.45 775.245L1689.27 750.858L1651.99 774.069L1670.27 803.435L1664.91 806.773L1642.97 771.534L1732.34 715.892L1754.28 751.132L1748.92 754.47L1730.64 725.104L1694.63 747.52Z" fill="black"/>
<path d="M1452.45 512.634C1452.31 511.321 1451.23 510.305 1449.91 510.244L815.678 481.214C813.613 481.12 812.23 483.308 813.203 485.132L1022.46 877.724C1022.74 878.26 1023.2 878.682 1023.76 878.921L1507.83 1086.21C1509.7 1087.02 1511.74 1085.51 1511.53 1083.49L1452.45 512.634Z" fill="white"/>
<path d="M1123.6 807.643L1093.49 794.664L1054.31 885.543L1047.96 882.804L1089.64 786.124L1132.59 804.641L1090.91 901.32L1084.42 898.522L1123.6 807.643ZM1143.59 809.382L1163.61 818.015C1178.53 824.445 1180.28 836.337 1174.21 850.425L1169.68 860.921C1163.07 876.252 1152.76 880.812 1137.43 874.203L1125.41 869.023L1108.26 908.8L1101.91 906.061L1143.59 809.382ZM1127.91 863.222L1139.93 868.402C1151.11 873.225 1158.09 870.337 1163.15 858.597L1168.03 847.272C1172.56 836.775 1171.88 828.46 1161.11 823.816L1147.44 817.921L1127.91 863.222ZM1161.98 903.952L1183.3 854.508C1189.37 840.42 1200.33 832.86 1214.97 839.171C1229.89 845.601 1231.91 858.758 1225.84 872.846L1204.52 922.29C1198.45 936.378 1187.49 943.938 1172.58 937.508C1157.94 931.197 1155.91 918.04 1161.98 903.952ZM1189.83 856.832L1168.16 907.106C1163.63 917.602 1164.44 927.123 1175.08 931.707C1185.85 936.351 1193.47 930.463 1197.99 919.966L1219.66 869.693C1224.19 859.196 1223.24 849.616 1212.47 844.972C1201.83 840.387 1194.36 846.336 1189.83 856.832ZM1246.5 853.745L1252.85 856.484L1213.67 947.362L1237.57 957.662L1276.74 866.784L1283.1 869.523L1243.92 960.401L1267.81 970.701L1306.99 879.823L1313.34 882.562L1271.67 979.241L1204.82 950.424L1246.5 853.745ZM1364.77 911.609L1341.15 901.428L1309.67 967.618C1303.46 980.5 1296.79 989.906 1282.44 984.05L1281.2 983.514L1283.7 977.713C1294.61 982.417 1298.81 974.566 1303.26 965.017L1337.71 893.067L1373.76 908.607L1332.08 1005.29L1325.59 1002.49L1364.77 911.609ZM1353.1 986.341L1374.42 936.897C1380.49 922.809 1391.45 915.249 1406.09 921.56C1421.01 927.99 1423.03 941.147 1416.96 955.235L1395.64 1004.68C1389.57 1018.77 1378.61 1026.33 1363.7 1019.9C1349.06 1013.59 1347.03 1000.43 1353.1 986.341ZM1380.95 939.221L1359.28 989.494C1354.75 999.991 1355.56 1009.51 1366.2 1014.1C1376.97 1018.74 1384.59 1012.85 1389.11 1002.35L1410.78 952.081C1415.31 941.585 1414.36 932.005 1403.59 927.361C1392.95 922.776 1385.48 928.724 1380.95 939.221ZM1424.68 983.621L1451.06 994.993L1448.56 1000.79L1422.18 989.422L1404.79 1029.75L1436.56 1043.45L1434.06 1049.25L1395.94 1032.81L1437.62 936.134L1475.74 952.566L1473.24 958.367L1441.47 944.673L1424.68 983.621Z" fill="black"/>
<path d="M522.81 100.005C524.388 99.1061 526.384 100.013 526.744 101.794L701.429 965.309C701.96 967.937 698.717 969.618 696.876 967.669L481.905 740.081C481.547 739.702 481.087 739.437 480.58 739.317L78.9596 644.471C77.4481 644.114 76.5602 642.546 77.0317 641.066L188.472 291.335C188.675 290.697 189.111 290.159 189.693 289.827L522.81 100.005Z" fill="#F5DA24"/>
<path d="M221.052 528.023L232.065 536.647C238.775 541.902 242.648 547.608 243.683 553.768C244.7 559.786 242.706 565.992 237.699 572.387C232.691 578.781 227.113 582.245 220.965 582.779C214.799 583.172 208.361 580.741 201.651 575.487L158.548 541.735C151.838 536.48 147.973 530.844 146.956 524.825C145.921 518.666 147.907 512.389 152.914 505.995C157.921 499.6 163.508 496.207 169.674 495.814C175.822 495.28 182.252 497.64 188.962 502.895L197.014 509.2L187.371 521.515L178.489 514.561C175.49 512.212 172.903 511.205 170.73 511.541C168.54 511.736 166.641 512.86 165.033 514.912C163.426 516.965 162.76 519.117 163.034 521.369C163.29 523.481 164.919 525.711 167.919 528.06L212.679 563.11C215.679 565.46 218.235 566.506 220.346 566.249C222.519 565.913 224.41 564.719 226.017 562.666C227.624 560.614 228.299 558.532 228.042 556.42C227.847 554.23 226.25 551.96 223.25 549.611L211.409 540.339L221.052 528.023ZM220.389 493.742L234.391 475.861L246.232 485.134L232.231 503.015L256.506 522.024L274.124 499.525L285.965 508.797L258.147 544.322L175.257 479.413L203.075 443.889L214.916 453.162L197.298 475.66L220.389 493.742ZM292.378 500.607L209.488 435.699L236.379 401.359L248.22 410.631L231.53 431.946L302.578 487.582L292.378 500.607ZM316.453 430.588C319.453 432.937 322.048 434.014 324.238 433.819C326.412 433.483 328.302 432.289 329.909 430.237C331.516 428.184 332.192 426.102 331.935 423.991C331.661 421.738 330.024 419.438 327.024 417.089L282.263 382.038C279.264 379.689 276.677 378.683 274.504 379.018C272.313 379.213 270.415 380.337 268.807 382.39C267.2 384.442 266.533 386.595 266.807 388.847C267.064 390.958 268.693 393.188 271.693 395.537L316.453 430.588ZM262.322 409.212C255.611 403.958 251.809 398.242 250.915 392.066C249.942 385.828 251.959 379.511 256.966 373.117C261.973 366.723 267.622 363.25 273.911 362.699C280.122 362.086 286.582 364.407 293.292 369.662L336.395 403.414C343.105 408.669 346.947 414.415 347.92 420.653C348.814 426.829 346.758 433.115 341.751 439.509C336.743 445.904 331.135 449.407 324.924 450.02C318.634 450.571 312.135 448.219 305.424 442.965L262.322 409.212ZM403.535 381.588L392.404 372.872L370.613 400.699L381.744 409.415L371.823 422.086L349.087 404.282L353.074 399.19C352.519 396.972 351.567 395.017 350.218 393.324C348.931 391.552 347.126 389.629 344.802 387.555L286.611 337.211L315.17 300.74L386.456 356.561L390.907 350.877L413.642 368.681L403.535 381.588ZM354.58 374.581C357.614 377.211 359.673 379.461 360.757 381.329C361.904 383.117 362.557 384.966 362.718 386.875L376.07 369.824L316.626 323.275L308.003 334.287L354.58 374.581ZM418.394 339.682L408.194 352.708L325.304 287.799L335.503 274.774L371.028 302.592L382.619 287.79L347.094 259.972L357.48 246.71L440.37 311.618L429.984 324.88L394.46 297.063L382.869 311.864L418.394 339.682ZM445.911 304.542C444.827 302.674 443.596 301.074 442.22 299.741C440.765 298.347 439.011 296.846 436.958 295.239L424.17 285.225C419.828 281.825 416.621 278.358 414.548 274.825C412.458 271.151 412.041 267.131 413.295 262.764C406.16 266.346 398.33 264.799 389.804 258.123L383.291 253.023C376.897 248.016 373.295 242.776 372.486 237.303C371.74 231.752 374.024 225.581 379.341 218.792L394.733 199.136L477.623 264.044L467.423 277.07L433.675 250.643L430.152 255.142C427.803 258.142 426.892 260.931 427.42 263.51C427.948 266.088 430.146 268.892 434.014 271.921L447.04 282.121C448.698 283.419 450.048 284.54 451.092 285.485C452.197 286.35 453.043 287.14 453.63 287.854C454.278 288.489 454.778 289.071 455.128 289.6C455.478 290.129 455.867 290.689 456.296 291.279L445.911 304.542ZM391.46 227.71C389.667 229.999 389.009 232.222 389.486 234.378C390.024 236.455 391.794 238.668 394.793 241.017L402.964 247.415C406.28 250.012 409.094 251.133 411.408 250.781C413.784 250.349 415.93 248.909 417.847 246.462L421.834 241.37L396.375 221.434L391.46 227.71Z" fill="black"/>
<path d="M491.291 583.963L416.629 767.845L507.619 944.218L323.738 869.556L147.364 960.546L222.026 776.665L131.037 600.291L314.918 674.953L491.291 583.963Z" fill="white"/>
<path d="M645.927 66.4592L679.887 114.412L738.396 119.846L690.443 153.806L685.009 212.314L651.049 164.361L592.541 158.927L640.493 124.967L645.927 66.4592Z" fill="white"/>
<path d="M1061.42 927.988L1054.82 986.376L1094.85 1029.39L1036.46 1022.79L993.442 1062.82L1000.04 1004.43L960.012 961.417L1018.4 968.016L1061.42 927.988Z" fill="#F5DA24"/>
<path d="M112.363 710.448L136.04 764.226L192.278 781.258L138.499 804.935L121.467 861.173L97.7898 807.395L41.5524 790.363L95.3307 766.685L112.363 710.448Z" fill="#F5DA24"/>
<path d="M1699.83 807.477L1711.9 894.984L1786.18 942.784L1698.67 954.851L1650.87 1029.14L1638.81 941.629L1564.52 893.829L1652.03 881.761L1699.83 807.477Z" fill="white"/>
<path d="M240.663 796.165L226.007 758.719C221.79 747.945 223.677 738.281 234.869 733.901C246.061 729.52 254.006 735.336 258.223 746.11L272.879 783.556C277.054 794.225 275.209 803.994 264.017 808.374C252.825 812.755 244.838 806.834 240.663 796.165ZM230.695 756.522L245.556 794.491C248.708 802.545 254.243 807.134 262.297 803.981C270.351 800.829 271.301 793.702 268.149 785.648L253.288 747.679C250.177 739.73 244.642 735.142 236.588 738.294C228.534 741.446 227.584 748.573 230.695 756.522ZM274.497 718.391C285.689 714.01 293.361 720.054 297.537 730.723L298.233 732.501C301.058 739.718 299.857 746.822 294.441 751.475C301.809 750.883 307.157 755.303 309.982 762.521L312.193 768.169C316.369 778.838 314.837 788.484 303.645 792.865C292.453 797.245 284.78 791.201 280.604 780.532L278.967 776.348L283.569 774.547L285.288 778.94C288.4 786.89 293.767 791.665 301.821 788.512C309.875 785.36 310.615 778.315 307.34 769.948L305.13 764.299C302.141 756.664 296.656 753.744 289.421 756.214L284.505 758.138L282.785 753.745L287.911 751.739C294.337 748.742 296.533 742.334 293.79 735.326L292.766 732.711C289.491 724.343 284.165 719.673 276.111 722.825C268.057 725.977 267.316 733.022 270.428 740.971L271.574 743.9L266.972 745.701L265.948 743.086C261.773 732.417 263.305 722.771 274.497 718.391ZM323.742 773.66L328.449 771.818L332.052 781.023L327.345 782.865L323.742 773.66ZM327.311 697.72C338.712 693.257 346.217 699.487 350.392 710.156C358.662 731.285 335.064 748.965 343.184 770.635L343.511 771.471L369.661 761.237L371.38 765.63L340.419 777.748L339.027 774.191C328.916 748.356 353.523 732.332 345.663 712.249C342.347 703.776 337.189 698.92 328.821 702.195C320.767 705.347 320.295 712.769 323.365 720.614L325.33 725.635L320.728 727.436L318.886 722.729C314.751 712.165 316.015 702.141 327.311 697.72ZM366.53 682.37C377.722 677.989 385.395 684.033 389.571 694.702L390.267 696.48C393.092 703.697 391.891 710.801 386.475 715.454C393.843 714.862 399.191 719.282 402.016 726.5L404.227 732.148C408.403 742.817 406.871 752.463 395.679 756.844C384.487 761.224 376.814 755.18 372.638 744.511L371.001 740.327L375.603 738.526L377.322 742.919C380.434 750.869 385.801 755.644 393.855 752.491C401.909 749.339 402.649 742.294 399.374 733.927L397.164 728.278C394.175 720.643 388.69 717.723 381.455 720.193L376.539 722.117L374.819 717.724L379.945 715.718C386.37 712.721 388.567 706.313 385.824 699.305L384.8 696.69C381.525 688.322 376.199 683.652 368.145 686.804C360.091 689.956 359.35 697.001 362.462 704.95L363.608 707.879L359.006 709.68L357.982 707.065C353.807 696.396 355.338 686.75 366.53 682.37Z" fill="black"/>
<path d="M534.77 235.638C534.902 234.323 535.978 233.303 537.298 233.241L1152.1 204.231C1154.21 204.131 1155.6 206.41 1154.53 208.237L915.438 618.809C915.154 619.298 914.72 619.684 914.202 619.91L481.177 809.174C479.308 809.991 477.252 808.494 477.455 806.465L534.77 235.638Z" fill="white"/>
<path d="M537.777 580.666L535.148 606.401L629.26 616.014L628.068 627.685L523.333 616.987L528.345 567.911L633.081 578.609L631.889 590.279L537.777 580.666ZM617.122 526.151L614.417 552.634L635.101 558.828L634.001 569.601L531.313 538.854L533.04 521.947L639.823 512.595L638.631 524.266L617.122 526.151ZM545.275 532.418L604.545 550.114L606.929 526.773L545.275 532.418ZM562.156 439.673L644.547 464.869L643.401 476.091L558.289 484.935L641.778 493.462L640.738 503.637L536.003 492.939L537.669 476.63L623.065 467.967L541.123 442.816L542.789 426.507L647.524 437.205L646.393 448.277L562.156 439.673ZM607.623 385.289L606.783 393.519C605.789 403.244 608.964 409.162 620.784 410.369L637.243 412.05C644.275 412.769 646.907 413.642 649.762 415.295L648.555 427.115C645.147 424.952 640.839 424.21 636.2 423.736L619.892 422.07C608.67 420.924 601.256 416.539 599.376 406.822C595.632 415.359 588.037 418.666 576.517 417.489L567.988 416.618C552.428 415.028 544.752 407.29 546.433 390.831L548.817 367.49L653.552 378.188L652.36 389.859L607.623 385.289ZM558.248 380.246L557.087 391.617C556.2 400.295 560.786 404.241 570.212 405.204L580.237 406.228C591.608 407.389 595.166 402.159 596.098 393.032L597 384.204L558.248 380.246ZM657.595 338.605L656.403 350.276L562.291 340.663L560.32 359.964L549.697 358.879L554.832 308.606L565.455 309.691L563.483 328.992L657.595 338.605ZM598.207 292.465L599.261 282.141C600.958 265.533 610.43 258.639 627.038 260.336L639.606 261.62C655.466 263.24 664.458 271.415 662.792 287.723L660.454 310.616L555.719 299.918L556.911 288.247L598.207 292.465ZM651.023 297.86L652.169 286.638C653.04 278.11 648.604 274.18 639.028 273.202L625.113 271.78C614.939 270.741 610.621 274.533 609.735 283.211L608.68 293.535L651.023 297.86Z" fill="black"/>
<path d="M1010.43 180.472L1156.71 383.96L1406.39 405.378L1202.91 551.651L1181.49 801.339L1035.22 597.851L785.528 576.434L989.016 430.161L1010.43 180.472Z" fill="black"/>
<path d="M1021.92 558.663L1001.55 470.57C998.119 473.955 993.318 477.009 987.701 478.632L985.425 468.793C997.003 465.629 999.542 458.401 1000.57 450.228L1008.87 448.307L1033.76 555.925L1021.92 558.663ZM1073.87 546.647L1053.49 458.555C1050.07 461.939 1045.27 464.993 1039.65 466.616L1037.37 456.777C1048.95 453.613 1051.49 446.385 1052.51 438.212L1060.82 436.292L1085.71 543.909L1073.87 546.647ZM1100.38 524.804L1111.91 522.137L1115.36 537.049L1103.83 539.717L1100.38 524.804ZM1149.69 529.11L1129.31 441.017C1125.88 444.402 1121.08 447.456 1115.47 449.079L1113.19 439.24C1124.77 436.076 1127.31 428.848 1128.33 420.675L1136.63 418.754L1161.53 526.371L1149.69 529.11ZM1172.68 496.257L1159.85 440.757C1156.04 424.307 1161.74 411.815 1178.19 408.01C1194.79 404.169 1205.39 412.892 1209.2 429.342L1222.03 484.842C1225.84 501.292 1220.18 513.938 1203.58 517.779C1187.13 521.584 1176.49 512.707 1172.68 496.257ZM1171.54 437.404L1184.7 494.287C1186.94 503.973 1192.44 508.855 1201.05 506.863C1209.81 504.837 1212.46 498.07 1210.22 488.384L1197.06 431.501C1194.79 421.662 1189.44 416.744 1180.67 418.771C1172.07 420.763 1169.27 427.565 1171.54 437.404Z" fill="white"/>
</g>
<defs>
<clipPath id="clip0_1231_4549">
<rect width="1811" height="1085" fill="white"/>
</clipPath>
</defs>
</svg>
