<svg width="186" height="186" viewBox="0 0 186 186" fill="none" xmlns="http://www.w3.org/2000/svg">
<path d="M90.1567 2.49309C90.7829 -0.279054 94.7328 -0.279053 95.3589 2.49309L106.835 53.2995C107.241 55.0961 109.303 55.9501 110.86 54.9667L154.901 27.1562C157.304 25.6387 160.097 28.4317 158.579 30.8347L130.769 74.8753C129.785 76.4327 130.639 78.4944 132.436 78.9003L183.243 90.3767C186.015 91.0028 186.015 94.9527 183.243 95.5789L132.436 107.055C130.639 107.461 129.785 109.523 130.769 111.08L158.579 155.121C160.097 157.524 157.304 160.317 154.901 158.799L110.86 130.989C109.303 130.005 107.241 130.859 106.835 132.656L95.3589 183.462C94.7328 186.235 90.7829 186.235 90.1567 183.462L78.6803 132.656C78.2745 130.859 76.2127 130.005 74.6553 130.989L30.6148 158.799C28.2118 160.317 25.4188 157.524 26.9362 155.121L54.7467 111.08C55.7302 109.523 54.8762 107.461 53.0795 107.055L2.27312 95.5789C-0.499025 94.9527 -0.499024 91.0028 2.27312 90.3767L53.0795 78.9003C54.8762 78.4944 55.7302 76.4327 54.7467 74.8753L26.9362 30.8347C25.4188 28.4317 28.2118 25.6387 30.6148 27.1562L74.6553 54.9667C76.2127 55.9501 78.2745 55.0961 78.6803 53.2995L90.1567 2.49309Z" fill="black"/>
</svg>
