<svg width="451" height="479" viewBox="0 0 451 479" fill="none" xmlns="http://www.w3.org/2000/svg">
<ellipse cx="424" cy="181" rx="27" ry="48" fill="#F5DA24"/>
<ellipse cx="209" cy="306" rx="27" ry="48" fill="#F5DA24"/>
<ellipse cx="93" cy="306" rx="27" ry="48" fill="#F5DA24"/>
<ellipse cx="208" cy="431" rx="27" ry="48" fill="#F5DA24"/>
<ellipse cx="384" cy="431" rx="27" ry="48" fill="#F5DA24"/>
<path d="M41.074 132.88C41.6193 130.932 44.3807 130.932 44.926 132.88L70.002 222.461C70.359 223.736 69.4004 225 68.0761 225H17.9239C16.5996 225 15.641 223.736 15.998 222.461L41.074 132.88Z" fill="#F5DA24"/>
<path d="M402.074 257.88C402.619 255.932 405.381 255.932 405.926 257.88L431.002 347.461C431.359 348.736 430.4 350 429.076 350H378.924C377.6 350 376.641 348.736 376.998 347.461L402.074 257.88Z" fill="#F5DA24"/>
<path d="M92.074 7.88023C92.6193 5.9324 95.3807 5.9324 95.926 7.88023L121.002 97.4609C121.359 98.7362 120.4 100 119.076 100H68.9239C67.5996 100 66.641 98.7361 66.998 97.4609L92.074 7.88023Z" fill="#F5DA24"/>
<rect x="164" y="137" width="42" height="88" fill="#F5DA24"/>
<path d="M351.899 256.515C352.525 253.743 356.475 253.743 357.101 256.515L359.734 268.172C360.14 269.968 362.202 270.822 363.759 269.839L373.863 263.458C376.266 261.941 379.059 264.734 377.542 267.137L371.161 277.241C370.178 278.798 371.032 280.86 372.828 281.266L384.485 283.899C387.257 284.525 387.257 288.475 384.485 289.101L372.828 291.734C371.032 292.14 370.178 294.202 371.161 295.759L377.542 305.863C379.059 308.266 376.266 311.059 373.863 309.542L363.759 303.161C362.202 302.178 360.14 303.032 359.734 304.828L357.101 316.485C356.475 319.257 352.525 319.257 351.899 316.485L349.266 304.828C348.86 303.032 346.798 302.178 345.241 303.161L335.137 309.542C332.734 311.059 329.941 308.266 331.458 305.863L337.839 295.759C338.822 294.202 337.968 292.14 336.172 291.734L324.515 289.101C321.743 288.475 321.743 284.525 324.515 283.899L336.172 281.266C337.968 280.86 338.822 278.798 337.839 277.241L331.458 267.137C329.941 264.734 332.734 261.941 335.137 263.458L345.241 269.839C346.798 270.822 348.86 269.968 349.266 268.172L351.899 256.515Z" fill="#F5DA24"/>
<path d="M38.8989 381.515C39.5251 378.743 43.4749 378.743 44.1011 381.515L46.7341 393.172C47.1399 394.968 49.2017 395.822 50.7591 394.839L60.8631 388.458C63.2661 386.941 66.0591 389.734 64.5417 392.137L58.1612 402.241C57.1778 403.798 58.0318 405.86 59.8284 406.266L71.4847 408.899C74.2568 409.525 74.2568 413.475 71.4847 414.101L59.8284 416.734C58.0318 417.14 57.1778 419.202 58.1612 420.759L64.5416 430.863C66.0591 433.266 63.2661 436.059 60.8631 434.542L50.7591 428.161C49.2017 427.178 47.1399 428.032 46.7341 429.828L44.1011 441.485C43.4749 444.257 39.5251 444.257 38.8989 441.485L36.2659 429.828C35.8601 428.032 33.7983 427.178 32.2409 428.161L22.1369 434.542C19.7339 436.059 16.9409 433.266 18.4583 430.863L24.8388 420.759C25.8222 419.202 24.9682 417.14 23.1716 416.734L11.5153 414.101C8.74318 413.475 8.74317 409.525 11.5153 408.899L23.1716 406.266C24.9682 405.86 25.8222 403.798 24.8388 402.241L18.4584 392.137C16.9409 389.734 19.7339 386.941 22.1369 388.458L32.2409 394.839C33.7983 395.822 35.8601 394.968 36.2659 393.172L38.8989 381.515Z" fill="#F5DA24"/>
<path d="M242.899 11.5153C243.525 8.74318 247.475 8.74317 248.101 11.5153L250.734 23.1716C251.14 24.9682 253.202 25.8222 254.759 24.8388L264.863 18.4584C267.266 16.9409 270.059 19.7339 268.542 22.1369L262.161 32.2409C261.178 33.7983 262.032 35.8601 263.828 36.2659L275.485 38.8989C278.257 39.5251 278.257 43.4749 275.485 44.1011L263.828 46.7341C262.032 47.1399 261.178 49.2017 262.161 50.7591L268.542 60.8631C270.059 63.2661 267.266 66.0591 264.863 64.5417L254.759 58.1612C253.202 57.1778 251.14 58.0318 250.734 59.8284L248.101 71.4847C247.475 74.2568 243.525 74.2568 242.899 71.4847L240.266 59.8284C239.86 58.0318 237.798 57.1778 236.241 58.1612L226.137 64.5416C223.734 66.0591 220.941 63.2661 222.458 60.8631L228.839 50.7591C229.822 49.2017 228.968 47.1399 227.172 46.7341L215.515 44.1011C212.743 43.4749 212.743 39.5251 215.515 38.8989L227.172 36.2659C228.968 35.8601 229.822 33.7983 228.839 32.2409L222.458 22.1369C220.941 19.7339 223.734 16.9409 226.137 18.4583L236.241 24.8388C237.798 25.8222 239.86 24.9682 240.266 23.1716L242.899 11.5153Z" fill="#F5DA24"/>
</svg>
