<svg width="642" height="520" viewBox="0 0 642 520" fill="none" xmlns="http://www.w3.org/2000/svg">
<g clip-path="url(#clip0_595_2340)">
<path d="M35.4434 170.621L11.605 544.901H168.225L137.644 170.621H35.4434Z" fill="white"/>
<rect x="21.8198" y="149.75" width="131.193" height="20.8716" rx="3.22033" fill="white"/>
<rect x="37.7222" y="46.3848" width="98.3946" height="51.682" fill="white"/>
<circle cx="87.417" cy="83.1587" r="24.8471" fill="black"/>
<rect x="11.8809" y="98.0674" width="151.071" height="51.682" rx="3.22033" fill="white"/>
<path d="M84.4269 2.24231C85.597 1.31842 87.2482 1.31842 88.4182 2.24231L137.673 41.1344C140.07 43.0273 138.732 46.8822 135.677 46.8822H37.1678C34.1134 46.8822 32.775 43.0273 35.1721 41.1344L84.4269 2.24231Z" fill="white"/>
<path d="M139.126 181.574C112.041 219.288 56.6643 232.924 30.9438 236.416L27.7207 287.524C72.443 289.32 122.74 260.978 144.261 245.763L139.126 181.574Z" fill="black"/>
<rect x="99.3433" y="294.856" width="21.8655" height="36.7738" rx="3.22033" fill="white"/>
</g>
<path d="M422.505 316.259C430.91 316.259 439.025 316.259 439.025 316.259V519.14H393.232V389.876C376.422 424.076 368.017 467.26 368.017 496.243H325.412C325.412 467.26 317.297 424.076 300.487 389.876V519.14H254.694V316.259C254.694 316.259 262.809 316.259 270.924 316.259C308.022 316.259 332.078 353.647 346.86 394.223C361.641 353.647 385.697 316.259 422.505 316.259Z" fill="white"/>
<path d="M214.275 316.549H260.068L210.507 519.429H164.714L177.756 465.521C125.007 413.931 120.66 320.896 120.66 316.549H167.612C168.482 337.996 174.278 377.413 191.958 408.425L214.275 316.549Z" fill="white"/>
<path d="M80.3269 316.549H126.12V519.429H80.3269V426.684L46.127 467.26V519.429H0.333984V316.549H46.127V406.686L80.3269 366.109V316.549Z" fill="white"/>
<path d="M557.414 136.565C557.414 139.173 557.124 162.359 546.69 186.125C544.661 191.342 542.053 196.269 539.154 200.327C556.834 239.744 557.414 286.986 557.414 293.362V316.549H438.874V113.668H557.414V136.565ZM507.273 159.751H484.667V192.791C500.028 185.546 507.273 170.764 507.273 159.751ZM484.667 270.176H509.302C509.302 257.134 506.694 242.932 502.056 229.89C496.55 231.918 490.753 233.368 484.667 234.237V270.176Z" fill="white"/>
<path d="M438.731 316.259H392.938L389.749 285.247C370.911 305.245 345.406 316.259 318.741 316.259H295.845V293.362C295.845 249.018 318.162 159.751 372.939 113.378H418.732L438.731 316.259ZM343.087 265.539C365.694 256.844 384.243 228.73 380.765 193.081L379.026 175.691C360.767 202.066 348.304 237.135 343.087 265.539Z" fill="white"/>
<path d="M252.615 113.669H298.408V316.55H252.615V233.079L218.415 229.021V316.55H172.622V113.669H218.415V182.649L252.615 186.706V113.669Z" fill="white"/>
<path d="M539.738 316.259L567.136 390.301L641.178 417.699L567.136 445.097L539.738 519.139L512.34 445.097L438.297 417.699L512.34 390.301L539.738 316.259Z" fill="black"/>
<defs>
<clipPath id="clip0_595_2340">
<rect width="156.186" height="317.202" fill="white" transform="translate(11.605 0.666748)"/>
</clipPath>
</defs>
</svg>
