<svg width="641" height="519" viewBox="0 0 641 519" fill="none" xmlns="http://www.w3.org/2000/svg">
<g clip-path="url(#clip0_654_487)">
<path d="M34.8963 170L11 544H168L137.345 170H34.8963Z" fill="black"/>
<rect x="21" y="149" width="131" height="21" rx="3.22033" fill="black"/>
<rect x="37" y="46" width="98" height="52" fill="black"/>
<circle cx="87" cy="83" r="25" fill="white"/>
<rect x="11" y="97" width="151" height="52" rx="3.22033" fill="black"/>
<path d="M83.4953 1.59469C84.6688 0.661223 86.3312 0.661219 87.5047 1.59469L136.74 40.7594C139.126 42.6573 137.784 46.5 134.735 46.5H36.2647C33.2161 46.5 31.8741 42.6573 34.2599 40.7595L83.4953 1.59469Z" fill="black"/>
<path d="M138.845 181C111.653 218.703 56.0577 232.334 30.2358 235.825L27 286.919C71.8985 288.714 122.394 260.38 144 245.169L138.845 181Z" fill="white"/>
<rect x="99" y="294" width="22" height="37" rx="3.22033" fill="black"/>
</g>
<path d="M421.509 316C429.899 316 438 316 438 316V519H392.289V389.66C375.509 423.88 367.12 467.09 367.12 496.09H324.591C324.591 467.09 316.491 423.88 299.711 389.66V519H254V316C254 316 262.101 316 270.201 316C307.233 316 331.245 353.41 346 394.01C360.755 353.41 384.767 316 421.509 316Z" fill="black"/>
<path d="M213.341 316H259L209.584 519H163.925L176.929 465.06C124.335 413.44 120 320.35 120 316H166.815C167.682 337.46 173.462 376.9 191.089 407.93L213.341 316Z" fill="black"/>
<path d="M80.129 316H126V519H80.129V426.2L45.871 466.8V519H0V316H45.871V406.19L80.129 365.59V316Z" fill="black"/>
<path d="M557 135.91C557 138.52 556.709 161.72 546.235 185.5C544.198 190.72 541.579 195.65 538.67 199.71C556.418 239.15 557 286.42 557 292.8V316H438V113H557V135.91ZM506.665 159.11H483.971V192.17C499.391 184.92 506.665 170.13 506.665 159.11ZM483.971 269.6H508.702C508.702 256.55 506.083 242.34 501.428 229.29C495.9 231.32 490.081 232.77 483.971 233.64V269.6Z" fill="black"/>
<path d="M438 316H392.17L388.98 284.97C370.126 304.98 344.6 316 317.915 316H295V293.09C295 248.72 317.335 159.4 372.156 113H417.986L438 316ZM342.28 265.25C364.905 256.55 383.469 228.42 379.988 192.75L378.247 175.35C359.974 201.74 347.501 236.83 342.28 265.25Z" fill="black"/>
<path d="M252.129 113H298V316H252.129V232.48L217.871 228.42V316H172V113H217.871V182.02L252.129 186.08V113Z" fill="black"/>
<path d="M539.5 316L566.914 390.086L641 417.5L566.914 444.914L539.5 519L512.086 444.914L438 417.5L512.086 390.086L539.5 316Z" fill="white"/>
<defs>
<clipPath id="clip0_654_487">
<rect width="156" height="317" fill="white" transform="translate(11)"/>
</clipPath>
</defs>
</svg>
