<svg width="1920" height="923" viewBox="0 0 1920 923" fill="none" xmlns="http://www.w3.org/2000/svg">
<g clip-path="url(#clip0_654_507)">
<ellipse cx="365" cy="405" rx="378" ry="376" fill="#F5DA24"/>
<path d="M1052.45 0L587 375.295V456.6L1109.13 923H1950L1922.66 0H1052.45Z" fill="#F5DA24"/>
<path d="M245.208 678.896C71.0197 597.55 41.667 341.936 113.43 229.396C69.5863 324.907 98.1873 401.145 117.968 427.325C186.078 546.414 309.605 525.847 362.855 500.678C349.772 528.606 393.826 564.534 420.237 534.192C441.365 509.919 420.792 478.67 400.145 478.994C416.368 470.676 449.388 426.022 461.455 405.172C477.493 370.61 487.81 330.584 469.154 263.214C408.926 101.535 240.616 138.095 168.05 173.096C355.815 42.5068 516.308 135.751 578.694 193.057C627.549 237.932 706.08 387.085 643.03 530.915C569.494 698.667 379.315 741.523 245.208 678.896Z" fill="white"/>
</g>
<defs>
<clipPath id="clip0_654_507">
<rect width="1920" height="923" fill="white"/>
</clipPath>
</defs>
</svg>
