<svg width="1125" height="1048" viewBox="0 0 1125 1048" fill="none" xmlns="http://www.w3.org/2000/svg">
<g clip-path="url(#clip0_1325_4808)">
<rect width="1128.08" height="1048" fill="black"/>
<ellipse cx="564.038" cy="341.326" rx="313.799" ry="316.302" fill="white"/>
<path d="M537.513 229.348L0 25.0239V552.527L537.513 268.076V229.348Z" fill="#F5DA24"/>
<path d="M587.56 229.348L1124.07 25.0239V552.527L587.56 268.076V229.348Z" fill="#F5DA24"/>
<path d="M935.393 141.135L960.328 251.829L1071.02 276.764L960.328 301.699L935.393 412.393L910.457 301.699L799.763 276.764L910.457 251.829L935.393 141.135Z" fill="white"/>
<path d="M190.682 141.135L215.617 251.829L326.311 276.764L215.617 301.699L190.682 412.393L165.746 301.699L55.0522 276.764L165.746 251.829L190.682 141.135Z" fill="white"/>
<path d="M-113.485 903.165C-113.485 903.165 47.2997 869.97 115.351 905.425C183.402 940.881 270.138 1105.38 423.174 953.819C576.21 802.253 767.481 1010.07 855.737 998.735C943.993 987.404 993.792 873.49 1083.01 903.082C1172.22 932.674 1343.87 919.755 1343.87 919.755L1332.3 1662.3L-113.537 1649.88L-113.485 903.165Z" fill="#F5DA24"/>
<path d="M467.543 410.392L419.4 1202.15H709.677L660.117 410.392H467.543Z" fill="black"/>
<rect x="441.421" y="374.357" width="247.236" height="43.0411" rx="2.66921" fill="black"/>
<rect x="471.45" y="183.175" width="185.177" height="105.1" fill="black"/>
<circle cx="565.54" cy="253.242" r="47.0449" fill="white"/>
<rect x="423.404" y="281.268" width="284.271" height="97.0926" rx="2.66921" fill="black"/>
<path d="M561.882 98.4026C562.852 97.6349 564.223 97.6349 565.194 98.4026L667.607 179.413C669.592 180.983 668.482 184.176 665.951 184.176H461.124C458.594 184.176 457.484 180.983 459.468 179.413L561.882 98.4026Z" fill="black"/>
<ellipse cx="565.039" cy="105.601" rx="33.532" ry="32.531" fill="black"/>
<path d="M666.753 445.425C615.774 516.555 503.246 547.51 454.836 554.096L447.427 651.476C531.601 654.863 635.138 598.317 675.645 569.62L666.753 445.425Z" fill="white"/>
<path d="M678.916 696.665C628.446 768.219 489.908 830.694 441.981 837.319L435.416 935.778C518.75 939.185 648.555 866.187 688.657 837.319L678.916 696.665Z" fill="white"/>
<rect x="587.561" y="651.622" width="41.0392" height="69.0659" rx="2.66921" fill="white"/>
<rect x="499.477" y="952.909" width="39.0373" height="69.0659" rx="2.66921" fill="white"/>
<g clip-path="url(#clip1_1325_4808)">
<rect width="1128.08" height="1048" fill="black"/>
<ellipse cx="564.038" cy="341.326" rx="313.799" ry="316.302" fill="white"/>
<path d="M537.513 229.348L0 25.0239V552.527L537.513 268.076V229.348Z" fill="#F5DA24"/>
<path d="M587.56 229.348L1124.07 25.0239V552.527L587.56 268.076V229.348Z" fill="#F5DA24"/>
<rect x="-1397.33" y="996.951" width="3296.15" height="687.656" fill="#F5DA24"/>
<path d="M-1358.3 935.893C-1199.19 935.893 -1199.19 1056.01 -1040.08 1056.01C-880.973 1056.01 -880.973 935.893 -721.865 935.893C-562.758 935.893 -562.758 1056.01 -404.023 1056.01C-244.91 1056.01 -244.91 935.893 -86.18 935.893C72.9313 935.893 72.9314 1056.01 231.661 1056.01C390.773 1056.01 390.773 935.893 549.872 935.893C708.984 935.893 708.984 1056.01 868.095 1056.01C1027.19 1056.01 1027.19 935.893 1186.31 935.893C1345.42 935.893 1345.42 1056.01 1504.53 1056.01C1663.63 1056.01 1663.63 935.893 1822.74 935.893" stroke="#F5DA24" stroke-width="137.856" stroke-miterlimit="10" stroke-linecap="round"/>
</g>
</g>
<defs>
<clipPath id="clip0_1325_4808">
<rect width="1124.07" height="1048" fill="white"/>
</clipPath>
<clipPath id="clip1_1325_4808">
<rect width="1124.07" height="1048" fill="white"/>
</clipPath>
</defs>
</svg>
