<svg width="1068" height="1068" viewBox="0 0 1068 1068" fill="none" xmlns="http://www.w3.org/2000/svg">
<g clip-path="url(#clip0_1332_122)">
<path d="M1046.69 693L659.676 612.977L673.722 572L1068 646.027L1068 698L1046.69 693Z" fill="black"/>
<path d="M1067.2 329L649 504.072L649.494 586L1068 461.303L1067.2 329Z" fill="black"/>
<path d="M1078 118.5L681.357 484L654.71 449.435L1060.5 77L1078 118.5Z" fill="black"/>
<path d="M664.337 0.999988L578.211 432.751L646.69 479L799.5 1L664.337 0.999988Z" fill="black"/>
<path d="M511.28 34.5053L576.224 419.994L532.254 422L456.5 -3.00001L502 -10.5L511.28 34.5053Z" fill="black"/>
<path d="M68.5 15L477.943 466L555.36 436.351L193 -38L68.5 15Z" fill="black"/>
<path d="M-18 231L456.011 452.127L432.776 489L65.4328 327.529L-48 277.5L-18 231Z" fill="black"/>
<path d="M-0.000427246 632L439.537 558.656L458.991 479L-0.000415969 503L-0.000427246 632Z" fill="black"/>
<path d="M80.5073 761.698L422.629 565L440.115 604.845L-6 883L-5.99999 809L80.5073 761.698Z" fill="black"/>
<path d="M310.862 1044L495.751 643.659L439.83 583L153 1067.5L308.5 1066.5L310.862 1044Z" fill="black"/>
<path d="M469.5 1068L497.106 664L540.458 672.055L520.337 1068L469.5 1068Z" fill="black"/>
<path d="M719 1068L554.367 673.589L596.772 662L767.5 1068L719 1068Z" fill="black"/>
<path d="M1004.42 831.924L627.984 596L559.334 642.29L1071 1027L1071 878L1004.42 831.924Z" fill="black"/>
<path d="M541.948 362C437.971 362 353.682 445.051 353.682 547.5C353.682 649.949 437.971 733 541.948 733C645.924 733 730.214 649.949 730.214 547.5C730.214 445.051 645.924 362 541.948 362Z" fill="#F5DA24"/>
<path d="M329.737 1051L514.627 650.659L458.706 590L175 1067.5L321.5 1067.5L329.737 1051Z" fill="#F5DA24"/>
<path d="M484 1067L515.982 663L559.334 671.055L539.213 1067L484 1067Z" fill="#F5DA24"/>
<path d="M-0.000427246 651L439.537 577.656L458.991 498L-0.000416187 524.5L-0.000427246 651Z" fill="#F5DA24"/>
<path d="M85.475 781.698L427.597 585L445.083 624.845L-2 890L-1.99999 829L85.475 781.698Z" fill="#F5DA24"/>
<path d="M-1.00002 -1.99999L460.06 474L537.478 444.351L129.5 -24.5L-1.00002 -1.99999Z" fill="#F5DA24"/>
<path d="M-28.5 256L448.063 470.127L424.829 507L-33.5 309L-45 285L-28.5 256Z" fill="#F5DA24"/>
<path d="M644.468 -1.19361e-05L558.342 431.751L626.821 478L781 0L644.468 -1.19361e-05Z" fill="#F5DA24"/>
<path d="M490.417 34.5053L555.36 419.994L511.39 422L428.5 -10L482 -5.50001L490.417 34.5053Z" fill="#F5DA24"/>
<path d="M1067.2 312L649 487.072L649.494 569L1068 444.303L1067.2 312Z" fill="#F5DA24"/>
<path d="M1100 70.5L660.496 478L633.845 443.435L1068.5 -14.5L1100 70.5Z" fill="#F5DA24"/>
<path d="M1027.06 824.924L650.802 589L582.185 635.29L1069 998.5L1069 849L1027.06 824.924Z" fill="#F5DA24"/>
<path d="M1068 677.5L659.676 591.977L673.722 551L1068 625.027L1068 673L1068 677.5Z" fill="#F5DA24"/>
<path d="M733 1074L574.236 673.589L616.641 662L791 1067.5L733 1074Z" fill="#F5DA24"/>
</g>
<defs>
<clipPath id="clip0_1332_122">
<rect width="1068" height="1068" fill="white" transform="translate(1068 1068) rotate(-180)"/>
</clipPath>
</defs>
</svg>
